G04 #@! TF.GenerationSoftware,KiCad,Pcbnew,5.99.0+really5.1.10+dfsg1-1*
G04 #@! TF.CreationDate,2021-12-28T19:21:21+02:00*
G04 #@! TF.ProjectId,components_main_board,636f6d70-6f6e-4656-9e74-735f6d61696e,V0.1*
G04 #@! TF.SameCoordinates,Original*
G04 #@! TF.FileFunction,Legend,Top*
G04 #@! TF.FilePolarity,Positive*
%FSLAX46Y46*%
G04 Gerber Fmt 4.6, Leading zero omitted, Abs format (unit mm)*
G04 Created by KiCad (PCBNEW 5.99.0+really5.1.10+dfsg1-1) date 2021-12-28 19:21:21*
%MOMM*%
%LPD*%
G01*
G04 APERTURE LIST*
%ADD10C,0.100000*%
%ADD11C,0.175000*%
%ADD12C,0.120000*%
%ADD13C,0.200000*%
%ADD14C,0.127000*%
%ADD15C,0.249999*%
%ADD16C,0.150000*%
%ADD17C,0.125000*%
G04 APERTURE END LIST*
D10*
X238622000Y-112169133D02*
X238602952Y-112207228D01*
X238602952Y-112264371D01*
X238622000Y-112321514D01*
X238660095Y-112359609D01*
X238698190Y-112378657D01*
X238774380Y-112397704D01*
X238831523Y-112397704D01*
X238907714Y-112378657D01*
X238945809Y-112359609D01*
X238983904Y-112321514D01*
X239002952Y-112264371D01*
X239002952Y-112226276D01*
X238983904Y-112169133D01*
X238964857Y-112150085D01*
X238831523Y-112150085D01*
X238831523Y-112226276D01*
X239002952Y-111978657D02*
X238602952Y-111978657D01*
X239002952Y-111750085D01*
X238602952Y-111750085D01*
X239002952Y-111559609D02*
X238602952Y-111559609D01*
X238602952Y-111464371D01*
X238622000Y-111407228D01*
X238660095Y-111369133D01*
X238698190Y-111350085D01*
X238774380Y-111331038D01*
X238831523Y-111331038D01*
X238907714Y-111350085D01*
X238945809Y-111369133D01*
X238983904Y-111407228D01*
X239002952Y-111464371D01*
X239002952Y-111559609D01*
X239002952Y-111159609D02*
X238602952Y-111159609D01*
X238602952Y-111007228D01*
X238622000Y-110969133D01*
X238641047Y-110950085D01*
X238679142Y-110931038D01*
X238736285Y-110931038D01*
X238774380Y-110950085D01*
X238793428Y-110969133D01*
X238812476Y-111007228D01*
X238812476Y-111159609D01*
X238602952Y-110797704D02*
X239002952Y-110702466D01*
X238717238Y-110626276D01*
X239002952Y-110550085D01*
X238602952Y-110454847D01*
X239002952Y-110073895D02*
X238812476Y-110207228D01*
X239002952Y-110302466D02*
X238602952Y-110302466D01*
X238602952Y-110150085D01*
X238622000Y-110111990D01*
X238641047Y-110092942D01*
X238679142Y-110073895D01*
X238736285Y-110073895D01*
X238774380Y-110092942D01*
X238793428Y-110111990D01*
X238812476Y-110150085D01*
X238812476Y-110302466D01*
D11*
X238428333Y-122512600D02*
X238961666Y-122512600D01*
X238695000Y-122779266D02*
X238695000Y-122245933D01*
X235482866Y-111450866D02*
X235482866Y-110750866D01*
X235749533Y-110750866D01*
X235816200Y-110784200D01*
X235849533Y-110817533D01*
X235882866Y-110884200D01*
X235882866Y-110984200D01*
X235849533Y-111050866D01*
X235816200Y-111084200D01*
X235749533Y-111117533D01*
X235482866Y-111117533D01*
X236282866Y-111450866D02*
X236216200Y-111417533D01*
X236182866Y-111384200D01*
X236149533Y-111317533D01*
X236149533Y-111117533D01*
X236182866Y-111050866D01*
X236216200Y-111017533D01*
X236282866Y-110984200D01*
X236382866Y-110984200D01*
X236449533Y-111017533D01*
X236482866Y-111050866D01*
X236516200Y-111117533D01*
X236516200Y-111317533D01*
X236482866Y-111384200D01*
X236449533Y-111417533D01*
X236382866Y-111450866D01*
X236282866Y-111450866D01*
X236749533Y-110984200D02*
X236882866Y-111450866D01*
X237016200Y-111117533D01*
X237149533Y-111450866D01*
X237282866Y-110984200D01*
X237816200Y-111417533D02*
X237749533Y-111450866D01*
X237616200Y-111450866D01*
X237549533Y-111417533D01*
X237516200Y-111350866D01*
X237516200Y-111084200D01*
X237549533Y-111017533D01*
X237616200Y-110984200D01*
X237749533Y-110984200D01*
X237816200Y-111017533D01*
X237849533Y-111084200D01*
X237849533Y-111150866D01*
X237516200Y-111217533D01*
X238149533Y-111450866D02*
X238149533Y-110984200D01*
X238149533Y-111117533D02*
X238182866Y-111050866D01*
X238216200Y-111017533D01*
X238282866Y-110984200D01*
X238349533Y-110984200D01*
X227290476Y-128852380D02*
X227290476Y-127852380D01*
X227623809Y-128566666D01*
X227957142Y-127852380D01*
X227957142Y-128852380D01*
X228957142Y-128852380D02*
X228385714Y-128852380D01*
X228671428Y-128852380D02*
X228671428Y-127852380D01*
X228576190Y-127995238D01*
X228480952Y-128090476D01*
X228385714Y-128138095D01*
X215090476Y-128852380D02*
X215090476Y-127852380D01*
X215423809Y-128566666D01*
X215757142Y-127852380D01*
X215757142Y-128852380D01*
X216185714Y-127947619D02*
X216233333Y-127900000D01*
X216328571Y-127852380D01*
X216566666Y-127852380D01*
X216661904Y-127900000D01*
X216709523Y-127947619D01*
X216757142Y-128042857D01*
X216757142Y-128138095D01*
X216709523Y-128280952D01*
X216138095Y-128852380D01*
X216757142Y-128852380D01*
X201590476Y-128752380D02*
X201590476Y-127752380D01*
X201923809Y-128466666D01*
X202257142Y-127752380D01*
X202257142Y-128752380D01*
X202638095Y-127752380D02*
X203257142Y-127752380D01*
X202923809Y-128133333D01*
X203066666Y-128133333D01*
X203161904Y-128180952D01*
X203209523Y-128228571D01*
X203257142Y-128323809D01*
X203257142Y-128561904D01*
X203209523Y-128657142D01*
X203161904Y-128704761D01*
X203066666Y-128752380D01*
X202780952Y-128752380D01*
X202685714Y-128704761D01*
X202638095Y-128657142D01*
X224752380Y-95723809D02*
X223752380Y-95723809D01*
X224466666Y-95390476D01*
X223752380Y-95057142D01*
X224752380Y-95057142D01*
X224752380Y-94057142D02*
X224752380Y-94628571D01*
X224752380Y-94342857D02*
X223752380Y-94342857D01*
X223895238Y-94438095D01*
X223990476Y-94533333D01*
X224038095Y-94628571D01*
X224228571Y-92866666D02*
X224228571Y-92533333D01*
X224752380Y-92390476D02*
X224752380Y-92866666D01*
X223752380Y-92866666D01*
X223752380Y-92390476D01*
X224085714Y-91961904D02*
X224752380Y-91961904D01*
X224180952Y-91961904D02*
X224133333Y-91914285D01*
X224085714Y-91819047D01*
X224085714Y-91676190D01*
X224133333Y-91580952D01*
X224228571Y-91533333D01*
X224752380Y-91533333D01*
X224704761Y-90628571D02*
X224752380Y-90723809D01*
X224752380Y-90914285D01*
X224704761Y-91009523D01*
X224657142Y-91057142D01*
X224561904Y-91104761D01*
X224276190Y-91104761D01*
X224180952Y-91057142D01*
X224133333Y-91009523D01*
X224085714Y-90914285D01*
X224085714Y-90723809D01*
X224133333Y-90628571D01*
X207752380Y-95623809D02*
X206752380Y-95623809D01*
X207466666Y-95290476D01*
X206752380Y-94957142D01*
X207752380Y-94957142D01*
X206847619Y-94528571D02*
X206800000Y-94480952D01*
X206752380Y-94385714D01*
X206752380Y-94147619D01*
X206800000Y-94052380D01*
X206847619Y-94004761D01*
X206942857Y-93957142D01*
X207038095Y-93957142D01*
X207180952Y-94004761D01*
X207752380Y-94576190D01*
X207752380Y-93957142D01*
X207228571Y-92766666D02*
X207228571Y-92433333D01*
X207752380Y-92290476D02*
X207752380Y-92766666D01*
X206752380Y-92766666D01*
X206752380Y-92290476D01*
X207085714Y-91861904D02*
X207752380Y-91861904D01*
X207180952Y-91861904D02*
X207133333Y-91814285D01*
X207085714Y-91719047D01*
X207085714Y-91576190D01*
X207133333Y-91480952D01*
X207228571Y-91433333D01*
X207752380Y-91433333D01*
X207704761Y-90528571D02*
X207752380Y-90623809D01*
X207752380Y-90814285D01*
X207704761Y-90909523D01*
X207657142Y-90957142D01*
X207561904Y-91004761D01*
X207276190Y-91004761D01*
X207180952Y-90957142D01*
X207133333Y-90909523D01*
X207085714Y-90814285D01*
X207085714Y-90623809D01*
X207133333Y-90528571D01*
X196552380Y-95523809D02*
X195552380Y-95523809D01*
X196266666Y-95190476D01*
X195552380Y-94857142D01*
X196552380Y-94857142D01*
X195552380Y-94476190D02*
X195552380Y-93857142D01*
X195933333Y-94190476D01*
X195933333Y-94047619D01*
X195980952Y-93952380D01*
X196028571Y-93904761D01*
X196123809Y-93857142D01*
X196361904Y-93857142D01*
X196457142Y-93904761D01*
X196504761Y-93952380D01*
X196552380Y-94047619D01*
X196552380Y-94333333D01*
X196504761Y-94428571D01*
X196457142Y-94476190D01*
X196028571Y-92666666D02*
X196028571Y-92333333D01*
X196552380Y-92190476D02*
X196552380Y-92666666D01*
X195552380Y-92666666D01*
X195552380Y-92190476D01*
X195885714Y-91761904D02*
X196552380Y-91761904D01*
X195980952Y-91761904D02*
X195933333Y-91714285D01*
X195885714Y-91619047D01*
X195885714Y-91476190D01*
X195933333Y-91380952D01*
X196028571Y-91333333D01*
X196552380Y-91333333D01*
X196504761Y-90428571D02*
X196552380Y-90523809D01*
X196552380Y-90714285D01*
X196504761Y-90809523D01*
X196457142Y-90857142D01*
X196361904Y-90904761D01*
X196076190Y-90904761D01*
X195980952Y-90857142D01*
X195933333Y-90809523D01*
X195885714Y-90714285D01*
X195885714Y-90523809D01*
X195933333Y-90428571D01*
D12*
X213159420Y-107410000D02*
X213440580Y-107410000D01*
X213159420Y-106390000D02*
X213440580Y-106390000D01*
D13*
X234101200Y-103209000D02*
G75*
G03*
X234101200Y-103209000I-100000J0D01*
G01*
D14*
X238951200Y-105009000D02*
X238951200Y-97409000D01*
X236001200Y-105009000D02*
X236401200Y-105009000D01*
X236401200Y-97409000D02*
X236001200Y-97409000D01*
X238601200Y-105009000D02*
X238901200Y-105009000D01*
X238601200Y-97409000D02*
X238901200Y-97409000D01*
D12*
X198410600Y-110892900D02*
X198410600Y-115134700D01*
X208570600Y-115134700D02*
X208570600Y-110892900D01*
D10*
G36*
X200506100Y-116977401D02*
G01*
X200125100Y-116977401D01*
X200125100Y-116723401D01*
X200506100Y-116723401D01*
X200506100Y-116977401D01*
G37*
X200506100Y-116977401D02*
X200125100Y-116977401D01*
X200125100Y-116723401D01*
X200506100Y-116723401D01*
X200506100Y-116977401D01*
D12*
X204578900Y-105921100D02*
X204916860Y-105921100D01*
X212021100Y-105921100D02*
X212021100Y-105583140D01*
X212021100Y-98478900D02*
X211683140Y-98478900D01*
X204578900Y-98478900D02*
X204578900Y-98816860D01*
X204578900Y-105583140D02*
X204578900Y-105921100D01*
X211683140Y-105921100D02*
X212021100Y-105921100D01*
X212021100Y-98816860D02*
X212021100Y-98478900D01*
X204916860Y-98478900D02*
X204578900Y-98478900D01*
D10*
G36*
X206109499Y-107407000D02*
G01*
X206109499Y-107661000D01*
X206490499Y-107661000D01*
X206490499Y-107407000D01*
X206109499Y-107407000D01*
G37*
X206109499Y-107407000D02*
X206109499Y-107661000D01*
X206490499Y-107661000D01*
X206490499Y-107407000D01*
X206109499Y-107407000D01*
G36*
X213761000Y-102409499D02*
G01*
X213761000Y-102790499D01*
X213507000Y-102790499D01*
X213507000Y-102409499D01*
X213761000Y-102409499D01*
G37*
X213761000Y-102409499D02*
X213761000Y-102790499D01*
X213507000Y-102790499D01*
X213507000Y-102409499D01*
X213761000Y-102409499D01*
G36*
X206909500Y-96993000D02*
G01*
X206909500Y-96739000D01*
X207290500Y-96739000D01*
X207290500Y-96993000D01*
X206909500Y-96993000D01*
G37*
X206909500Y-96993000D02*
X206909500Y-96739000D01*
X207290500Y-96739000D01*
X207290500Y-96993000D01*
X206909500Y-96993000D01*
D15*
X233558002Y-99165001D02*
G75*
G03*
X233558002Y-99165001I-125001J0D01*
G01*
D16*
X230133000Y-100640002D02*
X233033000Y-100640002D01*
X230133000Y-100140001D02*
X233033000Y-100140001D01*
X230133000Y-100140001D02*
X230133000Y-100640002D01*
X233033000Y-100140001D02*
X233033000Y-100640002D01*
D13*
X218785000Y-102860000D02*
X222215000Y-102860000D01*
X222215000Y-96340000D02*
X218785000Y-96340000D01*
X222635000Y-103390000D02*
G75*
G03*
X222635000Y-103390000I-100000J0D01*
G01*
D14*
X195575000Y-122278800D02*
X193545000Y-122278800D01*
X191345000Y-122278800D02*
X190375000Y-122278800D01*
X190375000Y-122278800D02*
X190375000Y-115208800D01*
X190375000Y-115208800D02*
X195575000Y-115208800D01*
X195575000Y-115208800D02*
X195575000Y-122278800D01*
D13*
X196353000Y-120633800D02*
G75*
G03*
X196353000Y-120633800I-100000J0D01*
G01*
X202600000Y-89892000D02*
G75*
G03*
X202600000Y-89892000I-100000J0D01*
G01*
D14*
X197075000Y-90570000D02*
X204145000Y-90570000D01*
X197075000Y-95770000D02*
X197075000Y-90570000D01*
X204145000Y-95770000D02*
X197075000Y-95770000D01*
X204145000Y-94800000D02*
X204145000Y-95770000D01*
X204145000Y-90570000D02*
X204145000Y-92600000D01*
X215345000Y-90656000D02*
X215345000Y-92686000D01*
X215345000Y-94886000D02*
X215345000Y-95856000D01*
X215345000Y-95856000D02*
X208275000Y-95856000D01*
X208275000Y-95856000D02*
X208275000Y-90656000D01*
X208275000Y-90656000D02*
X215345000Y-90656000D01*
D13*
X213800000Y-89978000D02*
G75*
G03*
X213800000Y-89978000I-100000J0D01*
G01*
D14*
X232445000Y-90670000D02*
X232445000Y-92700000D01*
X232445000Y-94900000D02*
X232445000Y-95870000D01*
X232445000Y-95870000D02*
X225375000Y-95870000D01*
X225375000Y-95870000D02*
X225375000Y-90670000D01*
X225375000Y-90670000D02*
X232445000Y-90670000D01*
D13*
X230900000Y-89992000D02*
G75*
G03*
X230900000Y-89992000I-100000J0D01*
G01*
D12*
X213035400Y-124229800D02*
X219035400Y-124229800D01*
X213035400Y-129229800D02*
X219035400Y-129229800D01*
X213035400Y-124229800D02*
G75*
G03*
X213035400Y-129229800I0J-2500000D01*
G01*
X219035400Y-129229800D02*
G75*
G03*
X219035400Y-124229800I0J2500000D01*
G01*
X199246000Y-124094800D02*
X205246000Y-124094800D01*
X199246000Y-129094800D02*
X205246000Y-129094800D01*
X199246000Y-124094800D02*
G75*
G03*
X199246000Y-129094800I0J-2500000D01*
G01*
X205246000Y-129094800D02*
G75*
G03*
X205246000Y-124094800I0J2500000D01*
G01*
X224973400Y-124204400D02*
X230973400Y-124204400D01*
X224973400Y-129204400D02*
X230973400Y-129204400D01*
X224973400Y-124204400D02*
G75*
G03*
X224973400Y-129204400I0J-2500000D01*
G01*
X230973400Y-129204400D02*
G75*
G03*
X230973400Y-124204400I0J2500000D01*
G01*
X239120200Y-114179400D02*
X239120200Y-120179400D01*
X234120200Y-114179400D02*
X234120200Y-120179400D01*
X239120200Y-114179400D02*
G75*
G03*
X234120200Y-114179400I-2500000J0D01*
G01*
X234120200Y-120179400D02*
G75*
G03*
X239120200Y-120179400I2500000J0D01*
G01*
D14*
X225155400Y-101673400D02*
X225155400Y-100173400D01*
X228155400Y-101673400D02*
X228155400Y-100173400D01*
D13*
X225805400Y-103288400D02*
G75*
G03*
X225805400Y-103288400I-100000J0D01*
G01*
D12*
X198482200Y-106536800D02*
X200767200Y-106536800D01*
X200767200Y-106536800D02*
X200767200Y-105066800D01*
X200767200Y-105066800D02*
X198482200Y-105066800D01*
X231545000Y-110802400D02*
X233830000Y-110802400D01*
X233830000Y-110802400D02*
X233830000Y-109332400D01*
X233830000Y-109332400D02*
X231545000Y-109332400D01*
X233194100Y-122644942D02*
X233194100Y-123119458D01*
X234239100Y-122644942D02*
X234239100Y-123119458D01*
X229485700Y-110604342D02*
X229485700Y-111078858D01*
X230530700Y-110604342D02*
X230530700Y-111078858D01*
X199519458Y-103628300D02*
X199044942Y-103628300D01*
X199519458Y-104673300D02*
X199044942Y-104673300D01*
X219634100Y-119233258D02*
X219634100Y-118758742D01*
X218589100Y-119233258D02*
X218589100Y-118758742D01*
X202364342Y-118260700D02*
X202838858Y-118260700D01*
X202364342Y-117215700D02*
X202838858Y-117215700D01*
X222348300Y-118732342D02*
X222348300Y-119206858D01*
X223393300Y-118732342D02*
X223393300Y-119206858D01*
X208784700Y-118707942D02*
X208784700Y-119182458D01*
X209829700Y-118707942D02*
X209829700Y-119182458D01*
X206722500Y-120012258D02*
X206722500Y-119537742D01*
X205677500Y-120012258D02*
X205677500Y-119537742D01*
X223999300Y-118732342D02*
X223999300Y-119206858D01*
X225044300Y-118732342D02*
X225044300Y-119206858D01*
X210384900Y-118657142D02*
X210384900Y-119131658D01*
X211429900Y-118657142D02*
X211429900Y-119131658D01*
X199208900Y-118745542D02*
X199208900Y-119220058D01*
X200253900Y-118745542D02*
X200253900Y-119220058D01*
X207184500Y-119537742D02*
X207184500Y-120012258D01*
X208229500Y-119537742D02*
X208229500Y-120012258D01*
X220265500Y-119558342D02*
X220265500Y-120032858D01*
X221310500Y-119558342D02*
X221310500Y-120032858D01*
X197657258Y-119958900D02*
X197182742Y-119958900D01*
X197657258Y-121003900D02*
X197182742Y-121003900D01*
X231269542Y-104265300D02*
X231744058Y-104265300D01*
X231269542Y-103220300D02*
X231744058Y-103220300D01*
X229832400Y-115208579D02*
X229832400Y-114883021D01*
X228812400Y-115208579D02*
X228812400Y-114883021D01*
D10*
G36*
X215212700Y-116926601D02*
G01*
X214831700Y-116926601D01*
X214831700Y-116672601D01*
X215212700Y-116672601D01*
X215212700Y-116926601D01*
G37*
X215212700Y-116926601D02*
X214831700Y-116926601D01*
X214831700Y-116672601D01*
X215212700Y-116672601D01*
X215212700Y-116926601D01*
D12*
X223277200Y-115083900D02*
X223277200Y-110842100D01*
X213117200Y-110842100D02*
X213117200Y-115083900D01*
X207162779Y-116990000D02*
X206837221Y-116990000D01*
X207162779Y-118010000D02*
X206837221Y-118010000D01*
X224943221Y-116394000D02*
X225268779Y-116394000D01*
X224943221Y-115374000D02*
X225268779Y-115374000D01*
X232182221Y-112152200D02*
X232507779Y-112152200D01*
X232182221Y-111132200D02*
X232507779Y-111132200D01*
X226492621Y-97162200D02*
X226818179Y-97162200D01*
X226492621Y-98182200D02*
X226818179Y-98182200D01*
X214937221Y-104290000D02*
X215262779Y-104290000D01*
X214937221Y-105310000D02*
X215262779Y-105310000D01*
X201690000Y-98137221D02*
X201690000Y-98462779D01*
X202710000Y-98137221D02*
X202710000Y-98462779D01*
X210362779Y-110410000D02*
X210037221Y-110410000D01*
X210362779Y-109390000D02*
X210037221Y-109390000D01*
D13*
X230540200Y-114939800D02*
X230540200Y-114389800D01*
X230540200Y-114389800D02*
X233540200Y-114389800D01*
X233540200Y-114389800D02*
X233540200Y-114939800D01*
X233540200Y-114939800D02*
X230540200Y-114939800D01*
X230540200Y-116539800D02*
X230540200Y-115289800D01*
D12*
X226467221Y-103436000D02*
X226792779Y-103436000D01*
X226467221Y-104456000D02*
X226792779Y-104456000D01*
X197373400Y-106109200D02*
X197343400Y-106109200D01*
X190913400Y-106109200D02*
X190943400Y-106109200D01*
X190913400Y-99649200D02*
X190943400Y-99649200D01*
X197343400Y-99649200D02*
X197373400Y-99649200D01*
X195443400Y-106109200D02*
X192843400Y-106109200D01*
X197373400Y-99649200D02*
X197373400Y-106109200D01*
X195443400Y-99649200D02*
X192843400Y-99649200D01*
X190913400Y-99649200D02*
X190913400Y-106109200D01*
X221844421Y-107906400D02*
X222169979Y-107906400D01*
X221844421Y-108926400D02*
X222169979Y-108926400D01*
X201690000Y-101562779D02*
X201690000Y-101237221D01*
X202710000Y-101562779D02*
X202710000Y-101237221D01*
X214032901Y-119128799D02*
X214032901Y-118953799D01*
X217132899Y-119128799D02*
X217132899Y-118953799D01*
X216832900Y-118953799D02*
X217132899Y-118953799D01*
X214032901Y-118953799D02*
X214332900Y-118953799D01*
X213382902Y-119628798D02*
G75*
G03*
X213382902Y-119628798I-125001J0D01*
G01*
X200401602Y-119672600D02*
G75*
G03*
X200401602Y-119672600I-125001J0D01*
G01*
X201051601Y-118997601D02*
X201351600Y-118997601D01*
X203851600Y-118997601D02*
X204151599Y-118997601D01*
X204151599Y-119172601D02*
X204151599Y-118997601D01*
X201051601Y-119172601D02*
X201051601Y-118997601D01*
X226604001Y-119042200D02*
X226604001Y-118867200D01*
X229703999Y-119042200D02*
X229703999Y-118867200D01*
X229404000Y-118867200D02*
X229703999Y-118867200D01*
X226604001Y-118867200D02*
X226904000Y-118867200D01*
X225954002Y-119542199D02*
G75*
G03*
X225954002Y-119542199I-125001J0D01*
G01*
D16*
X215557142Y-107457142D02*
X215509523Y-107504761D01*
X215366666Y-107552380D01*
X215271428Y-107552380D01*
X215128571Y-107504761D01*
X215033333Y-107409523D01*
X214985714Y-107314285D01*
X214938095Y-107123809D01*
X214938095Y-106980952D01*
X214985714Y-106790476D01*
X215033333Y-106695238D01*
X215128571Y-106600000D01*
X215271428Y-106552380D01*
X215366666Y-106552380D01*
X215509523Y-106600000D01*
X215557142Y-106647619D01*
X216509523Y-107552380D02*
X215938095Y-107552380D01*
X216223809Y-107552380D02*
X216223809Y-106552380D01*
X216128571Y-106695238D01*
X216033333Y-106790476D01*
X215938095Y-106838095D01*
X217366666Y-106552380D02*
X217176190Y-106552380D01*
X217080952Y-106600000D01*
X217033333Y-106647619D01*
X216938095Y-106790476D01*
X216890476Y-106980952D01*
X216890476Y-107361904D01*
X216938095Y-107457142D01*
X216985714Y-107504761D01*
X217080952Y-107552380D01*
X217271428Y-107552380D01*
X217366666Y-107504761D01*
X217414285Y-107457142D01*
X217461904Y-107361904D01*
X217461904Y-107123809D01*
X217414285Y-107028571D01*
X217366666Y-106980952D01*
X217271428Y-106933333D01*
X217080952Y-106933333D01*
X216985714Y-106980952D01*
X216938095Y-107028571D01*
X216890476Y-107123809D01*
X234961904Y-105752380D02*
X234961904Y-106561904D01*
X235009523Y-106657142D01*
X235057142Y-106704761D01*
X235152380Y-106752380D01*
X235342857Y-106752380D01*
X235438095Y-106704761D01*
X235485714Y-106657142D01*
X235533333Y-106561904D01*
X235533333Y-105752380D01*
X235961904Y-106704761D02*
X236104761Y-106752380D01*
X236342857Y-106752380D01*
X236438095Y-106704761D01*
X236485714Y-106657142D01*
X236533333Y-106561904D01*
X236533333Y-106466666D01*
X236485714Y-106371428D01*
X236438095Y-106323809D01*
X236342857Y-106276190D01*
X236152380Y-106228571D01*
X236057142Y-106180952D01*
X236009523Y-106133333D01*
X235961904Y-106038095D01*
X235961904Y-105942857D01*
X236009523Y-105847619D01*
X236057142Y-105800000D01*
X236152380Y-105752380D01*
X236390476Y-105752380D01*
X236533333Y-105800000D01*
X237295238Y-106228571D02*
X237438095Y-106276190D01*
X237485714Y-106323809D01*
X237533333Y-106419047D01*
X237533333Y-106561904D01*
X237485714Y-106657142D01*
X237438095Y-106704761D01*
X237342857Y-106752380D01*
X236961904Y-106752380D01*
X236961904Y-105752380D01*
X237295238Y-105752380D01*
X237390476Y-105800000D01*
X237438095Y-105847619D01*
X237485714Y-105942857D01*
X237485714Y-106038095D01*
X237438095Y-106133333D01*
X237390476Y-106180952D01*
X237295238Y-106228571D01*
X236961904Y-106228571D01*
X238485714Y-106752380D02*
X237914285Y-106752380D01*
X238200000Y-106752380D02*
X238200000Y-105752380D01*
X238104761Y-105895238D01*
X238009523Y-105990476D01*
X237914285Y-106038095D01*
X208938095Y-112252380D02*
X208938095Y-113061904D01*
X208985714Y-113157142D01*
X209033333Y-113204761D01*
X209128571Y-113252380D01*
X209319047Y-113252380D01*
X209414285Y-113204761D01*
X209461904Y-113157142D01*
X209509523Y-113061904D01*
X209509523Y-112252380D01*
X210414285Y-112585714D02*
X210414285Y-113252380D01*
X210176190Y-112204761D02*
X209938095Y-112919047D01*
X210557142Y-112919047D01*
D17*
X200036580Y-113163790D02*
X200036580Y-112663790D01*
X200203247Y-113020933D01*
X200369914Y-112663790D01*
X200369914Y-113163790D01*
X200584200Y-113020933D02*
X200822295Y-113020933D01*
X200536580Y-113163790D02*
X200703247Y-112663790D01*
X200869914Y-113163790D01*
X200988961Y-112663790D02*
X201322295Y-113163790D01*
X201322295Y-112663790D02*
X200988961Y-113163790D01*
X201774676Y-113163790D02*
X201488961Y-113163790D01*
X201631819Y-113163790D02*
X201631819Y-112663790D01*
X201584200Y-112735219D01*
X201536580Y-112782838D01*
X201488961Y-112806647D01*
X202203247Y-112830457D02*
X202203247Y-113163790D01*
X202084200Y-112639980D02*
X201965152Y-112997123D01*
X202274676Y-112997123D01*
X202488961Y-113163790D02*
X202584200Y-113163790D01*
X202631819Y-113139980D01*
X202655628Y-113116171D01*
X202703247Y-113044742D01*
X202727057Y-112949504D01*
X202727057Y-112759028D01*
X202703247Y-112711409D01*
X202679438Y-112687600D01*
X202631819Y-112663790D01*
X202536580Y-112663790D01*
X202488961Y-112687600D01*
X202465152Y-112711409D01*
X202441342Y-112759028D01*
X202441342Y-112878076D01*
X202465152Y-112925695D01*
X202488961Y-112949504D01*
X202536580Y-112973314D01*
X202631819Y-112973314D01*
X202679438Y-112949504D01*
X202703247Y-112925695D01*
X202727057Y-112878076D01*
X202893723Y-112663790D02*
X203203247Y-112663790D01*
X203036580Y-112854266D01*
X203108009Y-112854266D01*
X203155628Y-112878076D01*
X203179438Y-112901885D01*
X203203247Y-112949504D01*
X203203247Y-113068552D01*
X203179438Y-113116171D01*
X203155628Y-113139980D01*
X203108009Y-113163790D01*
X202965152Y-113163790D01*
X202917533Y-113139980D01*
X202893723Y-113116171D01*
X203512771Y-112663790D02*
X203560390Y-112663790D01*
X203608009Y-112687600D01*
X203631819Y-112711409D01*
X203655628Y-112759028D01*
X203679438Y-112854266D01*
X203679438Y-112973314D01*
X203655628Y-113068552D01*
X203631819Y-113116171D01*
X203608009Y-113139980D01*
X203560390Y-113163790D01*
X203512771Y-113163790D01*
X203465152Y-113139980D01*
X203441342Y-113116171D01*
X203417533Y-113068552D01*
X203393723Y-112973314D01*
X203393723Y-112854266D01*
X203417533Y-112759028D01*
X203441342Y-112711409D01*
X203465152Y-112687600D01*
X203512771Y-112663790D01*
X203893723Y-113163790D02*
X203893723Y-112663790D01*
X204012771Y-112663790D01*
X204084200Y-112687600D01*
X204131819Y-112735219D01*
X204155628Y-112782838D01*
X204179438Y-112878076D01*
X204179438Y-112949504D01*
X204155628Y-113044742D01*
X204131819Y-113092361D01*
X204084200Y-113139980D01*
X204012771Y-113163790D01*
X203893723Y-113163790D01*
X204369914Y-113020933D02*
X204608009Y-113020933D01*
X204322295Y-113163790D02*
X204488961Y-112663790D01*
X204655628Y-113163790D01*
X204798485Y-113139980D02*
X204869914Y-113163790D01*
X204988961Y-113163790D01*
X205036580Y-113139980D01*
X205060390Y-113116171D01*
X205084200Y-113068552D01*
X205084200Y-113020933D01*
X205060390Y-112973314D01*
X205036580Y-112949504D01*
X204988961Y-112925695D01*
X204893723Y-112901885D01*
X204846104Y-112878076D01*
X204822295Y-112854266D01*
X204798485Y-112806647D01*
X204798485Y-112759028D01*
X204822295Y-112711409D01*
X204846104Y-112687600D01*
X204893723Y-112663790D01*
X205012771Y-112663790D01*
X205084200Y-112687600D01*
X205298485Y-112901885D02*
X205465152Y-112901885D01*
X205536580Y-113163790D02*
X205298485Y-113163790D01*
X205298485Y-112663790D01*
X205536580Y-112663790D01*
X205750866Y-112973314D02*
X206131819Y-112973314D01*
X205941342Y-113163790D02*
X205941342Y-112782838D01*
D16*
X212011745Y-96989181D02*
X212011745Y-97798705D01*
X212059364Y-97893943D01*
X212106983Y-97941562D01*
X212202221Y-97989181D01*
X212392697Y-97989181D01*
X212487935Y-97941562D01*
X212535554Y-97893943D01*
X212583173Y-97798705D01*
X212583173Y-96989181D01*
X213535554Y-96989181D02*
X213059364Y-96989181D01*
X213011745Y-97465372D01*
X213059364Y-97417753D01*
X213154602Y-97370134D01*
X213392697Y-97370134D01*
X213487935Y-97417753D01*
X213535554Y-97465372D01*
X213583173Y-97560610D01*
X213583173Y-97798705D01*
X213535554Y-97893943D01*
X213487935Y-97941562D01*
X213392697Y-97989181D01*
X213154602Y-97989181D01*
X213059364Y-97941562D01*
X213011745Y-97893943D01*
D17*
X205632526Y-101570581D02*
X205703954Y-101594391D01*
X205823002Y-101594391D01*
X205870621Y-101570581D01*
X205894430Y-101546772D01*
X205918240Y-101499153D01*
X205918240Y-101451534D01*
X205894430Y-101403915D01*
X205870621Y-101380105D01*
X205823002Y-101356296D01*
X205727764Y-101332486D01*
X205680145Y-101308677D01*
X205656335Y-101284867D01*
X205632526Y-101237248D01*
X205632526Y-101189629D01*
X205656335Y-101142010D01*
X205680145Y-101118201D01*
X205727764Y-101094391D01*
X205846811Y-101094391D01*
X205918240Y-101118201D01*
X206061097Y-101094391D02*
X206346811Y-101094391D01*
X206203954Y-101594391D02*
X206203954Y-101094391D01*
X206513478Y-101594391D02*
X206513478Y-101094391D01*
X206680145Y-101451534D01*
X206846811Y-101094391D01*
X206846811Y-101594391D01*
X207037288Y-101094391D02*
X207346811Y-101094391D01*
X207180145Y-101284867D01*
X207251573Y-101284867D01*
X207299192Y-101308677D01*
X207323002Y-101332486D01*
X207346811Y-101380105D01*
X207346811Y-101499153D01*
X207323002Y-101546772D01*
X207299192Y-101570581D01*
X207251573Y-101594391D01*
X207108716Y-101594391D01*
X207061097Y-101570581D01*
X207037288Y-101546772D01*
X207537288Y-101142010D02*
X207561097Y-101118201D01*
X207608716Y-101094391D01*
X207727764Y-101094391D01*
X207775383Y-101118201D01*
X207799192Y-101142010D01*
X207823002Y-101189629D01*
X207823002Y-101237248D01*
X207799192Y-101308677D01*
X207513478Y-101594391D01*
X207823002Y-101594391D01*
X208299192Y-101118201D02*
X208251573Y-101094391D01*
X208180145Y-101094391D01*
X208108716Y-101118201D01*
X208061097Y-101165820D01*
X208037288Y-101213439D01*
X208013478Y-101308677D01*
X208013478Y-101380105D01*
X208037288Y-101475343D01*
X208061097Y-101522962D01*
X208108716Y-101570581D01*
X208180145Y-101594391D01*
X208227764Y-101594391D01*
X208299192Y-101570581D01*
X208323002Y-101546772D01*
X208323002Y-101380105D01*
X208227764Y-101380105D01*
X208751573Y-101261058D02*
X208751573Y-101594391D01*
X208632526Y-101070581D02*
X208513478Y-101427724D01*
X208823002Y-101427724D01*
X209227764Y-101261058D02*
X209227764Y-101594391D01*
X209108716Y-101070581D02*
X208989669Y-101427724D01*
X209299192Y-101427724D01*
X209751573Y-101594391D02*
X209465859Y-101594391D01*
X209608716Y-101594391D02*
X209608716Y-101094391D01*
X209561097Y-101165820D01*
X209513478Y-101213439D01*
X209465859Y-101237248D01*
X209965859Y-101594391D02*
X209965859Y-101094391D01*
X210251573Y-101594391D02*
X210037288Y-101308677D01*
X210251573Y-101094391D02*
X209965859Y-101380105D01*
X210632526Y-101332486D02*
X210703954Y-101356296D01*
X210727764Y-101380105D01*
X210751573Y-101427724D01*
X210751573Y-101499153D01*
X210727764Y-101546772D01*
X210703954Y-101570581D01*
X210656335Y-101594391D01*
X210465859Y-101594391D01*
X210465859Y-101094391D01*
X210632526Y-101094391D01*
X210680145Y-101118201D01*
X210703954Y-101142010D01*
X210727764Y-101189629D01*
X210727764Y-101237248D01*
X210703954Y-101284867D01*
X210680145Y-101308677D01*
X210632526Y-101332486D01*
X210465859Y-101332486D01*
D16*
X230640595Y-96952380D02*
X230640595Y-97761904D01*
X230688214Y-97857142D01*
X230735833Y-97904761D01*
X230831071Y-97952380D01*
X231021547Y-97952380D01*
X231116785Y-97904761D01*
X231164404Y-97857142D01*
X231212023Y-97761904D01*
X231212023Y-96952380D01*
X232116785Y-96952380D02*
X231926309Y-96952380D01*
X231831071Y-97000000D01*
X231783452Y-97047619D01*
X231688214Y-97190476D01*
X231640595Y-97380952D01*
X231640595Y-97761904D01*
X231688214Y-97857142D01*
X231735833Y-97904761D01*
X231831071Y-97952380D01*
X232021547Y-97952380D01*
X232116785Y-97904761D01*
X232164404Y-97857142D01*
X232212023Y-97761904D01*
X232212023Y-97523809D01*
X232164404Y-97428571D01*
X232116785Y-97380952D01*
X232021547Y-97333333D01*
X231831071Y-97333333D01*
X231735833Y-97380952D01*
X231688214Y-97428571D01*
X231640595Y-97523809D01*
X218458066Y-94940180D02*
X218458066Y-95654466D01*
X218410447Y-95797323D01*
X218315209Y-95892561D01*
X218172352Y-95940180D01*
X218077114Y-95940180D01*
X218981876Y-95940180D02*
X219172352Y-95940180D01*
X219267590Y-95892561D01*
X219315209Y-95844942D01*
X219410447Y-95702085D01*
X219458066Y-95511609D01*
X219458066Y-95130657D01*
X219410447Y-95035419D01*
X219362828Y-94987800D01*
X219267590Y-94940180D01*
X219077114Y-94940180D01*
X218981876Y-94987800D01*
X218934257Y-95035419D01*
X218886638Y-95130657D01*
X218886638Y-95368752D01*
X218934257Y-95463990D01*
X218981876Y-95511609D01*
X219077114Y-95559228D01*
X219267590Y-95559228D01*
X219362828Y-95511609D01*
X219410447Y-95463990D01*
X219458066Y-95368752D01*
X192463866Y-113863180D02*
X192463866Y-114577466D01*
X192416247Y-114720323D01*
X192321009Y-114815561D01*
X192178152Y-114863180D01*
X192082914Y-114863180D01*
X193082914Y-114291752D02*
X192987676Y-114244133D01*
X192940057Y-114196514D01*
X192892438Y-114101276D01*
X192892438Y-114053657D01*
X192940057Y-113958419D01*
X192987676Y-113910800D01*
X193082914Y-113863180D01*
X193273390Y-113863180D01*
X193368628Y-113910800D01*
X193416247Y-113958419D01*
X193463866Y-114053657D01*
X193463866Y-114101276D01*
X193416247Y-114196514D01*
X193368628Y-114244133D01*
X193273390Y-114291752D01*
X193082914Y-114291752D01*
X192987676Y-114339371D01*
X192940057Y-114386990D01*
X192892438Y-114482228D01*
X192892438Y-114672704D01*
X192940057Y-114767942D01*
X192987676Y-114815561D01*
X193082914Y-114863180D01*
X193273390Y-114863180D01*
X193368628Y-114815561D01*
X193416247Y-114767942D01*
X193463866Y-114672704D01*
X193463866Y-114482228D01*
X193416247Y-114386990D01*
X193368628Y-114339371D01*
X193273390Y-114291752D01*
X204966666Y-90652380D02*
X204966666Y-91366666D01*
X204919047Y-91509523D01*
X204823809Y-91604761D01*
X204680952Y-91652380D01*
X204585714Y-91652380D01*
X205347619Y-90652380D02*
X206014285Y-90652380D01*
X205585714Y-91652380D01*
X216166666Y-90495180D02*
X216166666Y-91209466D01*
X216119047Y-91352323D01*
X216023809Y-91447561D01*
X215880952Y-91495180D01*
X215785714Y-91495180D01*
X217071428Y-90495180D02*
X216880952Y-90495180D01*
X216785714Y-90542800D01*
X216738095Y-90590419D01*
X216642857Y-90733276D01*
X216595238Y-90923752D01*
X216595238Y-91304704D01*
X216642857Y-91399942D01*
X216690476Y-91447561D01*
X216785714Y-91495180D01*
X216976190Y-91495180D01*
X217071428Y-91447561D01*
X217119047Y-91399942D01*
X217166666Y-91304704D01*
X217166666Y-91066609D01*
X217119047Y-90971371D01*
X217071428Y-90923752D01*
X216976190Y-90876133D01*
X216785714Y-90876133D01*
X216690476Y-90923752D01*
X216642857Y-90971371D01*
X216595238Y-91066609D01*
X233184466Y-90366580D02*
X233184466Y-91080866D01*
X233136847Y-91223723D01*
X233041609Y-91318961D01*
X232898752Y-91366580D01*
X232803514Y-91366580D01*
X234136847Y-90366580D02*
X233660657Y-90366580D01*
X233613038Y-90842771D01*
X233660657Y-90795152D01*
X233755895Y-90747533D01*
X233993990Y-90747533D01*
X234089228Y-90795152D01*
X234136847Y-90842771D01*
X234184466Y-90938009D01*
X234184466Y-91176104D01*
X234136847Y-91271342D01*
X234089228Y-91318961D01*
X233993990Y-91366580D01*
X233755895Y-91366580D01*
X233660657Y-91318961D01*
X233613038Y-91271342D01*
X218809933Y-124051619D02*
X218809933Y-123337333D01*
X218857552Y-123194476D01*
X218952790Y-123099238D01*
X219095647Y-123051619D01*
X219190885Y-123051619D01*
X217905171Y-123718285D02*
X217905171Y-123051619D01*
X218143266Y-124099238D02*
X218381361Y-123384952D01*
X217762314Y-123384952D01*
X229552380Y-101976190D02*
X228552380Y-101976190D01*
X229457142Y-100928571D02*
X229504761Y-100976190D01*
X229552380Y-101119047D01*
X229552380Y-101214285D01*
X229504761Y-101357142D01*
X229409523Y-101452380D01*
X229314285Y-101500000D01*
X229123809Y-101547619D01*
X228980952Y-101547619D01*
X228790476Y-101500000D01*
X228695238Y-101452380D01*
X228600000Y-101357142D01*
X228552380Y-101214285D01*
X228552380Y-101119047D01*
X228600000Y-100976190D01*
X228647619Y-100928571D01*
X228647619Y-100547619D02*
X228600000Y-100500000D01*
X228552380Y-100404761D01*
X228552380Y-100166666D01*
X228600000Y-100071428D01*
X228647619Y-100023809D01*
X228742857Y-99976190D01*
X228838095Y-99976190D01*
X228980952Y-100023809D01*
X229552380Y-100595238D01*
X229552380Y-99976190D01*
X198461904Y-107752380D02*
X198461904Y-106752380D01*
X198700000Y-106752380D01*
X198842857Y-106800000D01*
X198938095Y-106895238D01*
X198985714Y-106990476D01*
X199033333Y-107180952D01*
X199033333Y-107323809D01*
X198985714Y-107514285D01*
X198938095Y-107609523D01*
X198842857Y-107704761D01*
X198700000Y-107752380D01*
X198461904Y-107752380D01*
X199414285Y-106847619D02*
X199461904Y-106800000D01*
X199557142Y-106752380D01*
X199795238Y-106752380D01*
X199890476Y-106800000D01*
X199938095Y-106847619D01*
X199985714Y-106942857D01*
X199985714Y-107038095D01*
X199938095Y-107180952D01*
X199366666Y-107752380D01*
X199985714Y-107752380D01*
X231861904Y-109052380D02*
X231861904Y-108052380D01*
X232100000Y-108052380D01*
X232242857Y-108100000D01*
X232338095Y-108195238D01*
X232385714Y-108290476D01*
X232433333Y-108480952D01*
X232433333Y-108623809D01*
X232385714Y-108814285D01*
X232338095Y-108909523D01*
X232242857Y-109004761D01*
X232100000Y-109052380D01*
X231861904Y-109052380D01*
X233385714Y-109052380D02*
X232814285Y-109052380D01*
X233100000Y-109052380D02*
X233100000Y-108052380D01*
X233004761Y-108195238D01*
X232909523Y-108290476D01*
X232814285Y-108338095D01*
X232852380Y-123542857D02*
X232376190Y-123876190D01*
X232852380Y-124114285D02*
X231852380Y-124114285D01*
X231852380Y-123733333D01*
X231900000Y-123638095D01*
X231947619Y-123590476D01*
X232042857Y-123542857D01*
X232185714Y-123542857D01*
X232280952Y-123590476D01*
X232328571Y-123638095D01*
X232376190Y-123733333D01*
X232376190Y-124114285D01*
X232852380Y-122590476D02*
X232852380Y-123161904D01*
X232852380Y-122876190D02*
X231852380Y-122876190D01*
X231995238Y-122971428D01*
X232090476Y-123066666D01*
X232138095Y-123161904D01*
X232185714Y-121733333D02*
X232852380Y-121733333D01*
X231804761Y-121971428D02*
X232519047Y-122209523D01*
X232519047Y-121590476D01*
X229052380Y-111066666D02*
X228576190Y-111400000D01*
X229052380Y-111638095D02*
X228052380Y-111638095D01*
X228052380Y-111257142D01*
X228100000Y-111161904D01*
X228147619Y-111114285D01*
X228242857Y-111066666D01*
X228385714Y-111066666D01*
X228480952Y-111114285D01*
X228528571Y-111161904D01*
X228576190Y-111257142D01*
X228576190Y-111638095D01*
X228480952Y-110495238D02*
X228433333Y-110590476D01*
X228385714Y-110638095D01*
X228290476Y-110685714D01*
X228242857Y-110685714D01*
X228147619Y-110638095D01*
X228100000Y-110590476D01*
X228052380Y-110495238D01*
X228052380Y-110304761D01*
X228100000Y-110209523D01*
X228147619Y-110161904D01*
X228242857Y-110114285D01*
X228290476Y-110114285D01*
X228385714Y-110161904D01*
X228433333Y-110209523D01*
X228480952Y-110304761D01*
X228480952Y-110495238D01*
X228528571Y-110590476D01*
X228576190Y-110638095D01*
X228671428Y-110685714D01*
X228861904Y-110685714D01*
X228957142Y-110638095D01*
X229004761Y-110590476D01*
X229052380Y-110495238D01*
X229052380Y-110304761D01*
X229004761Y-110209523D01*
X228957142Y-110161904D01*
X228861904Y-110114285D01*
X228671428Y-110114285D01*
X228576190Y-110161904D01*
X228528571Y-110209523D01*
X228480952Y-110304761D01*
X198457142Y-103152380D02*
X198123809Y-102676190D01*
X197885714Y-103152380D02*
X197885714Y-102152380D01*
X198266666Y-102152380D01*
X198361904Y-102200000D01*
X198409523Y-102247619D01*
X198457142Y-102342857D01*
X198457142Y-102485714D01*
X198409523Y-102580952D01*
X198361904Y-102628571D01*
X198266666Y-102676190D01*
X197885714Y-102676190D01*
X199409523Y-103152380D02*
X198838095Y-103152380D01*
X199123809Y-103152380D02*
X199123809Y-102152380D01*
X199028571Y-102295238D01*
X198933333Y-102390476D01*
X198838095Y-102438095D01*
X200314285Y-102152380D02*
X199838095Y-102152380D01*
X199790476Y-102628571D01*
X199838095Y-102580952D01*
X199933333Y-102533333D01*
X200171428Y-102533333D01*
X200266666Y-102580952D01*
X200314285Y-102628571D01*
X200361904Y-102723809D01*
X200361904Y-102961904D01*
X200314285Y-103057142D01*
X200266666Y-103104761D01*
X200171428Y-103152380D01*
X199933333Y-103152380D01*
X199838095Y-103104761D01*
X199790476Y-103057142D01*
X219552380Y-122542857D02*
X219076190Y-122876190D01*
X219552380Y-123114285D02*
X218552380Y-123114285D01*
X218552380Y-122733333D01*
X218600000Y-122638095D01*
X218647619Y-122590476D01*
X218742857Y-122542857D01*
X218885714Y-122542857D01*
X218980952Y-122590476D01*
X219028571Y-122638095D01*
X219076190Y-122733333D01*
X219076190Y-123114285D01*
X219552380Y-121590476D02*
X219552380Y-122161904D01*
X219552380Y-121876190D02*
X218552380Y-121876190D01*
X218695238Y-121971428D01*
X218790476Y-122066666D01*
X218838095Y-122161904D01*
X218552380Y-121257142D02*
X218552380Y-120638095D01*
X218933333Y-120971428D01*
X218933333Y-120828571D01*
X218980952Y-120733333D01*
X219028571Y-120685714D01*
X219123809Y-120638095D01*
X219361904Y-120638095D01*
X219457142Y-120685714D01*
X219504761Y-120733333D01*
X219552380Y-120828571D01*
X219552380Y-121114285D01*
X219504761Y-121209523D01*
X219457142Y-121257142D01*
X204247619Y-117633333D02*
X204723809Y-117300000D01*
X204247619Y-117061904D02*
X205247619Y-117061904D01*
X205247619Y-117442857D01*
X205200000Y-117538095D01*
X205152380Y-117585714D01*
X205057142Y-117633333D01*
X204914285Y-117633333D01*
X204819047Y-117585714D01*
X204771428Y-117538095D01*
X204723809Y-117442857D01*
X204723809Y-117061904D01*
X205247619Y-118538095D02*
X205247619Y-118061904D01*
X204771428Y-118014285D01*
X204819047Y-118061904D01*
X204866666Y-118157142D01*
X204866666Y-118395238D01*
X204819047Y-118490476D01*
X204771428Y-118538095D01*
X204676190Y-118585714D01*
X204438095Y-118585714D01*
X204342857Y-118538095D01*
X204295238Y-118490476D01*
X204247619Y-118395238D01*
X204247619Y-118157142D01*
X204295238Y-118061904D01*
X204342857Y-118014285D01*
X223252380Y-122442857D02*
X222776190Y-122776190D01*
X223252380Y-123014285D02*
X222252380Y-123014285D01*
X222252380Y-122633333D01*
X222300000Y-122538095D01*
X222347619Y-122490476D01*
X222442857Y-122442857D01*
X222585714Y-122442857D01*
X222680952Y-122490476D01*
X222728571Y-122538095D01*
X222776190Y-122633333D01*
X222776190Y-123014285D01*
X223252380Y-121490476D02*
X223252380Y-122061904D01*
X223252380Y-121776190D02*
X222252380Y-121776190D01*
X222395238Y-121871428D01*
X222490476Y-121966666D01*
X222538095Y-122061904D01*
X223252380Y-120538095D02*
X223252380Y-121109523D01*
X223252380Y-120823809D02*
X222252380Y-120823809D01*
X222395238Y-120919047D01*
X222490476Y-121014285D01*
X222538095Y-121109523D01*
X209752380Y-122442857D02*
X209276190Y-122776190D01*
X209752380Y-123014285D02*
X208752380Y-123014285D01*
X208752380Y-122633333D01*
X208800000Y-122538095D01*
X208847619Y-122490476D01*
X208942857Y-122442857D01*
X209085714Y-122442857D01*
X209180952Y-122490476D01*
X209228571Y-122538095D01*
X209276190Y-122633333D01*
X209276190Y-123014285D01*
X209752380Y-121490476D02*
X209752380Y-122061904D01*
X209752380Y-121776190D02*
X208752380Y-121776190D01*
X208895238Y-121871428D01*
X208990476Y-121966666D01*
X209038095Y-122061904D01*
X208752380Y-120871428D02*
X208752380Y-120776190D01*
X208800000Y-120680952D01*
X208847619Y-120633333D01*
X208942857Y-120585714D01*
X209133333Y-120538095D01*
X209371428Y-120538095D01*
X209561904Y-120585714D01*
X209657142Y-120633333D01*
X209704761Y-120680952D01*
X209752380Y-120776190D01*
X209752380Y-120871428D01*
X209704761Y-120966666D01*
X209657142Y-121014285D01*
X209561904Y-121061904D01*
X209371428Y-121109523D01*
X209133333Y-121109523D01*
X208942857Y-121061904D01*
X208847619Y-121014285D01*
X208800000Y-120966666D01*
X208752380Y-120871428D01*
X206552380Y-123342857D02*
X206076190Y-123676190D01*
X206552380Y-123914285D02*
X205552380Y-123914285D01*
X205552380Y-123533333D01*
X205600000Y-123438095D01*
X205647619Y-123390476D01*
X205742857Y-123342857D01*
X205885714Y-123342857D01*
X205980952Y-123390476D01*
X206028571Y-123438095D01*
X206076190Y-123533333D01*
X206076190Y-123914285D01*
X206552380Y-122390476D02*
X206552380Y-122961904D01*
X206552380Y-122676190D02*
X205552380Y-122676190D01*
X205695238Y-122771428D01*
X205790476Y-122866666D01*
X205838095Y-122961904D01*
X205647619Y-122009523D02*
X205600000Y-121961904D01*
X205552380Y-121866666D01*
X205552380Y-121628571D01*
X205600000Y-121533333D01*
X205647619Y-121485714D01*
X205742857Y-121438095D01*
X205838095Y-121438095D01*
X205980952Y-121485714D01*
X206552380Y-122057142D01*
X206552380Y-121438095D01*
X224952380Y-121566666D02*
X224476190Y-121900000D01*
X224952380Y-122138095D02*
X223952380Y-122138095D01*
X223952380Y-121757142D01*
X224000000Y-121661904D01*
X224047619Y-121614285D01*
X224142857Y-121566666D01*
X224285714Y-121566666D01*
X224380952Y-121614285D01*
X224428571Y-121661904D01*
X224476190Y-121757142D01*
X224476190Y-122138095D01*
X223952380Y-121233333D02*
X223952380Y-120566666D01*
X224952380Y-120995238D01*
X211552380Y-116666666D02*
X211076190Y-117000000D01*
X211552380Y-117238095D02*
X210552380Y-117238095D01*
X210552380Y-116857142D01*
X210600000Y-116761904D01*
X210647619Y-116714285D01*
X210742857Y-116666666D01*
X210885714Y-116666666D01*
X210980952Y-116714285D01*
X211028571Y-116761904D01*
X211076190Y-116857142D01*
X211076190Y-117238095D01*
X210552380Y-115809523D02*
X210552380Y-116000000D01*
X210600000Y-116095238D01*
X210647619Y-116142857D01*
X210790476Y-116238095D01*
X210980952Y-116285714D01*
X211361904Y-116285714D01*
X211457142Y-116238095D01*
X211504761Y-116190476D01*
X211552380Y-116095238D01*
X211552380Y-115904761D01*
X211504761Y-115809523D01*
X211457142Y-115761904D01*
X211361904Y-115714285D01*
X211123809Y-115714285D01*
X211028571Y-115761904D01*
X210980952Y-115809523D01*
X210933333Y-115904761D01*
X210933333Y-116095238D01*
X210980952Y-116190476D01*
X211028571Y-116238095D01*
X211123809Y-116285714D01*
X198852380Y-118966666D02*
X198376190Y-119300000D01*
X198852380Y-119538095D02*
X197852380Y-119538095D01*
X197852380Y-119157142D01*
X197900000Y-119061904D01*
X197947619Y-119014285D01*
X198042857Y-118966666D01*
X198185714Y-118966666D01*
X198280952Y-119014285D01*
X198328571Y-119061904D01*
X198376190Y-119157142D01*
X198376190Y-119538095D01*
X198852380Y-118490476D02*
X198852380Y-118300000D01*
X198804761Y-118204761D01*
X198757142Y-118157142D01*
X198614285Y-118061904D01*
X198423809Y-118014285D01*
X198042857Y-118014285D01*
X197947619Y-118061904D01*
X197900000Y-118109523D01*
X197852380Y-118204761D01*
X197852380Y-118395238D01*
X197900000Y-118490476D01*
X197947619Y-118538095D01*
X198042857Y-118585714D01*
X198280952Y-118585714D01*
X198376190Y-118538095D01*
X198423809Y-118490476D01*
X198471428Y-118395238D01*
X198471428Y-118204761D01*
X198423809Y-118109523D01*
X198376190Y-118061904D01*
X198280952Y-118014285D01*
X208052380Y-122366666D02*
X207576190Y-122700000D01*
X208052380Y-122938095D02*
X207052380Y-122938095D01*
X207052380Y-122557142D01*
X207100000Y-122461904D01*
X207147619Y-122414285D01*
X207242857Y-122366666D01*
X207385714Y-122366666D01*
X207480952Y-122414285D01*
X207528571Y-122461904D01*
X207576190Y-122557142D01*
X207576190Y-122938095D01*
X207052380Y-122033333D02*
X207052380Y-121414285D01*
X207433333Y-121747619D01*
X207433333Y-121604761D01*
X207480952Y-121509523D01*
X207528571Y-121461904D01*
X207623809Y-121414285D01*
X207861904Y-121414285D01*
X207957142Y-121461904D01*
X208004761Y-121509523D01*
X208052380Y-121604761D01*
X208052380Y-121890476D01*
X208004761Y-121985714D01*
X207957142Y-122033333D01*
X221252380Y-122366666D02*
X220776190Y-122700000D01*
X221252380Y-122938095D02*
X220252380Y-122938095D01*
X220252380Y-122557142D01*
X220300000Y-122461904D01*
X220347619Y-122414285D01*
X220442857Y-122366666D01*
X220585714Y-122366666D01*
X220680952Y-122414285D01*
X220728571Y-122461904D01*
X220776190Y-122557142D01*
X220776190Y-122938095D01*
X220347619Y-121985714D02*
X220300000Y-121938095D01*
X220252380Y-121842857D01*
X220252380Y-121604761D01*
X220300000Y-121509523D01*
X220347619Y-121461904D01*
X220442857Y-121414285D01*
X220538095Y-121414285D01*
X220680952Y-121461904D01*
X221252380Y-122033333D01*
X221252380Y-121414285D01*
X196633333Y-122352380D02*
X196300000Y-121876190D01*
X196061904Y-122352380D02*
X196061904Y-121352380D01*
X196442857Y-121352380D01*
X196538095Y-121400000D01*
X196585714Y-121447619D01*
X196633333Y-121542857D01*
X196633333Y-121685714D01*
X196585714Y-121780952D01*
X196538095Y-121828571D01*
X196442857Y-121876190D01*
X196061904Y-121876190D01*
X197585714Y-122352380D02*
X197014285Y-122352380D01*
X197300000Y-122352380D02*
X197300000Y-121352380D01*
X197204761Y-121495238D01*
X197109523Y-121590476D01*
X197014285Y-121638095D01*
X232333333Y-105652380D02*
X232000000Y-105176190D01*
X231761904Y-105652380D02*
X231761904Y-104652380D01*
X232142857Y-104652380D01*
X232238095Y-104700000D01*
X232285714Y-104747619D01*
X232333333Y-104842857D01*
X232333333Y-104985714D01*
X232285714Y-105080952D01*
X232238095Y-105128571D01*
X232142857Y-105176190D01*
X231761904Y-105176190D01*
X233190476Y-104985714D02*
X233190476Y-105652380D01*
X232952380Y-104604761D02*
X232714285Y-105319047D01*
X233333333Y-105319047D01*
X228357142Y-115642857D02*
X228404761Y-115690476D01*
X228452380Y-115833333D01*
X228452380Y-115928571D01*
X228404761Y-116071428D01*
X228309523Y-116166666D01*
X228214285Y-116214285D01*
X228023809Y-116261904D01*
X227880952Y-116261904D01*
X227690476Y-116214285D01*
X227595238Y-116166666D01*
X227500000Y-116071428D01*
X227452380Y-115928571D01*
X227452380Y-115833333D01*
X227500000Y-115690476D01*
X227547619Y-115642857D01*
X228452380Y-114690476D02*
X228452380Y-115261904D01*
X228452380Y-114976190D02*
X227452380Y-114976190D01*
X227595238Y-115071428D01*
X227690476Y-115166666D01*
X227738095Y-115261904D01*
X228452380Y-114214285D02*
X228452380Y-114023809D01*
X228404761Y-113928571D01*
X228357142Y-113880952D01*
X228214285Y-113785714D01*
X228023809Y-113738095D01*
X227642857Y-113738095D01*
X227547619Y-113785714D01*
X227500000Y-113833333D01*
X227452380Y-113928571D01*
X227452380Y-114119047D01*
X227500000Y-114214285D01*
X227547619Y-114261904D01*
X227642857Y-114309523D01*
X227880952Y-114309523D01*
X227976190Y-114261904D01*
X228023809Y-114214285D01*
X228071428Y-114119047D01*
X228071428Y-113928571D01*
X228023809Y-113833333D01*
X227976190Y-113785714D01*
X227880952Y-113738095D01*
X223638095Y-111952380D02*
X223638095Y-112761904D01*
X223685714Y-112857142D01*
X223733333Y-112904761D01*
X223828571Y-112952380D01*
X224019047Y-112952380D01*
X224114285Y-112904761D01*
X224161904Y-112857142D01*
X224209523Y-112761904D01*
X224209523Y-111952380D01*
X224590476Y-111952380D02*
X225257142Y-111952380D01*
X224828571Y-112952380D01*
D17*
X215403580Y-113087590D02*
X215403580Y-112587590D01*
X215570247Y-112944733D01*
X215736914Y-112587590D01*
X215736914Y-113087590D01*
X215951200Y-112944733D02*
X216189295Y-112944733D01*
X215903580Y-113087590D02*
X216070247Y-112587590D01*
X216236914Y-113087590D01*
X216355961Y-112587590D02*
X216689295Y-113087590D01*
X216689295Y-112587590D02*
X216355961Y-113087590D01*
X217141676Y-113087590D02*
X216855961Y-113087590D01*
X216998819Y-113087590D02*
X216998819Y-112587590D01*
X216951200Y-112659019D01*
X216903580Y-112706638D01*
X216855961Y-112730447D01*
X217570247Y-112754257D02*
X217570247Y-113087590D01*
X217451200Y-112563780D02*
X217332152Y-112920923D01*
X217641676Y-112920923D01*
X217855961Y-113087590D02*
X217951200Y-113087590D01*
X217998819Y-113063780D01*
X218022628Y-113039971D01*
X218070247Y-112968542D01*
X218094057Y-112873304D01*
X218094057Y-112682828D01*
X218070247Y-112635209D01*
X218046438Y-112611400D01*
X217998819Y-112587590D01*
X217903580Y-112587590D01*
X217855961Y-112611400D01*
X217832152Y-112635209D01*
X217808342Y-112682828D01*
X217808342Y-112801876D01*
X217832152Y-112849495D01*
X217855961Y-112873304D01*
X217903580Y-112897114D01*
X217998819Y-112897114D01*
X218046438Y-112873304D01*
X218070247Y-112849495D01*
X218094057Y-112801876D01*
X218260723Y-112587590D02*
X218570247Y-112587590D01*
X218403580Y-112778066D01*
X218475009Y-112778066D01*
X218522628Y-112801876D01*
X218546438Y-112825685D01*
X218570247Y-112873304D01*
X218570247Y-112992352D01*
X218546438Y-113039971D01*
X218522628Y-113063780D01*
X218475009Y-113087590D01*
X218332152Y-113087590D01*
X218284533Y-113063780D01*
X218260723Y-113039971D01*
X218879771Y-112587590D02*
X218927390Y-112587590D01*
X218975009Y-112611400D01*
X218998819Y-112635209D01*
X219022628Y-112682828D01*
X219046438Y-112778066D01*
X219046438Y-112897114D01*
X219022628Y-112992352D01*
X218998819Y-113039971D01*
X218975009Y-113063780D01*
X218927390Y-113087590D01*
X218879771Y-113087590D01*
X218832152Y-113063780D01*
X218808342Y-113039971D01*
X218784533Y-112992352D01*
X218760723Y-112897114D01*
X218760723Y-112778066D01*
X218784533Y-112682828D01*
X218808342Y-112635209D01*
X218832152Y-112611400D01*
X218879771Y-112587590D01*
X219260723Y-113087590D02*
X219260723Y-112587590D01*
X219379771Y-112587590D01*
X219451200Y-112611400D01*
X219498819Y-112659019D01*
X219522628Y-112706638D01*
X219546438Y-112801876D01*
X219546438Y-112873304D01*
X219522628Y-112968542D01*
X219498819Y-113016161D01*
X219451200Y-113063780D01*
X219379771Y-113087590D01*
X219260723Y-113087590D01*
X219736914Y-112944733D02*
X219975009Y-112944733D01*
X219689295Y-113087590D02*
X219855961Y-112587590D01*
X220022628Y-113087590D01*
X220165485Y-113063780D02*
X220236914Y-113087590D01*
X220355961Y-113087590D01*
X220403580Y-113063780D01*
X220427390Y-113039971D01*
X220451200Y-112992352D01*
X220451200Y-112944733D01*
X220427390Y-112897114D01*
X220403580Y-112873304D01*
X220355961Y-112849495D01*
X220260723Y-112825685D01*
X220213104Y-112801876D01*
X220189295Y-112778066D01*
X220165485Y-112730447D01*
X220165485Y-112682828D01*
X220189295Y-112635209D01*
X220213104Y-112611400D01*
X220260723Y-112587590D01*
X220379771Y-112587590D01*
X220451200Y-112611400D01*
X220665485Y-112825685D02*
X220832152Y-112825685D01*
X220903580Y-113087590D02*
X220665485Y-113087590D01*
X220665485Y-112587590D01*
X220903580Y-112587590D01*
X221117866Y-112897114D02*
X221498819Y-112897114D01*
X221308342Y-113087590D02*
X221308342Y-112706638D01*
D16*
X209657142Y-116742857D02*
X209704761Y-116790476D01*
X209752380Y-116933333D01*
X209752380Y-117028571D01*
X209704761Y-117171428D01*
X209609523Y-117266666D01*
X209514285Y-117314285D01*
X209323809Y-117361904D01*
X209180952Y-117361904D01*
X208990476Y-117314285D01*
X208895238Y-117266666D01*
X208800000Y-117171428D01*
X208752380Y-117028571D01*
X208752380Y-116933333D01*
X208800000Y-116790476D01*
X208847619Y-116742857D01*
X208847619Y-116361904D02*
X208800000Y-116314285D01*
X208752380Y-116219047D01*
X208752380Y-115980952D01*
X208800000Y-115885714D01*
X208847619Y-115838095D01*
X208942857Y-115790476D01*
X209038095Y-115790476D01*
X209180952Y-115838095D01*
X209752380Y-116409523D01*
X209752380Y-115790476D01*
X208752380Y-114933333D02*
X208752380Y-115123809D01*
X208800000Y-115219047D01*
X208847619Y-115266666D01*
X208990476Y-115361904D01*
X209180952Y-115409523D01*
X209561904Y-115409523D01*
X209657142Y-115361904D01*
X209704761Y-115314285D01*
X209752380Y-115219047D01*
X209752380Y-115028571D01*
X209704761Y-114933333D01*
X209657142Y-114885714D01*
X209561904Y-114838095D01*
X209323809Y-114838095D01*
X209228571Y-114885714D01*
X209180952Y-114933333D01*
X209133333Y-115028571D01*
X209133333Y-115219047D01*
X209180952Y-115314285D01*
X209228571Y-115361904D01*
X209323809Y-115409523D01*
X224657142Y-114857142D02*
X224609523Y-114904761D01*
X224466666Y-114952380D01*
X224371428Y-114952380D01*
X224228571Y-114904761D01*
X224133333Y-114809523D01*
X224085714Y-114714285D01*
X224038095Y-114523809D01*
X224038095Y-114380952D01*
X224085714Y-114190476D01*
X224133333Y-114095238D01*
X224228571Y-114000000D01*
X224371428Y-113952380D01*
X224466666Y-113952380D01*
X224609523Y-114000000D01*
X224657142Y-114047619D01*
X225038095Y-114047619D02*
X225085714Y-114000000D01*
X225180952Y-113952380D01*
X225419047Y-113952380D01*
X225514285Y-114000000D01*
X225561904Y-114047619D01*
X225609523Y-114142857D01*
X225609523Y-114238095D01*
X225561904Y-114380952D01*
X224990476Y-114952380D01*
X225609523Y-114952380D01*
X226085714Y-114952380D02*
X226276190Y-114952380D01*
X226371428Y-114904761D01*
X226419047Y-114857142D01*
X226514285Y-114714285D01*
X226561904Y-114523809D01*
X226561904Y-114142857D01*
X226514285Y-114047619D01*
X226466666Y-114000000D01*
X226371428Y-113952380D01*
X226180952Y-113952380D01*
X226085714Y-114000000D01*
X226038095Y-114047619D01*
X225990476Y-114142857D01*
X225990476Y-114380952D01*
X226038095Y-114476190D01*
X226085714Y-114523809D01*
X226180952Y-114571428D01*
X226371428Y-114571428D01*
X226466666Y-114523809D01*
X226514285Y-114476190D01*
X226561904Y-114380952D01*
X234957142Y-111642857D02*
X235004761Y-111690476D01*
X235052380Y-111833333D01*
X235052380Y-111928571D01*
X235004761Y-112071428D01*
X234909523Y-112166666D01*
X234814285Y-112214285D01*
X234623809Y-112261904D01*
X234480952Y-112261904D01*
X234290476Y-112214285D01*
X234195238Y-112166666D01*
X234100000Y-112071428D01*
X234052380Y-111928571D01*
X234052380Y-111833333D01*
X234100000Y-111690476D01*
X234147619Y-111642857D01*
X234147619Y-111261904D02*
X234100000Y-111214285D01*
X234052380Y-111119047D01*
X234052380Y-110880952D01*
X234100000Y-110785714D01*
X234147619Y-110738095D01*
X234242857Y-110690476D01*
X234338095Y-110690476D01*
X234480952Y-110738095D01*
X235052380Y-111309523D01*
X235052380Y-110690476D01*
X235052380Y-109738095D02*
X235052380Y-110309523D01*
X235052380Y-110023809D02*
X234052380Y-110023809D01*
X234195238Y-110119047D01*
X234290476Y-110214285D01*
X234338095Y-110309523D01*
X229257142Y-98442857D02*
X229304761Y-98490476D01*
X229352380Y-98633333D01*
X229352380Y-98728571D01*
X229304761Y-98871428D01*
X229209523Y-98966666D01*
X229114285Y-99014285D01*
X228923809Y-99061904D01*
X228780952Y-99061904D01*
X228590476Y-99014285D01*
X228495238Y-98966666D01*
X228400000Y-98871428D01*
X228352380Y-98728571D01*
X228352380Y-98633333D01*
X228400000Y-98490476D01*
X228447619Y-98442857D01*
X228447619Y-98061904D02*
X228400000Y-98014285D01*
X228352380Y-97919047D01*
X228352380Y-97680952D01*
X228400000Y-97585714D01*
X228447619Y-97538095D01*
X228542857Y-97490476D01*
X228638095Y-97490476D01*
X228780952Y-97538095D01*
X229352380Y-98109523D01*
X229352380Y-97490476D01*
X228447619Y-97109523D02*
X228400000Y-97061904D01*
X228352380Y-96966666D01*
X228352380Y-96728571D01*
X228400000Y-96633333D01*
X228447619Y-96585714D01*
X228542857Y-96538095D01*
X228638095Y-96538095D01*
X228780952Y-96585714D01*
X229352380Y-97157142D01*
X229352380Y-96538095D01*
X217352142Y-105268142D02*
X217304523Y-105315761D01*
X217161666Y-105363380D01*
X217066428Y-105363380D01*
X216923571Y-105315761D01*
X216828333Y-105220523D01*
X216780714Y-105125285D01*
X216733095Y-104934809D01*
X216733095Y-104791952D01*
X216780714Y-104601476D01*
X216828333Y-104506238D01*
X216923571Y-104411000D01*
X217066428Y-104363380D01*
X217161666Y-104363380D01*
X217304523Y-104411000D01*
X217352142Y-104458619D01*
X217733095Y-104458619D02*
X217780714Y-104411000D01*
X217875952Y-104363380D01*
X218114047Y-104363380D01*
X218209285Y-104411000D01*
X218256904Y-104458619D01*
X218304523Y-104553857D01*
X218304523Y-104649095D01*
X218256904Y-104791952D01*
X217685476Y-105363380D01*
X218304523Y-105363380D01*
X218875952Y-104791952D02*
X218780714Y-104744333D01*
X218733095Y-104696714D01*
X218685476Y-104601476D01*
X218685476Y-104553857D01*
X218733095Y-104458619D01*
X218780714Y-104411000D01*
X218875952Y-104363380D01*
X219066428Y-104363380D01*
X219161666Y-104411000D01*
X219209285Y-104458619D01*
X219256904Y-104553857D01*
X219256904Y-104601476D01*
X219209285Y-104696714D01*
X219161666Y-104744333D01*
X219066428Y-104791952D01*
X218875952Y-104791952D01*
X218780714Y-104839571D01*
X218733095Y-104887190D01*
X218685476Y-104982428D01*
X218685476Y-105172904D01*
X218733095Y-105268142D01*
X218780714Y-105315761D01*
X218875952Y-105363380D01*
X219066428Y-105363380D01*
X219161666Y-105315761D01*
X219209285Y-105268142D01*
X219256904Y-105172904D01*
X219256904Y-104982428D01*
X219209285Y-104887190D01*
X219161666Y-104839571D01*
X219066428Y-104791952D01*
X201130142Y-98715257D02*
X201177761Y-98762876D01*
X201225380Y-98905733D01*
X201225380Y-99000971D01*
X201177761Y-99143828D01*
X201082523Y-99239066D01*
X200987285Y-99286685D01*
X200796809Y-99334304D01*
X200653952Y-99334304D01*
X200463476Y-99286685D01*
X200368238Y-99239066D01*
X200273000Y-99143828D01*
X200225380Y-99000971D01*
X200225380Y-98905733D01*
X200273000Y-98762876D01*
X200320619Y-98715257D01*
X200320619Y-98334304D02*
X200273000Y-98286685D01*
X200225380Y-98191447D01*
X200225380Y-97953352D01*
X200273000Y-97858114D01*
X200320619Y-97810495D01*
X200415857Y-97762876D01*
X200511095Y-97762876D01*
X200653952Y-97810495D01*
X201225380Y-98381923D01*
X201225380Y-97762876D01*
X200225380Y-96858114D02*
X200225380Y-97334304D01*
X200701571Y-97381923D01*
X200653952Y-97334304D01*
X200606333Y-97239066D01*
X200606333Y-97000971D01*
X200653952Y-96905733D01*
X200701571Y-96858114D01*
X200796809Y-96810495D01*
X201034904Y-96810495D01*
X201130142Y-96858114D01*
X201177761Y-96905733D01*
X201225380Y-97000971D01*
X201225380Y-97239066D01*
X201177761Y-97334304D01*
X201130142Y-97381923D01*
X209581542Y-111689742D02*
X209533923Y-111737361D01*
X209391066Y-111784980D01*
X209295828Y-111784980D01*
X209152971Y-111737361D01*
X209057733Y-111642123D01*
X209010114Y-111546885D01*
X208962495Y-111356409D01*
X208962495Y-111213552D01*
X209010114Y-111023076D01*
X209057733Y-110927838D01*
X209152971Y-110832600D01*
X209295828Y-110784980D01*
X209391066Y-110784980D01*
X209533923Y-110832600D01*
X209581542Y-110880219D01*
X209962495Y-110880219D02*
X210010114Y-110832600D01*
X210105352Y-110784980D01*
X210343447Y-110784980D01*
X210438685Y-110832600D01*
X210486304Y-110880219D01*
X210533923Y-110975457D01*
X210533923Y-111070695D01*
X210486304Y-111213552D01*
X209914876Y-111784980D01*
X210533923Y-111784980D01*
X210867257Y-110784980D02*
X211486304Y-110784980D01*
X211152971Y-111165933D01*
X211295828Y-111165933D01*
X211391066Y-111213552D01*
X211438685Y-111261171D01*
X211486304Y-111356409D01*
X211486304Y-111594504D01*
X211438685Y-111689742D01*
X211391066Y-111737361D01*
X211295828Y-111784980D01*
X211010114Y-111784980D01*
X210914876Y-111737361D01*
X210867257Y-111689742D01*
X231952380Y-118976190D02*
X230952380Y-118976190D01*
X231857142Y-117928571D02*
X231904761Y-117976190D01*
X231952380Y-118119047D01*
X231952380Y-118214285D01*
X231904761Y-118357142D01*
X231809523Y-118452380D01*
X231714285Y-118500000D01*
X231523809Y-118547619D01*
X231380952Y-118547619D01*
X231190476Y-118500000D01*
X231095238Y-118452380D01*
X231000000Y-118357142D01*
X230952380Y-118214285D01*
X230952380Y-118119047D01*
X231000000Y-117976190D01*
X231047619Y-117928571D01*
X231952380Y-116976190D02*
X231952380Y-117547619D01*
X231952380Y-117261904D02*
X230952380Y-117261904D01*
X231095238Y-117357142D01*
X231190476Y-117452380D01*
X231238095Y-117547619D01*
X225857142Y-105857142D02*
X225809523Y-105904761D01*
X225666666Y-105952380D01*
X225571428Y-105952380D01*
X225428571Y-105904761D01*
X225333333Y-105809523D01*
X225285714Y-105714285D01*
X225238095Y-105523809D01*
X225238095Y-105380952D01*
X225285714Y-105190476D01*
X225333333Y-105095238D01*
X225428571Y-105000000D01*
X225571428Y-104952380D01*
X225666666Y-104952380D01*
X225809523Y-105000000D01*
X225857142Y-105047619D01*
X226238095Y-105047619D02*
X226285714Y-105000000D01*
X226380952Y-104952380D01*
X226619047Y-104952380D01*
X226714285Y-105000000D01*
X226761904Y-105047619D01*
X226809523Y-105142857D01*
X226809523Y-105238095D01*
X226761904Y-105380952D01*
X226190476Y-105952380D01*
X226809523Y-105952380D01*
X227428571Y-104952380D02*
X227523809Y-104952380D01*
X227619047Y-105000000D01*
X227666666Y-105047619D01*
X227714285Y-105142857D01*
X227761904Y-105333333D01*
X227761904Y-105571428D01*
X227714285Y-105761904D01*
X227666666Y-105857142D01*
X227619047Y-105904761D01*
X227523809Y-105952380D01*
X227428571Y-105952380D01*
X227333333Y-105904761D01*
X227285714Y-105857142D01*
X227238095Y-105761904D01*
X227190476Y-105571428D01*
X227190476Y-105333333D01*
X227238095Y-105142857D01*
X227285714Y-105047619D01*
X227333333Y-105000000D01*
X227428571Y-104952380D01*
X194816961Y-104199933D02*
X194864580Y-104057076D01*
X194864580Y-103818980D01*
X194816961Y-103723742D01*
X194769342Y-103676123D01*
X194674104Y-103628504D01*
X194578866Y-103628504D01*
X194483628Y-103676123D01*
X194436009Y-103723742D01*
X194388390Y-103818980D01*
X194340771Y-104009457D01*
X194293152Y-104104695D01*
X194245533Y-104152314D01*
X194150295Y-104199933D01*
X194055057Y-104199933D01*
X193959819Y-104152314D01*
X193912200Y-104104695D01*
X193864580Y-104009457D01*
X193864580Y-103771361D01*
X193912200Y-103628504D01*
X193864580Y-103295171D02*
X194864580Y-103057076D01*
X194150295Y-102866600D01*
X194864580Y-102676123D01*
X193864580Y-102438028D01*
X194864580Y-101533266D02*
X194864580Y-102104695D01*
X194864580Y-101818980D02*
X193864580Y-101818980D01*
X194007438Y-101914219D01*
X194102676Y-102009457D01*
X194150295Y-102104695D01*
X221857142Y-107257142D02*
X221809523Y-107304761D01*
X221666666Y-107352380D01*
X221571428Y-107352380D01*
X221428571Y-107304761D01*
X221333333Y-107209523D01*
X221285714Y-107114285D01*
X221238095Y-106923809D01*
X221238095Y-106780952D01*
X221285714Y-106590476D01*
X221333333Y-106495238D01*
X221428571Y-106400000D01*
X221571428Y-106352380D01*
X221666666Y-106352380D01*
X221809523Y-106400000D01*
X221857142Y-106447619D01*
X222238095Y-106447619D02*
X222285714Y-106400000D01*
X222380952Y-106352380D01*
X222619047Y-106352380D01*
X222714285Y-106400000D01*
X222761904Y-106447619D01*
X222809523Y-106542857D01*
X222809523Y-106638095D01*
X222761904Y-106780952D01*
X222190476Y-107352380D01*
X222809523Y-107352380D01*
X223142857Y-106352380D02*
X223809523Y-106352380D01*
X223380952Y-107352380D01*
X201057142Y-101742857D02*
X201104761Y-101790476D01*
X201152380Y-101933333D01*
X201152380Y-102028571D01*
X201104761Y-102171428D01*
X201009523Y-102266666D01*
X200914285Y-102314285D01*
X200723809Y-102361904D01*
X200580952Y-102361904D01*
X200390476Y-102314285D01*
X200295238Y-102266666D01*
X200200000Y-102171428D01*
X200152380Y-102028571D01*
X200152380Y-101933333D01*
X200200000Y-101790476D01*
X200247619Y-101742857D01*
X200247619Y-101361904D02*
X200200000Y-101314285D01*
X200152380Y-101219047D01*
X200152380Y-100980952D01*
X200200000Y-100885714D01*
X200247619Y-100838095D01*
X200342857Y-100790476D01*
X200438095Y-100790476D01*
X200580952Y-100838095D01*
X201152380Y-101409523D01*
X201152380Y-100790476D01*
X200485714Y-99933333D02*
X201152380Y-99933333D01*
X200104761Y-100171428D02*
X200819047Y-100409523D01*
X200819047Y-99790476D01*
X214238095Y-117252380D02*
X214238095Y-118061904D01*
X214285714Y-118157142D01*
X214333333Y-118204761D01*
X214428571Y-118252380D01*
X214619047Y-118252380D01*
X214714285Y-118204761D01*
X214761904Y-118157142D01*
X214809523Y-118061904D01*
X214809523Y-117252380D01*
X215238095Y-117347619D02*
X215285714Y-117300000D01*
X215380952Y-117252380D01*
X215619047Y-117252380D01*
X215714285Y-117300000D01*
X215761904Y-117347619D01*
X215809523Y-117442857D01*
X215809523Y-117538095D01*
X215761904Y-117680952D01*
X215190476Y-118252380D01*
X215809523Y-118252380D01*
X215344495Y-120781380D02*
X215344495Y-119781380D01*
X215582590Y-119781380D01*
X215725447Y-119829000D01*
X215820685Y-119924238D01*
X215868304Y-120019476D01*
X215915923Y-120209952D01*
X215915923Y-120352809D01*
X215868304Y-120543285D01*
X215820685Y-120638523D01*
X215725447Y-120733761D01*
X215582590Y-120781380D01*
X215344495Y-120781380D01*
X199038095Y-120852380D02*
X199038095Y-121661904D01*
X199085714Y-121757142D01*
X199133333Y-121804761D01*
X199228571Y-121852380D01*
X199419047Y-121852380D01*
X199514285Y-121804761D01*
X199561904Y-121757142D01*
X199609523Y-121661904D01*
X199609523Y-120852380D01*
X200609523Y-121852380D02*
X200038095Y-121852380D01*
X200323809Y-121852380D02*
X200323809Y-120852380D01*
X200228571Y-120995238D01*
X200133333Y-121090476D01*
X200038095Y-121138095D01*
X202339695Y-120857580D02*
X202339695Y-119857580D01*
X202577790Y-119857580D01*
X202720647Y-119905200D01*
X202815885Y-120000438D01*
X202863504Y-120095676D01*
X202911123Y-120286152D01*
X202911123Y-120429009D01*
X202863504Y-120619485D01*
X202815885Y-120714723D01*
X202720647Y-120809961D01*
X202577790Y-120857580D01*
X202339695Y-120857580D01*
X227138095Y-117152380D02*
X227138095Y-117961904D01*
X227185714Y-118057142D01*
X227233333Y-118104761D01*
X227328571Y-118152380D01*
X227519047Y-118152380D01*
X227614285Y-118104761D01*
X227661904Y-118057142D01*
X227709523Y-117961904D01*
X227709523Y-117152380D01*
X228090476Y-117152380D02*
X228709523Y-117152380D01*
X228376190Y-117533333D01*
X228519047Y-117533333D01*
X228614285Y-117580952D01*
X228661904Y-117628571D01*
X228709523Y-117723809D01*
X228709523Y-117961904D01*
X228661904Y-118057142D01*
X228614285Y-118104761D01*
X228519047Y-118152380D01*
X228233333Y-118152380D01*
X228138095Y-118104761D01*
X228090476Y-118057142D01*
X227942895Y-120628980D02*
X227942895Y-119628980D01*
X228180990Y-119628980D01*
X228323847Y-119676600D01*
X228419085Y-119771838D01*
X228466704Y-119867076D01*
X228514323Y-120057552D01*
X228514323Y-120200409D01*
X228466704Y-120390885D01*
X228419085Y-120486123D01*
X228323847Y-120581361D01*
X228180990Y-120628980D01*
X227942895Y-120628980D01*
M02*
