G04 #@! TF.GenerationSoftware,KiCad,Pcbnew,5.99.0+really5.1.10+dfsg1-1*
G04 #@! TF.CreationDate,2021-12-28T19:21:21+02:00*
G04 #@! TF.ProjectId,components_main_board,636f6d70-6f6e-4656-9e74-735f6d61696e,V0.1*
G04 #@! TF.SameCoordinates,Original*
G04 #@! TF.FileFunction,Copper,L3,Inr*
G04 #@! TF.FilePolarity,Positive*
%FSLAX46Y46*%
G04 Gerber Fmt 4.6, Leading zero omitted, Abs format (unit mm)*
G04 Created by KiCad (PCBNEW 5.99.0+really5.1.10+dfsg1-1) date 2021-12-28 19:21:21*
%MOMM*%
%LPD*%
G01*
G04 APERTURE LIST*
G04 #@! TA.AperFunction,ComponentPad*
%ADD10O,1.800000X0.900000*%
G04 #@! TD*
G04 #@! TA.AperFunction,ComponentPad*
%ADD11C,4.400000*%
G04 #@! TD*
G04 #@! TA.AperFunction,ComponentPad*
%ADD12C,1.358000*%
G04 #@! TD*
G04 #@! TA.AperFunction,ComponentPad*
%ADD13R,1.358000X1.358000*%
G04 #@! TD*
G04 #@! TA.AperFunction,ViaPad*
%ADD14C,0.450000*%
G04 #@! TD*
G04 #@! TA.AperFunction,Conductor*
%ADD15C,0.200000*%
G04 #@! TD*
G04 #@! TA.AperFunction,Conductor*
%ADD16C,0.254000*%
G04 #@! TD*
G04 #@! TA.AperFunction,Conductor*
%ADD17C,0.100000*%
G04 #@! TD*
G04 APERTURE END LIST*
D10*
X237501200Y-97909000D03*
X237501200Y-104509000D03*
D11*
X192800000Y-126600000D03*
X236800000Y-126600000D03*
X236800000Y-92500000D03*
X192700000Y-92500000D03*
D12*
X191705000Y-116823800D03*
X194245000Y-118093800D03*
X191705000Y-119363800D03*
D13*
X194245000Y-120633800D03*
X202500000Y-91900000D03*
D12*
X201230000Y-94440000D03*
X199960000Y-91900000D03*
X198690000Y-94440000D03*
X209890000Y-94526000D03*
X211160000Y-91986000D03*
X212430000Y-94526000D03*
D13*
X213700000Y-91986000D03*
D12*
X226990000Y-94540000D03*
X228260000Y-92000000D03*
X229530000Y-94540000D03*
D13*
X230800000Y-92000000D03*
D14*
X214300000Y-104900000D03*
X202200000Y-99200000D03*
X209400000Y-110000000D03*
X222820050Y-108441750D03*
X214100000Y-106900000D03*
X205500000Y-97900000D03*
X211100000Y-106500000D03*
X202000000Y-100700000D03*
X215900000Y-104800000D03*
X200120400Y-105827200D03*
X222540600Y-100900000D03*
X222500000Y-99600000D03*
X222500000Y-97100000D03*
X227493600Y-97646800D03*
X227493600Y-103920600D03*
X226655400Y-102066400D03*
X211339200Y-110067400D03*
X209500000Y-106500000D03*
X206691000Y-110270600D03*
X199045600Y-110270600D03*
X191857400Y-98815200D03*
X191857400Y-106790800D03*
X234834200Y-99907400D03*
X235012000Y-98027800D03*
X237501200Y-99577200D03*
X237501200Y-100567800D03*
X237475800Y-102091800D03*
X237501200Y-102980800D03*
X235012000Y-104733400D03*
X202200000Y-97500000D03*
X231532200Y-99170800D03*
X221245200Y-108441800D03*
X213777600Y-110219800D03*
X221346800Y-110194400D03*
X216622400Y-121218000D03*
X215479400Y-121218000D03*
X214336400Y-121218000D03*
X201327399Y-121247601D03*
X202601600Y-121247601D03*
X203740399Y-121247601D03*
X233183200Y-120176600D03*
X233183200Y-118957400D03*
X226781600Y-121117200D03*
X228154000Y-121117200D03*
X229651800Y-121117200D03*
X197100000Y-123300000D03*
X222400000Y-123200000D03*
X210900000Y-123200000D03*
X208300000Y-123200000D03*
X233208600Y-110118200D03*
X222870800Y-118144600D03*
X224547200Y-118144600D03*
X206200000Y-117500000D03*
X199071000Y-115706200D03*
X232776800Y-117687400D03*
X233665800Y-117687400D03*
X219111600Y-118170000D03*
X233132400Y-111642200D03*
X229322400Y-114258400D03*
X232040200Y-115960200D03*
X235316800Y-114233000D03*
X238161600Y-114029800D03*
X236637600Y-114182200D03*
X235113600Y-115096600D03*
X236586800Y-115071200D03*
X238110800Y-114995000D03*
X238187000Y-113140800D03*
X236688400Y-113217000D03*
X235443800Y-113318600D03*
X233665800Y-123681800D03*
X225918800Y-115934800D03*
X206200000Y-118900000D03*
X209281800Y-118170000D03*
X210856600Y-118170000D03*
X203084200Y-123326200D03*
X201941200Y-123377000D03*
X201382400Y-122869000D03*
X202525400Y-122996000D03*
X203719200Y-122818200D03*
X216190600Y-123250000D03*
X214895200Y-123275400D03*
X214336400Y-122767400D03*
X215530200Y-122894400D03*
X216774800Y-122716600D03*
X226731600Y-122894400D03*
X229576400Y-122945200D03*
X213752200Y-115680800D03*
X221372200Y-115630000D03*
X201788800Y-117738200D03*
X204151000Y-118830400D03*
X213955400Y-118551000D03*
X216343000Y-118373200D03*
X229144600Y-118093800D03*
X226706200Y-118398600D03*
X199756800Y-118195400D03*
X228103200Y-122843600D03*
X207800000Y-117500000D03*
X220457800Y-117814400D03*
X222616800Y-115630000D03*
X197400000Y-118000000D03*
X217700000Y-97200000D03*
X219000000Y-97200000D03*
X205200000Y-101800000D03*
X216012800Y-98459600D03*
X211400000Y-104200000D03*
X213800000Y-101800000D03*
X230633002Y-101615001D03*
X213800000Y-101000000D03*
X230633002Y-99165001D03*
X217714600Y-117865200D03*
X217435200Y-118881200D03*
X238034600Y-119389200D03*
X235316800Y-119389200D03*
X235266000Y-121319600D03*
X238110800Y-121319600D03*
X236612200Y-121319600D03*
X236561400Y-119389200D03*
X236485200Y-117763600D03*
X237882200Y-117814400D03*
X235215200Y-117763600D03*
X195540400Y-123224600D03*
X209078600Y-125129600D03*
X221372200Y-125100000D03*
X205200000Y-100200000D03*
X200171200Y-104074600D03*
D15*
X238999999Y-109203601D02*
X237958400Y-110245200D01*
D16*
X235137777Y-90201037D02*
X234992793Y-90297912D01*
X234597912Y-90692793D01*
X234287656Y-91157124D01*
X234073948Y-91673061D01*
X233965000Y-92220777D01*
X233965000Y-92779223D01*
X234073948Y-93326939D01*
X234287656Y-93842876D01*
X234597912Y-94307207D01*
X234992793Y-94702088D01*
X235457124Y-95012344D01*
X235973061Y-95226052D01*
X236520777Y-95335000D01*
X237079223Y-95335000D01*
X237626939Y-95226052D01*
X238142876Y-95012344D01*
X238607207Y-94702088D01*
X239002088Y-94307207D01*
X239077200Y-94194794D01*
X239077200Y-105569331D01*
X223887206Y-105520801D01*
X223862422Y-105523162D01*
X223838574Y-105530313D01*
X223816580Y-105541978D01*
X223797285Y-105557711D01*
X223781429Y-105576906D01*
X223769623Y-105598825D01*
X223762320Y-105622626D01*
X223759801Y-105647260D01*
X223734938Y-111489973D01*
X196118844Y-111527890D01*
X196011625Y-111515977D01*
X195997600Y-111515200D01*
X190510000Y-111515200D01*
X190510000Y-109915297D01*
X208540000Y-109915297D01*
X208540000Y-110084703D01*
X208573049Y-110250853D01*
X208637878Y-110407363D01*
X208731995Y-110548218D01*
X208851782Y-110668005D01*
X208992637Y-110762122D01*
X209149147Y-110826951D01*
X209315297Y-110860000D01*
X209484703Y-110860000D01*
X209650853Y-110826951D01*
X209807363Y-110762122D01*
X209948218Y-110668005D01*
X210068005Y-110548218D01*
X210162122Y-110407363D01*
X210226951Y-110250853D01*
X210260000Y-110084703D01*
X210260000Y-109915297D01*
X210226951Y-109749147D01*
X210162122Y-109592637D01*
X210068005Y-109451782D01*
X209948218Y-109331995D01*
X209807363Y-109237878D01*
X209650853Y-109173049D01*
X209484703Y-109140000D01*
X209315297Y-109140000D01*
X209149147Y-109173049D01*
X208992637Y-109237878D01*
X208851782Y-109331995D01*
X208731995Y-109451782D01*
X208637878Y-109592637D01*
X208573049Y-109749147D01*
X208540000Y-109915297D01*
X190510000Y-109915297D01*
X190510000Y-108357047D01*
X221960050Y-108357047D01*
X221960050Y-108526453D01*
X221993099Y-108692603D01*
X222057928Y-108849113D01*
X222152045Y-108989968D01*
X222271832Y-109109755D01*
X222412687Y-109203872D01*
X222569197Y-109268701D01*
X222735347Y-109301750D01*
X222904753Y-109301750D01*
X223070903Y-109268701D01*
X223227413Y-109203872D01*
X223368268Y-109109755D01*
X223488055Y-108989968D01*
X223582172Y-108849113D01*
X223647001Y-108692603D01*
X223680050Y-108526453D01*
X223680050Y-108357047D01*
X223647001Y-108190897D01*
X223582172Y-108034387D01*
X223488055Y-107893532D01*
X223368268Y-107773745D01*
X223227413Y-107679628D01*
X223070903Y-107614799D01*
X222904753Y-107581750D01*
X222735347Y-107581750D01*
X222569197Y-107614799D01*
X222412687Y-107679628D01*
X222271832Y-107773745D01*
X222152045Y-107893532D01*
X222057928Y-108034387D01*
X221993099Y-108190897D01*
X221960050Y-108357047D01*
X190510000Y-108357047D01*
X190510000Y-103989897D01*
X199311200Y-103989897D01*
X199311200Y-104159303D01*
X199344249Y-104325453D01*
X199409078Y-104481963D01*
X199503195Y-104622818D01*
X199622982Y-104742605D01*
X199763837Y-104836722D01*
X199920347Y-104901551D01*
X200086497Y-104934600D01*
X200255903Y-104934600D01*
X200422053Y-104901551D01*
X200578563Y-104836722D01*
X200719418Y-104742605D01*
X200839205Y-104622818D01*
X200933322Y-104481963D01*
X200998151Y-104325453D01*
X201031200Y-104159303D01*
X201031200Y-104115297D01*
X210540000Y-104115297D01*
X210540000Y-104284703D01*
X210573049Y-104450853D01*
X210637878Y-104607363D01*
X210731995Y-104748218D01*
X210851782Y-104868005D01*
X210992637Y-104962122D01*
X211149147Y-105026951D01*
X211315297Y-105060000D01*
X211484703Y-105060000D01*
X211650853Y-105026951D01*
X211807363Y-104962122D01*
X211948218Y-104868005D01*
X212000926Y-104815297D01*
X213440000Y-104815297D01*
X213440000Y-104984703D01*
X213473049Y-105150853D01*
X213537878Y-105307363D01*
X213631995Y-105448218D01*
X213751782Y-105568005D01*
X213892637Y-105662122D01*
X214049147Y-105726951D01*
X214215297Y-105760000D01*
X214384703Y-105760000D01*
X214550853Y-105726951D01*
X214707363Y-105662122D01*
X214848218Y-105568005D01*
X214968005Y-105448218D01*
X215062122Y-105307363D01*
X215126951Y-105150853D01*
X215160000Y-104984703D01*
X215160000Y-104815297D01*
X215126951Y-104649147D01*
X215062122Y-104492637D01*
X214968005Y-104351782D01*
X214848218Y-104231995D01*
X214707363Y-104137878D01*
X214550853Y-104073049D01*
X214384703Y-104040000D01*
X214215297Y-104040000D01*
X214049147Y-104073049D01*
X213892637Y-104137878D01*
X213751782Y-104231995D01*
X213631995Y-104351782D01*
X213537878Y-104492637D01*
X213473049Y-104649147D01*
X213440000Y-104815297D01*
X212000926Y-104815297D01*
X212068005Y-104748218D01*
X212162122Y-104607363D01*
X212226951Y-104450853D01*
X212260000Y-104284703D01*
X212260000Y-104115297D01*
X212226951Y-103949147D01*
X212162122Y-103792637D01*
X212068005Y-103651782D01*
X211948218Y-103531995D01*
X211807363Y-103437878D01*
X211650853Y-103373049D01*
X211484703Y-103340000D01*
X211315297Y-103340000D01*
X211149147Y-103373049D01*
X210992637Y-103437878D01*
X210851782Y-103531995D01*
X210731995Y-103651782D01*
X210637878Y-103792637D01*
X210573049Y-103949147D01*
X210540000Y-104115297D01*
X201031200Y-104115297D01*
X201031200Y-103989897D01*
X200998151Y-103823747D01*
X200933322Y-103667237D01*
X200839205Y-103526382D01*
X200719418Y-103406595D01*
X200578563Y-103312478D01*
X200422053Y-103247649D01*
X200255903Y-103214600D01*
X200086497Y-103214600D01*
X199920347Y-103247649D01*
X199763837Y-103312478D01*
X199622982Y-103406595D01*
X199503195Y-103526382D01*
X199409078Y-103667237D01*
X199344249Y-103823747D01*
X199311200Y-103989897D01*
X190510000Y-103989897D01*
X190510000Y-100115297D01*
X204340000Y-100115297D01*
X204340000Y-100284703D01*
X204373049Y-100450853D01*
X204437878Y-100607363D01*
X204531995Y-100748218D01*
X204651782Y-100868005D01*
X204792637Y-100962122D01*
X204884082Y-101000000D01*
X204792637Y-101037878D01*
X204651782Y-101131995D01*
X204531995Y-101251782D01*
X204437878Y-101392637D01*
X204373049Y-101549147D01*
X204340000Y-101715297D01*
X204340000Y-101884703D01*
X204373049Y-102050853D01*
X204437878Y-102207363D01*
X204531995Y-102348218D01*
X204651782Y-102468005D01*
X204792637Y-102562122D01*
X204949147Y-102626951D01*
X205115297Y-102660000D01*
X205284703Y-102660000D01*
X205450853Y-102626951D01*
X205607363Y-102562122D01*
X205748218Y-102468005D01*
X205868005Y-102348218D01*
X205962122Y-102207363D01*
X206026951Y-102050853D01*
X206060000Y-101884703D01*
X206060000Y-101715297D01*
X206026951Y-101549147D01*
X205962122Y-101392637D01*
X205868005Y-101251782D01*
X205748218Y-101131995D01*
X205607363Y-101037878D01*
X205515918Y-101000000D01*
X205607363Y-100962122D01*
X205677441Y-100915297D01*
X212940000Y-100915297D01*
X212940000Y-101084703D01*
X212973049Y-101250853D01*
X213034828Y-101400000D01*
X212973049Y-101549147D01*
X212940000Y-101715297D01*
X212940000Y-101884703D01*
X212973049Y-102050853D01*
X213037878Y-102207363D01*
X213131995Y-102348218D01*
X213251782Y-102468005D01*
X213392637Y-102562122D01*
X213549147Y-102626951D01*
X213715297Y-102660000D01*
X213884703Y-102660000D01*
X214050853Y-102626951D01*
X214207363Y-102562122D01*
X214348218Y-102468005D01*
X214468005Y-102348218D01*
X214562122Y-102207363D01*
X214626951Y-102050853D01*
X214660000Y-101884703D01*
X214660000Y-101715297D01*
X214626951Y-101549147D01*
X214619144Y-101530298D01*
X229773002Y-101530298D01*
X229773002Y-101699704D01*
X229806051Y-101865854D01*
X229870880Y-102022364D01*
X229964997Y-102163219D01*
X230084784Y-102283006D01*
X230225639Y-102377123D01*
X230382149Y-102441952D01*
X230548299Y-102475001D01*
X230717705Y-102475001D01*
X230883855Y-102441952D01*
X231040365Y-102377123D01*
X231181220Y-102283006D01*
X231301007Y-102163219D01*
X231395124Y-102022364D01*
X231459953Y-101865854D01*
X231493002Y-101699704D01*
X231493002Y-101530298D01*
X231459953Y-101364148D01*
X231395124Y-101207638D01*
X231301007Y-101066783D01*
X231181220Y-100946996D01*
X231040365Y-100852879D01*
X230883855Y-100788050D01*
X230717705Y-100755001D01*
X230548299Y-100755001D01*
X230382149Y-100788050D01*
X230225639Y-100852879D01*
X230084784Y-100946996D01*
X229964997Y-101066783D01*
X229870880Y-101207638D01*
X229806051Y-101364148D01*
X229773002Y-101530298D01*
X214619144Y-101530298D01*
X214565172Y-101400000D01*
X214626951Y-101250853D01*
X214660000Y-101084703D01*
X214660000Y-100915297D01*
X214626951Y-100749147D01*
X214562122Y-100592637D01*
X214468005Y-100451782D01*
X214348218Y-100331995D01*
X214207363Y-100237878D01*
X214050853Y-100173049D01*
X213884703Y-100140000D01*
X213715297Y-100140000D01*
X213549147Y-100173049D01*
X213392637Y-100237878D01*
X213251782Y-100331995D01*
X213131995Y-100451782D01*
X213037878Y-100592637D01*
X212973049Y-100749147D01*
X212940000Y-100915297D01*
X205677441Y-100915297D01*
X205748218Y-100868005D01*
X205868005Y-100748218D01*
X205962122Y-100607363D01*
X206026951Y-100450853D01*
X206060000Y-100284703D01*
X206060000Y-100115297D01*
X206026951Y-99949147D01*
X205962122Y-99792637D01*
X205868005Y-99651782D01*
X205748218Y-99531995D01*
X205607363Y-99437878D01*
X205450853Y-99373049D01*
X205284703Y-99340000D01*
X205115297Y-99340000D01*
X204949147Y-99373049D01*
X204792637Y-99437878D01*
X204651782Y-99531995D01*
X204531995Y-99651782D01*
X204437878Y-99792637D01*
X204373049Y-99949147D01*
X204340000Y-100115297D01*
X190510000Y-100115297D01*
X190510000Y-99115297D01*
X201340000Y-99115297D01*
X201340000Y-99284703D01*
X201373049Y-99450853D01*
X201437878Y-99607363D01*
X201531995Y-99748218D01*
X201651782Y-99868005D01*
X201792637Y-99962122D01*
X201949147Y-100026951D01*
X202115297Y-100060000D01*
X202284703Y-100060000D01*
X202450853Y-100026951D01*
X202607363Y-99962122D01*
X202748218Y-99868005D01*
X202868005Y-99748218D01*
X202962122Y-99607363D01*
X203026951Y-99450853D01*
X203060000Y-99284703D01*
X203060000Y-99115297D01*
X203026951Y-98949147D01*
X202962122Y-98792637D01*
X202868005Y-98651782D01*
X202748218Y-98531995D01*
X202607363Y-98437878D01*
X202455315Y-98374897D01*
X215152800Y-98374897D01*
X215152800Y-98544303D01*
X215185849Y-98710453D01*
X215250678Y-98866963D01*
X215344795Y-99007818D01*
X215464582Y-99127605D01*
X215605437Y-99221722D01*
X215761947Y-99286551D01*
X215928097Y-99319600D01*
X216097503Y-99319600D01*
X216263653Y-99286551D01*
X216420163Y-99221722D01*
X216561018Y-99127605D01*
X216608325Y-99080298D01*
X229773002Y-99080298D01*
X229773002Y-99249704D01*
X229806051Y-99415854D01*
X229870880Y-99572364D01*
X229964997Y-99713219D01*
X230084784Y-99833006D01*
X230225639Y-99927123D01*
X230382149Y-99991952D01*
X230548299Y-100025001D01*
X230717705Y-100025001D01*
X230883855Y-99991952D01*
X231040365Y-99927123D01*
X231181220Y-99833006D01*
X231301007Y-99713219D01*
X231395124Y-99572364D01*
X231459953Y-99415854D01*
X231493002Y-99249704D01*
X231493002Y-99080298D01*
X231459953Y-98914148D01*
X231395124Y-98757638D01*
X231301007Y-98616783D01*
X231181220Y-98496996D01*
X231040365Y-98402879D01*
X230883855Y-98338050D01*
X230717705Y-98305001D01*
X230548299Y-98305001D01*
X230382149Y-98338050D01*
X230225639Y-98402879D01*
X230084784Y-98496996D01*
X229964997Y-98616783D01*
X229870880Y-98757638D01*
X229806051Y-98914148D01*
X229773002Y-99080298D01*
X216608325Y-99080298D01*
X216680805Y-99007818D01*
X216774922Y-98866963D01*
X216839751Y-98710453D01*
X216872800Y-98544303D01*
X216872800Y-98374897D01*
X216839751Y-98208747D01*
X216774922Y-98052237D01*
X216680805Y-97911382D01*
X216561018Y-97791595D01*
X216420163Y-97697478D01*
X216263653Y-97632649D01*
X216097503Y-97599600D01*
X215928097Y-97599600D01*
X215761947Y-97632649D01*
X215605437Y-97697478D01*
X215464582Y-97791595D01*
X215344795Y-97911382D01*
X215250678Y-98052237D01*
X215185849Y-98208747D01*
X215152800Y-98374897D01*
X202455315Y-98374897D01*
X202450853Y-98373049D01*
X202284703Y-98340000D01*
X202115297Y-98340000D01*
X201949147Y-98373049D01*
X201792637Y-98437878D01*
X201651782Y-98531995D01*
X201531995Y-98651782D01*
X201437878Y-98792637D01*
X201373049Y-98949147D01*
X201340000Y-99115297D01*
X190510000Y-99115297D01*
X190510000Y-97115297D01*
X216840000Y-97115297D01*
X216840000Y-97284703D01*
X216873049Y-97450853D01*
X216937878Y-97607363D01*
X217031995Y-97748218D01*
X217151782Y-97868005D01*
X217292637Y-97962122D01*
X217449147Y-98026951D01*
X217615297Y-98060000D01*
X217784703Y-98060000D01*
X217950853Y-98026951D01*
X218107363Y-97962122D01*
X218248218Y-97868005D01*
X218350000Y-97766223D01*
X218451782Y-97868005D01*
X218592637Y-97962122D01*
X218749147Y-98026951D01*
X218915297Y-98060000D01*
X219084703Y-98060000D01*
X219250853Y-98026951D01*
X219407363Y-97962122D01*
X219548218Y-97868005D01*
X219668005Y-97748218D01*
X219762122Y-97607363D01*
X219826951Y-97450853D01*
X219860000Y-97284703D01*
X219860000Y-97115297D01*
X219826951Y-96949147D01*
X219762122Y-96792637D01*
X219668005Y-96651782D01*
X219548218Y-96531995D01*
X219407363Y-96437878D01*
X219250853Y-96373049D01*
X219084703Y-96340000D01*
X218915297Y-96340000D01*
X218749147Y-96373049D01*
X218592637Y-96437878D01*
X218451782Y-96531995D01*
X218350000Y-96633777D01*
X218248218Y-96531995D01*
X218107363Y-96437878D01*
X217950853Y-96373049D01*
X217784703Y-96340000D01*
X217615297Y-96340000D01*
X217449147Y-96373049D01*
X217292637Y-96437878D01*
X217151782Y-96531995D01*
X217031995Y-96651782D01*
X216937878Y-96792637D01*
X216873049Y-96949147D01*
X216840000Y-97115297D01*
X190510000Y-97115297D01*
X190510000Y-94319295D01*
X190892793Y-94702088D01*
X191357124Y-95012344D01*
X191873061Y-95226052D01*
X192420777Y-95335000D01*
X192979223Y-95335000D01*
X193526939Y-95226052D01*
X194042876Y-95012344D01*
X194507207Y-94702088D01*
X194898713Y-94310582D01*
X197376000Y-94310582D01*
X197376000Y-94569418D01*
X197426496Y-94823280D01*
X197525548Y-95062412D01*
X197669349Y-95277626D01*
X197852374Y-95460651D01*
X198067588Y-95604452D01*
X198306720Y-95703504D01*
X198560582Y-95754000D01*
X198819418Y-95754000D01*
X199073280Y-95703504D01*
X199312412Y-95604452D01*
X199527626Y-95460651D01*
X199710651Y-95277626D01*
X199854452Y-95062412D01*
X199953504Y-94823280D01*
X199960000Y-94790622D01*
X199966496Y-94823280D01*
X200065548Y-95062412D01*
X200209349Y-95277626D01*
X200392374Y-95460651D01*
X200607588Y-95604452D01*
X200846720Y-95703504D01*
X201100582Y-95754000D01*
X201359418Y-95754000D01*
X201613280Y-95703504D01*
X201852412Y-95604452D01*
X202067626Y-95460651D01*
X202250651Y-95277626D01*
X202394452Y-95062412D01*
X202493504Y-94823280D01*
X202544000Y-94569418D01*
X202544000Y-94310582D01*
X202493504Y-94056720D01*
X202394452Y-93817588D01*
X202250651Y-93602374D01*
X202209404Y-93561127D01*
X202490000Y-93561127D01*
X202490000Y-93838873D01*
X202544186Y-94111282D01*
X202650475Y-94367885D01*
X202804782Y-94598822D01*
X203001178Y-94795218D01*
X203232115Y-94949525D01*
X203488718Y-95055814D01*
X203761127Y-95110000D01*
X204038873Y-95110000D01*
X204311282Y-95055814D01*
X204567885Y-94949525D01*
X204798822Y-94795218D01*
X204995218Y-94598822D01*
X205130350Y-94396582D01*
X208576000Y-94396582D01*
X208576000Y-94655418D01*
X208626496Y-94909280D01*
X208725548Y-95148412D01*
X208869349Y-95363626D01*
X209052374Y-95546651D01*
X209267588Y-95690452D01*
X209506720Y-95789504D01*
X209760582Y-95840000D01*
X210019418Y-95840000D01*
X210273280Y-95789504D01*
X210512412Y-95690452D01*
X210727626Y-95546651D01*
X210910651Y-95363626D01*
X211054452Y-95148412D01*
X211153504Y-94909280D01*
X211160000Y-94876622D01*
X211166496Y-94909280D01*
X211265548Y-95148412D01*
X211409349Y-95363626D01*
X211592374Y-95546651D01*
X211807588Y-95690452D01*
X212046720Y-95789504D01*
X212300582Y-95840000D01*
X212559418Y-95840000D01*
X212813280Y-95789504D01*
X213052412Y-95690452D01*
X213267626Y-95546651D01*
X213450651Y-95363626D01*
X213594452Y-95148412D01*
X213693504Y-94909280D01*
X213744000Y-94655418D01*
X213744000Y-94396582D01*
X213693504Y-94142720D01*
X213594452Y-93903588D01*
X213450651Y-93688374D01*
X213409404Y-93647127D01*
X213690000Y-93647127D01*
X213690000Y-93924873D01*
X213744186Y-94197282D01*
X213850475Y-94453885D01*
X214004782Y-94684822D01*
X214201178Y-94881218D01*
X214432115Y-95035525D01*
X214688718Y-95141814D01*
X214961127Y-95196000D01*
X215238873Y-95196000D01*
X215511282Y-95141814D01*
X215767885Y-95035525D01*
X215998822Y-94881218D01*
X216195218Y-94684822D01*
X216349525Y-94453885D01*
X216367461Y-94410582D01*
X225676000Y-94410582D01*
X225676000Y-94669418D01*
X225726496Y-94923280D01*
X225825548Y-95162412D01*
X225969349Y-95377626D01*
X226152374Y-95560651D01*
X226367588Y-95704452D01*
X226606720Y-95803504D01*
X226860582Y-95854000D01*
X227119418Y-95854000D01*
X227373280Y-95803504D01*
X227612412Y-95704452D01*
X227827626Y-95560651D01*
X228010651Y-95377626D01*
X228154452Y-95162412D01*
X228253504Y-94923280D01*
X228260000Y-94890622D01*
X228266496Y-94923280D01*
X228365548Y-95162412D01*
X228509349Y-95377626D01*
X228692374Y-95560651D01*
X228907588Y-95704452D01*
X229146720Y-95803504D01*
X229400582Y-95854000D01*
X229659418Y-95854000D01*
X229913280Y-95803504D01*
X230152412Y-95704452D01*
X230367626Y-95560651D01*
X230550651Y-95377626D01*
X230694452Y-95162412D01*
X230793504Y-94923280D01*
X230844000Y-94669418D01*
X230844000Y-94410582D01*
X230793504Y-94156720D01*
X230694452Y-93917588D01*
X230550651Y-93702374D01*
X230509404Y-93661127D01*
X230790000Y-93661127D01*
X230790000Y-93938873D01*
X230844186Y-94211282D01*
X230950475Y-94467885D01*
X231104782Y-94698822D01*
X231301178Y-94895218D01*
X231532115Y-95049525D01*
X231788718Y-95155814D01*
X232061127Y-95210000D01*
X232338873Y-95210000D01*
X232611282Y-95155814D01*
X232867885Y-95049525D01*
X233098822Y-94895218D01*
X233295218Y-94698822D01*
X233449525Y-94467885D01*
X233555814Y-94211282D01*
X233610000Y-93938873D01*
X233610000Y-93661127D01*
X233555814Y-93388718D01*
X233449525Y-93132115D01*
X233295218Y-92901178D01*
X233098822Y-92704782D01*
X232867885Y-92550475D01*
X232611282Y-92444186D01*
X232338873Y-92390000D01*
X232061127Y-92390000D01*
X231788718Y-92444186D01*
X231532115Y-92550475D01*
X231301178Y-92704782D01*
X231104782Y-92901178D01*
X230950475Y-93132115D01*
X230844186Y-93388718D01*
X230790000Y-93661127D01*
X230509404Y-93661127D01*
X230367626Y-93519349D01*
X230152412Y-93375548D01*
X229913280Y-93276496D01*
X229659418Y-93226000D01*
X229400582Y-93226000D01*
X229146720Y-93276496D01*
X228907588Y-93375548D01*
X228692374Y-93519349D01*
X228509349Y-93702374D01*
X228365548Y-93917588D01*
X228266496Y-94156720D01*
X228260000Y-94189378D01*
X228253504Y-94156720D01*
X228154452Y-93917588D01*
X228010651Y-93702374D01*
X227827626Y-93519349D01*
X227612412Y-93375548D01*
X227373280Y-93276496D01*
X227119418Y-93226000D01*
X226860582Y-93226000D01*
X226606720Y-93276496D01*
X226367588Y-93375548D01*
X226152374Y-93519349D01*
X225969349Y-93702374D01*
X225825548Y-93917588D01*
X225726496Y-94156720D01*
X225676000Y-94410582D01*
X216367461Y-94410582D01*
X216455814Y-94197282D01*
X216510000Y-93924873D01*
X216510000Y-93647127D01*
X216455814Y-93374718D01*
X216349525Y-93118115D01*
X216195218Y-92887178D01*
X215998822Y-92690782D01*
X215767885Y-92536475D01*
X215511282Y-92430186D01*
X215238873Y-92376000D01*
X214961127Y-92376000D01*
X214688718Y-92430186D01*
X214432115Y-92536475D01*
X214201178Y-92690782D01*
X214004782Y-92887178D01*
X213850475Y-93118115D01*
X213744186Y-93374718D01*
X213690000Y-93647127D01*
X213409404Y-93647127D01*
X213267626Y-93505349D01*
X213052412Y-93361548D01*
X212813280Y-93262496D01*
X212559418Y-93212000D01*
X212300582Y-93212000D01*
X212046720Y-93262496D01*
X211807588Y-93361548D01*
X211592374Y-93505349D01*
X211409349Y-93688374D01*
X211265548Y-93903588D01*
X211166496Y-94142720D01*
X211160000Y-94175378D01*
X211153504Y-94142720D01*
X211054452Y-93903588D01*
X210910651Y-93688374D01*
X210727626Y-93505349D01*
X210512412Y-93361548D01*
X210273280Y-93262496D01*
X210019418Y-93212000D01*
X209760582Y-93212000D01*
X209506720Y-93262496D01*
X209267588Y-93361548D01*
X209052374Y-93505349D01*
X208869349Y-93688374D01*
X208725548Y-93903588D01*
X208626496Y-94142720D01*
X208576000Y-94396582D01*
X205130350Y-94396582D01*
X205149525Y-94367885D01*
X205255814Y-94111282D01*
X205310000Y-93838873D01*
X205310000Y-93561127D01*
X205255814Y-93288718D01*
X205149525Y-93032115D01*
X204995218Y-92801178D01*
X204798822Y-92604782D01*
X204567885Y-92450475D01*
X204311282Y-92344186D01*
X204038873Y-92290000D01*
X203761127Y-92290000D01*
X203488718Y-92344186D01*
X203232115Y-92450475D01*
X203001178Y-92604782D01*
X202804782Y-92801178D01*
X202650475Y-93032115D01*
X202544186Y-93288718D01*
X202490000Y-93561127D01*
X202209404Y-93561127D01*
X202067626Y-93419349D01*
X201852412Y-93275548D01*
X201613280Y-93176496D01*
X201359418Y-93126000D01*
X201100582Y-93126000D01*
X200846720Y-93176496D01*
X200607588Y-93275548D01*
X200392374Y-93419349D01*
X200209349Y-93602374D01*
X200065548Y-93817588D01*
X199966496Y-94056720D01*
X199960000Y-94089378D01*
X199953504Y-94056720D01*
X199854452Y-93817588D01*
X199710651Y-93602374D01*
X199527626Y-93419349D01*
X199312412Y-93275548D01*
X199073280Y-93176496D01*
X198819418Y-93126000D01*
X198560582Y-93126000D01*
X198306720Y-93176496D01*
X198067588Y-93275548D01*
X197852374Y-93419349D01*
X197669349Y-93602374D01*
X197525548Y-93817588D01*
X197426496Y-94056720D01*
X197376000Y-94310582D01*
X194898713Y-94310582D01*
X194902088Y-94307207D01*
X195212344Y-93842876D01*
X195426052Y-93326939D01*
X195535000Y-92779223D01*
X195535000Y-92220777D01*
X195445451Y-91770582D01*
X198646000Y-91770582D01*
X198646000Y-92029418D01*
X198696496Y-92283280D01*
X198795548Y-92522412D01*
X198939349Y-92737626D01*
X199122374Y-92920651D01*
X199337588Y-93064452D01*
X199576720Y-93163504D01*
X199830582Y-93214000D01*
X200089418Y-93214000D01*
X200343280Y-93163504D01*
X200582412Y-93064452D01*
X200797626Y-92920651D01*
X200980651Y-92737626D01*
X201124452Y-92522412D01*
X201223504Y-92283280D01*
X201274000Y-92029418D01*
X201274000Y-91856582D01*
X209846000Y-91856582D01*
X209846000Y-92115418D01*
X209896496Y-92369280D01*
X209995548Y-92608412D01*
X210139349Y-92823626D01*
X210322374Y-93006651D01*
X210537588Y-93150452D01*
X210776720Y-93249504D01*
X211030582Y-93300000D01*
X211289418Y-93300000D01*
X211543280Y-93249504D01*
X211782412Y-93150452D01*
X211997626Y-93006651D01*
X212180651Y-92823626D01*
X212324452Y-92608412D01*
X212423504Y-92369280D01*
X212474000Y-92115418D01*
X212474000Y-91870582D01*
X226946000Y-91870582D01*
X226946000Y-92129418D01*
X226996496Y-92383280D01*
X227095548Y-92622412D01*
X227239349Y-92837626D01*
X227422374Y-93020651D01*
X227637588Y-93164452D01*
X227876720Y-93263504D01*
X228130582Y-93314000D01*
X228389418Y-93314000D01*
X228643280Y-93263504D01*
X228882412Y-93164452D01*
X229097626Y-93020651D01*
X229280651Y-92837626D01*
X229424452Y-92622412D01*
X229523504Y-92383280D01*
X229574000Y-92129418D01*
X229574000Y-91870582D01*
X229523504Y-91616720D01*
X229424452Y-91377588D01*
X229280651Y-91162374D01*
X229097626Y-90979349D01*
X228882412Y-90835548D01*
X228643280Y-90736496D01*
X228389418Y-90686000D01*
X228130582Y-90686000D01*
X227876720Y-90736496D01*
X227637588Y-90835548D01*
X227422374Y-90979349D01*
X227239349Y-91162374D01*
X227095548Y-91377588D01*
X226996496Y-91616720D01*
X226946000Y-91870582D01*
X212474000Y-91870582D01*
X212474000Y-91856582D01*
X212423504Y-91602720D01*
X212324452Y-91363588D01*
X212180651Y-91148374D01*
X211997626Y-90965349D01*
X211782412Y-90821548D01*
X211543280Y-90722496D01*
X211289418Y-90672000D01*
X211030582Y-90672000D01*
X210776720Y-90722496D01*
X210537588Y-90821548D01*
X210322374Y-90965349D01*
X210139349Y-91148374D01*
X209995548Y-91363588D01*
X209896496Y-91602720D01*
X209846000Y-91856582D01*
X201274000Y-91856582D01*
X201274000Y-91770582D01*
X201223504Y-91516720D01*
X201124452Y-91277588D01*
X200980651Y-91062374D01*
X200797626Y-90879349D01*
X200582412Y-90735548D01*
X200343280Y-90636496D01*
X200089418Y-90586000D01*
X199830582Y-90586000D01*
X199576720Y-90636496D01*
X199337588Y-90735548D01*
X199122374Y-90879349D01*
X198939349Y-91062374D01*
X198795548Y-91277588D01*
X198696496Y-91516720D01*
X198646000Y-91770582D01*
X195445451Y-91770582D01*
X195426052Y-91673061D01*
X195212344Y-91157124D01*
X194902088Y-90692793D01*
X194507207Y-90297912D01*
X194331192Y-90180302D01*
X235137777Y-90201037D01*
G04 #@! TA.AperFunction,Conductor*
D17*
G36*
X235137777Y-90201037D02*
G01*
X234992793Y-90297912D01*
X234597912Y-90692793D01*
X234287656Y-91157124D01*
X234073948Y-91673061D01*
X233965000Y-92220777D01*
X233965000Y-92779223D01*
X234073948Y-93326939D01*
X234287656Y-93842876D01*
X234597912Y-94307207D01*
X234992793Y-94702088D01*
X235457124Y-95012344D01*
X235973061Y-95226052D01*
X236520777Y-95335000D01*
X237079223Y-95335000D01*
X237626939Y-95226052D01*
X238142876Y-95012344D01*
X238607207Y-94702088D01*
X239002088Y-94307207D01*
X239077200Y-94194794D01*
X239077200Y-105569331D01*
X223887206Y-105520801D01*
X223862422Y-105523162D01*
X223838574Y-105530313D01*
X223816580Y-105541978D01*
X223797285Y-105557711D01*
X223781429Y-105576906D01*
X223769623Y-105598825D01*
X223762320Y-105622626D01*
X223759801Y-105647260D01*
X223734938Y-111489973D01*
X196118844Y-111527890D01*
X196011625Y-111515977D01*
X195997600Y-111515200D01*
X190510000Y-111515200D01*
X190510000Y-109915297D01*
X208540000Y-109915297D01*
X208540000Y-110084703D01*
X208573049Y-110250853D01*
X208637878Y-110407363D01*
X208731995Y-110548218D01*
X208851782Y-110668005D01*
X208992637Y-110762122D01*
X209149147Y-110826951D01*
X209315297Y-110860000D01*
X209484703Y-110860000D01*
X209650853Y-110826951D01*
X209807363Y-110762122D01*
X209948218Y-110668005D01*
X210068005Y-110548218D01*
X210162122Y-110407363D01*
X210226951Y-110250853D01*
X210260000Y-110084703D01*
X210260000Y-109915297D01*
X210226951Y-109749147D01*
X210162122Y-109592637D01*
X210068005Y-109451782D01*
X209948218Y-109331995D01*
X209807363Y-109237878D01*
X209650853Y-109173049D01*
X209484703Y-109140000D01*
X209315297Y-109140000D01*
X209149147Y-109173049D01*
X208992637Y-109237878D01*
X208851782Y-109331995D01*
X208731995Y-109451782D01*
X208637878Y-109592637D01*
X208573049Y-109749147D01*
X208540000Y-109915297D01*
X190510000Y-109915297D01*
X190510000Y-108357047D01*
X221960050Y-108357047D01*
X221960050Y-108526453D01*
X221993099Y-108692603D01*
X222057928Y-108849113D01*
X222152045Y-108989968D01*
X222271832Y-109109755D01*
X222412687Y-109203872D01*
X222569197Y-109268701D01*
X222735347Y-109301750D01*
X222904753Y-109301750D01*
X223070903Y-109268701D01*
X223227413Y-109203872D01*
X223368268Y-109109755D01*
X223488055Y-108989968D01*
X223582172Y-108849113D01*
X223647001Y-108692603D01*
X223680050Y-108526453D01*
X223680050Y-108357047D01*
X223647001Y-108190897D01*
X223582172Y-108034387D01*
X223488055Y-107893532D01*
X223368268Y-107773745D01*
X223227413Y-107679628D01*
X223070903Y-107614799D01*
X222904753Y-107581750D01*
X222735347Y-107581750D01*
X222569197Y-107614799D01*
X222412687Y-107679628D01*
X222271832Y-107773745D01*
X222152045Y-107893532D01*
X222057928Y-108034387D01*
X221993099Y-108190897D01*
X221960050Y-108357047D01*
X190510000Y-108357047D01*
X190510000Y-103989897D01*
X199311200Y-103989897D01*
X199311200Y-104159303D01*
X199344249Y-104325453D01*
X199409078Y-104481963D01*
X199503195Y-104622818D01*
X199622982Y-104742605D01*
X199763837Y-104836722D01*
X199920347Y-104901551D01*
X200086497Y-104934600D01*
X200255903Y-104934600D01*
X200422053Y-104901551D01*
X200578563Y-104836722D01*
X200719418Y-104742605D01*
X200839205Y-104622818D01*
X200933322Y-104481963D01*
X200998151Y-104325453D01*
X201031200Y-104159303D01*
X201031200Y-104115297D01*
X210540000Y-104115297D01*
X210540000Y-104284703D01*
X210573049Y-104450853D01*
X210637878Y-104607363D01*
X210731995Y-104748218D01*
X210851782Y-104868005D01*
X210992637Y-104962122D01*
X211149147Y-105026951D01*
X211315297Y-105060000D01*
X211484703Y-105060000D01*
X211650853Y-105026951D01*
X211807363Y-104962122D01*
X211948218Y-104868005D01*
X212000926Y-104815297D01*
X213440000Y-104815297D01*
X213440000Y-104984703D01*
X213473049Y-105150853D01*
X213537878Y-105307363D01*
X213631995Y-105448218D01*
X213751782Y-105568005D01*
X213892637Y-105662122D01*
X214049147Y-105726951D01*
X214215297Y-105760000D01*
X214384703Y-105760000D01*
X214550853Y-105726951D01*
X214707363Y-105662122D01*
X214848218Y-105568005D01*
X214968005Y-105448218D01*
X215062122Y-105307363D01*
X215126951Y-105150853D01*
X215160000Y-104984703D01*
X215160000Y-104815297D01*
X215126951Y-104649147D01*
X215062122Y-104492637D01*
X214968005Y-104351782D01*
X214848218Y-104231995D01*
X214707363Y-104137878D01*
X214550853Y-104073049D01*
X214384703Y-104040000D01*
X214215297Y-104040000D01*
X214049147Y-104073049D01*
X213892637Y-104137878D01*
X213751782Y-104231995D01*
X213631995Y-104351782D01*
X213537878Y-104492637D01*
X213473049Y-104649147D01*
X213440000Y-104815297D01*
X212000926Y-104815297D01*
X212068005Y-104748218D01*
X212162122Y-104607363D01*
X212226951Y-104450853D01*
X212260000Y-104284703D01*
X212260000Y-104115297D01*
X212226951Y-103949147D01*
X212162122Y-103792637D01*
X212068005Y-103651782D01*
X211948218Y-103531995D01*
X211807363Y-103437878D01*
X211650853Y-103373049D01*
X211484703Y-103340000D01*
X211315297Y-103340000D01*
X211149147Y-103373049D01*
X210992637Y-103437878D01*
X210851782Y-103531995D01*
X210731995Y-103651782D01*
X210637878Y-103792637D01*
X210573049Y-103949147D01*
X210540000Y-104115297D01*
X201031200Y-104115297D01*
X201031200Y-103989897D01*
X200998151Y-103823747D01*
X200933322Y-103667237D01*
X200839205Y-103526382D01*
X200719418Y-103406595D01*
X200578563Y-103312478D01*
X200422053Y-103247649D01*
X200255903Y-103214600D01*
X200086497Y-103214600D01*
X199920347Y-103247649D01*
X199763837Y-103312478D01*
X199622982Y-103406595D01*
X199503195Y-103526382D01*
X199409078Y-103667237D01*
X199344249Y-103823747D01*
X199311200Y-103989897D01*
X190510000Y-103989897D01*
X190510000Y-100115297D01*
X204340000Y-100115297D01*
X204340000Y-100284703D01*
X204373049Y-100450853D01*
X204437878Y-100607363D01*
X204531995Y-100748218D01*
X204651782Y-100868005D01*
X204792637Y-100962122D01*
X204884082Y-101000000D01*
X204792637Y-101037878D01*
X204651782Y-101131995D01*
X204531995Y-101251782D01*
X204437878Y-101392637D01*
X204373049Y-101549147D01*
X204340000Y-101715297D01*
X204340000Y-101884703D01*
X204373049Y-102050853D01*
X204437878Y-102207363D01*
X204531995Y-102348218D01*
X204651782Y-102468005D01*
X204792637Y-102562122D01*
X204949147Y-102626951D01*
X205115297Y-102660000D01*
X205284703Y-102660000D01*
X205450853Y-102626951D01*
X205607363Y-102562122D01*
X205748218Y-102468005D01*
X205868005Y-102348218D01*
X205962122Y-102207363D01*
X206026951Y-102050853D01*
X206060000Y-101884703D01*
X206060000Y-101715297D01*
X206026951Y-101549147D01*
X205962122Y-101392637D01*
X205868005Y-101251782D01*
X205748218Y-101131995D01*
X205607363Y-101037878D01*
X205515918Y-101000000D01*
X205607363Y-100962122D01*
X205677441Y-100915297D01*
X212940000Y-100915297D01*
X212940000Y-101084703D01*
X212973049Y-101250853D01*
X213034828Y-101400000D01*
X212973049Y-101549147D01*
X212940000Y-101715297D01*
X212940000Y-101884703D01*
X212973049Y-102050853D01*
X213037878Y-102207363D01*
X213131995Y-102348218D01*
X213251782Y-102468005D01*
X213392637Y-102562122D01*
X213549147Y-102626951D01*
X213715297Y-102660000D01*
X213884703Y-102660000D01*
X214050853Y-102626951D01*
X214207363Y-102562122D01*
X214348218Y-102468005D01*
X214468005Y-102348218D01*
X214562122Y-102207363D01*
X214626951Y-102050853D01*
X214660000Y-101884703D01*
X214660000Y-101715297D01*
X214626951Y-101549147D01*
X214619144Y-101530298D01*
X229773002Y-101530298D01*
X229773002Y-101699704D01*
X229806051Y-101865854D01*
X229870880Y-102022364D01*
X229964997Y-102163219D01*
X230084784Y-102283006D01*
X230225639Y-102377123D01*
X230382149Y-102441952D01*
X230548299Y-102475001D01*
X230717705Y-102475001D01*
X230883855Y-102441952D01*
X231040365Y-102377123D01*
X231181220Y-102283006D01*
X231301007Y-102163219D01*
X231395124Y-102022364D01*
X231459953Y-101865854D01*
X231493002Y-101699704D01*
X231493002Y-101530298D01*
X231459953Y-101364148D01*
X231395124Y-101207638D01*
X231301007Y-101066783D01*
X231181220Y-100946996D01*
X231040365Y-100852879D01*
X230883855Y-100788050D01*
X230717705Y-100755001D01*
X230548299Y-100755001D01*
X230382149Y-100788050D01*
X230225639Y-100852879D01*
X230084784Y-100946996D01*
X229964997Y-101066783D01*
X229870880Y-101207638D01*
X229806051Y-101364148D01*
X229773002Y-101530298D01*
X214619144Y-101530298D01*
X214565172Y-101400000D01*
X214626951Y-101250853D01*
X214660000Y-101084703D01*
X214660000Y-100915297D01*
X214626951Y-100749147D01*
X214562122Y-100592637D01*
X214468005Y-100451782D01*
X214348218Y-100331995D01*
X214207363Y-100237878D01*
X214050853Y-100173049D01*
X213884703Y-100140000D01*
X213715297Y-100140000D01*
X213549147Y-100173049D01*
X213392637Y-100237878D01*
X213251782Y-100331995D01*
X213131995Y-100451782D01*
X213037878Y-100592637D01*
X212973049Y-100749147D01*
X212940000Y-100915297D01*
X205677441Y-100915297D01*
X205748218Y-100868005D01*
X205868005Y-100748218D01*
X205962122Y-100607363D01*
X206026951Y-100450853D01*
X206060000Y-100284703D01*
X206060000Y-100115297D01*
X206026951Y-99949147D01*
X205962122Y-99792637D01*
X205868005Y-99651782D01*
X205748218Y-99531995D01*
X205607363Y-99437878D01*
X205450853Y-99373049D01*
X205284703Y-99340000D01*
X205115297Y-99340000D01*
X204949147Y-99373049D01*
X204792637Y-99437878D01*
X204651782Y-99531995D01*
X204531995Y-99651782D01*
X204437878Y-99792637D01*
X204373049Y-99949147D01*
X204340000Y-100115297D01*
X190510000Y-100115297D01*
X190510000Y-99115297D01*
X201340000Y-99115297D01*
X201340000Y-99284703D01*
X201373049Y-99450853D01*
X201437878Y-99607363D01*
X201531995Y-99748218D01*
X201651782Y-99868005D01*
X201792637Y-99962122D01*
X201949147Y-100026951D01*
X202115297Y-100060000D01*
X202284703Y-100060000D01*
X202450853Y-100026951D01*
X202607363Y-99962122D01*
X202748218Y-99868005D01*
X202868005Y-99748218D01*
X202962122Y-99607363D01*
X203026951Y-99450853D01*
X203060000Y-99284703D01*
X203060000Y-99115297D01*
X203026951Y-98949147D01*
X202962122Y-98792637D01*
X202868005Y-98651782D01*
X202748218Y-98531995D01*
X202607363Y-98437878D01*
X202455315Y-98374897D01*
X215152800Y-98374897D01*
X215152800Y-98544303D01*
X215185849Y-98710453D01*
X215250678Y-98866963D01*
X215344795Y-99007818D01*
X215464582Y-99127605D01*
X215605437Y-99221722D01*
X215761947Y-99286551D01*
X215928097Y-99319600D01*
X216097503Y-99319600D01*
X216263653Y-99286551D01*
X216420163Y-99221722D01*
X216561018Y-99127605D01*
X216608325Y-99080298D01*
X229773002Y-99080298D01*
X229773002Y-99249704D01*
X229806051Y-99415854D01*
X229870880Y-99572364D01*
X229964997Y-99713219D01*
X230084784Y-99833006D01*
X230225639Y-99927123D01*
X230382149Y-99991952D01*
X230548299Y-100025001D01*
X230717705Y-100025001D01*
X230883855Y-99991952D01*
X231040365Y-99927123D01*
X231181220Y-99833006D01*
X231301007Y-99713219D01*
X231395124Y-99572364D01*
X231459953Y-99415854D01*
X231493002Y-99249704D01*
X231493002Y-99080298D01*
X231459953Y-98914148D01*
X231395124Y-98757638D01*
X231301007Y-98616783D01*
X231181220Y-98496996D01*
X231040365Y-98402879D01*
X230883855Y-98338050D01*
X230717705Y-98305001D01*
X230548299Y-98305001D01*
X230382149Y-98338050D01*
X230225639Y-98402879D01*
X230084784Y-98496996D01*
X229964997Y-98616783D01*
X229870880Y-98757638D01*
X229806051Y-98914148D01*
X229773002Y-99080298D01*
X216608325Y-99080298D01*
X216680805Y-99007818D01*
X216774922Y-98866963D01*
X216839751Y-98710453D01*
X216872800Y-98544303D01*
X216872800Y-98374897D01*
X216839751Y-98208747D01*
X216774922Y-98052237D01*
X216680805Y-97911382D01*
X216561018Y-97791595D01*
X216420163Y-97697478D01*
X216263653Y-97632649D01*
X216097503Y-97599600D01*
X215928097Y-97599600D01*
X215761947Y-97632649D01*
X215605437Y-97697478D01*
X215464582Y-97791595D01*
X215344795Y-97911382D01*
X215250678Y-98052237D01*
X215185849Y-98208747D01*
X215152800Y-98374897D01*
X202455315Y-98374897D01*
X202450853Y-98373049D01*
X202284703Y-98340000D01*
X202115297Y-98340000D01*
X201949147Y-98373049D01*
X201792637Y-98437878D01*
X201651782Y-98531995D01*
X201531995Y-98651782D01*
X201437878Y-98792637D01*
X201373049Y-98949147D01*
X201340000Y-99115297D01*
X190510000Y-99115297D01*
X190510000Y-97115297D01*
X216840000Y-97115297D01*
X216840000Y-97284703D01*
X216873049Y-97450853D01*
X216937878Y-97607363D01*
X217031995Y-97748218D01*
X217151782Y-97868005D01*
X217292637Y-97962122D01*
X217449147Y-98026951D01*
X217615297Y-98060000D01*
X217784703Y-98060000D01*
X217950853Y-98026951D01*
X218107363Y-97962122D01*
X218248218Y-97868005D01*
X218350000Y-97766223D01*
X218451782Y-97868005D01*
X218592637Y-97962122D01*
X218749147Y-98026951D01*
X218915297Y-98060000D01*
X219084703Y-98060000D01*
X219250853Y-98026951D01*
X219407363Y-97962122D01*
X219548218Y-97868005D01*
X219668005Y-97748218D01*
X219762122Y-97607363D01*
X219826951Y-97450853D01*
X219860000Y-97284703D01*
X219860000Y-97115297D01*
X219826951Y-96949147D01*
X219762122Y-96792637D01*
X219668005Y-96651782D01*
X219548218Y-96531995D01*
X219407363Y-96437878D01*
X219250853Y-96373049D01*
X219084703Y-96340000D01*
X218915297Y-96340000D01*
X218749147Y-96373049D01*
X218592637Y-96437878D01*
X218451782Y-96531995D01*
X218350000Y-96633777D01*
X218248218Y-96531995D01*
X218107363Y-96437878D01*
X217950853Y-96373049D01*
X217784703Y-96340000D01*
X217615297Y-96340000D01*
X217449147Y-96373049D01*
X217292637Y-96437878D01*
X217151782Y-96531995D01*
X217031995Y-96651782D01*
X216937878Y-96792637D01*
X216873049Y-96949147D01*
X216840000Y-97115297D01*
X190510000Y-97115297D01*
X190510000Y-94319295D01*
X190892793Y-94702088D01*
X191357124Y-95012344D01*
X191873061Y-95226052D01*
X192420777Y-95335000D01*
X192979223Y-95335000D01*
X193526939Y-95226052D01*
X194042876Y-95012344D01*
X194507207Y-94702088D01*
X194898713Y-94310582D01*
X197376000Y-94310582D01*
X197376000Y-94569418D01*
X197426496Y-94823280D01*
X197525548Y-95062412D01*
X197669349Y-95277626D01*
X197852374Y-95460651D01*
X198067588Y-95604452D01*
X198306720Y-95703504D01*
X198560582Y-95754000D01*
X198819418Y-95754000D01*
X199073280Y-95703504D01*
X199312412Y-95604452D01*
X199527626Y-95460651D01*
X199710651Y-95277626D01*
X199854452Y-95062412D01*
X199953504Y-94823280D01*
X199960000Y-94790622D01*
X199966496Y-94823280D01*
X200065548Y-95062412D01*
X200209349Y-95277626D01*
X200392374Y-95460651D01*
X200607588Y-95604452D01*
X200846720Y-95703504D01*
X201100582Y-95754000D01*
X201359418Y-95754000D01*
X201613280Y-95703504D01*
X201852412Y-95604452D01*
X202067626Y-95460651D01*
X202250651Y-95277626D01*
X202394452Y-95062412D01*
X202493504Y-94823280D01*
X202544000Y-94569418D01*
X202544000Y-94310582D01*
X202493504Y-94056720D01*
X202394452Y-93817588D01*
X202250651Y-93602374D01*
X202209404Y-93561127D01*
X202490000Y-93561127D01*
X202490000Y-93838873D01*
X202544186Y-94111282D01*
X202650475Y-94367885D01*
X202804782Y-94598822D01*
X203001178Y-94795218D01*
X203232115Y-94949525D01*
X203488718Y-95055814D01*
X203761127Y-95110000D01*
X204038873Y-95110000D01*
X204311282Y-95055814D01*
X204567885Y-94949525D01*
X204798822Y-94795218D01*
X204995218Y-94598822D01*
X205130350Y-94396582D01*
X208576000Y-94396582D01*
X208576000Y-94655418D01*
X208626496Y-94909280D01*
X208725548Y-95148412D01*
X208869349Y-95363626D01*
X209052374Y-95546651D01*
X209267588Y-95690452D01*
X209506720Y-95789504D01*
X209760582Y-95840000D01*
X210019418Y-95840000D01*
X210273280Y-95789504D01*
X210512412Y-95690452D01*
X210727626Y-95546651D01*
X210910651Y-95363626D01*
X211054452Y-95148412D01*
X211153504Y-94909280D01*
X211160000Y-94876622D01*
X211166496Y-94909280D01*
X211265548Y-95148412D01*
X211409349Y-95363626D01*
X211592374Y-95546651D01*
X211807588Y-95690452D01*
X212046720Y-95789504D01*
X212300582Y-95840000D01*
X212559418Y-95840000D01*
X212813280Y-95789504D01*
X213052412Y-95690452D01*
X213267626Y-95546651D01*
X213450651Y-95363626D01*
X213594452Y-95148412D01*
X213693504Y-94909280D01*
X213744000Y-94655418D01*
X213744000Y-94396582D01*
X213693504Y-94142720D01*
X213594452Y-93903588D01*
X213450651Y-93688374D01*
X213409404Y-93647127D01*
X213690000Y-93647127D01*
X213690000Y-93924873D01*
X213744186Y-94197282D01*
X213850475Y-94453885D01*
X214004782Y-94684822D01*
X214201178Y-94881218D01*
X214432115Y-95035525D01*
X214688718Y-95141814D01*
X214961127Y-95196000D01*
X215238873Y-95196000D01*
X215511282Y-95141814D01*
X215767885Y-95035525D01*
X215998822Y-94881218D01*
X216195218Y-94684822D01*
X216349525Y-94453885D01*
X216367461Y-94410582D01*
X225676000Y-94410582D01*
X225676000Y-94669418D01*
X225726496Y-94923280D01*
X225825548Y-95162412D01*
X225969349Y-95377626D01*
X226152374Y-95560651D01*
X226367588Y-95704452D01*
X226606720Y-95803504D01*
X226860582Y-95854000D01*
X227119418Y-95854000D01*
X227373280Y-95803504D01*
X227612412Y-95704452D01*
X227827626Y-95560651D01*
X228010651Y-95377626D01*
X228154452Y-95162412D01*
X228253504Y-94923280D01*
X228260000Y-94890622D01*
X228266496Y-94923280D01*
X228365548Y-95162412D01*
X228509349Y-95377626D01*
X228692374Y-95560651D01*
X228907588Y-95704452D01*
X229146720Y-95803504D01*
X229400582Y-95854000D01*
X229659418Y-95854000D01*
X229913280Y-95803504D01*
X230152412Y-95704452D01*
X230367626Y-95560651D01*
X230550651Y-95377626D01*
X230694452Y-95162412D01*
X230793504Y-94923280D01*
X230844000Y-94669418D01*
X230844000Y-94410582D01*
X230793504Y-94156720D01*
X230694452Y-93917588D01*
X230550651Y-93702374D01*
X230509404Y-93661127D01*
X230790000Y-93661127D01*
X230790000Y-93938873D01*
X230844186Y-94211282D01*
X230950475Y-94467885D01*
X231104782Y-94698822D01*
X231301178Y-94895218D01*
X231532115Y-95049525D01*
X231788718Y-95155814D01*
X232061127Y-95210000D01*
X232338873Y-95210000D01*
X232611282Y-95155814D01*
X232867885Y-95049525D01*
X233098822Y-94895218D01*
X233295218Y-94698822D01*
X233449525Y-94467885D01*
X233555814Y-94211282D01*
X233610000Y-93938873D01*
X233610000Y-93661127D01*
X233555814Y-93388718D01*
X233449525Y-93132115D01*
X233295218Y-92901178D01*
X233098822Y-92704782D01*
X232867885Y-92550475D01*
X232611282Y-92444186D01*
X232338873Y-92390000D01*
X232061127Y-92390000D01*
X231788718Y-92444186D01*
X231532115Y-92550475D01*
X231301178Y-92704782D01*
X231104782Y-92901178D01*
X230950475Y-93132115D01*
X230844186Y-93388718D01*
X230790000Y-93661127D01*
X230509404Y-93661127D01*
X230367626Y-93519349D01*
X230152412Y-93375548D01*
X229913280Y-93276496D01*
X229659418Y-93226000D01*
X229400582Y-93226000D01*
X229146720Y-93276496D01*
X228907588Y-93375548D01*
X228692374Y-93519349D01*
X228509349Y-93702374D01*
X228365548Y-93917588D01*
X228266496Y-94156720D01*
X228260000Y-94189378D01*
X228253504Y-94156720D01*
X228154452Y-93917588D01*
X228010651Y-93702374D01*
X227827626Y-93519349D01*
X227612412Y-93375548D01*
X227373280Y-93276496D01*
X227119418Y-93226000D01*
X226860582Y-93226000D01*
X226606720Y-93276496D01*
X226367588Y-93375548D01*
X226152374Y-93519349D01*
X225969349Y-93702374D01*
X225825548Y-93917588D01*
X225726496Y-94156720D01*
X225676000Y-94410582D01*
X216367461Y-94410582D01*
X216455814Y-94197282D01*
X216510000Y-93924873D01*
X216510000Y-93647127D01*
X216455814Y-93374718D01*
X216349525Y-93118115D01*
X216195218Y-92887178D01*
X215998822Y-92690782D01*
X215767885Y-92536475D01*
X215511282Y-92430186D01*
X215238873Y-92376000D01*
X214961127Y-92376000D01*
X214688718Y-92430186D01*
X214432115Y-92536475D01*
X214201178Y-92690782D01*
X214004782Y-92887178D01*
X213850475Y-93118115D01*
X213744186Y-93374718D01*
X213690000Y-93647127D01*
X213409404Y-93647127D01*
X213267626Y-93505349D01*
X213052412Y-93361548D01*
X212813280Y-93262496D01*
X212559418Y-93212000D01*
X212300582Y-93212000D01*
X212046720Y-93262496D01*
X211807588Y-93361548D01*
X211592374Y-93505349D01*
X211409349Y-93688374D01*
X211265548Y-93903588D01*
X211166496Y-94142720D01*
X211160000Y-94175378D01*
X211153504Y-94142720D01*
X211054452Y-93903588D01*
X210910651Y-93688374D01*
X210727626Y-93505349D01*
X210512412Y-93361548D01*
X210273280Y-93262496D01*
X210019418Y-93212000D01*
X209760582Y-93212000D01*
X209506720Y-93262496D01*
X209267588Y-93361548D01*
X209052374Y-93505349D01*
X208869349Y-93688374D01*
X208725548Y-93903588D01*
X208626496Y-94142720D01*
X208576000Y-94396582D01*
X205130350Y-94396582D01*
X205149525Y-94367885D01*
X205255814Y-94111282D01*
X205310000Y-93838873D01*
X205310000Y-93561127D01*
X205255814Y-93288718D01*
X205149525Y-93032115D01*
X204995218Y-92801178D01*
X204798822Y-92604782D01*
X204567885Y-92450475D01*
X204311282Y-92344186D01*
X204038873Y-92290000D01*
X203761127Y-92290000D01*
X203488718Y-92344186D01*
X203232115Y-92450475D01*
X203001178Y-92604782D01*
X202804782Y-92801178D01*
X202650475Y-93032115D01*
X202544186Y-93288718D01*
X202490000Y-93561127D01*
X202209404Y-93561127D01*
X202067626Y-93419349D01*
X201852412Y-93275548D01*
X201613280Y-93176496D01*
X201359418Y-93126000D01*
X201100582Y-93126000D01*
X200846720Y-93176496D01*
X200607588Y-93275548D01*
X200392374Y-93419349D01*
X200209349Y-93602374D01*
X200065548Y-93817588D01*
X199966496Y-94056720D01*
X199960000Y-94089378D01*
X199953504Y-94056720D01*
X199854452Y-93817588D01*
X199710651Y-93602374D01*
X199527626Y-93419349D01*
X199312412Y-93275548D01*
X199073280Y-93176496D01*
X198819418Y-93126000D01*
X198560582Y-93126000D01*
X198306720Y-93176496D01*
X198067588Y-93275548D01*
X197852374Y-93419349D01*
X197669349Y-93602374D01*
X197525548Y-93817588D01*
X197426496Y-94056720D01*
X197376000Y-94310582D01*
X194898713Y-94310582D01*
X194902088Y-94307207D01*
X195212344Y-93842876D01*
X195426052Y-93326939D01*
X195535000Y-92779223D01*
X195535000Y-92220777D01*
X195445451Y-91770582D01*
X198646000Y-91770582D01*
X198646000Y-92029418D01*
X198696496Y-92283280D01*
X198795548Y-92522412D01*
X198939349Y-92737626D01*
X199122374Y-92920651D01*
X199337588Y-93064452D01*
X199576720Y-93163504D01*
X199830582Y-93214000D01*
X200089418Y-93214000D01*
X200343280Y-93163504D01*
X200582412Y-93064452D01*
X200797626Y-92920651D01*
X200980651Y-92737626D01*
X201124452Y-92522412D01*
X201223504Y-92283280D01*
X201274000Y-92029418D01*
X201274000Y-91856582D01*
X209846000Y-91856582D01*
X209846000Y-92115418D01*
X209896496Y-92369280D01*
X209995548Y-92608412D01*
X210139349Y-92823626D01*
X210322374Y-93006651D01*
X210537588Y-93150452D01*
X210776720Y-93249504D01*
X211030582Y-93300000D01*
X211289418Y-93300000D01*
X211543280Y-93249504D01*
X211782412Y-93150452D01*
X211997626Y-93006651D01*
X212180651Y-92823626D01*
X212324452Y-92608412D01*
X212423504Y-92369280D01*
X212474000Y-92115418D01*
X212474000Y-91870582D01*
X226946000Y-91870582D01*
X226946000Y-92129418D01*
X226996496Y-92383280D01*
X227095548Y-92622412D01*
X227239349Y-92837626D01*
X227422374Y-93020651D01*
X227637588Y-93164452D01*
X227876720Y-93263504D01*
X228130582Y-93314000D01*
X228389418Y-93314000D01*
X228643280Y-93263504D01*
X228882412Y-93164452D01*
X229097626Y-93020651D01*
X229280651Y-92837626D01*
X229424452Y-92622412D01*
X229523504Y-92383280D01*
X229574000Y-92129418D01*
X229574000Y-91870582D01*
X229523504Y-91616720D01*
X229424452Y-91377588D01*
X229280651Y-91162374D01*
X229097626Y-90979349D01*
X228882412Y-90835548D01*
X228643280Y-90736496D01*
X228389418Y-90686000D01*
X228130582Y-90686000D01*
X227876720Y-90736496D01*
X227637588Y-90835548D01*
X227422374Y-90979349D01*
X227239349Y-91162374D01*
X227095548Y-91377588D01*
X226996496Y-91616720D01*
X226946000Y-91870582D01*
X212474000Y-91870582D01*
X212474000Y-91856582D01*
X212423504Y-91602720D01*
X212324452Y-91363588D01*
X212180651Y-91148374D01*
X211997626Y-90965349D01*
X211782412Y-90821548D01*
X211543280Y-90722496D01*
X211289418Y-90672000D01*
X211030582Y-90672000D01*
X210776720Y-90722496D01*
X210537588Y-90821548D01*
X210322374Y-90965349D01*
X210139349Y-91148374D01*
X209995548Y-91363588D01*
X209896496Y-91602720D01*
X209846000Y-91856582D01*
X201274000Y-91856582D01*
X201274000Y-91770582D01*
X201223504Y-91516720D01*
X201124452Y-91277588D01*
X200980651Y-91062374D01*
X200797626Y-90879349D01*
X200582412Y-90735548D01*
X200343280Y-90636496D01*
X200089418Y-90586000D01*
X199830582Y-90586000D01*
X199576720Y-90636496D01*
X199337588Y-90735548D01*
X199122374Y-90879349D01*
X198939349Y-91062374D01*
X198795548Y-91277588D01*
X198696496Y-91516720D01*
X198646000Y-91770582D01*
X195445451Y-91770582D01*
X195426052Y-91673061D01*
X195212344Y-91157124D01*
X194902088Y-90692793D01*
X194507207Y-90297912D01*
X194331192Y-90180302D01*
X235137777Y-90201037D01*
G37*
G04 #@! TD.AperFunction*
D16*
X239077201Y-109281175D02*
X239077201Y-124905207D01*
X239002088Y-124792793D01*
X238607207Y-124397912D01*
X238142876Y-124087656D01*
X237626939Y-123873948D01*
X237079223Y-123765000D01*
X236520777Y-123765000D01*
X235973061Y-123873948D01*
X235457124Y-124087656D01*
X234992793Y-124397912D01*
X234597912Y-124792793D01*
X234287656Y-125257124D01*
X234073948Y-125773061D01*
X233965000Y-126320777D01*
X233965000Y-126879223D01*
X234073948Y-127426939D01*
X234287656Y-127942876D01*
X234597912Y-128407207D01*
X234992793Y-128802088D01*
X235124363Y-128890000D01*
X194475637Y-128890000D01*
X194607207Y-128802088D01*
X195002088Y-128407207D01*
X195312344Y-127942876D01*
X195526052Y-127426939D01*
X195635000Y-126879223D01*
X195635000Y-126320777D01*
X195526052Y-125773061D01*
X195312344Y-125257124D01*
X195170539Y-125044897D01*
X208218600Y-125044897D01*
X208218600Y-125214303D01*
X208251649Y-125380453D01*
X208316478Y-125536963D01*
X208410595Y-125677818D01*
X208530382Y-125797605D01*
X208671237Y-125891722D01*
X208827747Y-125956551D01*
X208993897Y-125989600D01*
X209163303Y-125989600D01*
X209329453Y-125956551D01*
X209485963Y-125891722D01*
X209626818Y-125797605D01*
X209746605Y-125677818D01*
X209840722Y-125536963D01*
X209905551Y-125380453D01*
X209938600Y-125214303D01*
X209938600Y-125044897D01*
X209932713Y-125015297D01*
X220512200Y-125015297D01*
X220512200Y-125184703D01*
X220545249Y-125350853D01*
X220610078Y-125507363D01*
X220704195Y-125648218D01*
X220823982Y-125768005D01*
X220964837Y-125862122D01*
X221121347Y-125926951D01*
X221287497Y-125960000D01*
X221456903Y-125960000D01*
X221623053Y-125926951D01*
X221779563Y-125862122D01*
X221920418Y-125768005D01*
X222040205Y-125648218D01*
X222134322Y-125507363D01*
X222199151Y-125350853D01*
X222232200Y-125184703D01*
X222232200Y-125015297D01*
X222199151Y-124849147D01*
X222134322Y-124692637D01*
X222040205Y-124551782D01*
X221920418Y-124431995D01*
X221779563Y-124337878D01*
X221623053Y-124273049D01*
X221456903Y-124240000D01*
X221287497Y-124240000D01*
X221121347Y-124273049D01*
X220964837Y-124337878D01*
X220823982Y-124431995D01*
X220704195Y-124551782D01*
X220610078Y-124692637D01*
X220545249Y-124849147D01*
X220512200Y-125015297D01*
X209932713Y-125015297D01*
X209905551Y-124878747D01*
X209840722Y-124722237D01*
X209746605Y-124581382D01*
X209626818Y-124461595D01*
X209485963Y-124367478D01*
X209329453Y-124302649D01*
X209163303Y-124269600D01*
X208993897Y-124269600D01*
X208827747Y-124302649D01*
X208671237Y-124367478D01*
X208530382Y-124461595D01*
X208410595Y-124581382D01*
X208316478Y-124722237D01*
X208251649Y-124878747D01*
X208218600Y-125044897D01*
X195170539Y-125044897D01*
X195002088Y-124792793D01*
X194607207Y-124397912D01*
X194142876Y-124087656D01*
X193626939Y-123873948D01*
X193079223Y-123765000D01*
X192520777Y-123765000D01*
X191973061Y-123873948D01*
X191457124Y-124087656D01*
X190992793Y-124397912D01*
X190597912Y-124792793D01*
X190510000Y-124924363D01*
X190510000Y-121894927D01*
X191035000Y-121894927D01*
X191035000Y-122172673D01*
X191089186Y-122445082D01*
X191195475Y-122701685D01*
X191349782Y-122932622D01*
X191546178Y-123129018D01*
X191777115Y-123283325D01*
X192033718Y-123389614D01*
X192306127Y-123443800D01*
X192583873Y-123443800D01*
X192856282Y-123389614D01*
X193112885Y-123283325D01*
X193327540Y-123139897D01*
X194680400Y-123139897D01*
X194680400Y-123309303D01*
X194713449Y-123475453D01*
X194778278Y-123631963D01*
X194872395Y-123772818D01*
X194992182Y-123892605D01*
X195133037Y-123986722D01*
X195289547Y-124051551D01*
X195455697Y-124084600D01*
X195625103Y-124084600D01*
X195791253Y-124051551D01*
X195947763Y-123986722D01*
X196088618Y-123892605D01*
X196208405Y-123772818D01*
X196302522Y-123631963D01*
X196367351Y-123475453D01*
X196400400Y-123309303D01*
X196400400Y-123139897D01*
X196367351Y-122973747D01*
X196302522Y-122817237D01*
X196208405Y-122676382D01*
X196088618Y-122556595D01*
X195947763Y-122462478D01*
X195791253Y-122397649D01*
X195625103Y-122364600D01*
X195455697Y-122364600D01*
X195289547Y-122397649D01*
X195133037Y-122462478D01*
X194992182Y-122556595D01*
X194872395Y-122676382D01*
X194778278Y-122817237D01*
X194713449Y-122973747D01*
X194680400Y-123139897D01*
X193327540Y-123139897D01*
X193343822Y-123129018D01*
X193540218Y-122932622D01*
X193694525Y-122701685D01*
X193800814Y-122445082D01*
X193855000Y-122172673D01*
X193855000Y-121894927D01*
X193800814Y-121622518D01*
X193694525Y-121365915D01*
X193558874Y-121162898D01*
X200467399Y-121162898D01*
X200467399Y-121332304D01*
X200500448Y-121498454D01*
X200565277Y-121654964D01*
X200659394Y-121795819D01*
X200779181Y-121915606D01*
X200920036Y-122009723D01*
X201076546Y-122074552D01*
X201242696Y-122107601D01*
X201412102Y-122107601D01*
X201578252Y-122074552D01*
X201734762Y-122009723D01*
X201875617Y-121915606D01*
X201964500Y-121826724D01*
X202053382Y-121915606D01*
X202194237Y-122009723D01*
X202350747Y-122074552D01*
X202516897Y-122107601D01*
X202686303Y-122107601D01*
X202852453Y-122074552D01*
X203008963Y-122009723D01*
X203149818Y-121915606D01*
X203171000Y-121894425D01*
X203192181Y-121915606D01*
X203333036Y-122009723D01*
X203489546Y-122074552D01*
X203655696Y-122107601D01*
X203825102Y-122107601D01*
X203991252Y-122074552D01*
X204147762Y-122009723D01*
X204288617Y-121915606D01*
X204408404Y-121795819D01*
X204502521Y-121654964D01*
X204567350Y-121498454D01*
X204600399Y-121332304D01*
X204600399Y-121162898D01*
X204594512Y-121133297D01*
X213476400Y-121133297D01*
X213476400Y-121302703D01*
X213509449Y-121468853D01*
X213574278Y-121625363D01*
X213668395Y-121766218D01*
X213788182Y-121886005D01*
X213929037Y-121980122D01*
X214085547Y-122044951D01*
X214251697Y-122078000D01*
X214421103Y-122078000D01*
X214587253Y-122044951D01*
X214743763Y-121980122D01*
X214884618Y-121886005D01*
X214907900Y-121862723D01*
X214931182Y-121886005D01*
X215072037Y-121980122D01*
X215228547Y-122044951D01*
X215394697Y-122078000D01*
X215564103Y-122078000D01*
X215730253Y-122044951D01*
X215886763Y-121980122D01*
X216027618Y-121886005D01*
X216050900Y-121862723D01*
X216074182Y-121886005D01*
X216215037Y-121980122D01*
X216371547Y-122044951D01*
X216537697Y-122078000D01*
X216707103Y-122078000D01*
X216873253Y-122044951D01*
X217029763Y-121980122D01*
X217170618Y-121886005D01*
X217290405Y-121766218D01*
X217384522Y-121625363D01*
X217449351Y-121468853D01*
X217482400Y-121302703D01*
X217482400Y-121133297D01*
X217462350Y-121032497D01*
X225921600Y-121032497D01*
X225921600Y-121201903D01*
X225954649Y-121368053D01*
X226019478Y-121524563D01*
X226113595Y-121665418D01*
X226233382Y-121785205D01*
X226374237Y-121879322D01*
X226530747Y-121944151D01*
X226696897Y-121977200D01*
X226866303Y-121977200D01*
X227032453Y-121944151D01*
X227188963Y-121879322D01*
X227329818Y-121785205D01*
X227449605Y-121665418D01*
X227467800Y-121638187D01*
X227485995Y-121665418D01*
X227605782Y-121785205D01*
X227746637Y-121879322D01*
X227903147Y-121944151D01*
X228069297Y-121977200D01*
X228238703Y-121977200D01*
X228404853Y-121944151D01*
X228561363Y-121879322D01*
X228702218Y-121785205D01*
X228822005Y-121665418D01*
X228902900Y-121544351D01*
X228983795Y-121665418D01*
X229103582Y-121785205D01*
X229244437Y-121879322D01*
X229400947Y-121944151D01*
X229567097Y-121977200D01*
X229736503Y-121977200D01*
X229902653Y-121944151D01*
X230059163Y-121879322D01*
X230200018Y-121785205D01*
X230319805Y-121665418D01*
X230413922Y-121524563D01*
X230478751Y-121368053D01*
X230505237Y-121234897D01*
X234406000Y-121234897D01*
X234406000Y-121404303D01*
X234439049Y-121570453D01*
X234503878Y-121726963D01*
X234597995Y-121867818D01*
X234717782Y-121987605D01*
X234858637Y-122081722D01*
X235015147Y-122146551D01*
X235181297Y-122179600D01*
X235350703Y-122179600D01*
X235516853Y-122146551D01*
X235673363Y-122081722D01*
X235814218Y-121987605D01*
X235934005Y-121867818D01*
X235939100Y-121860193D01*
X235944195Y-121867818D01*
X236063982Y-121987605D01*
X236204837Y-122081722D01*
X236361347Y-122146551D01*
X236527497Y-122179600D01*
X236696903Y-122179600D01*
X236863053Y-122146551D01*
X237019563Y-122081722D01*
X237160418Y-121987605D01*
X237280205Y-121867818D01*
X237361500Y-121746152D01*
X237442795Y-121867818D01*
X237562582Y-121987605D01*
X237703437Y-122081722D01*
X237859947Y-122146551D01*
X238026097Y-122179600D01*
X238195503Y-122179600D01*
X238361653Y-122146551D01*
X238518163Y-122081722D01*
X238659018Y-121987605D01*
X238778805Y-121867818D01*
X238872922Y-121726963D01*
X238937751Y-121570453D01*
X238970800Y-121404303D01*
X238970800Y-121234897D01*
X238937751Y-121068747D01*
X238872922Y-120912237D01*
X238778805Y-120771382D01*
X238659018Y-120651595D01*
X238518163Y-120557478D01*
X238361653Y-120492649D01*
X238195503Y-120459600D01*
X238026097Y-120459600D01*
X237859947Y-120492649D01*
X237703437Y-120557478D01*
X237562582Y-120651595D01*
X237442795Y-120771382D01*
X237361500Y-120893048D01*
X237280205Y-120771382D01*
X237160418Y-120651595D01*
X237019563Y-120557478D01*
X236863053Y-120492649D01*
X236696903Y-120459600D01*
X236527497Y-120459600D01*
X236361347Y-120492649D01*
X236204837Y-120557478D01*
X236063982Y-120651595D01*
X235944195Y-120771382D01*
X235939100Y-120779007D01*
X235934005Y-120771382D01*
X235814218Y-120651595D01*
X235673363Y-120557478D01*
X235516853Y-120492649D01*
X235350703Y-120459600D01*
X235181297Y-120459600D01*
X235015147Y-120492649D01*
X234858637Y-120557478D01*
X234717782Y-120651595D01*
X234597995Y-120771382D01*
X234503878Y-120912237D01*
X234439049Y-121068747D01*
X234406000Y-121234897D01*
X230505237Y-121234897D01*
X230511800Y-121201903D01*
X230511800Y-121032497D01*
X230478751Y-120866347D01*
X230413922Y-120709837D01*
X230319805Y-120568982D01*
X230200018Y-120449195D01*
X230059163Y-120355078D01*
X229902653Y-120290249D01*
X229736503Y-120257200D01*
X229567097Y-120257200D01*
X229400947Y-120290249D01*
X229244437Y-120355078D01*
X229103582Y-120449195D01*
X228983795Y-120568982D01*
X228902900Y-120690049D01*
X228822005Y-120568982D01*
X228702218Y-120449195D01*
X228561363Y-120355078D01*
X228404853Y-120290249D01*
X228238703Y-120257200D01*
X228069297Y-120257200D01*
X227903147Y-120290249D01*
X227746637Y-120355078D01*
X227605782Y-120449195D01*
X227485995Y-120568982D01*
X227467800Y-120596213D01*
X227449605Y-120568982D01*
X227329818Y-120449195D01*
X227188963Y-120355078D01*
X227032453Y-120290249D01*
X226866303Y-120257200D01*
X226696897Y-120257200D01*
X226530747Y-120290249D01*
X226374237Y-120355078D01*
X226233382Y-120449195D01*
X226113595Y-120568982D01*
X226019478Y-120709837D01*
X225954649Y-120866347D01*
X225921600Y-121032497D01*
X217462350Y-121032497D01*
X217449351Y-120967147D01*
X217384522Y-120810637D01*
X217290405Y-120669782D01*
X217170618Y-120549995D01*
X217029763Y-120455878D01*
X216873253Y-120391049D01*
X216707103Y-120358000D01*
X216537697Y-120358000D01*
X216371547Y-120391049D01*
X216215037Y-120455878D01*
X216074182Y-120549995D01*
X216050900Y-120573277D01*
X216027618Y-120549995D01*
X215886763Y-120455878D01*
X215730253Y-120391049D01*
X215564103Y-120358000D01*
X215394697Y-120358000D01*
X215228547Y-120391049D01*
X215072037Y-120455878D01*
X214931182Y-120549995D01*
X214907900Y-120573277D01*
X214884618Y-120549995D01*
X214743763Y-120455878D01*
X214587253Y-120391049D01*
X214421103Y-120358000D01*
X214251697Y-120358000D01*
X214085547Y-120391049D01*
X213929037Y-120455878D01*
X213788182Y-120549995D01*
X213668395Y-120669782D01*
X213574278Y-120810637D01*
X213509449Y-120967147D01*
X213476400Y-121133297D01*
X204594512Y-121133297D01*
X204567350Y-120996748D01*
X204502521Y-120840238D01*
X204408404Y-120699383D01*
X204288617Y-120579596D01*
X204147762Y-120485479D01*
X203991252Y-120420650D01*
X203825102Y-120387601D01*
X203655696Y-120387601D01*
X203489546Y-120420650D01*
X203333036Y-120485479D01*
X203192181Y-120579596D01*
X203171000Y-120600778D01*
X203149818Y-120579596D01*
X203008963Y-120485479D01*
X202852453Y-120420650D01*
X202686303Y-120387601D01*
X202516897Y-120387601D01*
X202350747Y-120420650D01*
X202194237Y-120485479D01*
X202053382Y-120579596D01*
X201964500Y-120668479D01*
X201875617Y-120579596D01*
X201734762Y-120485479D01*
X201578252Y-120420650D01*
X201412102Y-120387601D01*
X201242696Y-120387601D01*
X201076546Y-120420650D01*
X200920036Y-120485479D01*
X200779181Y-120579596D01*
X200659394Y-120699383D01*
X200565277Y-120840238D01*
X200500448Y-120996748D01*
X200467399Y-121162898D01*
X193558874Y-121162898D01*
X193540218Y-121134978D01*
X193343822Y-120938582D01*
X193112885Y-120784275D01*
X192856282Y-120677986D01*
X192583873Y-120623800D01*
X192306127Y-120623800D01*
X192033718Y-120677986D01*
X191777115Y-120784275D01*
X191546178Y-120938582D01*
X191349782Y-121134978D01*
X191195475Y-121365915D01*
X191089186Y-121622518D01*
X191035000Y-121894927D01*
X190510000Y-121894927D01*
X190510000Y-119912463D01*
X190540548Y-119986212D01*
X190684349Y-120201426D01*
X190867374Y-120384451D01*
X191082588Y-120528252D01*
X191321720Y-120627304D01*
X191575582Y-120677800D01*
X191834418Y-120677800D01*
X192088280Y-120627304D01*
X192327412Y-120528252D01*
X192542626Y-120384451D01*
X192725651Y-120201426D01*
X192869452Y-119986212D01*
X192968504Y-119747080D01*
X193019000Y-119493218D01*
X193019000Y-119234382D01*
X192968504Y-118980520D01*
X192869452Y-118741388D01*
X192725651Y-118526174D01*
X192542626Y-118343149D01*
X192327412Y-118199348D01*
X192088280Y-118100296D01*
X192055622Y-118093800D01*
X192088280Y-118087304D01*
X192327412Y-117988252D01*
X192363136Y-117964382D01*
X192931000Y-117964382D01*
X192931000Y-118223218D01*
X192981496Y-118477080D01*
X193080548Y-118716212D01*
X193224349Y-118931426D01*
X193407374Y-119114451D01*
X193622588Y-119258252D01*
X193861720Y-119357304D01*
X194115582Y-119407800D01*
X194374418Y-119407800D01*
X194628280Y-119357304D01*
X194867412Y-119258252D01*
X195082626Y-119114451D01*
X195265651Y-118931426D01*
X195409452Y-118716212D01*
X195508504Y-118477080D01*
X195559000Y-118223218D01*
X195559000Y-117964382D01*
X195549237Y-117915297D01*
X196540000Y-117915297D01*
X196540000Y-118084703D01*
X196573049Y-118250853D01*
X196637878Y-118407363D01*
X196731995Y-118548218D01*
X196851782Y-118668005D01*
X196992637Y-118762122D01*
X197149147Y-118826951D01*
X197315297Y-118860000D01*
X197484703Y-118860000D01*
X197650853Y-118826951D01*
X197724374Y-118796497D01*
X216575200Y-118796497D01*
X216575200Y-118965903D01*
X216608249Y-119132053D01*
X216673078Y-119288563D01*
X216767195Y-119429418D01*
X216886982Y-119549205D01*
X217027837Y-119643322D01*
X217184347Y-119708151D01*
X217350497Y-119741200D01*
X217519903Y-119741200D01*
X217686053Y-119708151D01*
X217842563Y-119643322D01*
X217983418Y-119549205D01*
X218103205Y-119429418D01*
X218197322Y-119288563D01*
X218262151Y-119132053D01*
X218295200Y-118965903D01*
X218295200Y-118872697D01*
X232323200Y-118872697D01*
X232323200Y-119042103D01*
X232356249Y-119208253D01*
X232421078Y-119364763D01*
X232515195Y-119505618D01*
X232576577Y-119567000D01*
X232515195Y-119628382D01*
X232421078Y-119769237D01*
X232356249Y-119925747D01*
X232323200Y-120091897D01*
X232323200Y-120261303D01*
X232356249Y-120427453D01*
X232421078Y-120583963D01*
X232515195Y-120724818D01*
X232634982Y-120844605D01*
X232775837Y-120938722D01*
X232932347Y-121003551D01*
X233098497Y-121036600D01*
X233267903Y-121036600D01*
X233434053Y-121003551D01*
X233590563Y-120938722D01*
X233731418Y-120844605D01*
X233851205Y-120724818D01*
X233945322Y-120583963D01*
X234010151Y-120427453D01*
X234043200Y-120261303D01*
X234043200Y-120091897D01*
X234010151Y-119925747D01*
X233945322Y-119769237D01*
X233851205Y-119628382D01*
X233789823Y-119567000D01*
X233851205Y-119505618D01*
X233945322Y-119364763D01*
X234010151Y-119208253D01*
X234043200Y-119042103D01*
X234043200Y-118872697D01*
X234010151Y-118706547D01*
X233945322Y-118550037D01*
X233851205Y-118409182D01*
X233731418Y-118289395D01*
X233590563Y-118195278D01*
X233434053Y-118130449D01*
X233267903Y-118097400D01*
X233098497Y-118097400D01*
X232932347Y-118130449D01*
X232775837Y-118195278D01*
X232634982Y-118289395D01*
X232515195Y-118409182D01*
X232421078Y-118550037D01*
X232356249Y-118706547D01*
X232323200Y-118872697D01*
X218295200Y-118872697D01*
X218295200Y-118796497D01*
X218262151Y-118630347D01*
X218230780Y-118554612D01*
X218262818Y-118533205D01*
X218382605Y-118413418D01*
X218476722Y-118272563D01*
X218541551Y-118116053D01*
X218574600Y-117949903D01*
X218574600Y-117780497D01*
X218564496Y-117729697D01*
X219597800Y-117729697D01*
X219597800Y-117899103D01*
X219630849Y-118065253D01*
X219695678Y-118221763D01*
X219789795Y-118362618D01*
X219909582Y-118482405D01*
X220050437Y-118576522D01*
X220206947Y-118641351D01*
X220373097Y-118674400D01*
X220542503Y-118674400D01*
X220708653Y-118641351D01*
X220865163Y-118576522D01*
X221006018Y-118482405D01*
X221125805Y-118362618D01*
X221219922Y-118221763D01*
X221284751Y-118065253D01*
X221317800Y-117899103D01*
X221317800Y-117729697D01*
X221307696Y-117678897D01*
X234355200Y-117678897D01*
X234355200Y-117848303D01*
X234388249Y-118014453D01*
X234453078Y-118170963D01*
X234547195Y-118311818D01*
X234666982Y-118431605D01*
X234807837Y-118525722D01*
X234964347Y-118590551D01*
X234986826Y-118595022D01*
X234909437Y-118627078D01*
X234768582Y-118721195D01*
X234648795Y-118840982D01*
X234554678Y-118981837D01*
X234489849Y-119138347D01*
X234456800Y-119304497D01*
X234456800Y-119473903D01*
X234489849Y-119640053D01*
X234554678Y-119796563D01*
X234648795Y-119937418D01*
X234768582Y-120057205D01*
X234909437Y-120151322D01*
X235065947Y-120216151D01*
X235232097Y-120249200D01*
X235401503Y-120249200D01*
X235567653Y-120216151D01*
X235724163Y-120151322D01*
X235865018Y-120057205D01*
X235939100Y-119983123D01*
X236013182Y-120057205D01*
X236154037Y-120151322D01*
X236310547Y-120216151D01*
X236476697Y-120249200D01*
X236646103Y-120249200D01*
X236812253Y-120216151D01*
X236968763Y-120151322D01*
X237109618Y-120057205D01*
X237229405Y-119937418D01*
X237298000Y-119834759D01*
X237366595Y-119937418D01*
X237486382Y-120057205D01*
X237627237Y-120151322D01*
X237783747Y-120216151D01*
X237949897Y-120249200D01*
X238119303Y-120249200D01*
X238285453Y-120216151D01*
X238441963Y-120151322D01*
X238582818Y-120057205D01*
X238702605Y-119937418D01*
X238796722Y-119796563D01*
X238861551Y-119640053D01*
X238894600Y-119473903D01*
X238894600Y-119304497D01*
X238861551Y-119138347D01*
X238796722Y-118981837D01*
X238702605Y-118840982D01*
X238582818Y-118721195D01*
X238441963Y-118627078D01*
X238301177Y-118568762D01*
X238430418Y-118482405D01*
X238550205Y-118362618D01*
X238644322Y-118221763D01*
X238709151Y-118065253D01*
X238742200Y-117899103D01*
X238742200Y-117729697D01*
X238709151Y-117563547D01*
X238644322Y-117407037D01*
X238550205Y-117266182D01*
X238430418Y-117146395D01*
X238289563Y-117052278D01*
X238133053Y-116987449D01*
X237966903Y-116954400D01*
X237797497Y-116954400D01*
X237631347Y-116987449D01*
X237474837Y-117052278D01*
X237333982Y-117146395D01*
X237214195Y-117266182D01*
X237200672Y-117286421D01*
X237153205Y-117215382D01*
X237033418Y-117095595D01*
X236892563Y-117001478D01*
X236736053Y-116936649D01*
X236569903Y-116903600D01*
X236400497Y-116903600D01*
X236234347Y-116936649D01*
X236077837Y-117001478D01*
X235936982Y-117095595D01*
X235850200Y-117182377D01*
X235763418Y-117095595D01*
X235622563Y-117001478D01*
X235466053Y-116936649D01*
X235299903Y-116903600D01*
X235130497Y-116903600D01*
X234964347Y-116936649D01*
X234807837Y-117001478D01*
X234666982Y-117095595D01*
X234547195Y-117215382D01*
X234453078Y-117356237D01*
X234388249Y-117512747D01*
X234355200Y-117678897D01*
X221307696Y-117678897D01*
X221284751Y-117563547D01*
X221219922Y-117407037D01*
X221125805Y-117266182D01*
X221006018Y-117146395D01*
X220865163Y-117052278D01*
X220708653Y-116987449D01*
X220542503Y-116954400D01*
X220373097Y-116954400D01*
X220206947Y-116987449D01*
X220050437Y-117052278D01*
X219909582Y-117146395D01*
X219789795Y-117266182D01*
X219695678Y-117407037D01*
X219630849Y-117563547D01*
X219597800Y-117729697D01*
X218564496Y-117729697D01*
X218541551Y-117614347D01*
X218476722Y-117457837D01*
X218382605Y-117316982D01*
X218262818Y-117197195D01*
X218121963Y-117103078D01*
X217965453Y-117038249D01*
X217799303Y-117005200D01*
X217629897Y-117005200D01*
X217463747Y-117038249D01*
X217307237Y-117103078D01*
X217166382Y-117197195D01*
X217046595Y-117316982D01*
X216952478Y-117457837D01*
X216887649Y-117614347D01*
X216854600Y-117780497D01*
X216854600Y-117949903D01*
X216887649Y-118116053D01*
X216919020Y-118191788D01*
X216886982Y-118213195D01*
X216767195Y-118332982D01*
X216673078Y-118473837D01*
X216608249Y-118630347D01*
X216575200Y-118796497D01*
X197724374Y-118796497D01*
X197807363Y-118762122D01*
X197948218Y-118668005D01*
X198068005Y-118548218D01*
X198162122Y-118407363D01*
X198226951Y-118250853D01*
X198260000Y-118084703D01*
X198260000Y-117915297D01*
X198226951Y-117749147D01*
X198162122Y-117592637D01*
X198068005Y-117451782D01*
X198031520Y-117415297D01*
X206940000Y-117415297D01*
X206940000Y-117584703D01*
X206973049Y-117750853D01*
X207037878Y-117907363D01*
X207131995Y-118048218D01*
X207251782Y-118168005D01*
X207392637Y-118262122D01*
X207549147Y-118326951D01*
X207715297Y-118360000D01*
X207884703Y-118360000D01*
X208050853Y-118326951D01*
X208207363Y-118262122D01*
X208348218Y-118168005D01*
X208468005Y-118048218D01*
X208562122Y-117907363D01*
X208626951Y-117750853D01*
X208660000Y-117584703D01*
X208660000Y-117415297D01*
X208626951Y-117249147D01*
X208562122Y-117092637D01*
X208468005Y-116951782D01*
X208348218Y-116831995D01*
X208207363Y-116737878D01*
X208050853Y-116673049D01*
X207884703Y-116640000D01*
X207715297Y-116640000D01*
X207549147Y-116673049D01*
X207392637Y-116737878D01*
X207251782Y-116831995D01*
X207131995Y-116951782D01*
X207037878Y-117092637D01*
X206973049Y-117249147D01*
X206940000Y-117415297D01*
X198031520Y-117415297D01*
X197948218Y-117331995D01*
X197807363Y-117237878D01*
X197650853Y-117173049D01*
X197484703Y-117140000D01*
X197315297Y-117140000D01*
X197149147Y-117173049D01*
X196992637Y-117237878D01*
X196851782Y-117331995D01*
X196731995Y-117451782D01*
X196637878Y-117592637D01*
X196573049Y-117749147D01*
X196540000Y-117915297D01*
X195549237Y-117915297D01*
X195508504Y-117710520D01*
X195409452Y-117471388D01*
X195265651Y-117256174D01*
X195082626Y-117073149D01*
X194867412Y-116929348D01*
X194628280Y-116830296D01*
X194374418Y-116779800D01*
X194115582Y-116779800D01*
X193861720Y-116830296D01*
X193622588Y-116929348D01*
X193407374Y-117073149D01*
X193224349Y-117256174D01*
X193080548Y-117471388D01*
X192981496Y-117710520D01*
X192931000Y-117964382D01*
X192363136Y-117964382D01*
X192542626Y-117844451D01*
X192725651Y-117661426D01*
X192869452Y-117446212D01*
X192968504Y-117207080D01*
X193019000Y-116953218D01*
X193019000Y-116694382D01*
X192968504Y-116440520D01*
X192869452Y-116201388D01*
X192725651Y-115986174D01*
X192542626Y-115803149D01*
X192327412Y-115659348D01*
X192088280Y-115560296D01*
X192012875Y-115545297D01*
X221756800Y-115545297D01*
X221756800Y-115714703D01*
X221789849Y-115880853D01*
X221854678Y-116037363D01*
X221948795Y-116178218D01*
X222068582Y-116298005D01*
X222209437Y-116392122D01*
X222365947Y-116456951D01*
X222532097Y-116490000D01*
X222701503Y-116490000D01*
X222867653Y-116456951D01*
X223024163Y-116392122D01*
X223165018Y-116298005D01*
X223284805Y-116178218D01*
X223378922Y-116037363D01*
X223443751Y-115880853D01*
X223476800Y-115714703D01*
X223476800Y-115545297D01*
X223443751Y-115379147D01*
X223378922Y-115222637D01*
X223284805Y-115081782D01*
X223165018Y-114961995D01*
X223024163Y-114867878D01*
X222867653Y-114803049D01*
X222701503Y-114770000D01*
X222532097Y-114770000D01*
X222365947Y-114803049D01*
X222209437Y-114867878D01*
X222068582Y-114961995D01*
X221948795Y-115081782D01*
X221854678Y-115222637D01*
X221789849Y-115379147D01*
X221756800Y-115545297D01*
X192012875Y-115545297D01*
X191834418Y-115509800D01*
X191575582Y-115509800D01*
X191321720Y-115560296D01*
X191082588Y-115659348D01*
X190867374Y-115803149D01*
X190684349Y-115986174D01*
X190540548Y-116201388D01*
X190510000Y-116275137D01*
X190510000Y-113406956D01*
X224635950Y-113382100D01*
X228077331Y-113394799D01*
X228102117Y-113392450D01*
X228125968Y-113385311D01*
X228147967Y-113373656D01*
X228167271Y-113357933D01*
X228183136Y-113338747D01*
X228194953Y-113316833D01*
X228202267Y-113293036D01*
X228204799Y-113268185D01*
X228217113Y-109204695D01*
X239077201Y-109281175D01*
G04 #@! TA.AperFunction,Conductor*
D17*
G36*
X239077201Y-109281175D02*
G01*
X239077201Y-124905207D01*
X239002088Y-124792793D01*
X238607207Y-124397912D01*
X238142876Y-124087656D01*
X237626939Y-123873948D01*
X237079223Y-123765000D01*
X236520777Y-123765000D01*
X235973061Y-123873948D01*
X235457124Y-124087656D01*
X234992793Y-124397912D01*
X234597912Y-124792793D01*
X234287656Y-125257124D01*
X234073948Y-125773061D01*
X233965000Y-126320777D01*
X233965000Y-126879223D01*
X234073948Y-127426939D01*
X234287656Y-127942876D01*
X234597912Y-128407207D01*
X234992793Y-128802088D01*
X235124363Y-128890000D01*
X194475637Y-128890000D01*
X194607207Y-128802088D01*
X195002088Y-128407207D01*
X195312344Y-127942876D01*
X195526052Y-127426939D01*
X195635000Y-126879223D01*
X195635000Y-126320777D01*
X195526052Y-125773061D01*
X195312344Y-125257124D01*
X195170539Y-125044897D01*
X208218600Y-125044897D01*
X208218600Y-125214303D01*
X208251649Y-125380453D01*
X208316478Y-125536963D01*
X208410595Y-125677818D01*
X208530382Y-125797605D01*
X208671237Y-125891722D01*
X208827747Y-125956551D01*
X208993897Y-125989600D01*
X209163303Y-125989600D01*
X209329453Y-125956551D01*
X209485963Y-125891722D01*
X209626818Y-125797605D01*
X209746605Y-125677818D01*
X209840722Y-125536963D01*
X209905551Y-125380453D01*
X209938600Y-125214303D01*
X209938600Y-125044897D01*
X209932713Y-125015297D01*
X220512200Y-125015297D01*
X220512200Y-125184703D01*
X220545249Y-125350853D01*
X220610078Y-125507363D01*
X220704195Y-125648218D01*
X220823982Y-125768005D01*
X220964837Y-125862122D01*
X221121347Y-125926951D01*
X221287497Y-125960000D01*
X221456903Y-125960000D01*
X221623053Y-125926951D01*
X221779563Y-125862122D01*
X221920418Y-125768005D01*
X222040205Y-125648218D01*
X222134322Y-125507363D01*
X222199151Y-125350853D01*
X222232200Y-125184703D01*
X222232200Y-125015297D01*
X222199151Y-124849147D01*
X222134322Y-124692637D01*
X222040205Y-124551782D01*
X221920418Y-124431995D01*
X221779563Y-124337878D01*
X221623053Y-124273049D01*
X221456903Y-124240000D01*
X221287497Y-124240000D01*
X221121347Y-124273049D01*
X220964837Y-124337878D01*
X220823982Y-124431995D01*
X220704195Y-124551782D01*
X220610078Y-124692637D01*
X220545249Y-124849147D01*
X220512200Y-125015297D01*
X209932713Y-125015297D01*
X209905551Y-124878747D01*
X209840722Y-124722237D01*
X209746605Y-124581382D01*
X209626818Y-124461595D01*
X209485963Y-124367478D01*
X209329453Y-124302649D01*
X209163303Y-124269600D01*
X208993897Y-124269600D01*
X208827747Y-124302649D01*
X208671237Y-124367478D01*
X208530382Y-124461595D01*
X208410595Y-124581382D01*
X208316478Y-124722237D01*
X208251649Y-124878747D01*
X208218600Y-125044897D01*
X195170539Y-125044897D01*
X195002088Y-124792793D01*
X194607207Y-124397912D01*
X194142876Y-124087656D01*
X193626939Y-123873948D01*
X193079223Y-123765000D01*
X192520777Y-123765000D01*
X191973061Y-123873948D01*
X191457124Y-124087656D01*
X190992793Y-124397912D01*
X190597912Y-124792793D01*
X190510000Y-124924363D01*
X190510000Y-121894927D01*
X191035000Y-121894927D01*
X191035000Y-122172673D01*
X191089186Y-122445082D01*
X191195475Y-122701685D01*
X191349782Y-122932622D01*
X191546178Y-123129018D01*
X191777115Y-123283325D01*
X192033718Y-123389614D01*
X192306127Y-123443800D01*
X192583873Y-123443800D01*
X192856282Y-123389614D01*
X193112885Y-123283325D01*
X193327540Y-123139897D01*
X194680400Y-123139897D01*
X194680400Y-123309303D01*
X194713449Y-123475453D01*
X194778278Y-123631963D01*
X194872395Y-123772818D01*
X194992182Y-123892605D01*
X195133037Y-123986722D01*
X195289547Y-124051551D01*
X195455697Y-124084600D01*
X195625103Y-124084600D01*
X195791253Y-124051551D01*
X195947763Y-123986722D01*
X196088618Y-123892605D01*
X196208405Y-123772818D01*
X196302522Y-123631963D01*
X196367351Y-123475453D01*
X196400400Y-123309303D01*
X196400400Y-123139897D01*
X196367351Y-122973747D01*
X196302522Y-122817237D01*
X196208405Y-122676382D01*
X196088618Y-122556595D01*
X195947763Y-122462478D01*
X195791253Y-122397649D01*
X195625103Y-122364600D01*
X195455697Y-122364600D01*
X195289547Y-122397649D01*
X195133037Y-122462478D01*
X194992182Y-122556595D01*
X194872395Y-122676382D01*
X194778278Y-122817237D01*
X194713449Y-122973747D01*
X194680400Y-123139897D01*
X193327540Y-123139897D01*
X193343822Y-123129018D01*
X193540218Y-122932622D01*
X193694525Y-122701685D01*
X193800814Y-122445082D01*
X193855000Y-122172673D01*
X193855000Y-121894927D01*
X193800814Y-121622518D01*
X193694525Y-121365915D01*
X193558874Y-121162898D01*
X200467399Y-121162898D01*
X200467399Y-121332304D01*
X200500448Y-121498454D01*
X200565277Y-121654964D01*
X200659394Y-121795819D01*
X200779181Y-121915606D01*
X200920036Y-122009723D01*
X201076546Y-122074552D01*
X201242696Y-122107601D01*
X201412102Y-122107601D01*
X201578252Y-122074552D01*
X201734762Y-122009723D01*
X201875617Y-121915606D01*
X201964500Y-121826724D01*
X202053382Y-121915606D01*
X202194237Y-122009723D01*
X202350747Y-122074552D01*
X202516897Y-122107601D01*
X202686303Y-122107601D01*
X202852453Y-122074552D01*
X203008963Y-122009723D01*
X203149818Y-121915606D01*
X203171000Y-121894425D01*
X203192181Y-121915606D01*
X203333036Y-122009723D01*
X203489546Y-122074552D01*
X203655696Y-122107601D01*
X203825102Y-122107601D01*
X203991252Y-122074552D01*
X204147762Y-122009723D01*
X204288617Y-121915606D01*
X204408404Y-121795819D01*
X204502521Y-121654964D01*
X204567350Y-121498454D01*
X204600399Y-121332304D01*
X204600399Y-121162898D01*
X204594512Y-121133297D01*
X213476400Y-121133297D01*
X213476400Y-121302703D01*
X213509449Y-121468853D01*
X213574278Y-121625363D01*
X213668395Y-121766218D01*
X213788182Y-121886005D01*
X213929037Y-121980122D01*
X214085547Y-122044951D01*
X214251697Y-122078000D01*
X214421103Y-122078000D01*
X214587253Y-122044951D01*
X214743763Y-121980122D01*
X214884618Y-121886005D01*
X214907900Y-121862723D01*
X214931182Y-121886005D01*
X215072037Y-121980122D01*
X215228547Y-122044951D01*
X215394697Y-122078000D01*
X215564103Y-122078000D01*
X215730253Y-122044951D01*
X215886763Y-121980122D01*
X216027618Y-121886005D01*
X216050900Y-121862723D01*
X216074182Y-121886005D01*
X216215037Y-121980122D01*
X216371547Y-122044951D01*
X216537697Y-122078000D01*
X216707103Y-122078000D01*
X216873253Y-122044951D01*
X217029763Y-121980122D01*
X217170618Y-121886005D01*
X217290405Y-121766218D01*
X217384522Y-121625363D01*
X217449351Y-121468853D01*
X217482400Y-121302703D01*
X217482400Y-121133297D01*
X217462350Y-121032497D01*
X225921600Y-121032497D01*
X225921600Y-121201903D01*
X225954649Y-121368053D01*
X226019478Y-121524563D01*
X226113595Y-121665418D01*
X226233382Y-121785205D01*
X226374237Y-121879322D01*
X226530747Y-121944151D01*
X226696897Y-121977200D01*
X226866303Y-121977200D01*
X227032453Y-121944151D01*
X227188963Y-121879322D01*
X227329818Y-121785205D01*
X227449605Y-121665418D01*
X227467800Y-121638187D01*
X227485995Y-121665418D01*
X227605782Y-121785205D01*
X227746637Y-121879322D01*
X227903147Y-121944151D01*
X228069297Y-121977200D01*
X228238703Y-121977200D01*
X228404853Y-121944151D01*
X228561363Y-121879322D01*
X228702218Y-121785205D01*
X228822005Y-121665418D01*
X228902900Y-121544351D01*
X228983795Y-121665418D01*
X229103582Y-121785205D01*
X229244437Y-121879322D01*
X229400947Y-121944151D01*
X229567097Y-121977200D01*
X229736503Y-121977200D01*
X229902653Y-121944151D01*
X230059163Y-121879322D01*
X230200018Y-121785205D01*
X230319805Y-121665418D01*
X230413922Y-121524563D01*
X230478751Y-121368053D01*
X230505237Y-121234897D01*
X234406000Y-121234897D01*
X234406000Y-121404303D01*
X234439049Y-121570453D01*
X234503878Y-121726963D01*
X234597995Y-121867818D01*
X234717782Y-121987605D01*
X234858637Y-122081722D01*
X235015147Y-122146551D01*
X235181297Y-122179600D01*
X235350703Y-122179600D01*
X235516853Y-122146551D01*
X235673363Y-122081722D01*
X235814218Y-121987605D01*
X235934005Y-121867818D01*
X235939100Y-121860193D01*
X235944195Y-121867818D01*
X236063982Y-121987605D01*
X236204837Y-122081722D01*
X236361347Y-122146551D01*
X236527497Y-122179600D01*
X236696903Y-122179600D01*
X236863053Y-122146551D01*
X237019563Y-122081722D01*
X237160418Y-121987605D01*
X237280205Y-121867818D01*
X237361500Y-121746152D01*
X237442795Y-121867818D01*
X237562582Y-121987605D01*
X237703437Y-122081722D01*
X237859947Y-122146551D01*
X238026097Y-122179600D01*
X238195503Y-122179600D01*
X238361653Y-122146551D01*
X238518163Y-122081722D01*
X238659018Y-121987605D01*
X238778805Y-121867818D01*
X238872922Y-121726963D01*
X238937751Y-121570453D01*
X238970800Y-121404303D01*
X238970800Y-121234897D01*
X238937751Y-121068747D01*
X238872922Y-120912237D01*
X238778805Y-120771382D01*
X238659018Y-120651595D01*
X238518163Y-120557478D01*
X238361653Y-120492649D01*
X238195503Y-120459600D01*
X238026097Y-120459600D01*
X237859947Y-120492649D01*
X237703437Y-120557478D01*
X237562582Y-120651595D01*
X237442795Y-120771382D01*
X237361500Y-120893048D01*
X237280205Y-120771382D01*
X237160418Y-120651595D01*
X237019563Y-120557478D01*
X236863053Y-120492649D01*
X236696903Y-120459600D01*
X236527497Y-120459600D01*
X236361347Y-120492649D01*
X236204837Y-120557478D01*
X236063982Y-120651595D01*
X235944195Y-120771382D01*
X235939100Y-120779007D01*
X235934005Y-120771382D01*
X235814218Y-120651595D01*
X235673363Y-120557478D01*
X235516853Y-120492649D01*
X235350703Y-120459600D01*
X235181297Y-120459600D01*
X235015147Y-120492649D01*
X234858637Y-120557478D01*
X234717782Y-120651595D01*
X234597995Y-120771382D01*
X234503878Y-120912237D01*
X234439049Y-121068747D01*
X234406000Y-121234897D01*
X230505237Y-121234897D01*
X230511800Y-121201903D01*
X230511800Y-121032497D01*
X230478751Y-120866347D01*
X230413922Y-120709837D01*
X230319805Y-120568982D01*
X230200018Y-120449195D01*
X230059163Y-120355078D01*
X229902653Y-120290249D01*
X229736503Y-120257200D01*
X229567097Y-120257200D01*
X229400947Y-120290249D01*
X229244437Y-120355078D01*
X229103582Y-120449195D01*
X228983795Y-120568982D01*
X228902900Y-120690049D01*
X228822005Y-120568982D01*
X228702218Y-120449195D01*
X228561363Y-120355078D01*
X228404853Y-120290249D01*
X228238703Y-120257200D01*
X228069297Y-120257200D01*
X227903147Y-120290249D01*
X227746637Y-120355078D01*
X227605782Y-120449195D01*
X227485995Y-120568982D01*
X227467800Y-120596213D01*
X227449605Y-120568982D01*
X227329818Y-120449195D01*
X227188963Y-120355078D01*
X227032453Y-120290249D01*
X226866303Y-120257200D01*
X226696897Y-120257200D01*
X226530747Y-120290249D01*
X226374237Y-120355078D01*
X226233382Y-120449195D01*
X226113595Y-120568982D01*
X226019478Y-120709837D01*
X225954649Y-120866347D01*
X225921600Y-121032497D01*
X217462350Y-121032497D01*
X217449351Y-120967147D01*
X217384522Y-120810637D01*
X217290405Y-120669782D01*
X217170618Y-120549995D01*
X217029763Y-120455878D01*
X216873253Y-120391049D01*
X216707103Y-120358000D01*
X216537697Y-120358000D01*
X216371547Y-120391049D01*
X216215037Y-120455878D01*
X216074182Y-120549995D01*
X216050900Y-120573277D01*
X216027618Y-120549995D01*
X215886763Y-120455878D01*
X215730253Y-120391049D01*
X215564103Y-120358000D01*
X215394697Y-120358000D01*
X215228547Y-120391049D01*
X215072037Y-120455878D01*
X214931182Y-120549995D01*
X214907900Y-120573277D01*
X214884618Y-120549995D01*
X214743763Y-120455878D01*
X214587253Y-120391049D01*
X214421103Y-120358000D01*
X214251697Y-120358000D01*
X214085547Y-120391049D01*
X213929037Y-120455878D01*
X213788182Y-120549995D01*
X213668395Y-120669782D01*
X213574278Y-120810637D01*
X213509449Y-120967147D01*
X213476400Y-121133297D01*
X204594512Y-121133297D01*
X204567350Y-120996748D01*
X204502521Y-120840238D01*
X204408404Y-120699383D01*
X204288617Y-120579596D01*
X204147762Y-120485479D01*
X203991252Y-120420650D01*
X203825102Y-120387601D01*
X203655696Y-120387601D01*
X203489546Y-120420650D01*
X203333036Y-120485479D01*
X203192181Y-120579596D01*
X203171000Y-120600778D01*
X203149818Y-120579596D01*
X203008963Y-120485479D01*
X202852453Y-120420650D01*
X202686303Y-120387601D01*
X202516897Y-120387601D01*
X202350747Y-120420650D01*
X202194237Y-120485479D01*
X202053382Y-120579596D01*
X201964500Y-120668479D01*
X201875617Y-120579596D01*
X201734762Y-120485479D01*
X201578252Y-120420650D01*
X201412102Y-120387601D01*
X201242696Y-120387601D01*
X201076546Y-120420650D01*
X200920036Y-120485479D01*
X200779181Y-120579596D01*
X200659394Y-120699383D01*
X200565277Y-120840238D01*
X200500448Y-120996748D01*
X200467399Y-121162898D01*
X193558874Y-121162898D01*
X193540218Y-121134978D01*
X193343822Y-120938582D01*
X193112885Y-120784275D01*
X192856282Y-120677986D01*
X192583873Y-120623800D01*
X192306127Y-120623800D01*
X192033718Y-120677986D01*
X191777115Y-120784275D01*
X191546178Y-120938582D01*
X191349782Y-121134978D01*
X191195475Y-121365915D01*
X191089186Y-121622518D01*
X191035000Y-121894927D01*
X190510000Y-121894927D01*
X190510000Y-119912463D01*
X190540548Y-119986212D01*
X190684349Y-120201426D01*
X190867374Y-120384451D01*
X191082588Y-120528252D01*
X191321720Y-120627304D01*
X191575582Y-120677800D01*
X191834418Y-120677800D01*
X192088280Y-120627304D01*
X192327412Y-120528252D01*
X192542626Y-120384451D01*
X192725651Y-120201426D01*
X192869452Y-119986212D01*
X192968504Y-119747080D01*
X193019000Y-119493218D01*
X193019000Y-119234382D01*
X192968504Y-118980520D01*
X192869452Y-118741388D01*
X192725651Y-118526174D01*
X192542626Y-118343149D01*
X192327412Y-118199348D01*
X192088280Y-118100296D01*
X192055622Y-118093800D01*
X192088280Y-118087304D01*
X192327412Y-117988252D01*
X192363136Y-117964382D01*
X192931000Y-117964382D01*
X192931000Y-118223218D01*
X192981496Y-118477080D01*
X193080548Y-118716212D01*
X193224349Y-118931426D01*
X193407374Y-119114451D01*
X193622588Y-119258252D01*
X193861720Y-119357304D01*
X194115582Y-119407800D01*
X194374418Y-119407800D01*
X194628280Y-119357304D01*
X194867412Y-119258252D01*
X195082626Y-119114451D01*
X195265651Y-118931426D01*
X195409452Y-118716212D01*
X195508504Y-118477080D01*
X195559000Y-118223218D01*
X195559000Y-117964382D01*
X195549237Y-117915297D01*
X196540000Y-117915297D01*
X196540000Y-118084703D01*
X196573049Y-118250853D01*
X196637878Y-118407363D01*
X196731995Y-118548218D01*
X196851782Y-118668005D01*
X196992637Y-118762122D01*
X197149147Y-118826951D01*
X197315297Y-118860000D01*
X197484703Y-118860000D01*
X197650853Y-118826951D01*
X197724374Y-118796497D01*
X216575200Y-118796497D01*
X216575200Y-118965903D01*
X216608249Y-119132053D01*
X216673078Y-119288563D01*
X216767195Y-119429418D01*
X216886982Y-119549205D01*
X217027837Y-119643322D01*
X217184347Y-119708151D01*
X217350497Y-119741200D01*
X217519903Y-119741200D01*
X217686053Y-119708151D01*
X217842563Y-119643322D01*
X217983418Y-119549205D01*
X218103205Y-119429418D01*
X218197322Y-119288563D01*
X218262151Y-119132053D01*
X218295200Y-118965903D01*
X218295200Y-118872697D01*
X232323200Y-118872697D01*
X232323200Y-119042103D01*
X232356249Y-119208253D01*
X232421078Y-119364763D01*
X232515195Y-119505618D01*
X232576577Y-119567000D01*
X232515195Y-119628382D01*
X232421078Y-119769237D01*
X232356249Y-119925747D01*
X232323200Y-120091897D01*
X232323200Y-120261303D01*
X232356249Y-120427453D01*
X232421078Y-120583963D01*
X232515195Y-120724818D01*
X232634982Y-120844605D01*
X232775837Y-120938722D01*
X232932347Y-121003551D01*
X233098497Y-121036600D01*
X233267903Y-121036600D01*
X233434053Y-121003551D01*
X233590563Y-120938722D01*
X233731418Y-120844605D01*
X233851205Y-120724818D01*
X233945322Y-120583963D01*
X234010151Y-120427453D01*
X234043200Y-120261303D01*
X234043200Y-120091897D01*
X234010151Y-119925747D01*
X233945322Y-119769237D01*
X233851205Y-119628382D01*
X233789823Y-119567000D01*
X233851205Y-119505618D01*
X233945322Y-119364763D01*
X234010151Y-119208253D01*
X234043200Y-119042103D01*
X234043200Y-118872697D01*
X234010151Y-118706547D01*
X233945322Y-118550037D01*
X233851205Y-118409182D01*
X233731418Y-118289395D01*
X233590563Y-118195278D01*
X233434053Y-118130449D01*
X233267903Y-118097400D01*
X233098497Y-118097400D01*
X232932347Y-118130449D01*
X232775837Y-118195278D01*
X232634982Y-118289395D01*
X232515195Y-118409182D01*
X232421078Y-118550037D01*
X232356249Y-118706547D01*
X232323200Y-118872697D01*
X218295200Y-118872697D01*
X218295200Y-118796497D01*
X218262151Y-118630347D01*
X218230780Y-118554612D01*
X218262818Y-118533205D01*
X218382605Y-118413418D01*
X218476722Y-118272563D01*
X218541551Y-118116053D01*
X218574600Y-117949903D01*
X218574600Y-117780497D01*
X218564496Y-117729697D01*
X219597800Y-117729697D01*
X219597800Y-117899103D01*
X219630849Y-118065253D01*
X219695678Y-118221763D01*
X219789795Y-118362618D01*
X219909582Y-118482405D01*
X220050437Y-118576522D01*
X220206947Y-118641351D01*
X220373097Y-118674400D01*
X220542503Y-118674400D01*
X220708653Y-118641351D01*
X220865163Y-118576522D01*
X221006018Y-118482405D01*
X221125805Y-118362618D01*
X221219922Y-118221763D01*
X221284751Y-118065253D01*
X221317800Y-117899103D01*
X221317800Y-117729697D01*
X221307696Y-117678897D01*
X234355200Y-117678897D01*
X234355200Y-117848303D01*
X234388249Y-118014453D01*
X234453078Y-118170963D01*
X234547195Y-118311818D01*
X234666982Y-118431605D01*
X234807837Y-118525722D01*
X234964347Y-118590551D01*
X234986826Y-118595022D01*
X234909437Y-118627078D01*
X234768582Y-118721195D01*
X234648795Y-118840982D01*
X234554678Y-118981837D01*
X234489849Y-119138347D01*
X234456800Y-119304497D01*
X234456800Y-119473903D01*
X234489849Y-119640053D01*
X234554678Y-119796563D01*
X234648795Y-119937418D01*
X234768582Y-120057205D01*
X234909437Y-120151322D01*
X235065947Y-120216151D01*
X235232097Y-120249200D01*
X235401503Y-120249200D01*
X235567653Y-120216151D01*
X235724163Y-120151322D01*
X235865018Y-120057205D01*
X235939100Y-119983123D01*
X236013182Y-120057205D01*
X236154037Y-120151322D01*
X236310547Y-120216151D01*
X236476697Y-120249200D01*
X236646103Y-120249200D01*
X236812253Y-120216151D01*
X236968763Y-120151322D01*
X237109618Y-120057205D01*
X237229405Y-119937418D01*
X237298000Y-119834759D01*
X237366595Y-119937418D01*
X237486382Y-120057205D01*
X237627237Y-120151322D01*
X237783747Y-120216151D01*
X237949897Y-120249200D01*
X238119303Y-120249200D01*
X238285453Y-120216151D01*
X238441963Y-120151322D01*
X238582818Y-120057205D01*
X238702605Y-119937418D01*
X238796722Y-119796563D01*
X238861551Y-119640053D01*
X238894600Y-119473903D01*
X238894600Y-119304497D01*
X238861551Y-119138347D01*
X238796722Y-118981837D01*
X238702605Y-118840982D01*
X238582818Y-118721195D01*
X238441963Y-118627078D01*
X238301177Y-118568762D01*
X238430418Y-118482405D01*
X238550205Y-118362618D01*
X238644322Y-118221763D01*
X238709151Y-118065253D01*
X238742200Y-117899103D01*
X238742200Y-117729697D01*
X238709151Y-117563547D01*
X238644322Y-117407037D01*
X238550205Y-117266182D01*
X238430418Y-117146395D01*
X238289563Y-117052278D01*
X238133053Y-116987449D01*
X237966903Y-116954400D01*
X237797497Y-116954400D01*
X237631347Y-116987449D01*
X237474837Y-117052278D01*
X237333982Y-117146395D01*
X237214195Y-117266182D01*
X237200672Y-117286421D01*
X237153205Y-117215382D01*
X237033418Y-117095595D01*
X236892563Y-117001478D01*
X236736053Y-116936649D01*
X236569903Y-116903600D01*
X236400497Y-116903600D01*
X236234347Y-116936649D01*
X236077837Y-117001478D01*
X235936982Y-117095595D01*
X235850200Y-117182377D01*
X235763418Y-117095595D01*
X235622563Y-117001478D01*
X235466053Y-116936649D01*
X235299903Y-116903600D01*
X235130497Y-116903600D01*
X234964347Y-116936649D01*
X234807837Y-117001478D01*
X234666982Y-117095595D01*
X234547195Y-117215382D01*
X234453078Y-117356237D01*
X234388249Y-117512747D01*
X234355200Y-117678897D01*
X221307696Y-117678897D01*
X221284751Y-117563547D01*
X221219922Y-117407037D01*
X221125805Y-117266182D01*
X221006018Y-117146395D01*
X220865163Y-117052278D01*
X220708653Y-116987449D01*
X220542503Y-116954400D01*
X220373097Y-116954400D01*
X220206947Y-116987449D01*
X220050437Y-117052278D01*
X219909582Y-117146395D01*
X219789795Y-117266182D01*
X219695678Y-117407037D01*
X219630849Y-117563547D01*
X219597800Y-117729697D01*
X218564496Y-117729697D01*
X218541551Y-117614347D01*
X218476722Y-117457837D01*
X218382605Y-117316982D01*
X218262818Y-117197195D01*
X218121963Y-117103078D01*
X217965453Y-117038249D01*
X217799303Y-117005200D01*
X217629897Y-117005200D01*
X217463747Y-117038249D01*
X217307237Y-117103078D01*
X217166382Y-117197195D01*
X217046595Y-117316982D01*
X216952478Y-117457837D01*
X216887649Y-117614347D01*
X216854600Y-117780497D01*
X216854600Y-117949903D01*
X216887649Y-118116053D01*
X216919020Y-118191788D01*
X216886982Y-118213195D01*
X216767195Y-118332982D01*
X216673078Y-118473837D01*
X216608249Y-118630347D01*
X216575200Y-118796497D01*
X197724374Y-118796497D01*
X197807363Y-118762122D01*
X197948218Y-118668005D01*
X198068005Y-118548218D01*
X198162122Y-118407363D01*
X198226951Y-118250853D01*
X198260000Y-118084703D01*
X198260000Y-117915297D01*
X198226951Y-117749147D01*
X198162122Y-117592637D01*
X198068005Y-117451782D01*
X198031520Y-117415297D01*
X206940000Y-117415297D01*
X206940000Y-117584703D01*
X206973049Y-117750853D01*
X207037878Y-117907363D01*
X207131995Y-118048218D01*
X207251782Y-118168005D01*
X207392637Y-118262122D01*
X207549147Y-118326951D01*
X207715297Y-118360000D01*
X207884703Y-118360000D01*
X208050853Y-118326951D01*
X208207363Y-118262122D01*
X208348218Y-118168005D01*
X208468005Y-118048218D01*
X208562122Y-117907363D01*
X208626951Y-117750853D01*
X208660000Y-117584703D01*
X208660000Y-117415297D01*
X208626951Y-117249147D01*
X208562122Y-117092637D01*
X208468005Y-116951782D01*
X208348218Y-116831995D01*
X208207363Y-116737878D01*
X208050853Y-116673049D01*
X207884703Y-116640000D01*
X207715297Y-116640000D01*
X207549147Y-116673049D01*
X207392637Y-116737878D01*
X207251782Y-116831995D01*
X207131995Y-116951782D01*
X207037878Y-117092637D01*
X206973049Y-117249147D01*
X206940000Y-117415297D01*
X198031520Y-117415297D01*
X197948218Y-117331995D01*
X197807363Y-117237878D01*
X197650853Y-117173049D01*
X197484703Y-117140000D01*
X197315297Y-117140000D01*
X197149147Y-117173049D01*
X196992637Y-117237878D01*
X196851782Y-117331995D01*
X196731995Y-117451782D01*
X196637878Y-117592637D01*
X196573049Y-117749147D01*
X196540000Y-117915297D01*
X195549237Y-117915297D01*
X195508504Y-117710520D01*
X195409452Y-117471388D01*
X195265651Y-117256174D01*
X195082626Y-117073149D01*
X194867412Y-116929348D01*
X194628280Y-116830296D01*
X194374418Y-116779800D01*
X194115582Y-116779800D01*
X193861720Y-116830296D01*
X193622588Y-116929348D01*
X193407374Y-117073149D01*
X193224349Y-117256174D01*
X193080548Y-117471388D01*
X192981496Y-117710520D01*
X192931000Y-117964382D01*
X192363136Y-117964382D01*
X192542626Y-117844451D01*
X192725651Y-117661426D01*
X192869452Y-117446212D01*
X192968504Y-117207080D01*
X193019000Y-116953218D01*
X193019000Y-116694382D01*
X192968504Y-116440520D01*
X192869452Y-116201388D01*
X192725651Y-115986174D01*
X192542626Y-115803149D01*
X192327412Y-115659348D01*
X192088280Y-115560296D01*
X192012875Y-115545297D01*
X221756800Y-115545297D01*
X221756800Y-115714703D01*
X221789849Y-115880853D01*
X221854678Y-116037363D01*
X221948795Y-116178218D01*
X222068582Y-116298005D01*
X222209437Y-116392122D01*
X222365947Y-116456951D01*
X222532097Y-116490000D01*
X222701503Y-116490000D01*
X222867653Y-116456951D01*
X223024163Y-116392122D01*
X223165018Y-116298005D01*
X223284805Y-116178218D01*
X223378922Y-116037363D01*
X223443751Y-115880853D01*
X223476800Y-115714703D01*
X223476800Y-115545297D01*
X223443751Y-115379147D01*
X223378922Y-115222637D01*
X223284805Y-115081782D01*
X223165018Y-114961995D01*
X223024163Y-114867878D01*
X222867653Y-114803049D01*
X222701503Y-114770000D01*
X222532097Y-114770000D01*
X222365947Y-114803049D01*
X222209437Y-114867878D01*
X222068582Y-114961995D01*
X221948795Y-115081782D01*
X221854678Y-115222637D01*
X221789849Y-115379147D01*
X221756800Y-115545297D01*
X192012875Y-115545297D01*
X191834418Y-115509800D01*
X191575582Y-115509800D01*
X191321720Y-115560296D01*
X191082588Y-115659348D01*
X190867374Y-115803149D01*
X190684349Y-115986174D01*
X190540548Y-116201388D01*
X190510000Y-116275137D01*
X190510000Y-113406956D01*
X224635950Y-113382100D01*
X228077331Y-113394799D01*
X228102117Y-113392450D01*
X228125968Y-113385311D01*
X228147967Y-113373656D01*
X228167271Y-113357933D01*
X228183136Y-113338747D01*
X228194953Y-113316833D01*
X228202267Y-113293036D01*
X228204799Y-113268185D01*
X228217113Y-109204695D01*
X239077201Y-109281175D01*
G37*
G04 #@! TD.AperFunction*
M02*
