G04 #@! TF.GenerationSoftware,KiCad,Pcbnew,5.99.0+really5.1.10+dfsg1-1*
G04 #@! TF.CreationDate,2021-12-28T19:21:21+02:00*
G04 #@! TF.ProjectId,components_main_board,636f6d70-6f6e-4656-9e74-735f6d61696e,V0.1*
G04 #@! TF.SameCoordinates,Original*
G04 #@! TF.FileFunction,Copper,L4,Bot*
G04 #@! TF.FilePolarity,Positive*
%FSLAX46Y46*%
G04 Gerber Fmt 4.6, Leading zero omitted, Abs format (unit mm)*
G04 Created by KiCad (PCBNEW 5.99.0+really5.1.10+dfsg1-1) date 2021-12-28 19:21:21*
%MOMM*%
%LPD*%
G01*
G04 APERTURE LIST*
G04 #@! TA.AperFunction,ComponentPad*
%ADD10O,1.800000X0.900000*%
G04 #@! TD*
G04 #@! TA.AperFunction,ComponentPad*
%ADD11C,4.400000*%
G04 #@! TD*
G04 #@! TA.AperFunction,SMDPad,CuDef*
%ADD12R,1.620000X0.600000*%
G04 #@! TD*
G04 #@! TA.AperFunction,SMDPad,CuDef*
%ADD13R,4.580000X4.800000*%
G04 #@! TD*
G04 #@! TA.AperFunction,ComponentPad*
%ADD14C,1.358000*%
G04 #@! TD*
G04 #@! TA.AperFunction,ComponentPad*
%ADD15R,1.358000X1.358000*%
G04 #@! TD*
G04 #@! TA.AperFunction,ViaPad*
%ADD16C,0.450000*%
G04 #@! TD*
G04 #@! TA.AperFunction,Conductor*
%ADD17C,0.500000*%
G04 #@! TD*
G04 #@! TA.AperFunction,Conductor*
%ADD18C,0.200000*%
G04 #@! TD*
G04 #@! TA.AperFunction,Conductor*
%ADD19C,0.254000*%
G04 #@! TD*
G04 #@! TA.AperFunction,Conductor*
%ADD20C,0.100000*%
G04 #@! TD*
G04 APERTURE END LIST*
G04 #@! TA.AperFunction,SMDPad,CuDef*
G36*
G01*
X229949999Y-122300000D02*
X231250001Y-122300000D01*
G75*
G02*
X231500000Y-122549999I0J-249999D01*
G01*
X231500000Y-123200001D01*
G75*
G02*
X231250001Y-123450000I-249999J0D01*
G01*
X229949999Y-123450000D01*
G75*
G02*
X229700000Y-123200001I0J249999D01*
G01*
X229700000Y-122549999D01*
G75*
G02*
X229949999Y-122300000I249999J0D01*
G01*
G37*
G04 #@! TD.AperFunction*
G04 #@! TA.AperFunction,SMDPad,CuDef*
G36*
G01*
X229949999Y-119350000D02*
X231250001Y-119350000D01*
G75*
G02*
X231500000Y-119599999I0J-249999D01*
G01*
X231500000Y-120250001D01*
G75*
G02*
X231250001Y-120500000I-249999J0D01*
G01*
X229949999Y-120500000D01*
G75*
G02*
X229700000Y-120250001I0J249999D01*
G01*
X229700000Y-119599999D01*
G75*
G02*
X229949999Y-119350000I249999J0D01*
G01*
G37*
G04 #@! TD.AperFunction*
G04 #@! TA.AperFunction,SMDPad,CuDef*
G36*
G01*
X218949999Y-122525000D02*
X220250001Y-122525000D01*
G75*
G02*
X220500000Y-122774999I0J-249999D01*
G01*
X220500000Y-123425001D01*
G75*
G02*
X220250001Y-123675000I-249999J0D01*
G01*
X218949999Y-123675000D01*
G75*
G02*
X218700000Y-123425001I0J249999D01*
G01*
X218700000Y-122774999D01*
G75*
G02*
X218949999Y-122525000I249999J0D01*
G01*
G37*
G04 #@! TD.AperFunction*
G04 #@! TA.AperFunction,SMDPad,CuDef*
G36*
G01*
X218949999Y-119575000D02*
X220250001Y-119575000D01*
G75*
G02*
X220500000Y-119824999I0J-249999D01*
G01*
X220500000Y-120475001D01*
G75*
G02*
X220250001Y-120725000I-249999J0D01*
G01*
X218949999Y-120725000D01*
G75*
G02*
X218700000Y-120475001I0J249999D01*
G01*
X218700000Y-119824999D01*
G75*
G02*
X218949999Y-119575000I249999J0D01*
G01*
G37*
G04 #@! TD.AperFunction*
G04 #@! TA.AperFunction,SMDPad,CuDef*
G36*
G01*
X210549999Y-122500000D02*
X211850001Y-122500000D01*
G75*
G02*
X212100000Y-122749999I0J-249999D01*
G01*
X212100000Y-123400001D01*
G75*
G02*
X211850001Y-123650000I-249999J0D01*
G01*
X210549999Y-123650000D01*
G75*
G02*
X210300000Y-123400001I0J249999D01*
G01*
X210300000Y-122749999D01*
G75*
G02*
X210549999Y-122500000I249999J0D01*
G01*
G37*
G04 #@! TD.AperFunction*
G04 #@! TA.AperFunction,SMDPad,CuDef*
G36*
G01*
X210549999Y-119550000D02*
X211850001Y-119550000D01*
G75*
G02*
X212100000Y-119799999I0J-249999D01*
G01*
X212100000Y-120450001D01*
G75*
G02*
X211850001Y-120700000I-249999J0D01*
G01*
X210549999Y-120700000D01*
G75*
G02*
X210300000Y-120450001I0J249999D01*
G01*
X210300000Y-119799999D01*
G75*
G02*
X210549999Y-119550000I249999J0D01*
G01*
G37*
G04 #@! TD.AperFunction*
G04 #@! TA.AperFunction,SMDPad,CuDef*
G36*
G01*
X205549999Y-122475000D02*
X206850001Y-122475000D01*
G75*
G02*
X207100000Y-122724999I0J-249999D01*
G01*
X207100000Y-123375001D01*
G75*
G02*
X206850001Y-123625000I-249999J0D01*
G01*
X205549999Y-123625000D01*
G75*
G02*
X205300000Y-123375001I0J249999D01*
G01*
X205300000Y-122724999D01*
G75*
G02*
X205549999Y-122475000I249999J0D01*
G01*
G37*
G04 #@! TD.AperFunction*
G04 #@! TA.AperFunction,SMDPad,CuDef*
G36*
G01*
X205549999Y-119525000D02*
X206850001Y-119525000D01*
G75*
G02*
X207100000Y-119774999I0J-249999D01*
G01*
X207100000Y-120425001D01*
G75*
G02*
X206850001Y-120675000I-249999J0D01*
G01*
X205549999Y-120675000D01*
G75*
G02*
X205300000Y-120425001I0J249999D01*
G01*
X205300000Y-119774999D01*
G75*
G02*
X205549999Y-119525000I249999J0D01*
G01*
G37*
G04 #@! TD.AperFunction*
G04 #@! TA.AperFunction,SMDPad,CuDef*
G36*
G01*
X226049999Y-122325000D02*
X227350001Y-122325000D01*
G75*
G02*
X227600000Y-122574999I0J-249999D01*
G01*
X227600000Y-123225001D01*
G75*
G02*
X227350001Y-123475000I-249999J0D01*
G01*
X226049999Y-123475000D01*
G75*
G02*
X225800000Y-123225001I0J249999D01*
G01*
X225800000Y-122574999D01*
G75*
G02*
X226049999Y-122325000I249999J0D01*
G01*
G37*
G04 #@! TD.AperFunction*
G04 #@! TA.AperFunction,SMDPad,CuDef*
G36*
G01*
X226049999Y-119375000D02*
X227350001Y-119375000D01*
G75*
G02*
X227600000Y-119624999I0J-249999D01*
G01*
X227600000Y-120275001D01*
G75*
G02*
X227350001Y-120525000I-249999J0D01*
G01*
X226049999Y-120525000D01*
G75*
G02*
X225800000Y-120275001I0J249999D01*
G01*
X225800000Y-119624999D01*
G75*
G02*
X226049999Y-119375000I249999J0D01*
G01*
G37*
G04 #@! TD.AperFunction*
G04 #@! TA.AperFunction,SMDPad,CuDef*
G36*
G01*
X212849999Y-122525000D02*
X214150001Y-122525000D01*
G75*
G02*
X214400000Y-122774999I0J-249999D01*
G01*
X214400000Y-123425001D01*
G75*
G02*
X214150001Y-123675000I-249999J0D01*
G01*
X212849999Y-123675000D01*
G75*
G02*
X212600000Y-123425001I0J249999D01*
G01*
X212600000Y-122774999D01*
G75*
G02*
X212849999Y-122525000I249999J0D01*
G01*
G37*
G04 #@! TD.AperFunction*
G04 #@! TA.AperFunction,SMDPad,CuDef*
G36*
G01*
X212849999Y-119575000D02*
X214150001Y-119575000D01*
G75*
G02*
X214400000Y-119824999I0J-249999D01*
G01*
X214400000Y-120475001D01*
G75*
G02*
X214150001Y-120725000I-249999J0D01*
G01*
X212849999Y-120725000D01*
G75*
G02*
X212600000Y-120475001I0J249999D01*
G01*
X212600000Y-119824999D01*
G75*
G02*
X212849999Y-119575000I249999J0D01*
G01*
G37*
G04 #@! TD.AperFunction*
G04 #@! TA.AperFunction,SMDPad,CuDef*
G36*
G01*
X196949999Y-122475000D02*
X198250001Y-122475000D01*
G75*
G02*
X198500000Y-122724999I0J-249999D01*
G01*
X198500000Y-123375001D01*
G75*
G02*
X198250001Y-123625000I-249999J0D01*
G01*
X196949999Y-123625000D01*
G75*
G02*
X196700000Y-123375001I0J249999D01*
G01*
X196700000Y-122724999D01*
G75*
G02*
X196949999Y-122475000I249999J0D01*
G01*
G37*
G04 #@! TD.AperFunction*
G04 #@! TA.AperFunction,SMDPad,CuDef*
G36*
G01*
X196949999Y-119525000D02*
X198250001Y-119525000D01*
G75*
G02*
X198500000Y-119774999I0J-249999D01*
G01*
X198500000Y-120425001D01*
G75*
G02*
X198250001Y-120675000I-249999J0D01*
G01*
X196949999Y-120675000D01*
G75*
G02*
X196700000Y-120425001I0J249999D01*
G01*
X196700000Y-119774999D01*
G75*
G02*
X196949999Y-119525000I249999J0D01*
G01*
G37*
G04 #@! TD.AperFunction*
G04 #@! TA.AperFunction,SMDPad,CuDef*
G36*
G01*
X223649999Y-122325000D02*
X224950001Y-122325000D01*
G75*
G02*
X225200000Y-122574999I0J-249999D01*
G01*
X225200000Y-123225001D01*
G75*
G02*
X224950001Y-123475000I-249999J0D01*
G01*
X223649999Y-123475000D01*
G75*
G02*
X223400000Y-123225001I0J249999D01*
G01*
X223400000Y-122574999D01*
G75*
G02*
X223649999Y-122325000I249999J0D01*
G01*
G37*
G04 #@! TD.AperFunction*
G04 #@! TA.AperFunction,SMDPad,CuDef*
G36*
G01*
X223649999Y-119375000D02*
X224950001Y-119375000D01*
G75*
G02*
X225200000Y-119624999I0J-249999D01*
G01*
X225200000Y-120275001D01*
G75*
G02*
X224950001Y-120525000I-249999J0D01*
G01*
X223649999Y-120525000D01*
G75*
G02*
X223400000Y-120275001I0J249999D01*
G01*
X223400000Y-119624999D01*
G75*
G02*
X223649999Y-119375000I249999J0D01*
G01*
G37*
G04 #@! TD.AperFunction*
G04 #@! TA.AperFunction,SMDPad,CuDef*
G36*
G01*
X216649999Y-122500000D02*
X217950001Y-122500000D01*
G75*
G02*
X218200000Y-122749999I0J-249999D01*
G01*
X218200000Y-123400001D01*
G75*
G02*
X217950001Y-123650000I-249999J0D01*
G01*
X216649999Y-123650000D01*
G75*
G02*
X216400000Y-123400001I0J249999D01*
G01*
X216400000Y-122749999D01*
G75*
G02*
X216649999Y-122500000I249999J0D01*
G01*
G37*
G04 #@! TD.AperFunction*
G04 #@! TA.AperFunction,SMDPad,CuDef*
G36*
G01*
X216649999Y-119550000D02*
X217950001Y-119550000D01*
G75*
G02*
X218200000Y-119799999I0J-249999D01*
G01*
X218200000Y-120450001D01*
G75*
G02*
X217950001Y-120700000I-249999J0D01*
G01*
X216649999Y-120700000D01*
G75*
G02*
X216400000Y-120450001I0J249999D01*
G01*
X216400000Y-119799999D01*
G75*
G02*
X216649999Y-119550000I249999J0D01*
G01*
G37*
G04 #@! TD.AperFunction*
G04 #@! TA.AperFunction,SMDPad,CuDef*
G36*
G01*
X199249999Y-122475000D02*
X200550001Y-122475000D01*
G75*
G02*
X200800000Y-122724999I0J-249999D01*
G01*
X200800000Y-123375001D01*
G75*
G02*
X200550001Y-123625000I-249999J0D01*
G01*
X199249999Y-123625000D01*
G75*
G02*
X199000000Y-123375001I0J249999D01*
G01*
X199000000Y-122724999D01*
G75*
G02*
X199249999Y-122475000I249999J0D01*
G01*
G37*
G04 #@! TD.AperFunction*
G04 #@! TA.AperFunction,SMDPad,CuDef*
G36*
G01*
X199249999Y-119525000D02*
X200550001Y-119525000D01*
G75*
G02*
X200800000Y-119774999I0J-249999D01*
G01*
X200800000Y-120425001D01*
G75*
G02*
X200550001Y-120675000I-249999J0D01*
G01*
X199249999Y-120675000D01*
G75*
G02*
X199000000Y-120425001I0J249999D01*
G01*
X199000000Y-119774999D01*
G75*
G02*
X199249999Y-119525000I249999J0D01*
G01*
G37*
G04 #@! TD.AperFunction*
G04 #@! TA.AperFunction,SMDPad,CuDef*
G36*
G01*
X221249999Y-122525000D02*
X222550001Y-122525000D01*
G75*
G02*
X222800000Y-122774999I0J-249999D01*
G01*
X222800000Y-123425001D01*
G75*
G02*
X222550001Y-123675000I-249999J0D01*
G01*
X221249999Y-123675000D01*
G75*
G02*
X221000000Y-123425001I0J249999D01*
G01*
X221000000Y-122774999D01*
G75*
G02*
X221249999Y-122525000I249999J0D01*
G01*
G37*
G04 #@! TD.AperFunction*
G04 #@! TA.AperFunction,SMDPad,CuDef*
G36*
G01*
X221249999Y-119575000D02*
X222550001Y-119575000D01*
G75*
G02*
X222800000Y-119824999I0J-249999D01*
G01*
X222800000Y-120475001D01*
G75*
G02*
X222550001Y-120725000I-249999J0D01*
G01*
X221249999Y-120725000D01*
G75*
G02*
X221000000Y-120475001I0J249999D01*
G01*
X221000000Y-119824999D01*
G75*
G02*
X221249999Y-119575000I249999J0D01*
G01*
G37*
G04 #@! TD.AperFunction*
G04 #@! TA.AperFunction,SMDPad,CuDef*
G36*
G01*
X208249999Y-122475000D02*
X209550001Y-122475000D01*
G75*
G02*
X209800000Y-122724999I0J-249999D01*
G01*
X209800000Y-123375001D01*
G75*
G02*
X209550001Y-123625000I-249999J0D01*
G01*
X208249999Y-123625000D01*
G75*
G02*
X208000000Y-123375001I0J249999D01*
G01*
X208000000Y-122724999D01*
G75*
G02*
X208249999Y-122475000I249999J0D01*
G01*
G37*
G04 #@! TD.AperFunction*
G04 #@! TA.AperFunction,SMDPad,CuDef*
G36*
G01*
X208249999Y-119525000D02*
X209550001Y-119525000D01*
G75*
G02*
X209800000Y-119774999I0J-249999D01*
G01*
X209800000Y-120425001D01*
G75*
G02*
X209550001Y-120675000I-249999J0D01*
G01*
X208249999Y-120675000D01*
G75*
G02*
X208000000Y-120425001I0J249999D01*
G01*
X208000000Y-119774999D01*
G75*
G02*
X208249999Y-119525000I249999J0D01*
G01*
G37*
G04 #@! TD.AperFunction*
G04 #@! TA.AperFunction,SMDPad,CuDef*
G36*
G01*
X203149999Y-122475000D02*
X204450001Y-122475000D01*
G75*
G02*
X204700000Y-122724999I0J-249999D01*
G01*
X204700000Y-123375001D01*
G75*
G02*
X204450001Y-123625000I-249999J0D01*
G01*
X203149999Y-123625000D01*
G75*
G02*
X202900000Y-123375001I0J249999D01*
G01*
X202900000Y-122724999D01*
G75*
G02*
X203149999Y-122475000I249999J0D01*
G01*
G37*
G04 #@! TD.AperFunction*
G04 #@! TA.AperFunction,SMDPad,CuDef*
G36*
G01*
X203149999Y-119525000D02*
X204450001Y-119525000D01*
G75*
G02*
X204700000Y-119774999I0J-249999D01*
G01*
X204700000Y-120425001D01*
G75*
G02*
X204450001Y-120675000I-249999J0D01*
G01*
X203149999Y-120675000D01*
G75*
G02*
X202900000Y-120425001I0J249999D01*
G01*
X202900000Y-119774999D01*
G75*
G02*
X203149999Y-119525000I249999J0D01*
G01*
G37*
G04 #@! TD.AperFunction*
D10*
X237501200Y-97909000D03*
X237501200Y-104509000D03*
D11*
X192800000Y-126600000D03*
X236800000Y-126600000D03*
X236800000Y-92500000D03*
X192700000Y-92500000D03*
D12*
X233207000Y-117687400D03*
X233207000Y-118957400D03*
X233207000Y-120227400D03*
X233207000Y-121497400D03*
D13*
X236917000Y-119592400D03*
D14*
X191705000Y-116823800D03*
X194245000Y-118093800D03*
X191705000Y-119363800D03*
D15*
X194245000Y-120633800D03*
X202500000Y-91900000D03*
D14*
X201230000Y-94440000D03*
X199960000Y-91900000D03*
X198690000Y-94440000D03*
X209890000Y-94526000D03*
X211160000Y-91986000D03*
X212430000Y-94526000D03*
D15*
X213700000Y-91986000D03*
D14*
X226990000Y-94540000D03*
X228260000Y-92000000D03*
X229530000Y-94540000D03*
D15*
X230800000Y-92000000D03*
G04 #@! TA.AperFunction,SMDPad,CuDef*
G36*
G01*
X228343750Y-122380700D02*
X228856250Y-122380700D01*
G75*
G02*
X229075000Y-122599450I0J-218750D01*
G01*
X229075000Y-123036950D01*
G75*
G02*
X228856250Y-123255700I-218750J0D01*
G01*
X228343750Y-123255700D01*
G75*
G02*
X228125000Y-123036950I0J218750D01*
G01*
X228125000Y-122599450D01*
G75*
G02*
X228343750Y-122380700I218750J0D01*
G01*
G37*
G04 #@! TD.AperFunction*
G04 #@! TA.AperFunction,SMDPad,CuDef*
G36*
G01*
X228343750Y-120805700D02*
X228856250Y-120805700D01*
G75*
G02*
X229075000Y-121024450I0J-218750D01*
G01*
X229075000Y-121461950D01*
G75*
G02*
X228856250Y-121680700I-218750J0D01*
G01*
X228343750Y-121680700D01*
G75*
G02*
X228125000Y-121461950I0J218750D01*
G01*
X228125000Y-121024450D01*
G75*
G02*
X228343750Y-120805700I218750J0D01*
G01*
G37*
G04 #@! TD.AperFunction*
G04 #@! TA.AperFunction,SMDPad,CuDef*
G36*
G01*
X201543750Y-122637500D02*
X202056250Y-122637500D01*
G75*
G02*
X202275000Y-122856250I0J-218750D01*
G01*
X202275000Y-123293750D01*
G75*
G02*
X202056250Y-123512500I-218750J0D01*
G01*
X201543750Y-123512500D01*
G75*
G02*
X201325000Y-123293750I0J218750D01*
G01*
X201325000Y-122856250D01*
G75*
G02*
X201543750Y-122637500I218750J0D01*
G01*
G37*
G04 #@! TD.AperFunction*
G04 #@! TA.AperFunction,SMDPad,CuDef*
G36*
G01*
X201543750Y-121062500D02*
X202056250Y-121062500D01*
G75*
G02*
X202275000Y-121281250I0J-218750D01*
G01*
X202275000Y-121718750D01*
G75*
G02*
X202056250Y-121937500I-218750J0D01*
G01*
X201543750Y-121937500D01*
G75*
G02*
X201325000Y-121718750I0J218750D01*
G01*
X201325000Y-121281250D01*
G75*
G02*
X201543750Y-121062500I218750J0D01*
G01*
G37*
G04 #@! TD.AperFunction*
G04 #@! TA.AperFunction,SMDPad,CuDef*
G36*
G01*
X215143750Y-120882000D02*
X215656250Y-120882000D01*
G75*
G02*
X215875000Y-121100750I0J-218750D01*
G01*
X215875000Y-121538250D01*
G75*
G02*
X215656250Y-121757000I-218750J0D01*
G01*
X215143750Y-121757000D01*
G75*
G02*
X214925000Y-121538250I0J218750D01*
G01*
X214925000Y-121100750D01*
G75*
G02*
X215143750Y-120882000I218750J0D01*
G01*
G37*
G04 #@! TD.AperFunction*
G04 #@! TA.AperFunction,SMDPad,CuDef*
G36*
G01*
X215143750Y-122457000D02*
X215656250Y-122457000D01*
G75*
G02*
X215875000Y-122675750I0J-218750D01*
G01*
X215875000Y-123113250D01*
G75*
G02*
X215656250Y-123332000I-218750J0D01*
G01*
X215143750Y-123332000D01*
G75*
G02*
X214925000Y-123113250I0J218750D01*
G01*
X214925000Y-122675750D01*
G75*
G02*
X215143750Y-122457000I218750J0D01*
G01*
G37*
G04 #@! TD.AperFunction*
D16*
X214300000Y-104900000D03*
X202200000Y-99200000D03*
X209400000Y-110000000D03*
X222820050Y-108441750D03*
X214100000Y-106900000D03*
X205500000Y-97900000D03*
X211100000Y-106500000D03*
X202000000Y-100700000D03*
X215900000Y-104800000D03*
X200120400Y-105827200D03*
X222540600Y-100900000D03*
X222500000Y-99600000D03*
X222500000Y-97100000D03*
X227493600Y-97646800D03*
X227493600Y-103920600D03*
X226655400Y-102066400D03*
X211339200Y-110067400D03*
X209500000Y-106500000D03*
X206691000Y-110270600D03*
X199045600Y-110270600D03*
X191857400Y-98815200D03*
X191857400Y-106790800D03*
X234834200Y-99907400D03*
X235012000Y-98027800D03*
X237501200Y-99577200D03*
X237501200Y-100567800D03*
X237475800Y-102091800D03*
X237501200Y-102980800D03*
X235012000Y-104733400D03*
X202200000Y-97500000D03*
X231532200Y-99170800D03*
X221245200Y-108441800D03*
X213777600Y-110219800D03*
X221346800Y-110194400D03*
X216622400Y-121218000D03*
X215479400Y-121218000D03*
X214336400Y-121218000D03*
X201327399Y-121247601D03*
X202601600Y-121247601D03*
X203740399Y-121247601D03*
X233183200Y-120176600D03*
X233183200Y-118957400D03*
X226781600Y-121117200D03*
X228154000Y-121117200D03*
X229651800Y-121117200D03*
X197100000Y-123300000D03*
X222400000Y-123200000D03*
X210900000Y-123200000D03*
X208300000Y-123200000D03*
X233208600Y-110118200D03*
X222870800Y-118144600D03*
X224547200Y-118144600D03*
X206200000Y-117500000D03*
X199071000Y-115706200D03*
X232776800Y-117687400D03*
X233665800Y-117687400D03*
X219111600Y-118170000D03*
X233132400Y-111642200D03*
X229322400Y-114258400D03*
X232040200Y-115960200D03*
X235316800Y-114233000D03*
X238161600Y-114029800D03*
X236637600Y-114182200D03*
X235113600Y-115096600D03*
X236586800Y-115071200D03*
X238110800Y-114995000D03*
X238187000Y-113140800D03*
X236688400Y-113217000D03*
X235443800Y-113318600D03*
X233665800Y-123681800D03*
X225918800Y-115934800D03*
X206200000Y-118900000D03*
X209281800Y-118170000D03*
X210856600Y-118170000D03*
X203084200Y-123326200D03*
X201941200Y-123377000D03*
X201382400Y-122869000D03*
X202525400Y-122996000D03*
X203719200Y-122818200D03*
X216190600Y-123250000D03*
X214895200Y-123275400D03*
X214336400Y-122767400D03*
X215530200Y-122894400D03*
X216774800Y-122716600D03*
X226731600Y-122894400D03*
X229576400Y-122945200D03*
X213752200Y-115680800D03*
X221372200Y-115630000D03*
X201788800Y-117738200D03*
X204151000Y-118830400D03*
X213955400Y-118551000D03*
X216343000Y-118373200D03*
X229144600Y-118093800D03*
X226706200Y-118398600D03*
X199756800Y-118195400D03*
X228103200Y-122843600D03*
X207800000Y-117500000D03*
X220457800Y-117814400D03*
X222616800Y-115630000D03*
X197400000Y-118000000D03*
X217700000Y-97200000D03*
X219000000Y-97200000D03*
X205200000Y-101800000D03*
X216012800Y-98459600D03*
X211400000Y-104200000D03*
X213800000Y-101800000D03*
X230633002Y-101615001D03*
X213800000Y-101000000D03*
X230633002Y-99165001D03*
X217714600Y-117865200D03*
X217435200Y-118881200D03*
X238034600Y-119389200D03*
X235316800Y-119389200D03*
X235266000Y-121319600D03*
X238110800Y-121319600D03*
X236612200Y-121319600D03*
X236561400Y-119389200D03*
X236485200Y-117763600D03*
X237882200Y-117814400D03*
X235215200Y-117763600D03*
X195540400Y-123224600D03*
X209078600Y-125129600D03*
X221372200Y-125100000D03*
X205200000Y-100200000D03*
X200171200Y-104074600D03*
D17*
X213396600Y-94630600D02*
X213292000Y-94526000D01*
X202373000Y-95589400D02*
X201331600Y-94548000D01*
X202200000Y-99200000D02*
X201700000Y-99200000D01*
X200900000Y-94770000D02*
X201230000Y-94440000D01*
X200900000Y-98400000D02*
X200900000Y-94770000D01*
X201700000Y-99200000D02*
X200900000Y-98400000D01*
X222144999Y-109116801D02*
X222820050Y-108441750D01*
X210283199Y-109116801D02*
X222144999Y-109116801D01*
X209400000Y-110000000D02*
X210283199Y-109116801D01*
X220457800Y-117789000D02*
X220457800Y-117814400D01*
X222616800Y-115630000D02*
X221550000Y-116696800D01*
X221550000Y-116722200D02*
X220457800Y-117814400D01*
X221550000Y-116696800D02*
X221550000Y-116722200D01*
X207800000Y-117500000D02*
X208234400Y-117065600D01*
X208234400Y-117065600D02*
X219734400Y-117065600D01*
X219734400Y-117065600D02*
X220457800Y-117789000D01*
X207250900Y-116950900D02*
X207800000Y-117500000D01*
X207124999Y-116824999D02*
X207800000Y-117500000D01*
X198575001Y-116824999D02*
X207124999Y-116824999D01*
X197400000Y-118000000D02*
X198575001Y-116824999D01*
D18*
X209800000Y-97200000D02*
X211200000Y-97200000D01*
X205200000Y-101800000D02*
X209800000Y-97200000D01*
X211200000Y-97200000D02*
X211049400Y-97200000D01*
X217700000Y-97200000D02*
X211200000Y-97200000D01*
X213853800Y-98459600D02*
X216012800Y-98459600D01*
X211175001Y-103975001D02*
X211175001Y-99324999D01*
X211400000Y-104200000D02*
X211175001Y-103975001D01*
X212040400Y-98459600D02*
X213853800Y-98459600D01*
X211175001Y-99324999D02*
X212040400Y-98459600D01*
X230559400Y-101541399D02*
X230633002Y-101615001D01*
X225741399Y-101541399D02*
X230559400Y-101541399D01*
X225482798Y-101800000D02*
X225741399Y-101541399D01*
X213800000Y-101800000D02*
X225482798Y-101800000D01*
X214249990Y-101449990D02*
X213800000Y-101000000D01*
X225250010Y-101449990D02*
X214249990Y-101449990D01*
X229608611Y-101191389D02*
X225508611Y-101191389D01*
X225508611Y-101191389D02*
X225250010Y-101449990D01*
X230633002Y-100166998D02*
X229608611Y-101191389D01*
X230633002Y-99165001D02*
X230633002Y-100166998D01*
X217435200Y-118144600D02*
X217714600Y-117865200D01*
X217435200Y-118881200D02*
X217435200Y-118144600D01*
X209053200Y-125104200D02*
X209078600Y-125129600D01*
X195540400Y-123224600D02*
X195540400Y-123605600D01*
X197039000Y-125104200D02*
X198969400Y-125104200D01*
X195540400Y-123605600D02*
X197039000Y-125104200D01*
X198969400Y-125104200D02*
X209053200Y-125104200D01*
X209078600Y-125129600D02*
X221370400Y-125129600D01*
X204045800Y-100200000D02*
X200171200Y-104074600D01*
X205200000Y-100200000D02*
X204045800Y-100200000D01*
D19*
X202502971Y-93495918D02*
X202490000Y-93561127D01*
X202490000Y-93838873D01*
X202544186Y-94111282D01*
X202650475Y-94367885D01*
X202804782Y-94598822D01*
X203001178Y-94795218D01*
X203232115Y-94949525D01*
X203488718Y-95055814D01*
X203761127Y-95110000D01*
X204038873Y-95110000D01*
X204311282Y-95055814D01*
X204567885Y-94949525D01*
X204798822Y-94795218D01*
X204995218Y-94598822D01*
X205149525Y-94367885D01*
X205255814Y-94111282D01*
X205310000Y-93838873D01*
X205310000Y-93561127D01*
X205298008Y-93500841D01*
X209050272Y-93507451D01*
X208869349Y-93688374D01*
X208725548Y-93903588D01*
X208626496Y-94142720D01*
X208576000Y-94396582D01*
X208576000Y-94655418D01*
X208626496Y-94909280D01*
X208725548Y-95148412D01*
X208869349Y-95363626D01*
X209052374Y-95546651D01*
X209267588Y-95690452D01*
X209506720Y-95789504D01*
X209760582Y-95840000D01*
X210019418Y-95840000D01*
X210273280Y-95789504D01*
X210512412Y-95690452D01*
X210727626Y-95546651D01*
X210910651Y-95363626D01*
X211054452Y-95148412D01*
X211153504Y-94909280D01*
X211204000Y-94655418D01*
X211204000Y-94396582D01*
X211153504Y-94142720D01*
X211054452Y-93903588D01*
X210910651Y-93688374D01*
X210732691Y-93510414D01*
X213716149Y-93515669D01*
X213690000Y-93647127D01*
X213690000Y-93924873D01*
X213744186Y-94197282D01*
X213850475Y-94453885D01*
X214004782Y-94684822D01*
X214201178Y-94881218D01*
X214432115Y-95035525D01*
X214688718Y-95141814D01*
X214961127Y-95196000D01*
X215238873Y-95196000D01*
X215511282Y-95141814D01*
X215767885Y-95035525D01*
X215998822Y-94881218D01*
X216195218Y-94684822D01*
X216349525Y-94453885D01*
X216455814Y-94197282D01*
X216510000Y-93924873D01*
X216510000Y-93647127D01*
X216484821Y-93520546D01*
X226134181Y-93537542D01*
X225969349Y-93702374D01*
X225825548Y-93917588D01*
X225726496Y-94156720D01*
X225676000Y-94410582D01*
X225676000Y-94669418D01*
X225726496Y-94923280D01*
X225825548Y-95162412D01*
X225969349Y-95377626D01*
X226152374Y-95560651D01*
X226367588Y-95704452D01*
X226606720Y-95803504D01*
X226860582Y-95854000D01*
X227119418Y-95854000D01*
X227373280Y-95803504D01*
X227612412Y-95704452D01*
X227827626Y-95560651D01*
X228010651Y-95377626D01*
X228154452Y-95162412D01*
X228253504Y-94923280D01*
X228304000Y-94669418D01*
X228304000Y-94410582D01*
X228253504Y-94156720D01*
X228154452Y-93917588D01*
X228010651Y-93702374D01*
X227848839Y-93540562D01*
X230741241Y-93545657D01*
X230804678Y-96054295D01*
X197924902Y-96097237D01*
X197915012Y-95502504D01*
X198067588Y-95604452D01*
X198306720Y-95703504D01*
X198560582Y-95754000D01*
X198819418Y-95754000D01*
X199073280Y-95703504D01*
X199312412Y-95604452D01*
X199527626Y-95460651D01*
X199710651Y-95277626D01*
X199854452Y-95062412D01*
X199953504Y-94823280D01*
X200004000Y-94569418D01*
X200004000Y-94310582D01*
X199953504Y-94056720D01*
X199854452Y-93817588D01*
X199710651Y-93602374D01*
X199599080Y-93490803D01*
X202502971Y-93495918D01*
G04 #@! TA.AperFunction,Conductor*
D20*
G36*
X202502971Y-93495918D02*
G01*
X202490000Y-93561127D01*
X202490000Y-93838873D01*
X202544186Y-94111282D01*
X202650475Y-94367885D01*
X202804782Y-94598822D01*
X203001178Y-94795218D01*
X203232115Y-94949525D01*
X203488718Y-95055814D01*
X203761127Y-95110000D01*
X204038873Y-95110000D01*
X204311282Y-95055814D01*
X204567885Y-94949525D01*
X204798822Y-94795218D01*
X204995218Y-94598822D01*
X205149525Y-94367885D01*
X205255814Y-94111282D01*
X205310000Y-93838873D01*
X205310000Y-93561127D01*
X205298008Y-93500841D01*
X209050272Y-93507451D01*
X208869349Y-93688374D01*
X208725548Y-93903588D01*
X208626496Y-94142720D01*
X208576000Y-94396582D01*
X208576000Y-94655418D01*
X208626496Y-94909280D01*
X208725548Y-95148412D01*
X208869349Y-95363626D01*
X209052374Y-95546651D01*
X209267588Y-95690452D01*
X209506720Y-95789504D01*
X209760582Y-95840000D01*
X210019418Y-95840000D01*
X210273280Y-95789504D01*
X210512412Y-95690452D01*
X210727626Y-95546651D01*
X210910651Y-95363626D01*
X211054452Y-95148412D01*
X211153504Y-94909280D01*
X211204000Y-94655418D01*
X211204000Y-94396582D01*
X211153504Y-94142720D01*
X211054452Y-93903588D01*
X210910651Y-93688374D01*
X210732691Y-93510414D01*
X213716149Y-93515669D01*
X213690000Y-93647127D01*
X213690000Y-93924873D01*
X213744186Y-94197282D01*
X213850475Y-94453885D01*
X214004782Y-94684822D01*
X214201178Y-94881218D01*
X214432115Y-95035525D01*
X214688718Y-95141814D01*
X214961127Y-95196000D01*
X215238873Y-95196000D01*
X215511282Y-95141814D01*
X215767885Y-95035525D01*
X215998822Y-94881218D01*
X216195218Y-94684822D01*
X216349525Y-94453885D01*
X216455814Y-94197282D01*
X216510000Y-93924873D01*
X216510000Y-93647127D01*
X216484821Y-93520546D01*
X226134181Y-93537542D01*
X225969349Y-93702374D01*
X225825548Y-93917588D01*
X225726496Y-94156720D01*
X225676000Y-94410582D01*
X225676000Y-94669418D01*
X225726496Y-94923280D01*
X225825548Y-95162412D01*
X225969349Y-95377626D01*
X226152374Y-95560651D01*
X226367588Y-95704452D01*
X226606720Y-95803504D01*
X226860582Y-95854000D01*
X227119418Y-95854000D01*
X227373280Y-95803504D01*
X227612412Y-95704452D01*
X227827626Y-95560651D01*
X228010651Y-95377626D01*
X228154452Y-95162412D01*
X228253504Y-94923280D01*
X228304000Y-94669418D01*
X228304000Y-94410582D01*
X228253504Y-94156720D01*
X228154452Y-93917588D01*
X228010651Y-93702374D01*
X227848839Y-93540562D01*
X230741241Y-93545657D01*
X230804678Y-96054295D01*
X197924902Y-96097237D01*
X197915012Y-95502504D01*
X198067588Y-95604452D01*
X198306720Y-95703504D01*
X198560582Y-95754000D01*
X198819418Y-95754000D01*
X199073280Y-95703504D01*
X199312412Y-95604452D01*
X199527626Y-95460651D01*
X199710651Y-95277626D01*
X199854452Y-95062412D01*
X199953504Y-94823280D01*
X200004000Y-94569418D01*
X200004000Y-94310582D01*
X199953504Y-94056720D01*
X199854452Y-93817588D01*
X199710651Y-93602374D01*
X199599080Y-93490803D01*
X202502971Y-93495918D01*
G37*
G04 #@! TD.AperFunction*
D19*
X231673000Y-123848452D02*
X196827000Y-123972547D01*
X196827000Y-122476548D01*
X231673000Y-122352453D01*
X231673000Y-123848452D01*
G04 #@! TA.AperFunction,Conductor*
D20*
G36*
X231673000Y-123848452D02*
G01*
X196827000Y-123972547D01*
X196827000Y-122476548D01*
X231673000Y-122352453D01*
X231673000Y-123848452D01*
G37*
G04 #@! TD.AperFunction*
D19*
X233973000Y-121773000D02*
X196827000Y-121773000D01*
X196827000Y-119627000D01*
X233973000Y-119627000D01*
X233973000Y-121773000D01*
G04 #@! TA.AperFunction,Conductor*
D20*
G36*
X233973000Y-121773000D02*
G01*
X196827000Y-121773000D01*
X196827000Y-119627000D01*
X233973000Y-119627000D01*
X233973000Y-121773000D01*
G37*
G04 #@! TD.AperFunction*
D19*
X233973000Y-119473000D02*
X232427000Y-119473000D01*
X232427000Y-118727000D01*
X233973000Y-118727000D01*
X233973000Y-119473000D01*
G04 #@! TA.AperFunction,Conductor*
D20*
G36*
X233973000Y-119473000D02*
G01*
X232427000Y-119473000D01*
X232427000Y-118727000D01*
X233973000Y-118727000D01*
X233973000Y-119473000D01*
G37*
G04 #@! TD.AperFunction*
M02*
