G04 #@! TF.GenerationSoftware,KiCad,Pcbnew,5.99.0+really5.1.10+dfsg1-1*
G04 #@! TF.CreationDate,2021-12-28T19:21:21+02:00*
G04 #@! TF.ProjectId,components_main_board,636f6d70-6f6e-4656-9e74-735f6d61696e,V0.1*
G04 #@! TF.SameCoordinates,Original*
G04 #@! TF.FileFunction,Copper,L1,Top*
G04 #@! TF.FilePolarity,Positive*
%FSLAX46Y46*%
G04 Gerber Fmt 4.6, Leading zero omitted, Abs format (unit mm)*
G04 Created by KiCad (PCBNEW 5.99.0+really5.1.10+dfsg1-1) date 2021-12-28 19:21:21*
%MOMM*%
%LPD*%
G01*
G04 APERTURE LIST*
G04 #@! TA.AperFunction,ComponentPad*
%ADD10O,1.800000X0.900000*%
G04 #@! TD*
G04 #@! TA.AperFunction,SMDPad,CuDef*
%ADD11R,1.900000X1.900000*%
G04 #@! TD*
G04 #@! TA.AperFunction,SMDPad,CuDef*
%ADD12R,1.400000X1.600000*%
G04 #@! TD*
G04 #@! TA.AperFunction,SMDPad,CuDef*
%ADD13R,1.350000X0.400000*%
G04 #@! TD*
G04 #@! TA.AperFunction,SMDPad,CuDef*
%ADD14R,0.533400X1.461700*%
G04 #@! TD*
G04 #@! TA.AperFunction,SMDPad,CuDef*
%ADD15R,1.358900X0.500800*%
G04 #@! TD*
G04 #@! TA.AperFunction,SMDPad,CuDef*
%ADD16R,0.500800X1.358900*%
G04 #@! TD*
G04 #@! TA.AperFunction,ComponentPad*
%ADD17C,4.400000*%
G04 #@! TD*
G04 #@! TA.AperFunction,SMDPad,CuDef*
%ADD18R,0.700001X1.150000*%
G04 #@! TD*
G04 #@! TA.AperFunction,SMDPad,CuDef*
%ADD19R,2.790000X0.740000*%
G04 #@! TD*
G04 #@! TA.AperFunction,ComponentPad*
%ADD20C,1.358000*%
G04 #@! TD*
G04 #@! TA.AperFunction,ComponentPad*
%ADD21R,1.358000X1.358000*%
G04 #@! TD*
G04 #@! TA.AperFunction,SMDPad,CuDef*
%ADD22R,3.000000X4.000000*%
G04 #@! TD*
G04 #@! TA.AperFunction,SMDPad,CuDef*
%ADD23R,4.000000X3.000000*%
G04 #@! TD*
G04 #@! TA.AperFunction,SMDPad,CuDef*
%ADD24R,0.580000X1.420000*%
G04 #@! TD*
G04 #@! TA.AperFunction,SMDPad,CuDef*
%ADD25R,0.600000X1.250000*%
G04 #@! TD*
G04 #@! TA.AperFunction,SMDPad,CuDef*
%ADD26R,1.300000X1.550000*%
G04 #@! TD*
G04 #@! TA.AperFunction,SMDPad,CuDef*
%ADD27R,0.599999X0.249999*%
G04 #@! TD*
G04 #@! TA.AperFunction,SMDPad,CuDef*
%ADD28R,3.500001X0.499999*%
G04 #@! TD*
G04 #@! TA.AperFunction,SMDPad,CuDef*
%ADD29R,1.675000X0.499999*%
G04 #@! TD*
G04 #@! TA.AperFunction,SMDPad,CuDef*
%ADD30R,3.500001X1.400000*%
G04 #@! TD*
G04 #@! TA.AperFunction,SMDPad,CuDef*
%ADD31R,0.249999X0.599999*%
G04 #@! TD*
G04 #@! TA.AperFunction,ViaPad*
%ADD32C,0.450000*%
G04 #@! TD*
G04 #@! TA.AperFunction,Conductor*
%ADD33C,0.500000*%
G04 #@! TD*
G04 #@! TA.AperFunction,Conductor*
%ADD34C,0.200000*%
G04 #@! TD*
G04 #@! TA.AperFunction,Conductor*
%ADD35C,0.254000*%
G04 #@! TD*
G04 #@! TA.AperFunction,Conductor*
%ADD36C,0.100000*%
G04 #@! TD*
G04 APERTURE END LIST*
G04 #@! TA.AperFunction,SMDPad,CuDef*
G36*
G01*
X213625000Y-107150000D02*
X213625000Y-106650000D01*
G75*
G02*
X213850000Y-106425000I225000J0D01*
G01*
X214300000Y-106425000D01*
G75*
G02*
X214525000Y-106650000I0J-225000D01*
G01*
X214525000Y-107150000D01*
G75*
G02*
X214300000Y-107375000I-225000J0D01*
G01*
X213850000Y-107375000D01*
G75*
G02*
X213625000Y-107150000I0J225000D01*
G01*
G37*
G04 #@! TD.AperFunction*
G04 #@! TA.AperFunction,SMDPad,CuDef*
G36*
G01*
X212075000Y-107150000D02*
X212075000Y-106650000D01*
G75*
G02*
X212300000Y-106425000I225000J0D01*
G01*
X212750000Y-106425000D01*
G75*
G02*
X212975000Y-106650000I0J-225000D01*
G01*
X212975000Y-107150000D01*
G75*
G02*
X212750000Y-107375000I-225000J0D01*
G01*
X212300000Y-107375000D01*
G75*
G02*
X212075000Y-107150000I0J225000D01*
G01*
G37*
G04 #@! TD.AperFunction*
D10*
X237501200Y-97909000D03*
X237501200Y-104509000D03*
D11*
X237501200Y-100009000D03*
X237501200Y-102409000D03*
D12*
X235051200Y-98009000D03*
X235051200Y-104409000D03*
D13*
X234826200Y-99909000D03*
X234826200Y-100559000D03*
X234826200Y-101209000D03*
X234826200Y-101859000D03*
X234826200Y-102509000D03*
D14*
X207935600Y-110289048D03*
X206665600Y-110289048D03*
X205395600Y-110289048D03*
X204125600Y-110289048D03*
X202855600Y-110289048D03*
X201585600Y-110289048D03*
X200315600Y-110289048D03*
X199045600Y-110289048D03*
X199045600Y-115738552D03*
X200315600Y-115738552D03*
X201585600Y-115738552D03*
X202855600Y-115738552D03*
X204125600Y-115738552D03*
X205395600Y-115738552D03*
X206665600Y-115738552D03*
X207935600Y-115738552D03*
D15*
X204026450Y-99400001D03*
X204026450Y-100199999D03*
X204026450Y-101000000D03*
X204026450Y-101800001D03*
X204026450Y-102599999D03*
X204026450Y-103400000D03*
X204026450Y-104199999D03*
X204026450Y-104999999D03*
D16*
X205500001Y-106473550D03*
X206299999Y-106473550D03*
X207100000Y-106473550D03*
X207900001Y-106473550D03*
X208699999Y-106473550D03*
X209500000Y-106473550D03*
X210299999Y-106473550D03*
X211099999Y-106473550D03*
D15*
X212573550Y-104999999D03*
X212573550Y-104200001D03*
X212573550Y-103400000D03*
X212573550Y-102599999D03*
X212573550Y-101800001D03*
X212573550Y-101000000D03*
X212573550Y-100200001D03*
X212573550Y-99400001D03*
D16*
X211099999Y-97926450D03*
X210300001Y-97926450D03*
X209500000Y-97926450D03*
X208699999Y-97926450D03*
X207900001Y-97926450D03*
X207100000Y-97926450D03*
X206300001Y-97926450D03*
X205500001Y-97926450D03*
D17*
X192800000Y-126600000D03*
X236800000Y-126600000D03*
X236800000Y-92500000D03*
X192700000Y-92500000D03*
D18*
X232533001Y-99165001D03*
X231583001Y-99165001D03*
X230633002Y-99165001D03*
X230633002Y-101615001D03*
X232533001Y-101615001D03*
D19*
X218465000Y-100870000D03*
X222535000Y-100870000D03*
X218465000Y-102140000D03*
X222535000Y-102140000D03*
X218465000Y-97060000D03*
X222535000Y-97060000D03*
X218465000Y-98330000D03*
X222535000Y-98330000D03*
X218465000Y-99600000D03*
X222535000Y-99600000D03*
D20*
X191705000Y-116823800D03*
X194245000Y-118093800D03*
X191705000Y-119363800D03*
D21*
X194245000Y-120633800D03*
X202500000Y-91900000D03*
D20*
X201230000Y-94440000D03*
X199960000Y-91900000D03*
X198690000Y-94440000D03*
X209890000Y-94526000D03*
X211160000Y-91986000D03*
X212430000Y-94526000D03*
D21*
X213700000Y-91986000D03*
D20*
X226990000Y-94540000D03*
X228260000Y-92000000D03*
X229530000Y-94540000D03*
D21*
X230800000Y-92000000D03*
D22*
X219035400Y-126729800D03*
X213065400Y-126729800D03*
X205246000Y-126594800D03*
X199276000Y-126594800D03*
X230973400Y-126704400D03*
X225003400Y-126704400D03*
D23*
X236620200Y-120179400D03*
X236620200Y-114209400D03*
D24*
X225705400Y-99778400D03*
X227605400Y-99778400D03*
X227605400Y-102068400D03*
X226655400Y-102068400D03*
X225705400Y-102068400D03*
G04 #@! TA.AperFunction,SMDPad,CuDef*
G36*
G01*
X198932200Y-105545550D02*
X198932200Y-106058050D01*
G75*
G02*
X198713450Y-106276800I-218750J0D01*
G01*
X198275950Y-106276800D01*
G75*
G02*
X198057200Y-106058050I0J218750D01*
G01*
X198057200Y-105545550D01*
G75*
G02*
X198275950Y-105326800I218750J0D01*
G01*
X198713450Y-105326800D01*
G75*
G02*
X198932200Y-105545550I0J-218750D01*
G01*
G37*
G04 #@! TD.AperFunction*
G04 #@! TA.AperFunction,SMDPad,CuDef*
G36*
G01*
X200507200Y-105545550D02*
X200507200Y-106058050D01*
G75*
G02*
X200288450Y-106276800I-218750J0D01*
G01*
X199850950Y-106276800D01*
G75*
G02*
X199632200Y-106058050I0J218750D01*
G01*
X199632200Y-105545550D01*
G75*
G02*
X199850950Y-105326800I218750J0D01*
G01*
X200288450Y-105326800D01*
G75*
G02*
X200507200Y-105545550I0J-218750D01*
G01*
G37*
G04 #@! TD.AperFunction*
G04 #@! TA.AperFunction,SMDPad,CuDef*
G36*
G01*
X231995000Y-109811150D02*
X231995000Y-110323650D01*
G75*
G02*
X231776250Y-110542400I-218750J0D01*
G01*
X231338750Y-110542400D01*
G75*
G02*
X231120000Y-110323650I0J218750D01*
G01*
X231120000Y-109811150D01*
G75*
G02*
X231338750Y-109592400I218750J0D01*
G01*
X231776250Y-109592400D01*
G75*
G02*
X231995000Y-109811150I0J-218750D01*
G01*
G37*
G04 #@! TD.AperFunction*
G04 #@! TA.AperFunction,SMDPad,CuDef*
G36*
G01*
X233570000Y-109811150D02*
X233570000Y-110323650D01*
G75*
G02*
X233351250Y-110542400I-218750J0D01*
G01*
X232913750Y-110542400D01*
G75*
G02*
X232695000Y-110323650I0J218750D01*
G01*
X232695000Y-109811150D01*
G75*
G02*
X232913750Y-109592400I218750J0D01*
G01*
X233351250Y-109592400D01*
G75*
G02*
X233570000Y-109811150I0J-218750D01*
G01*
G37*
G04 #@! TD.AperFunction*
G04 #@! TA.AperFunction,SMDPad,CuDef*
G36*
G01*
X233441600Y-123307200D02*
X233991600Y-123307200D01*
G75*
G02*
X234191600Y-123507200I0J-200000D01*
G01*
X234191600Y-123907200D01*
G75*
G02*
X233991600Y-124107200I-200000J0D01*
G01*
X233441600Y-124107200D01*
G75*
G02*
X233241600Y-123907200I0J200000D01*
G01*
X233241600Y-123507200D01*
G75*
G02*
X233441600Y-123307200I200000J0D01*
G01*
G37*
G04 #@! TD.AperFunction*
G04 #@! TA.AperFunction,SMDPad,CuDef*
G36*
G01*
X233441600Y-121657200D02*
X233991600Y-121657200D01*
G75*
G02*
X234191600Y-121857200I0J-200000D01*
G01*
X234191600Y-122257200D01*
G75*
G02*
X233991600Y-122457200I-200000J0D01*
G01*
X233441600Y-122457200D01*
G75*
G02*
X233241600Y-122257200I0J200000D01*
G01*
X233241600Y-121857200D01*
G75*
G02*
X233441600Y-121657200I200000J0D01*
G01*
G37*
G04 #@! TD.AperFunction*
G04 #@! TA.AperFunction,SMDPad,CuDef*
G36*
G01*
X229733200Y-111266600D02*
X230283200Y-111266600D01*
G75*
G02*
X230483200Y-111466600I0J-200000D01*
G01*
X230483200Y-111866600D01*
G75*
G02*
X230283200Y-112066600I-200000J0D01*
G01*
X229733200Y-112066600D01*
G75*
G02*
X229533200Y-111866600I0J200000D01*
G01*
X229533200Y-111466600D01*
G75*
G02*
X229733200Y-111266600I200000J0D01*
G01*
G37*
G04 #@! TD.AperFunction*
G04 #@! TA.AperFunction,SMDPad,CuDef*
G36*
G01*
X229733200Y-109616600D02*
X230283200Y-109616600D01*
G75*
G02*
X230483200Y-109816600I0J-200000D01*
G01*
X230483200Y-110216600D01*
G75*
G02*
X230283200Y-110416600I-200000J0D01*
G01*
X229733200Y-110416600D01*
G75*
G02*
X229533200Y-110216600I0J200000D01*
G01*
X229533200Y-109816600D01*
G75*
G02*
X229733200Y-109616600I200000J0D01*
G01*
G37*
G04 #@! TD.AperFunction*
G04 #@! TA.AperFunction,SMDPad,CuDef*
G36*
G01*
X198857200Y-103875800D02*
X198857200Y-104425800D01*
G75*
G02*
X198657200Y-104625800I-200000J0D01*
G01*
X198257200Y-104625800D01*
G75*
G02*
X198057200Y-104425800I0J200000D01*
G01*
X198057200Y-103875800D01*
G75*
G02*
X198257200Y-103675800I200000J0D01*
G01*
X198657200Y-103675800D01*
G75*
G02*
X198857200Y-103875800I0J-200000D01*
G01*
G37*
G04 #@! TD.AperFunction*
G04 #@! TA.AperFunction,SMDPad,CuDef*
G36*
G01*
X200507200Y-103875800D02*
X200507200Y-104425800D01*
G75*
G02*
X200307200Y-104625800I-200000J0D01*
G01*
X199907200Y-104625800D01*
G75*
G02*
X199707200Y-104425800I0J200000D01*
G01*
X199707200Y-103875800D01*
G75*
G02*
X199907200Y-103675800I200000J0D01*
G01*
X200307200Y-103675800D01*
G75*
G02*
X200507200Y-103875800I0J-200000D01*
G01*
G37*
G04 #@! TD.AperFunction*
G04 #@! TA.AperFunction,SMDPad,CuDef*
G36*
G01*
X219386600Y-118571000D02*
X218836600Y-118571000D01*
G75*
G02*
X218636600Y-118371000I0J200000D01*
G01*
X218636600Y-117971000D01*
G75*
G02*
X218836600Y-117771000I200000J0D01*
G01*
X219386600Y-117771000D01*
G75*
G02*
X219586600Y-117971000I0J-200000D01*
G01*
X219586600Y-118371000D01*
G75*
G02*
X219386600Y-118571000I-200000J0D01*
G01*
G37*
G04 #@! TD.AperFunction*
G04 #@! TA.AperFunction,SMDPad,CuDef*
G36*
G01*
X219386600Y-120221000D02*
X218836600Y-120221000D01*
G75*
G02*
X218636600Y-120021000I0J200000D01*
G01*
X218636600Y-119621000D01*
G75*
G02*
X218836600Y-119421000I200000J0D01*
G01*
X219386600Y-119421000D01*
G75*
G02*
X219586600Y-119621000I0J-200000D01*
G01*
X219586600Y-120021000D01*
G75*
G02*
X219386600Y-120221000I-200000J0D01*
G01*
G37*
G04 #@! TD.AperFunction*
G04 #@! TA.AperFunction,SMDPad,CuDef*
G36*
G01*
X203026600Y-118013200D02*
X203026600Y-117463200D01*
G75*
G02*
X203226600Y-117263200I200000J0D01*
G01*
X203626600Y-117263200D01*
G75*
G02*
X203826600Y-117463200I0J-200000D01*
G01*
X203826600Y-118013200D01*
G75*
G02*
X203626600Y-118213200I-200000J0D01*
G01*
X203226600Y-118213200D01*
G75*
G02*
X203026600Y-118013200I0J200000D01*
G01*
G37*
G04 #@! TD.AperFunction*
G04 #@! TA.AperFunction,SMDPad,CuDef*
G36*
G01*
X201376600Y-118013200D02*
X201376600Y-117463200D01*
G75*
G02*
X201576600Y-117263200I200000J0D01*
G01*
X201976600Y-117263200D01*
G75*
G02*
X202176600Y-117463200I0J-200000D01*
G01*
X202176600Y-118013200D01*
G75*
G02*
X201976600Y-118213200I-200000J0D01*
G01*
X201576600Y-118213200D01*
G75*
G02*
X201376600Y-118013200I0J200000D01*
G01*
G37*
G04 #@! TD.AperFunction*
G04 #@! TA.AperFunction,SMDPad,CuDef*
G36*
G01*
X222595800Y-119394600D02*
X223145800Y-119394600D01*
G75*
G02*
X223345800Y-119594600I0J-200000D01*
G01*
X223345800Y-119994600D01*
G75*
G02*
X223145800Y-120194600I-200000J0D01*
G01*
X222595800Y-120194600D01*
G75*
G02*
X222395800Y-119994600I0J200000D01*
G01*
X222395800Y-119594600D01*
G75*
G02*
X222595800Y-119394600I200000J0D01*
G01*
G37*
G04 #@! TD.AperFunction*
G04 #@! TA.AperFunction,SMDPad,CuDef*
G36*
G01*
X222595800Y-117744600D02*
X223145800Y-117744600D01*
G75*
G02*
X223345800Y-117944600I0J-200000D01*
G01*
X223345800Y-118344600D01*
G75*
G02*
X223145800Y-118544600I-200000J0D01*
G01*
X222595800Y-118544600D01*
G75*
G02*
X222395800Y-118344600I0J200000D01*
G01*
X222395800Y-117944600D01*
G75*
G02*
X222595800Y-117744600I200000J0D01*
G01*
G37*
G04 #@! TD.AperFunction*
G04 #@! TA.AperFunction,SMDPad,CuDef*
G36*
G01*
X209032200Y-119370200D02*
X209582200Y-119370200D01*
G75*
G02*
X209782200Y-119570200I0J-200000D01*
G01*
X209782200Y-119970200D01*
G75*
G02*
X209582200Y-120170200I-200000J0D01*
G01*
X209032200Y-120170200D01*
G75*
G02*
X208832200Y-119970200I0J200000D01*
G01*
X208832200Y-119570200D01*
G75*
G02*
X209032200Y-119370200I200000J0D01*
G01*
G37*
G04 #@! TD.AperFunction*
G04 #@! TA.AperFunction,SMDPad,CuDef*
G36*
G01*
X209032200Y-117720200D02*
X209582200Y-117720200D01*
G75*
G02*
X209782200Y-117920200I0J-200000D01*
G01*
X209782200Y-118320200D01*
G75*
G02*
X209582200Y-118520200I-200000J0D01*
G01*
X209032200Y-118520200D01*
G75*
G02*
X208832200Y-118320200I0J200000D01*
G01*
X208832200Y-117920200D01*
G75*
G02*
X209032200Y-117720200I200000J0D01*
G01*
G37*
G04 #@! TD.AperFunction*
G04 #@! TA.AperFunction,SMDPad,CuDef*
G36*
G01*
X206475000Y-119350000D02*
X205925000Y-119350000D01*
G75*
G02*
X205725000Y-119150000I0J200000D01*
G01*
X205725000Y-118750000D01*
G75*
G02*
X205925000Y-118550000I200000J0D01*
G01*
X206475000Y-118550000D01*
G75*
G02*
X206675000Y-118750000I0J-200000D01*
G01*
X206675000Y-119150000D01*
G75*
G02*
X206475000Y-119350000I-200000J0D01*
G01*
G37*
G04 #@! TD.AperFunction*
G04 #@! TA.AperFunction,SMDPad,CuDef*
G36*
G01*
X206475000Y-121000000D02*
X205925000Y-121000000D01*
G75*
G02*
X205725000Y-120800000I0J200000D01*
G01*
X205725000Y-120400000D01*
G75*
G02*
X205925000Y-120200000I200000J0D01*
G01*
X206475000Y-120200000D01*
G75*
G02*
X206675000Y-120400000I0J-200000D01*
G01*
X206675000Y-120800000D01*
G75*
G02*
X206475000Y-121000000I-200000J0D01*
G01*
G37*
G04 #@! TD.AperFunction*
G04 #@! TA.AperFunction,SMDPad,CuDef*
G36*
G01*
X224246800Y-119394600D02*
X224796800Y-119394600D01*
G75*
G02*
X224996800Y-119594600I0J-200000D01*
G01*
X224996800Y-119994600D01*
G75*
G02*
X224796800Y-120194600I-200000J0D01*
G01*
X224246800Y-120194600D01*
G75*
G02*
X224046800Y-119994600I0J200000D01*
G01*
X224046800Y-119594600D01*
G75*
G02*
X224246800Y-119394600I200000J0D01*
G01*
G37*
G04 #@! TD.AperFunction*
G04 #@! TA.AperFunction,SMDPad,CuDef*
G36*
G01*
X224246800Y-117744600D02*
X224796800Y-117744600D01*
G75*
G02*
X224996800Y-117944600I0J-200000D01*
G01*
X224996800Y-118344600D01*
G75*
G02*
X224796800Y-118544600I-200000J0D01*
G01*
X224246800Y-118544600D01*
G75*
G02*
X224046800Y-118344600I0J200000D01*
G01*
X224046800Y-117944600D01*
G75*
G02*
X224246800Y-117744600I200000J0D01*
G01*
G37*
G04 #@! TD.AperFunction*
G04 #@! TA.AperFunction,SMDPad,CuDef*
G36*
G01*
X210632400Y-119319400D02*
X211182400Y-119319400D01*
G75*
G02*
X211382400Y-119519400I0J-200000D01*
G01*
X211382400Y-119919400D01*
G75*
G02*
X211182400Y-120119400I-200000J0D01*
G01*
X210632400Y-120119400D01*
G75*
G02*
X210432400Y-119919400I0J200000D01*
G01*
X210432400Y-119519400D01*
G75*
G02*
X210632400Y-119319400I200000J0D01*
G01*
G37*
G04 #@! TD.AperFunction*
G04 #@! TA.AperFunction,SMDPad,CuDef*
G36*
G01*
X210632400Y-117669400D02*
X211182400Y-117669400D01*
G75*
G02*
X211382400Y-117869400I0J-200000D01*
G01*
X211382400Y-118269400D01*
G75*
G02*
X211182400Y-118469400I-200000J0D01*
G01*
X210632400Y-118469400D01*
G75*
G02*
X210432400Y-118269400I0J200000D01*
G01*
X210432400Y-117869400D01*
G75*
G02*
X210632400Y-117669400I200000J0D01*
G01*
G37*
G04 #@! TD.AperFunction*
G04 #@! TA.AperFunction,SMDPad,CuDef*
G36*
G01*
X199456400Y-119407800D02*
X200006400Y-119407800D01*
G75*
G02*
X200206400Y-119607800I0J-200000D01*
G01*
X200206400Y-120007800D01*
G75*
G02*
X200006400Y-120207800I-200000J0D01*
G01*
X199456400Y-120207800D01*
G75*
G02*
X199256400Y-120007800I0J200000D01*
G01*
X199256400Y-119607800D01*
G75*
G02*
X199456400Y-119407800I200000J0D01*
G01*
G37*
G04 #@! TD.AperFunction*
G04 #@! TA.AperFunction,SMDPad,CuDef*
G36*
G01*
X199456400Y-117757800D02*
X200006400Y-117757800D01*
G75*
G02*
X200206400Y-117957800I0J-200000D01*
G01*
X200206400Y-118357800D01*
G75*
G02*
X200006400Y-118557800I-200000J0D01*
G01*
X199456400Y-118557800D01*
G75*
G02*
X199256400Y-118357800I0J200000D01*
G01*
X199256400Y-117957800D01*
G75*
G02*
X199456400Y-117757800I200000J0D01*
G01*
G37*
G04 #@! TD.AperFunction*
G04 #@! TA.AperFunction,SMDPad,CuDef*
G36*
G01*
X207432000Y-120200000D02*
X207982000Y-120200000D01*
G75*
G02*
X208182000Y-120400000I0J-200000D01*
G01*
X208182000Y-120800000D01*
G75*
G02*
X207982000Y-121000000I-200000J0D01*
G01*
X207432000Y-121000000D01*
G75*
G02*
X207232000Y-120800000I0J200000D01*
G01*
X207232000Y-120400000D01*
G75*
G02*
X207432000Y-120200000I200000J0D01*
G01*
G37*
G04 #@! TD.AperFunction*
G04 #@! TA.AperFunction,SMDPad,CuDef*
G36*
G01*
X207432000Y-118550000D02*
X207982000Y-118550000D01*
G75*
G02*
X208182000Y-118750000I0J-200000D01*
G01*
X208182000Y-119150000D01*
G75*
G02*
X207982000Y-119350000I-200000J0D01*
G01*
X207432000Y-119350000D01*
G75*
G02*
X207232000Y-119150000I0J200000D01*
G01*
X207232000Y-118750000D01*
G75*
G02*
X207432000Y-118550000I200000J0D01*
G01*
G37*
G04 #@! TD.AperFunction*
G04 #@! TA.AperFunction,SMDPad,CuDef*
G36*
G01*
X220513000Y-120220600D02*
X221063000Y-120220600D01*
G75*
G02*
X221263000Y-120420600I0J-200000D01*
G01*
X221263000Y-120820600D01*
G75*
G02*
X221063000Y-121020600I-200000J0D01*
G01*
X220513000Y-121020600D01*
G75*
G02*
X220313000Y-120820600I0J200000D01*
G01*
X220313000Y-120420600D01*
G75*
G02*
X220513000Y-120220600I200000J0D01*
G01*
G37*
G04 #@! TD.AperFunction*
G04 #@! TA.AperFunction,SMDPad,CuDef*
G36*
G01*
X220513000Y-118570600D02*
X221063000Y-118570600D01*
G75*
G02*
X221263000Y-118770600I0J-200000D01*
G01*
X221263000Y-119170600D01*
G75*
G02*
X221063000Y-119370600I-200000J0D01*
G01*
X220513000Y-119370600D01*
G75*
G02*
X220313000Y-119170600I0J200000D01*
G01*
X220313000Y-118770600D01*
G75*
G02*
X220513000Y-118570600I200000J0D01*
G01*
G37*
G04 #@! TD.AperFunction*
G04 #@! TA.AperFunction,SMDPad,CuDef*
G36*
G01*
X196995000Y-120206400D02*
X196995000Y-120756400D01*
G75*
G02*
X196795000Y-120956400I-200000J0D01*
G01*
X196395000Y-120956400D01*
G75*
G02*
X196195000Y-120756400I0J200000D01*
G01*
X196195000Y-120206400D01*
G75*
G02*
X196395000Y-120006400I200000J0D01*
G01*
X196795000Y-120006400D01*
G75*
G02*
X196995000Y-120206400I0J-200000D01*
G01*
G37*
G04 #@! TD.AperFunction*
G04 #@! TA.AperFunction,SMDPad,CuDef*
G36*
G01*
X198645000Y-120206400D02*
X198645000Y-120756400D01*
G75*
G02*
X198445000Y-120956400I-200000J0D01*
G01*
X198045000Y-120956400D01*
G75*
G02*
X197845000Y-120756400I0J200000D01*
G01*
X197845000Y-120206400D01*
G75*
G02*
X198045000Y-120006400I200000J0D01*
G01*
X198445000Y-120006400D01*
G75*
G02*
X198645000Y-120206400I0J-200000D01*
G01*
G37*
G04 #@! TD.AperFunction*
G04 #@! TA.AperFunction,SMDPad,CuDef*
G36*
G01*
X231931800Y-104017800D02*
X231931800Y-103467800D01*
G75*
G02*
X232131800Y-103267800I200000J0D01*
G01*
X232531800Y-103267800D01*
G75*
G02*
X232731800Y-103467800I0J-200000D01*
G01*
X232731800Y-104017800D01*
G75*
G02*
X232531800Y-104217800I-200000J0D01*
G01*
X232131800Y-104217800D01*
G75*
G02*
X231931800Y-104017800I0J200000D01*
G01*
G37*
G04 #@! TD.AperFunction*
G04 #@! TA.AperFunction,SMDPad,CuDef*
G36*
G01*
X230281800Y-104017800D02*
X230281800Y-103467800D01*
G75*
G02*
X230481800Y-103267800I200000J0D01*
G01*
X230881800Y-103267800D01*
G75*
G02*
X231081800Y-103467800I0J-200000D01*
G01*
X231081800Y-104017800D01*
G75*
G02*
X230881800Y-104217800I-200000J0D01*
G01*
X230481800Y-104217800D01*
G75*
G02*
X230281800Y-104017800I0J200000D01*
G01*
G37*
G04 #@! TD.AperFunction*
G04 #@! TA.AperFunction,SMDPad,CuDef*
G36*
G01*
X229578650Y-114695800D02*
X229066150Y-114695800D01*
G75*
G02*
X228847400Y-114477050I0J218750D01*
G01*
X228847400Y-114039550D01*
G75*
G02*
X229066150Y-113820800I218750J0D01*
G01*
X229578650Y-113820800D01*
G75*
G02*
X229797400Y-114039550I0J-218750D01*
G01*
X229797400Y-114477050D01*
G75*
G02*
X229578650Y-114695800I-218750J0D01*
G01*
G37*
G04 #@! TD.AperFunction*
G04 #@! TA.AperFunction,SMDPad,CuDef*
G36*
G01*
X229578650Y-116270800D02*
X229066150Y-116270800D01*
G75*
G02*
X228847400Y-116052050I0J218750D01*
G01*
X228847400Y-115614550D01*
G75*
G02*
X229066150Y-115395800I218750J0D01*
G01*
X229578650Y-115395800D01*
G75*
G02*
X229797400Y-115614550I0J-218750D01*
G01*
X229797400Y-116052050D01*
G75*
G02*
X229578650Y-116270800I-218750J0D01*
G01*
G37*
G04 #@! TD.AperFunction*
D14*
X222642200Y-115687752D03*
X221372200Y-115687752D03*
X220102200Y-115687752D03*
X218832200Y-115687752D03*
X217562200Y-115687752D03*
X216292200Y-115687752D03*
X215022200Y-115687752D03*
X213752200Y-115687752D03*
X213752200Y-110238248D03*
X215022200Y-110238248D03*
X216292200Y-110238248D03*
X217562200Y-110238248D03*
X218832200Y-110238248D03*
X220102200Y-110238248D03*
X221372200Y-110238248D03*
X222642200Y-110238248D03*
G04 #@! TA.AperFunction,SMDPad,CuDef*
G36*
G01*
X206650000Y-117243750D02*
X206650000Y-117756250D01*
G75*
G02*
X206431250Y-117975000I-218750J0D01*
G01*
X205993750Y-117975000D01*
G75*
G02*
X205775000Y-117756250I0J218750D01*
G01*
X205775000Y-117243750D01*
G75*
G02*
X205993750Y-117025000I218750J0D01*
G01*
X206431250Y-117025000D01*
G75*
G02*
X206650000Y-117243750I0J-218750D01*
G01*
G37*
G04 #@! TD.AperFunction*
G04 #@! TA.AperFunction,SMDPad,CuDef*
G36*
G01*
X208225000Y-117243750D02*
X208225000Y-117756250D01*
G75*
G02*
X208006250Y-117975000I-218750J0D01*
G01*
X207568750Y-117975000D01*
G75*
G02*
X207350000Y-117756250I0J218750D01*
G01*
X207350000Y-117243750D01*
G75*
G02*
X207568750Y-117025000I218750J0D01*
G01*
X208006250Y-117025000D01*
G75*
G02*
X208225000Y-117243750I0J-218750D01*
G01*
G37*
G04 #@! TD.AperFunction*
G04 #@! TA.AperFunction,SMDPad,CuDef*
G36*
G01*
X225456000Y-116140250D02*
X225456000Y-115627750D01*
G75*
G02*
X225674750Y-115409000I218750J0D01*
G01*
X226112250Y-115409000D01*
G75*
G02*
X226331000Y-115627750I0J-218750D01*
G01*
X226331000Y-116140250D01*
G75*
G02*
X226112250Y-116359000I-218750J0D01*
G01*
X225674750Y-116359000D01*
G75*
G02*
X225456000Y-116140250I0J218750D01*
G01*
G37*
G04 #@! TD.AperFunction*
G04 #@! TA.AperFunction,SMDPad,CuDef*
G36*
G01*
X223881000Y-116140250D02*
X223881000Y-115627750D01*
G75*
G02*
X224099750Y-115409000I218750J0D01*
G01*
X224537250Y-115409000D01*
G75*
G02*
X224756000Y-115627750I0J-218750D01*
G01*
X224756000Y-116140250D01*
G75*
G02*
X224537250Y-116359000I-218750J0D01*
G01*
X224099750Y-116359000D01*
G75*
G02*
X223881000Y-116140250I0J218750D01*
G01*
G37*
G04 #@! TD.AperFunction*
G04 #@! TA.AperFunction,SMDPad,CuDef*
G36*
G01*
X232695000Y-111898450D02*
X232695000Y-111385950D01*
G75*
G02*
X232913750Y-111167200I218750J0D01*
G01*
X233351250Y-111167200D01*
G75*
G02*
X233570000Y-111385950I0J-218750D01*
G01*
X233570000Y-111898450D01*
G75*
G02*
X233351250Y-112117200I-218750J0D01*
G01*
X232913750Y-112117200D01*
G75*
G02*
X232695000Y-111898450I0J218750D01*
G01*
G37*
G04 #@! TD.AperFunction*
G04 #@! TA.AperFunction,SMDPad,CuDef*
G36*
G01*
X231120000Y-111898450D02*
X231120000Y-111385950D01*
G75*
G02*
X231338750Y-111167200I218750J0D01*
G01*
X231776250Y-111167200D01*
G75*
G02*
X231995000Y-111385950I0J-218750D01*
G01*
X231995000Y-111898450D01*
G75*
G02*
X231776250Y-112117200I-218750J0D01*
G01*
X231338750Y-112117200D01*
G75*
G02*
X231120000Y-111898450I0J218750D01*
G01*
G37*
G04 #@! TD.AperFunction*
G04 #@! TA.AperFunction,SMDPad,CuDef*
G36*
G01*
X225430400Y-97928450D02*
X225430400Y-97415950D01*
G75*
G02*
X225649150Y-97197200I218750J0D01*
G01*
X226086650Y-97197200D01*
G75*
G02*
X226305400Y-97415950I0J-218750D01*
G01*
X226305400Y-97928450D01*
G75*
G02*
X226086650Y-98147200I-218750J0D01*
G01*
X225649150Y-98147200D01*
G75*
G02*
X225430400Y-97928450I0J218750D01*
G01*
G37*
G04 #@! TD.AperFunction*
G04 #@! TA.AperFunction,SMDPad,CuDef*
G36*
G01*
X227005400Y-97928450D02*
X227005400Y-97415950D01*
G75*
G02*
X227224150Y-97197200I218750J0D01*
G01*
X227661650Y-97197200D01*
G75*
G02*
X227880400Y-97415950I0J-218750D01*
G01*
X227880400Y-97928450D01*
G75*
G02*
X227661650Y-98147200I-218750J0D01*
G01*
X227224150Y-98147200D01*
G75*
G02*
X227005400Y-97928450I0J218750D01*
G01*
G37*
G04 #@! TD.AperFunction*
G04 #@! TA.AperFunction,SMDPad,CuDef*
G36*
G01*
X213875000Y-105056250D02*
X213875000Y-104543750D01*
G75*
G02*
X214093750Y-104325000I218750J0D01*
G01*
X214531250Y-104325000D01*
G75*
G02*
X214750000Y-104543750I0J-218750D01*
G01*
X214750000Y-105056250D01*
G75*
G02*
X214531250Y-105275000I-218750J0D01*
G01*
X214093750Y-105275000D01*
G75*
G02*
X213875000Y-105056250I0J218750D01*
G01*
G37*
G04 #@! TD.AperFunction*
G04 #@! TA.AperFunction,SMDPad,CuDef*
G36*
G01*
X215450000Y-105056250D02*
X215450000Y-104543750D01*
G75*
G02*
X215668750Y-104325000I218750J0D01*
G01*
X216106250Y-104325000D01*
G75*
G02*
X216325000Y-104543750I0J-218750D01*
G01*
X216325000Y-105056250D01*
G75*
G02*
X216106250Y-105275000I-218750J0D01*
G01*
X215668750Y-105275000D01*
G75*
G02*
X215450000Y-105056250I0J218750D01*
G01*
G37*
G04 #@! TD.AperFunction*
G04 #@! TA.AperFunction,SMDPad,CuDef*
G36*
G01*
X201943750Y-98650000D02*
X202456250Y-98650000D01*
G75*
G02*
X202675000Y-98868750I0J-218750D01*
G01*
X202675000Y-99306250D01*
G75*
G02*
X202456250Y-99525000I-218750J0D01*
G01*
X201943750Y-99525000D01*
G75*
G02*
X201725000Y-99306250I0J218750D01*
G01*
X201725000Y-98868750D01*
G75*
G02*
X201943750Y-98650000I218750J0D01*
G01*
G37*
G04 #@! TD.AperFunction*
G04 #@! TA.AperFunction,SMDPad,CuDef*
G36*
G01*
X201943750Y-97075000D02*
X202456250Y-97075000D01*
G75*
G02*
X202675000Y-97293750I0J-218750D01*
G01*
X202675000Y-97731250D01*
G75*
G02*
X202456250Y-97950000I-218750J0D01*
G01*
X201943750Y-97950000D01*
G75*
G02*
X201725000Y-97731250I0J218750D01*
G01*
X201725000Y-97293750D01*
G75*
G02*
X201943750Y-97075000I218750J0D01*
G01*
G37*
G04 #@! TD.AperFunction*
G04 #@! TA.AperFunction,SMDPad,CuDef*
G36*
G01*
X211425000Y-109643750D02*
X211425000Y-110156250D01*
G75*
G02*
X211206250Y-110375000I-218750J0D01*
G01*
X210768750Y-110375000D01*
G75*
G02*
X210550000Y-110156250I0J218750D01*
G01*
X210550000Y-109643750D01*
G75*
G02*
X210768750Y-109425000I218750J0D01*
G01*
X211206250Y-109425000D01*
G75*
G02*
X211425000Y-109643750I0J-218750D01*
G01*
G37*
G04 #@! TD.AperFunction*
G04 #@! TA.AperFunction,SMDPad,CuDef*
G36*
G01*
X209850000Y-109643750D02*
X209850000Y-110156250D01*
G75*
G02*
X209631250Y-110375000I-218750J0D01*
G01*
X209193750Y-110375000D01*
G75*
G02*
X208975000Y-110156250I0J218750D01*
G01*
X208975000Y-109643750D01*
G75*
G02*
X209193750Y-109425000I218750J0D01*
G01*
X209631250Y-109425000D01*
G75*
G02*
X209850000Y-109643750I0J-218750D01*
G01*
G37*
G04 #@! TD.AperFunction*
D25*
X231090200Y-115914800D03*
X232040200Y-115914800D03*
X232990200Y-115914800D03*
X232990200Y-113414800D03*
X231090200Y-113414800D03*
G04 #@! TA.AperFunction,SMDPad,CuDef*
G36*
G01*
X225405000Y-104202250D02*
X225405000Y-103689750D01*
G75*
G02*
X225623750Y-103471000I218750J0D01*
G01*
X226061250Y-103471000D01*
G75*
G02*
X226280000Y-103689750I0J-218750D01*
G01*
X226280000Y-104202250D01*
G75*
G02*
X226061250Y-104421000I-218750J0D01*
G01*
X225623750Y-104421000D01*
G75*
G02*
X225405000Y-104202250I0J218750D01*
G01*
G37*
G04 #@! TD.AperFunction*
G04 #@! TA.AperFunction,SMDPad,CuDef*
G36*
G01*
X226980000Y-104202250D02*
X226980000Y-103689750D01*
G75*
G02*
X227198750Y-103471000I218750J0D01*
G01*
X227636250Y-103471000D01*
G75*
G02*
X227855000Y-103689750I0J-218750D01*
G01*
X227855000Y-104202250D01*
G75*
G02*
X227636250Y-104421000I-218750J0D01*
G01*
X227198750Y-104421000D01*
G75*
G02*
X226980000Y-104202250I0J218750D01*
G01*
G37*
G04 #@! TD.AperFunction*
D26*
X191893400Y-98904200D03*
X196393400Y-98904200D03*
X196393400Y-106854200D03*
X191893400Y-106854200D03*
G04 #@! TA.AperFunction,SMDPad,CuDef*
G36*
G01*
X220782200Y-108672650D02*
X220782200Y-108160150D01*
G75*
G02*
X221000950Y-107941400I218750J0D01*
G01*
X221438450Y-107941400D01*
G75*
G02*
X221657200Y-108160150I0J-218750D01*
G01*
X221657200Y-108672650D01*
G75*
G02*
X221438450Y-108891400I-218750J0D01*
G01*
X221000950Y-108891400D01*
G75*
G02*
X220782200Y-108672650I0J218750D01*
G01*
G37*
G04 #@! TD.AperFunction*
G04 #@! TA.AperFunction,SMDPad,CuDef*
G36*
G01*
X222357200Y-108672650D02*
X222357200Y-108160150D01*
G75*
G02*
X222575950Y-107941400I218750J0D01*
G01*
X223013450Y-107941400D01*
G75*
G02*
X223232200Y-108160150I0J-218750D01*
G01*
X223232200Y-108672650D01*
G75*
G02*
X223013450Y-108891400I-218750J0D01*
G01*
X222575950Y-108891400D01*
G75*
G02*
X222357200Y-108672650I0J218750D01*
G01*
G37*
G04 #@! TD.AperFunction*
G04 #@! TA.AperFunction,SMDPad,CuDef*
G36*
G01*
X202456250Y-102625000D02*
X201943750Y-102625000D01*
G75*
G02*
X201725000Y-102406250I0J218750D01*
G01*
X201725000Y-101968750D01*
G75*
G02*
X201943750Y-101750000I218750J0D01*
G01*
X202456250Y-101750000D01*
G75*
G02*
X202675000Y-101968750I0J-218750D01*
G01*
X202675000Y-102406250D01*
G75*
G02*
X202456250Y-102625000I-218750J0D01*
G01*
G37*
G04 #@! TD.AperFunction*
G04 #@! TA.AperFunction,SMDPad,CuDef*
G36*
G01*
X202456250Y-101050000D02*
X201943750Y-101050000D01*
G75*
G02*
X201725000Y-100831250I0J218750D01*
G01*
X201725000Y-100393750D01*
G75*
G02*
X201943750Y-100175000I218750J0D01*
G01*
X202456250Y-100175000D01*
G75*
G02*
X202675000Y-100393750I0J-218750D01*
G01*
X202675000Y-100831250D01*
G75*
G02*
X202456250Y-101050000I-218750J0D01*
G01*
G37*
G04 #@! TD.AperFunction*
D27*
X214182900Y-119628798D03*
X214182900Y-120128800D03*
X214182900Y-120628799D03*
D28*
X215582900Y-121203799D03*
D29*
X214670400Y-121903800D03*
D30*
X215582900Y-123053798D03*
D29*
X216495400Y-121903800D03*
D27*
X216982900Y-120628799D03*
X216982900Y-120128800D03*
X216982900Y-119628798D03*
D31*
X216332901Y-119103798D03*
X215832900Y-119103798D03*
X215332900Y-119103798D03*
X214832899Y-119103798D03*
X201851599Y-119147600D03*
X202351600Y-119147600D03*
X202851600Y-119147600D03*
X203351601Y-119147600D03*
D27*
X204001600Y-119672600D03*
X204001600Y-120172602D03*
X204001600Y-120672601D03*
D29*
X203514100Y-121947602D03*
D30*
X202601600Y-123097600D03*
D29*
X201689100Y-121947602D03*
D28*
X202601600Y-121247601D03*
D27*
X201201600Y-120672601D03*
X201201600Y-120172602D03*
X201201600Y-119672600D03*
X226754000Y-119542199D03*
X226754000Y-120042201D03*
X226754000Y-120542200D03*
D28*
X228154000Y-121117200D03*
D29*
X227241500Y-121817201D03*
D30*
X228154000Y-122967199D03*
D29*
X229066500Y-121817201D03*
D27*
X229554000Y-120542200D03*
X229554000Y-120042201D03*
X229554000Y-119542199D03*
D31*
X228904001Y-119017199D03*
X228404000Y-119017199D03*
X227904000Y-119017199D03*
X227403999Y-119017199D03*
D32*
X214300000Y-104900000D03*
X202200000Y-99200000D03*
X209400000Y-110000000D03*
X222820050Y-108441750D03*
X214100000Y-106900000D03*
X205500000Y-97900000D03*
X211100000Y-106500000D03*
X202000000Y-100700000D03*
X215900000Y-104800000D03*
X200120400Y-105827200D03*
X222540600Y-100900000D03*
X222500000Y-99600000D03*
X222500000Y-97100000D03*
X227493600Y-97646800D03*
X227493600Y-103920600D03*
X226655400Y-102066400D03*
X211339200Y-110067400D03*
X209500000Y-106500000D03*
X206691000Y-110270600D03*
X199045600Y-110270600D03*
X191857400Y-98815200D03*
X191857400Y-106790800D03*
X234834200Y-99907400D03*
X235012000Y-98027800D03*
X237501200Y-99577200D03*
X237501200Y-100567800D03*
X237475800Y-102091800D03*
X237501200Y-102980800D03*
X235012000Y-104733400D03*
X202200000Y-97500000D03*
X231532200Y-99170800D03*
X221245200Y-108441800D03*
X213777600Y-110219800D03*
X221346800Y-110194400D03*
X216622400Y-121218000D03*
X215479400Y-121218000D03*
X214336400Y-121218000D03*
X201327399Y-121247601D03*
X202601600Y-121247601D03*
X203740399Y-121247601D03*
X233183200Y-120176600D03*
X233183200Y-118957400D03*
X226781600Y-121117200D03*
X228154000Y-121117200D03*
X229651800Y-121117200D03*
X197100000Y-123300000D03*
X222400000Y-123200000D03*
X210900000Y-123200000D03*
X208300000Y-123200000D03*
X233208600Y-110118200D03*
X222870800Y-118144600D03*
X224547200Y-118144600D03*
X206200000Y-117500000D03*
X199071000Y-115706200D03*
X232776800Y-117687400D03*
X233665800Y-117687400D03*
X219111600Y-118170000D03*
X233132400Y-111642200D03*
X229322400Y-114258400D03*
X232040200Y-115960200D03*
X235316800Y-114233000D03*
X238161600Y-114029800D03*
X236637600Y-114182200D03*
X235113600Y-115096600D03*
X236586800Y-115071200D03*
X238110800Y-114995000D03*
X238187000Y-113140800D03*
X236688400Y-113217000D03*
X235443800Y-113318600D03*
X233665800Y-123681800D03*
X225918800Y-115934800D03*
X206200000Y-118900000D03*
X209281800Y-118170000D03*
X210856600Y-118170000D03*
X203084200Y-123326200D03*
X201941200Y-123377000D03*
X201382400Y-122869000D03*
X202525400Y-122996000D03*
X203719200Y-122818200D03*
X216190600Y-123250000D03*
X214895200Y-123275400D03*
X214336400Y-122767400D03*
X215530200Y-122894400D03*
X216774800Y-122716600D03*
X226731600Y-122894400D03*
X229576400Y-122945200D03*
X213752200Y-115680800D03*
X221372200Y-115630000D03*
X201788800Y-117738200D03*
X204151000Y-118830400D03*
X213955400Y-118551000D03*
X216343000Y-118373200D03*
X229144600Y-118093800D03*
X226706200Y-118398600D03*
X199756800Y-118195400D03*
X228103200Y-122843600D03*
X207800000Y-117500000D03*
X220457800Y-117814400D03*
X222616800Y-115630000D03*
X197400000Y-118000000D03*
X217700000Y-97200000D03*
X219000000Y-97200000D03*
X205200000Y-101800000D03*
X216012800Y-98459600D03*
X211400000Y-104200000D03*
X213800000Y-101800000D03*
X230633002Y-101615001D03*
X213800000Y-101000000D03*
X230633002Y-99165001D03*
X217714600Y-117865200D03*
X217435200Y-118881200D03*
X238034600Y-119389200D03*
X235316800Y-119389200D03*
X235266000Y-121319600D03*
X238110800Y-121319600D03*
X236612200Y-121319600D03*
X236561400Y-119389200D03*
X236485200Y-117763600D03*
X237882200Y-117814400D03*
X235215200Y-117763600D03*
X195540400Y-123224600D03*
X209078600Y-125129600D03*
X221372200Y-125100000D03*
X205200000Y-100200000D03*
X200171200Y-104074600D03*
D33*
X222947000Y-108568700D02*
X222820050Y-108441750D01*
X222642200Y-108568900D02*
X222794700Y-108416400D01*
X225705400Y-99778400D02*
X225705400Y-100171600D01*
X225639400Y-97443700D02*
X225867900Y-97672200D01*
X209688100Y-110067400D02*
X209688100Y-110067400D01*
X222820050Y-108441750D02*
X222794700Y-108416400D01*
X222543600Y-108165300D02*
X222820050Y-108441750D01*
X222642200Y-110238248D02*
X222642200Y-108568900D01*
X221143700Y-106765400D02*
X221067400Y-106765400D01*
X222820050Y-108441750D02*
X221143700Y-106765400D01*
X225705400Y-97834700D02*
X225867900Y-97672200D01*
X225705400Y-99778400D02*
X225705400Y-97834700D01*
X229000100Y-94540000D02*
X229530000Y-94540000D01*
X225867900Y-97672200D02*
X229000100Y-94540000D01*
X202512501Y-99400001D02*
X202200000Y-99087500D01*
X204026450Y-99400001D02*
X202512501Y-99400001D01*
X208224648Y-110000000D02*
X207935600Y-110289048D01*
X209400000Y-110000000D02*
X208224648Y-110000000D01*
X214112501Y-104999999D02*
X214312500Y-104800000D01*
X212573550Y-104999999D02*
X214112501Y-104999999D01*
X210299999Y-105533698D02*
X210299999Y-106473550D01*
X210833698Y-104999999D02*
X210299999Y-105533698D01*
X212573550Y-104999999D02*
X210833698Y-104999999D01*
X225705400Y-100198400D02*
X225705400Y-99778400D01*
X223763800Y-102140000D02*
X225705400Y-100198400D01*
X222535000Y-102140000D02*
X223763800Y-102140000D01*
X222820050Y-102425050D02*
X222535000Y-102140000D01*
X222820050Y-108441750D02*
X222820050Y-102425050D01*
X220372050Y-105993750D02*
X215506250Y-105993750D01*
X222820050Y-108441750D02*
X220372050Y-105993750D01*
X215506250Y-105993750D02*
X214312500Y-104800000D01*
X212525000Y-105048549D02*
X212573550Y-104999999D01*
X212525000Y-106900000D02*
X212525000Y-105048549D01*
D34*
X202601600Y-121247601D02*
X202601600Y-121247601D01*
X202601600Y-121247601D02*
X203740399Y-121247601D01*
X202601600Y-121247601D02*
X201327399Y-121247601D01*
D33*
X228154000Y-121117200D02*
X228154000Y-121117200D01*
X228154000Y-121117200D02*
X229651800Y-121117200D01*
X231008700Y-115833300D02*
X231090200Y-115914800D01*
X229119200Y-115833300D02*
X231008700Y-115833300D01*
X233183200Y-118957400D02*
X233183200Y-120176600D01*
X233183200Y-118957400D02*
X232268800Y-118957400D01*
X232268800Y-118957400D02*
X231110620Y-117799220D01*
X231090200Y-115914800D02*
X231090200Y-116864400D01*
X231110620Y-116884820D02*
X231090200Y-116864400D01*
X231110620Y-117799220D02*
X231110620Y-116884820D01*
X228154000Y-121117200D02*
X226781600Y-121117200D01*
D34*
X227403999Y-119017199D02*
X227403999Y-118461399D01*
X228904001Y-118970801D02*
X228916000Y-118958802D01*
X228904001Y-119017199D02*
X228904001Y-118970801D01*
X228916000Y-118322400D02*
X229144600Y-118093800D01*
X228916000Y-118958802D02*
X228916000Y-118322400D01*
X214768200Y-118551000D02*
X213955400Y-118551000D01*
X214832899Y-118615699D02*
X214768200Y-118551000D01*
X214832899Y-119103798D02*
X214832899Y-118615699D01*
X226768999Y-118461399D02*
X226706200Y-118398600D01*
X227403999Y-118461399D02*
X226768999Y-118461399D01*
X199731400Y-118220800D02*
X199756800Y-118195400D01*
X203833800Y-119147600D02*
X204151000Y-118830400D01*
X203351601Y-119147600D02*
X203833800Y-119147600D01*
X201776600Y-117814400D02*
X201776600Y-118207600D01*
X199756800Y-118195400D02*
X199756800Y-118195400D01*
X201851599Y-117800999D02*
X201788800Y-117738200D01*
X201851599Y-119147600D02*
X201851599Y-117800999D01*
X216332901Y-118383299D02*
X216343000Y-118373200D01*
X216332901Y-119103798D02*
X216332901Y-118383299D01*
X206665600Y-117034400D02*
X206200000Y-117500000D01*
X206665600Y-115738552D02*
X206665600Y-117034400D01*
D33*
X231044800Y-113369400D02*
X231090200Y-113414800D01*
X231090200Y-113414800D02*
X231156600Y-113414800D01*
X196595000Y-120481400D02*
X196683400Y-120481400D01*
X196683400Y-120481400D02*
X197369200Y-119795600D01*
X230032600Y-111642200D02*
X230008200Y-111666600D01*
X231557500Y-111642200D02*
X230032600Y-111642200D01*
X231090200Y-113414800D02*
X230942600Y-113414800D01*
X230867000Y-113191600D02*
X231090200Y-113414800D01*
X228890600Y-113191600D02*
X230867000Y-113191600D01*
X229017600Y-113191600D02*
X228890600Y-113191600D01*
X228890600Y-113191600D02*
X228230200Y-113191600D01*
X207707000Y-118157800D02*
X207707000Y-118157800D01*
X220915000Y-118271600D02*
X220457800Y-117814400D01*
X220915000Y-118970600D02*
X220915000Y-118271600D01*
X224318500Y-115884000D02*
X224394800Y-115884000D01*
X224394800Y-115884000D02*
X224877400Y-115401400D01*
X224877400Y-115401400D02*
X224877400Y-114868000D01*
X224877400Y-114868000D02*
X225360000Y-114385400D01*
X226553800Y-113191600D02*
X228230200Y-113191600D01*
X225360000Y-114385400D02*
X226553800Y-113191600D01*
X222838448Y-115884000D02*
X222642200Y-115687752D01*
X224318500Y-115884000D02*
X222838448Y-115884000D01*
X207707000Y-117580500D02*
X207787500Y-117500000D01*
X207707000Y-118950000D02*
X207707000Y-117580500D01*
X207787500Y-117500000D02*
X207787500Y-115886652D01*
X197400000Y-119676400D02*
X196595000Y-120481400D01*
X197400000Y-118000000D02*
X197400000Y-119676400D01*
X231090200Y-112109500D02*
X231557500Y-111642200D01*
X231090200Y-113414800D02*
X231090200Y-112109500D01*
D34*
X196393400Y-106854200D02*
X196393400Y-98904200D01*
X196393400Y-98904200D02*
X196393400Y-99160200D01*
X196393400Y-99160200D02*
X197318500Y-100085300D01*
X197318500Y-100085300D02*
X197318500Y-100118500D01*
X199387500Y-102187500D02*
X202000000Y-102187500D01*
X197318500Y-100118500D02*
X199387500Y-102187500D01*
X202587499Y-101800001D02*
X204026450Y-101800001D01*
X202200000Y-102187500D02*
X202587499Y-101800001D01*
X205199999Y-101800001D02*
X205200000Y-101800000D01*
X204026450Y-101800001D02*
X205199999Y-101800001D01*
X230059000Y-110067400D02*
X230008200Y-110016600D01*
X231557500Y-110067400D02*
X230059000Y-110067400D01*
X198494700Y-104188300D02*
X198457200Y-104150800D01*
X198494700Y-105801800D02*
X198494700Y-104188300D01*
X229279800Y-103742800D02*
X227605400Y-102068400D01*
X230681800Y-103742800D02*
X229279800Y-103742800D01*
X229713799Y-121817201D02*
X229724198Y-121827600D01*
X229066500Y-121817201D02*
X229713799Y-121817201D01*
D33*
X229914600Y-126544000D02*
X229706200Y-126544000D01*
X230668600Y-125790000D02*
X229914600Y-126544000D01*
D34*
X225446599Y-121817201D02*
X225156800Y-122107000D01*
X201236998Y-121947602D02*
X201230000Y-121954600D01*
X201689100Y-121947602D02*
X201236998Y-121947602D01*
D33*
X199934600Y-125936200D02*
X199276000Y-126594800D01*
D34*
X199038602Y-121947602D02*
X198944000Y-121853000D01*
X205243200Y-126592000D02*
X205246000Y-126594800D01*
X212509600Y-90636400D02*
X211160000Y-91986000D01*
X216600000Y-91200000D02*
X216036400Y-90636400D01*
X216600000Y-94700000D02*
X216600000Y-91200000D01*
X215177200Y-96122800D02*
X216600000Y-94700000D01*
X210377200Y-96122800D02*
X215177200Y-96122800D01*
X216036400Y-90636400D02*
X212509600Y-90636400D01*
X209500000Y-97000000D02*
X210377200Y-96122800D01*
X209500000Y-97926450D02*
X209500000Y-97000000D01*
X208699999Y-95716001D02*
X209890000Y-94526000D01*
X208699999Y-97926450D02*
X208699999Y-95716001D01*
X226804200Y-94725800D02*
X226990000Y-94540000D01*
X222083400Y-94725800D02*
X226804200Y-94725800D01*
X220559400Y-96249800D02*
X222083400Y-94725800D01*
X220559400Y-96249800D02*
X220559400Y-102640600D01*
X219800000Y-103400000D02*
X212573550Y-103400000D01*
X220559400Y-102640600D02*
X219800000Y-103400000D01*
X213054000Y-104263200D02*
X213041000Y-104276200D01*
X228074200Y-92185800D02*
X228260000Y-92000000D01*
X220617098Y-92185800D02*
X228074200Y-92185800D01*
X216012800Y-96790098D02*
X220617098Y-92185800D01*
X216012800Y-98459600D02*
X216012800Y-96790098D01*
X211400001Y-104200001D02*
X211400000Y-104200000D01*
X212573550Y-104200001D02*
X211400001Y-104200001D01*
X199960000Y-91900000D02*
X199960000Y-91340000D01*
X200917600Y-90382400D02*
X203382400Y-90382400D01*
X199960000Y-91340000D02*
X200917600Y-90382400D01*
X207900001Y-97926450D02*
X207900001Y-96900001D01*
X207900001Y-96900001D02*
X205600000Y-94600000D01*
X205600000Y-94600000D02*
X205600000Y-92600000D01*
X205150000Y-92150000D02*
X203382400Y-90382400D01*
X205600000Y-92600000D02*
X205150000Y-92150000D01*
X198791600Y-94548000D02*
X198791600Y-94776600D01*
X198690000Y-95490000D02*
X198690000Y-94440000D01*
X199442500Y-96242500D02*
X198690000Y-95490000D01*
X206295500Y-96242500D02*
X205457500Y-96242500D01*
X207100000Y-97047000D02*
X206295500Y-96242500D01*
X207100000Y-97926450D02*
X207100000Y-97047000D01*
X205457500Y-96242500D02*
X199442500Y-96242500D01*
X220102200Y-114756902D02*
X220102200Y-115687752D01*
X218759268Y-113413970D02*
X220102200Y-114756902D01*
X195743600Y-113420200D02*
X195749830Y-113413970D01*
X190384200Y-115299800D02*
X192263800Y-113420200D01*
X190384200Y-118043000D02*
X190384200Y-115299800D01*
X195749830Y-113413970D02*
X218759268Y-113413970D01*
X192263800Y-113420200D02*
X195743600Y-113420200D01*
X191705000Y-119363800D02*
X190384200Y-118043000D01*
X217347902Y-102240000D02*
X218473600Y-102240000D01*
X216572700Y-101464798D02*
X217347902Y-102240000D01*
X217247902Y-102140000D02*
X216572700Y-101464798D01*
X218465000Y-102140000D02*
X217247902Y-102140000D01*
X212573550Y-100200001D02*
X215307903Y-100200001D01*
X215453951Y-100346049D02*
X216572700Y-101464798D01*
X215307903Y-100200001D02*
X215453951Y-100346049D01*
X215371102Y-100263200D02*
X215453951Y-100346049D01*
X218473600Y-100970000D02*
X216643600Y-100970000D01*
X216643600Y-100970000D02*
X216286800Y-100613200D01*
X216543600Y-100870000D02*
X216236800Y-100563200D01*
X216236800Y-100563200D02*
X215136800Y-99463200D01*
X218465000Y-100870000D02*
X216543600Y-100870000D01*
X216286800Y-100613200D02*
X216236800Y-100563200D01*
X215073601Y-99400001D02*
X216543600Y-100870000D01*
X212573550Y-99400001D02*
X215073601Y-99400001D01*
X200096202Y-120172602D02*
X199731400Y-119807800D01*
X201201600Y-120172602D02*
X200096202Y-120172602D01*
X215832900Y-118447300D02*
X215832900Y-119103798D01*
X215403200Y-118017600D02*
X215832900Y-118447300D01*
X213711798Y-118017600D02*
X215403200Y-118017600D01*
X212009998Y-119719400D02*
X213711798Y-118017600D01*
X210907400Y-119719400D02*
X212009998Y-119719400D01*
X228404000Y-119017199D02*
X228404000Y-118369200D01*
X224521800Y-119794600D02*
X225259400Y-119794600D01*
X225259400Y-119794600D02*
X225969600Y-119084400D01*
X225969600Y-119084400D02*
X225969600Y-117992200D01*
X225969600Y-117992200D02*
X226147400Y-117814400D01*
X227849200Y-117814400D02*
X228179400Y-118144600D01*
X226147400Y-117814400D02*
X227849200Y-117814400D01*
X228404000Y-118369200D02*
X228179400Y-118144600D01*
X204316801Y-120672601D02*
X204328800Y-120684600D01*
X204001600Y-120672601D02*
X204316801Y-120672601D01*
X204074201Y-120600000D02*
X204001600Y-120672601D01*
X206200000Y-120600000D02*
X204074201Y-120600000D01*
X214155600Y-120128800D02*
X214152600Y-120125800D01*
X214182900Y-120128800D02*
X214155600Y-120128800D01*
X209307200Y-120303600D02*
X209307200Y-119770200D01*
X211542400Y-120786200D02*
X209789800Y-120786200D01*
X212174400Y-120154200D02*
X211542400Y-120786200D01*
X209789800Y-120786200D02*
X209307200Y-120303600D01*
X212174400Y-120128800D02*
X212174400Y-120154200D01*
X214182900Y-120128800D02*
X212174400Y-120128800D01*
X226754000Y-120042201D02*
X226078599Y-120042201D01*
X226078599Y-120042201D02*
X225334600Y-120786200D01*
X225334600Y-120786200D02*
X223175600Y-120786200D01*
X222870800Y-120481400D02*
X222870800Y-119794600D01*
X223175600Y-120786200D02*
X222870800Y-120481400D01*
X203426600Y-117814400D02*
X203287400Y-117814400D01*
X202851600Y-118250200D02*
X202851600Y-119147600D01*
X203287400Y-117814400D02*
X202851600Y-118250200D01*
X202914600Y-118250200D02*
X203426600Y-117738200D01*
X202851600Y-118250200D02*
X202914600Y-118250200D01*
X218303801Y-120628799D02*
X219111600Y-119821000D01*
X216982900Y-120628799D02*
X218303801Y-120628799D01*
X233144600Y-121485200D02*
X233716600Y-122057200D01*
X232201600Y-120542200D02*
X233144600Y-121485200D01*
X229554000Y-120542200D02*
X232201600Y-120542200D01*
X205294000Y-110289048D02*
X205344800Y-110238248D01*
X205344800Y-109930546D02*
X205344800Y-110238248D01*
X204026450Y-104999999D02*
X203100001Y-104999999D01*
X203100001Y-104999999D02*
X202650010Y-105449990D01*
X202650010Y-105449990D02*
X202650010Y-107650010D01*
X202650010Y-107650010D02*
X203700000Y-108700000D01*
X205395600Y-109358198D02*
X205395600Y-110289048D01*
X204737402Y-108700000D02*
X205395600Y-109358198D01*
X203700000Y-108700000D02*
X204737402Y-108700000D01*
X202855600Y-109358198D02*
X201935610Y-108438208D01*
X202855600Y-110289048D02*
X202855600Y-109358198D01*
X203147000Y-103400000D02*
X204026450Y-103400000D01*
X201935610Y-104611390D02*
X203147000Y-103400000D01*
X201935610Y-108438208D02*
X201935610Y-104611390D01*
X217562200Y-110238248D02*
X217562200Y-110397600D01*
X217562200Y-110238248D02*
X217562200Y-109356200D01*
X206299999Y-106473550D02*
X206299999Y-107556589D01*
X216762590Y-108556590D02*
X217562200Y-109356200D01*
X207300000Y-108556590D02*
X216762590Y-108556590D01*
X206299999Y-107556589D02*
X207300000Y-108556590D01*
X220102200Y-109307398D02*
X220102200Y-110238248D01*
X218651372Y-107856570D02*
X220102200Y-109307398D01*
X208403571Y-107856570D02*
X218651372Y-107856570D01*
X207900001Y-107353000D02*
X208403571Y-107856570D01*
X207900001Y-106473550D02*
X207900001Y-107353000D01*
X204227200Y-110187448D02*
X204125600Y-110289048D01*
X204125600Y-110289048D02*
X204125600Y-109625600D01*
X202300000Y-107800000D02*
X202300000Y-104741988D01*
X204125600Y-109625600D02*
X202300000Y-107800000D01*
X202841989Y-104199999D02*
X204026450Y-104199999D01*
X202300000Y-104741988D02*
X202841989Y-104199999D01*
X201585600Y-110289048D02*
X201585600Y-108594200D01*
X203446599Y-102599999D02*
X204026450Y-102599999D01*
X201585600Y-104460998D02*
X203446599Y-102599999D01*
X201585600Y-108594200D02*
X201585600Y-104460998D01*
X205500001Y-108200001D02*
X205500001Y-106473550D01*
X215893400Y-108906600D02*
X206206600Y-108906600D01*
X206206600Y-108906600D02*
X205500001Y-108200001D01*
X216292200Y-109305400D02*
X215893400Y-108906600D01*
X216292200Y-110238248D02*
X216292200Y-109305400D01*
X231354400Y-100491600D02*
X232827600Y-100491600D01*
X230633002Y-101212998D02*
X231354400Y-100491600D01*
X230633002Y-101615001D02*
X230633002Y-101212998D01*
X234775400Y-101878200D02*
X233549200Y-101878200D01*
X233322900Y-101651900D02*
X233322900Y-100986900D01*
X233549200Y-101878200D02*
X233322900Y-101651900D01*
X232827600Y-100491600D02*
X233322900Y-100986900D01*
X230633002Y-101615001D02*
X230633002Y-101615001D01*
X230633002Y-101615001D02*
X230633002Y-101573602D01*
X213799999Y-101800001D02*
X213800000Y-101800000D01*
X212573550Y-101800001D02*
X213799999Y-101800001D01*
X232853000Y-97773800D02*
X233475889Y-98396689D01*
X231249203Y-97773800D02*
X232853000Y-97773800D01*
X230633002Y-98390001D02*
X231249203Y-97773800D01*
X230633002Y-99165001D02*
X230633002Y-99165001D01*
X234775400Y-101228200D02*
X233799110Y-101228200D01*
X233722910Y-100650310D02*
X233475889Y-100403289D01*
X233722910Y-101152000D02*
X233722910Y-100650310D01*
X233799110Y-101228200D02*
X233722910Y-101152000D01*
X233475889Y-98396689D02*
X233475889Y-100403289D01*
X230633002Y-99165001D02*
X230633002Y-98390001D01*
X212573550Y-101000000D02*
X213800000Y-101000000D01*
X204176600Y-119672600D02*
X204001600Y-119672600D01*
X204760600Y-119088600D02*
X204176600Y-119672600D01*
X204125600Y-115738552D02*
X204125600Y-116493600D01*
X204760600Y-117128600D02*
X204760600Y-117585800D01*
X204125600Y-116493600D02*
X204760600Y-117128600D01*
X204760600Y-117585800D02*
X204760600Y-119088600D01*
X204760600Y-117274101D02*
X204760600Y-117585800D01*
X205395600Y-116696800D02*
X205395600Y-115738552D01*
X205167000Y-116925400D02*
X205395600Y-116696800D01*
X205167000Y-119465400D02*
X205167000Y-116925400D01*
X204405000Y-120227400D02*
X205167000Y-119465400D01*
X204024000Y-120227400D02*
X204405000Y-120227400D01*
X204001600Y-120205000D02*
X204024000Y-120227400D01*
X204001600Y-120172602D02*
X204001600Y-120205000D01*
X202855600Y-114969600D02*
X202855600Y-115738552D01*
X203211200Y-114614000D02*
X202855600Y-114969600D01*
X212228200Y-116576699D02*
X212228200Y-115223600D01*
X215612790Y-117617590D02*
X213269091Y-117617590D01*
X215843399Y-117848199D02*
X215612790Y-117617590D01*
X212228200Y-115223600D02*
X211618600Y-114614000D01*
X217105201Y-117848199D02*
X215843399Y-117848199D01*
X217951050Y-118694048D02*
X217105201Y-117848199D01*
X217951050Y-119625650D02*
X217951050Y-118694048D01*
X217447900Y-120128800D02*
X217951050Y-119625650D01*
X211618600Y-114614000D02*
X203211200Y-114614000D01*
X213269091Y-117617590D02*
X212228200Y-116576699D01*
X216982900Y-120128800D02*
X217447900Y-120128800D01*
X211784290Y-114213990D02*
X202179312Y-114213990D01*
X212628210Y-116411010D02*
X212628210Y-115057911D01*
X201585600Y-114807702D02*
X201585600Y-115738552D01*
X213434780Y-117217580D02*
X212628210Y-116411010D01*
X202179312Y-114213990D02*
X201585600Y-114807702D01*
X212628210Y-115057911D02*
X211784290Y-114213990D01*
X216982900Y-119333500D02*
X217435200Y-118881200D01*
X216982900Y-119628798D02*
X216982900Y-119333500D01*
X215757768Y-117267580D02*
X215988377Y-117498189D01*
X213459380Y-117267580D02*
X215757768Y-117267580D01*
X213434780Y-117242980D02*
X213459380Y-117267580D01*
X213434780Y-117217580D02*
X213434780Y-117242980D01*
X217617190Y-117865200D02*
X217714600Y-117865200D01*
X217250179Y-117498189D02*
X217617190Y-117865200D01*
X215988377Y-117498189D02*
X217250179Y-117498189D01*
X230560610Y-119801990D02*
X230320399Y-120042201D01*
X229727801Y-116848201D02*
X230560610Y-117681010D01*
X230320399Y-120042201D02*
X229554000Y-120042201D01*
X230560610Y-117681010D02*
X230560610Y-119801990D01*
X217562200Y-116618602D02*
X217562200Y-115687752D01*
X217791799Y-116848201D02*
X217562200Y-116618602D01*
X229727801Y-116848201D02*
X217791799Y-116848201D01*
X216292200Y-116045222D02*
X216292200Y-115687752D01*
X217495189Y-117248211D02*
X216292200Y-116045222D01*
X230084400Y-117770498D02*
X229562113Y-117248211D01*
X229562113Y-117248211D02*
X217495189Y-117248211D01*
X230084400Y-119338400D02*
X230084400Y-117770498D01*
X229880601Y-119542199D02*
X230084400Y-119338400D01*
X229554000Y-119542199D02*
X229880601Y-119542199D01*
X232735000Y-101817000D02*
X232533001Y-101615001D01*
X232533001Y-103541599D02*
X232331800Y-103742800D01*
X232533001Y-101615001D02*
X232533001Y-103541599D01*
X232533001Y-101615001D02*
X232533001Y-102000401D01*
X233060800Y-102528200D02*
X234775400Y-102528200D01*
X232533001Y-102000401D02*
X233060800Y-102528200D01*
X225705400Y-103808900D02*
X225842500Y-103946000D01*
X225705400Y-102068400D02*
X225705400Y-103808900D01*
X225842500Y-103946000D02*
X225842500Y-104352300D01*
X231353590Y-104721010D02*
X232331800Y-103742800D01*
X226211210Y-104721010D02*
X231353590Y-104721010D01*
X225842500Y-104352300D02*
X226211210Y-104721010D01*
X212741201Y-120628799D02*
X212050400Y-121319600D01*
X214182900Y-120628799D02*
X212741201Y-120628799D01*
X199625968Y-120672601D02*
X199641799Y-120672601D01*
X198436201Y-120672601D02*
X198245000Y-120481400D01*
X199819599Y-120672601D02*
X198436201Y-120672601D01*
X199641799Y-120672601D02*
X199819599Y-120672601D01*
X199819599Y-120672601D02*
X201201600Y-120672601D01*
X208977000Y-121319600D02*
X210094600Y-121319600D01*
X212050400Y-121319600D02*
X210094600Y-121319600D01*
X221480610Y-121186210D02*
X220915000Y-120620600D01*
X225500289Y-121186210D02*
X221480610Y-121186210D01*
X226144298Y-120542200D02*
X225500289Y-121186210D01*
X226754000Y-120542200D02*
X226144298Y-120542200D01*
X198245000Y-120481400D02*
X198245000Y-120494600D01*
X209078600Y-121421200D02*
X208977000Y-121319600D01*
X209078600Y-125129600D02*
X209078600Y-121421200D01*
X221397600Y-121103200D02*
X220915000Y-120620600D01*
X221397600Y-125129600D02*
X221397600Y-121103200D01*
X198245000Y-120494600D02*
X195870600Y-122869000D01*
X195870600Y-122869000D02*
X195794400Y-122945200D01*
X218832200Y-114756902D02*
X218832200Y-115687752D01*
X217889278Y-113813980D02*
X218832200Y-114756902D01*
X196365820Y-113813980D02*
X217889278Y-113813980D01*
X195515000Y-114664800D02*
X196365820Y-113813980D01*
X195515000Y-123275400D02*
X195515000Y-114664800D01*
X195870600Y-122919800D02*
X195515000Y-123275400D01*
X195870600Y-122869000D02*
X195870600Y-122919800D01*
X208257400Y-120600000D02*
X208977000Y-121319600D01*
X207707000Y-120600000D02*
X208257400Y-120600000D01*
X207100000Y-106473550D02*
X207100000Y-107600000D01*
X207100000Y-107600000D02*
X207706580Y-108206580D01*
X218832200Y-109307398D02*
X218832200Y-110238248D01*
X217731382Y-108206580D02*
X218832200Y-109307398D01*
X207706580Y-108206580D02*
X217731382Y-108206580D01*
X205199999Y-100199999D02*
X205200000Y-100200000D01*
X204026450Y-100199999D02*
X205199999Y-100199999D01*
D35*
X200814636Y-121822541D02*
X200851600Y-121826182D01*
X202190934Y-121826182D01*
X202283547Y-121826427D01*
X202282662Y-122069018D01*
X200851600Y-122069018D01*
X200787497Y-122075332D01*
X200725857Y-122094030D01*
X200669050Y-122124394D01*
X200619257Y-122165257D01*
X200578394Y-122215050D01*
X200548030Y-122271857D01*
X200529332Y-122333497D01*
X200523018Y-122397600D01*
X200523018Y-123797600D01*
X200529332Y-123861703D01*
X200548030Y-123923343D01*
X200578394Y-123980150D01*
X200619257Y-124029943D01*
X200669050Y-124070806D01*
X200725857Y-124101170D01*
X200787497Y-124119868D01*
X200851600Y-124126182D01*
X202275154Y-124126182D01*
X202259160Y-128508488D01*
X197851341Y-128532509D01*
X197827159Y-121814638D01*
X200814636Y-121822541D01*
G04 #@! TA.AperFunction,Conductor*
D36*
G36*
X200814636Y-121822541D02*
G01*
X200851600Y-121826182D01*
X202190934Y-121826182D01*
X202283547Y-121826427D01*
X202282662Y-122069018D01*
X200851600Y-122069018D01*
X200787497Y-122075332D01*
X200725857Y-122094030D01*
X200669050Y-122124394D01*
X200619257Y-122165257D01*
X200578394Y-122215050D01*
X200548030Y-122271857D01*
X200529332Y-122333497D01*
X200523018Y-122397600D01*
X200523018Y-123797600D01*
X200529332Y-123861703D01*
X200548030Y-123923343D01*
X200578394Y-123980150D01*
X200619257Y-124029943D01*
X200669050Y-124070806D01*
X200725857Y-124101170D01*
X200787497Y-124119868D01*
X200851600Y-124126182D01*
X202275154Y-124126182D01*
X202259160Y-128508488D01*
X197851341Y-128532509D01*
X197827159Y-121814638D01*
X200814636Y-121822541D01*
G37*
G04 #@! TD.AperFunction*
D35*
X206665600Y-128534028D02*
X203033400Y-128557768D01*
X203033400Y-124126182D01*
X204351600Y-124126182D01*
X204415703Y-124119868D01*
X204477343Y-124101170D01*
X204534150Y-124070806D01*
X204583943Y-124029943D01*
X204624806Y-123980150D01*
X204655170Y-123923343D01*
X204673868Y-123861703D01*
X204680182Y-123797600D01*
X204680182Y-122397600D01*
X204673868Y-122333497D01*
X204655170Y-122271857D01*
X204624806Y-122215050D01*
X204583943Y-122165257D01*
X204534150Y-122124394D01*
X204477343Y-122094030D01*
X204415703Y-122075332D01*
X204351600Y-122069018D01*
X203033400Y-122069018D01*
X203033400Y-121827000D01*
X206665600Y-121827000D01*
X206665600Y-128534028D01*
G04 #@! TA.AperFunction,Conductor*
D36*
G36*
X206665600Y-128534028D02*
G01*
X203033400Y-128557768D01*
X203033400Y-124126182D01*
X204351600Y-124126182D01*
X204415703Y-124119868D01*
X204477343Y-124101170D01*
X204534150Y-124070806D01*
X204583943Y-124029943D01*
X204624806Y-123980150D01*
X204655170Y-123923343D01*
X204673868Y-123861703D01*
X204680182Y-123797600D01*
X204680182Y-122397600D01*
X204673868Y-122333497D01*
X204655170Y-122271857D01*
X204624806Y-122215050D01*
X204583943Y-122165257D01*
X204534150Y-122124394D01*
X204477343Y-122094030D01*
X204415703Y-122075332D01*
X204351600Y-122069018D01*
X203033400Y-122069018D01*
X203033400Y-121827000D01*
X206665600Y-121827000D01*
X206665600Y-128534028D01*
G37*
G04 #@! TD.AperFunction*
D35*
X220457800Y-121826297D02*
X220457800Y-128660540D01*
X215974247Y-128672560D01*
X215957912Y-124082380D01*
X217332900Y-124082380D01*
X217397003Y-124076066D01*
X217458643Y-124057368D01*
X217515450Y-124027004D01*
X217565243Y-123986141D01*
X217606106Y-123936348D01*
X217636470Y-123879541D01*
X217655168Y-123817901D01*
X217661482Y-123753798D01*
X217661482Y-122353798D01*
X217655168Y-122289695D01*
X217636470Y-122228055D01*
X217606106Y-122171248D01*
X217565243Y-122121455D01*
X217515450Y-122080592D01*
X217458643Y-122050228D01*
X217397003Y-122031530D01*
X217332900Y-122025216D01*
X215950591Y-122025216D01*
X215949727Y-121782380D01*
X216197844Y-121782380D01*
X220457800Y-121826297D01*
G04 #@! TA.AperFunction,Conductor*
D36*
G36*
X220457800Y-121826297D02*
G01*
X220457800Y-128660540D01*
X215974247Y-128672560D01*
X215957912Y-124082380D01*
X217332900Y-124082380D01*
X217397003Y-124076066D01*
X217458643Y-124057368D01*
X217515450Y-124027004D01*
X217565243Y-123986141D01*
X217606106Y-123936348D01*
X217636470Y-123879541D01*
X217655168Y-123817901D01*
X217661482Y-123753798D01*
X217661482Y-122353798D01*
X217655168Y-122289695D01*
X217636470Y-122228055D01*
X217606106Y-122171248D01*
X217565243Y-122121455D01*
X217515450Y-122080592D01*
X217458643Y-122050228D01*
X217397003Y-122031530D01*
X217332900Y-122025216D01*
X215950591Y-122025216D01*
X215949727Y-121782380D01*
X216197844Y-121782380D01*
X220457800Y-121826297D01*
G37*
G04 #@! TD.AperFunction*
D35*
X226267572Y-121665058D02*
X226278257Y-121670769D01*
X226339897Y-121689467D01*
X226404000Y-121695781D01*
X227722200Y-121695781D01*
X227722200Y-121938617D01*
X226404000Y-121938617D01*
X226339897Y-121944931D01*
X226278257Y-121963629D01*
X226221450Y-121993993D01*
X226171657Y-122034856D01*
X226130794Y-122084649D01*
X226100430Y-122141456D01*
X226081732Y-122203096D01*
X226075418Y-122267199D01*
X226075418Y-123667199D01*
X226081732Y-123731302D01*
X226100430Y-123792942D01*
X226130794Y-123849749D01*
X226171657Y-123899542D01*
X226221450Y-123940405D01*
X226278257Y-123970769D01*
X226339897Y-123989467D01*
X226404000Y-123995781D01*
X227722200Y-123995781D01*
X227722200Y-128672533D01*
X223582000Y-128660567D01*
X223582000Y-121626249D01*
X226267572Y-121665058D01*
G04 #@! TA.AperFunction,Conductor*
D36*
G36*
X226267572Y-121665058D02*
G01*
X226278257Y-121670769D01*
X226339897Y-121689467D01*
X226404000Y-121695781D01*
X227722200Y-121695781D01*
X227722200Y-121938617D01*
X226404000Y-121938617D01*
X226339897Y-121944931D01*
X226278257Y-121963629D01*
X226221450Y-121993993D01*
X226171657Y-122034856D01*
X226130794Y-122084649D01*
X226100430Y-122141456D01*
X226081732Y-122203096D01*
X226075418Y-122267199D01*
X226075418Y-123667199D01*
X226081732Y-123731302D01*
X226100430Y-123792942D01*
X226130794Y-123849749D01*
X226171657Y-123899542D01*
X226221450Y-123940405D01*
X226278257Y-123970769D01*
X226339897Y-123989467D01*
X226404000Y-123995781D01*
X227722200Y-123995781D01*
X227722200Y-128672533D01*
X223582000Y-128660567D01*
X223582000Y-121626249D01*
X226267572Y-121665058D01*
G37*
G04 #@! TD.AperFunction*
D35*
X232421200Y-128637081D02*
X228471045Y-128708685D01*
X228454451Y-123995781D01*
X229904000Y-123995781D01*
X229968103Y-123989467D01*
X230029743Y-123970769D01*
X230086550Y-123940405D01*
X230136343Y-123899542D01*
X230177206Y-123849749D01*
X230207570Y-123792942D01*
X230226268Y-123731302D01*
X230232582Y-123667199D01*
X230232582Y-122267199D01*
X230226268Y-122203096D01*
X230207570Y-122141456D01*
X230177206Y-122084649D01*
X230136343Y-122034856D01*
X230086550Y-121993993D01*
X230029743Y-121963629D01*
X229968103Y-121944931D01*
X229904000Y-121938617D01*
X228447207Y-121938617D01*
X228446548Y-121751400D01*
X232421200Y-121751400D01*
X232421200Y-128637081D01*
G04 #@! TA.AperFunction,Conductor*
D36*
G36*
X232421200Y-128637081D02*
G01*
X228471045Y-128708685D01*
X228454451Y-123995781D01*
X229904000Y-123995781D01*
X229968103Y-123989467D01*
X230029743Y-123970769D01*
X230086550Y-123940405D01*
X230136343Y-123899542D01*
X230177206Y-123849749D01*
X230207570Y-123792942D01*
X230226268Y-123731302D01*
X230232582Y-123667199D01*
X230232582Y-122267199D01*
X230226268Y-122203096D01*
X230207570Y-122141456D01*
X230177206Y-122084649D01*
X230136343Y-122034856D01*
X230086550Y-121993993D01*
X230029743Y-121963629D01*
X229968103Y-121944931D01*
X229904000Y-121938617D01*
X228447207Y-121938617D01*
X228446548Y-121751400D01*
X232421200Y-121751400D01*
X232421200Y-128637081D01*
G37*
G04 #@! TD.AperFunction*
D35*
X213630202Y-121710469D02*
X213650350Y-121727004D01*
X213707157Y-121757368D01*
X213768797Y-121776066D01*
X213832900Y-121782380D01*
X215123800Y-121782380D01*
X215123800Y-122025216D01*
X213832900Y-122025216D01*
X213768797Y-122031530D01*
X213707157Y-122050228D01*
X213650350Y-122080592D01*
X213600557Y-122121455D01*
X213559694Y-122171248D01*
X213529330Y-122228055D01*
X213510632Y-122289695D01*
X213504318Y-122353798D01*
X213504318Y-123753798D01*
X213510632Y-123817901D01*
X213529330Y-123879541D01*
X213559694Y-123936348D01*
X213600557Y-123986141D01*
X213650350Y-124027004D01*
X213707157Y-124057368D01*
X213768797Y-124076066D01*
X213832900Y-124082380D01*
X215123800Y-124082380D01*
X215123800Y-128709261D01*
X211644000Y-128661916D01*
X211644000Y-121746600D01*
X212029433Y-121746600D01*
X212050400Y-121748665D01*
X212071367Y-121746600D01*
X212071378Y-121746600D01*
X212134107Y-121740422D01*
X212214596Y-121716005D01*
X212251277Y-121696399D01*
X213630202Y-121710469D01*
G04 #@! TA.AperFunction,Conductor*
D36*
G36*
X213630202Y-121710469D02*
G01*
X213650350Y-121727004D01*
X213707157Y-121757368D01*
X213768797Y-121776066D01*
X213832900Y-121782380D01*
X215123800Y-121782380D01*
X215123800Y-122025216D01*
X213832900Y-122025216D01*
X213768797Y-122031530D01*
X213707157Y-122050228D01*
X213650350Y-122080592D01*
X213600557Y-122121455D01*
X213559694Y-122171248D01*
X213529330Y-122228055D01*
X213510632Y-122289695D01*
X213504318Y-122353798D01*
X213504318Y-123753798D01*
X213510632Y-123817901D01*
X213529330Y-123879541D01*
X213559694Y-123936348D01*
X213600557Y-123986141D01*
X213650350Y-124027004D01*
X213707157Y-124057368D01*
X213768797Y-124076066D01*
X213832900Y-124082380D01*
X215123800Y-124082380D01*
X215123800Y-128709261D01*
X211644000Y-128661916D01*
X211644000Y-121746600D01*
X212029433Y-121746600D01*
X212050400Y-121748665D01*
X212071367Y-121746600D01*
X212071378Y-121746600D01*
X212134107Y-121740422D01*
X212214596Y-121716005D01*
X212251277Y-121696399D01*
X213630202Y-121710469D01*
G37*
G04 #@! TD.AperFunction*
M02*
