G04 #@! TF.GenerationSoftware,KiCad,Pcbnew,5.99.0+really5.1.10+dfsg1-1*
G04 #@! TF.CreationDate,2021-12-28T19:21:21+02:00*
G04 #@! TF.ProjectId,components_main_board,636f6d70-6f6e-4656-9e74-735f6d61696e,V0.1*
G04 #@! TF.SameCoordinates,Original*
G04 #@! TF.FileFunction,Paste,Top*
G04 #@! TF.FilePolarity,Positive*
%FSLAX46Y46*%
G04 Gerber Fmt 4.6, Leading zero omitted, Abs format (unit mm)*
G04 Created by KiCad (PCBNEW 5.99.0+really5.1.10+dfsg1-1) date 2021-12-28 19:21:21*
%MOMM*%
%LPD*%
G01*
G04 APERTURE LIST*
%ADD10C,0.100000*%
%ADD11R,1.900000X1.900000*%
%ADD12R,1.400000X1.600000*%
%ADD13R,1.350000X0.400000*%
%ADD14R,0.533400X1.461700*%
%ADD15R,1.358900X0.500800*%
%ADD16R,0.500800X1.358900*%
%ADD17R,0.700001X1.150000*%
%ADD18R,2.790000X0.740000*%
%ADD19R,3.000000X4.000000*%
%ADD20R,4.000000X3.000000*%
%ADD21R,0.580000X1.420000*%
%ADD22R,0.600000X1.250000*%
%ADD23R,1.300000X1.550000*%
%ADD24R,0.599999X0.249999*%
%ADD25R,0.249999X0.599999*%
G04 APERTURE END LIST*
D10*
G36*
X213882901Y-122678800D02*
G01*
X213882901Y-122528800D01*
X213932901Y-122478798D01*
X214232900Y-122478798D01*
X214232900Y-122403799D01*
X216932900Y-122403799D01*
X216932900Y-122478798D01*
X217232899Y-122478800D01*
X217282899Y-122528800D01*
X217282899Y-122678800D01*
X217232899Y-122728800D01*
X216932900Y-122728800D01*
X216932900Y-122803798D01*
X216457900Y-122803798D01*
X216457900Y-123653799D01*
X216407900Y-123703799D01*
X216257900Y-123703799D01*
X216207900Y-123653799D01*
X216207900Y-122803798D01*
X215957901Y-122803798D01*
X215957901Y-123653799D01*
X215907901Y-123703799D01*
X215757901Y-123703799D01*
X215707901Y-123653799D01*
X215707901Y-122803798D01*
X215457899Y-122803798D01*
X215457899Y-123653799D01*
X215407899Y-123703799D01*
X215257899Y-123703799D01*
X215207899Y-123653799D01*
X215207899Y-122803798D01*
X214957900Y-122803798D01*
X214957900Y-123653799D01*
X214907900Y-123703799D01*
X214757900Y-123703799D01*
X214707900Y-123653799D01*
X214707900Y-122803798D01*
X214232900Y-122803798D01*
X214232900Y-122728800D01*
X213932901Y-122728800D01*
X213882901Y-122678800D01*
G37*
X213882901Y-122678800D02*
X213882901Y-122528800D01*
X213932901Y-122478798D01*
X214232900Y-122478798D01*
X214232900Y-122403799D01*
X216932900Y-122403799D01*
X216932900Y-122478798D01*
X217232899Y-122478800D01*
X217282899Y-122528800D01*
X217282899Y-122678800D01*
X217232899Y-122728800D01*
X216932900Y-122728800D01*
X216932900Y-122803798D01*
X216457900Y-122803798D01*
X216457900Y-123653799D01*
X216407900Y-123703799D01*
X216257900Y-123703799D01*
X216207900Y-123653799D01*
X216207900Y-122803798D01*
X215957901Y-122803798D01*
X215957901Y-123653799D01*
X215907901Y-123703799D01*
X215757901Y-123703799D01*
X215707901Y-123653799D01*
X215707901Y-122803798D01*
X215457899Y-122803798D01*
X215457899Y-123653799D01*
X215407899Y-123703799D01*
X215257899Y-123703799D01*
X215207899Y-123653799D01*
X215207899Y-122803798D01*
X214957900Y-122803798D01*
X214957900Y-123653799D01*
X214907900Y-123703799D01*
X214757900Y-123703799D01*
X214707900Y-123653799D01*
X214707900Y-122803798D01*
X214232900Y-122803798D01*
X214232900Y-122728800D01*
X213932901Y-122728800D01*
X213882901Y-122678800D01*
G36*
X217282899Y-121828784D02*
G01*
X217282899Y-121978784D01*
X217232899Y-122028781D01*
X216932900Y-122028783D01*
X216932900Y-122103782D01*
X215757901Y-122103782D01*
X215707898Y-122053782D01*
X215707901Y-121753783D01*
X215757898Y-121703783D01*
X216932900Y-121703783D01*
X216932900Y-121778784D01*
X217232899Y-121778784D01*
X217282899Y-121828784D01*
G37*
X217282899Y-121828784D02*
X217282899Y-121978784D01*
X217232899Y-122028781D01*
X216932900Y-122028783D01*
X216932900Y-122103782D01*
X215757901Y-122103782D01*
X215707898Y-122053782D01*
X215707901Y-121753783D01*
X215757898Y-121703783D01*
X216932900Y-121703783D01*
X216932900Y-121778784D01*
X217232899Y-121778784D01*
X217282899Y-121828784D01*
G36*
X213882924Y-121978814D02*
G01*
X213882924Y-121828814D01*
X213932924Y-121778817D01*
X214232923Y-121778814D01*
X214232923Y-121703816D01*
X215407922Y-121703816D01*
X215457924Y-121753816D01*
X215457922Y-122053815D01*
X215407924Y-122103815D01*
X214232923Y-122103815D01*
X214232923Y-122028814D01*
X213932924Y-122028814D01*
X213882924Y-121978814D01*
G37*
X213882924Y-121978814D02*
X213882924Y-121828814D01*
X213932924Y-121778817D01*
X214232923Y-121778814D01*
X214232923Y-121703816D01*
X215407922Y-121703816D01*
X215457924Y-121753816D01*
X215457922Y-122053815D01*
X215407924Y-122103815D01*
X214232923Y-122103815D01*
X214232923Y-122028814D01*
X213932924Y-122028814D01*
X213882924Y-121978814D01*
G36*
X217282899Y-121278767D02*
G01*
X217232899Y-121328767D01*
X216932900Y-121328767D01*
X216932900Y-121403768D01*
X215757901Y-121403766D01*
X215707898Y-121353766D01*
X215707901Y-121053766D01*
X215757898Y-121003766D01*
X216932900Y-121003766D01*
X216932900Y-121078768D01*
X217232899Y-121078768D01*
X217282899Y-121128770D01*
X217282899Y-121278767D01*
G37*
X217282899Y-121278767D02*
X217232899Y-121328767D01*
X216932900Y-121328767D01*
X216932900Y-121403768D01*
X215757901Y-121403766D01*
X215707898Y-121353766D01*
X215707901Y-121053766D01*
X215757898Y-121003766D01*
X216932900Y-121003766D01*
X216932900Y-121078768D01*
X217232899Y-121078768D01*
X217282899Y-121128770D01*
X217282899Y-121278767D01*
G36*
X213882901Y-121128798D02*
G01*
X213932901Y-121078801D01*
X214232900Y-121078798D01*
X214232900Y-121003799D01*
X215407899Y-121003799D01*
X215457902Y-121053799D01*
X215457899Y-121353799D01*
X215407902Y-121403799D01*
X214232900Y-121403799D01*
X214232900Y-121328800D01*
X213932901Y-121328798D01*
X213882901Y-121278798D01*
X213882901Y-121128798D01*
G37*
X213882901Y-121128798D02*
X213932901Y-121078801D01*
X214232900Y-121078798D01*
X214232900Y-121003799D01*
X215407899Y-121003799D01*
X215457902Y-121053799D01*
X215457899Y-121353799D01*
X215407902Y-121403799D01*
X214232900Y-121403799D01*
X214232900Y-121328800D01*
X213932901Y-121328798D01*
X213882901Y-121278798D01*
X213882901Y-121128798D01*
G36*
X200901601Y-121172600D02*
G01*
X200951601Y-121122603D01*
X201251600Y-121122600D01*
X201251600Y-121047601D01*
X202426599Y-121047601D01*
X202476602Y-121097601D01*
X202476599Y-121397601D01*
X202426602Y-121447601D01*
X201251600Y-121447601D01*
X201251600Y-121372602D01*
X200951601Y-121372600D01*
X200901601Y-121322600D01*
X200901601Y-121172600D01*
G37*
X200901601Y-121172600D02*
X200951601Y-121122603D01*
X201251600Y-121122600D01*
X201251600Y-121047601D01*
X202426599Y-121047601D01*
X202476602Y-121097601D01*
X202476599Y-121397601D01*
X202426602Y-121447601D01*
X201251600Y-121447601D01*
X201251600Y-121372602D01*
X200951601Y-121372600D01*
X200901601Y-121322600D01*
X200901601Y-121172600D01*
G36*
X204301599Y-121322569D02*
G01*
X204251599Y-121372569D01*
X203951600Y-121372569D01*
X203951600Y-121447570D01*
X202776601Y-121447568D01*
X202726598Y-121397568D01*
X202726601Y-121097568D01*
X202776598Y-121047568D01*
X203951600Y-121047568D01*
X203951600Y-121122570D01*
X204251599Y-121122570D01*
X204301599Y-121172572D01*
X204301599Y-121322569D01*
G37*
X204301599Y-121322569D02*
X204251599Y-121372569D01*
X203951600Y-121372569D01*
X203951600Y-121447570D01*
X202776601Y-121447568D01*
X202726598Y-121397568D01*
X202726601Y-121097568D01*
X202776598Y-121047568D01*
X203951600Y-121047568D01*
X203951600Y-121122570D01*
X204251599Y-121122570D01*
X204301599Y-121172572D01*
X204301599Y-121322569D01*
G36*
X200901624Y-122022616D02*
G01*
X200901624Y-121872616D01*
X200951624Y-121822619D01*
X201251623Y-121822616D01*
X201251623Y-121747618D01*
X202426622Y-121747618D01*
X202476624Y-121797618D01*
X202476622Y-122097617D01*
X202426624Y-122147617D01*
X201251623Y-122147617D01*
X201251623Y-122072616D01*
X200951624Y-122072616D01*
X200901624Y-122022616D01*
G37*
X200901624Y-122022616D02*
X200901624Y-121872616D01*
X200951624Y-121822619D01*
X201251623Y-121822616D01*
X201251623Y-121747618D01*
X202426622Y-121747618D01*
X202476624Y-121797618D01*
X202476622Y-122097617D01*
X202426624Y-122147617D01*
X201251623Y-122147617D01*
X201251623Y-122072616D01*
X200951624Y-122072616D01*
X200901624Y-122022616D01*
G36*
X204301599Y-121872586D02*
G01*
X204301599Y-122022586D01*
X204251599Y-122072583D01*
X203951600Y-122072585D01*
X203951600Y-122147584D01*
X202776601Y-122147584D01*
X202726598Y-122097584D01*
X202726601Y-121797585D01*
X202776598Y-121747585D01*
X203951600Y-121747585D01*
X203951600Y-121822586D01*
X204251599Y-121822586D01*
X204301599Y-121872586D01*
G37*
X204301599Y-121872586D02*
X204301599Y-122022586D01*
X204251599Y-122072583D01*
X203951600Y-122072585D01*
X203951600Y-122147584D01*
X202776601Y-122147584D01*
X202726598Y-122097584D01*
X202726601Y-121797585D01*
X202776598Y-121747585D01*
X203951600Y-121747585D01*
X203951600Y-121822586D01*
X204251599Y-121822586D01*
X204301599Y-121872586D01*
G36*
X200901601Y-122722602D02*
G01*
X200901601Y-122572602D01*
X200951601Y-122522600D01*
X201251600Y-122522600D01*
X201251600Y-122447601D01*
X203951600Y-122447601D01*
X203951600Y-122522600D01*
X204251599Y-122522602D01*
X204301599Y-122572602D01*
X204301599Y-122722602D01*
X204251599Y-122772602D01*
X203951600Y-122772602D01*
X203951600Y-122847600D01*
X203476600Y-122847600D01*
X203476600Y-123697601D01*
X203426600Y-123747601D01*
X203276600Y-123747601D01*
X203226600Y-123697601D01*
X203226600Y-122847600D01*
X202976601Y-122847600D01*
X202976601Y-123697601D01*
X202926601Y-123747601D01*
X202776601Y-123747601D01*
X202726601Y-123697601D01*
X202726601Y-122847600D01*
X202476599Y-122847600D01*
X202476599Y-123697601D01*
X202426599Y-123747601D01*
X202276599Y-123747601D01*
X202226599Y-123697601D01*
X202226599Y-122847600D01*
X201976600Y-122847600D01*
X201976600Y-123697601D01*
X201926600Y-123747601D01*
X201776600Y-123747601D01*
X201726600Y-123697601D01*
X201726600Y-122847600D01*
X201251600Y-122847600D01*
X201251600Y-122772602D01*
X200951601Y-122772602D01*
X200901601Y-122722602D01*
G37*
X200901601Y-122722602D02*
X200901601Y-122572602D01*
X200951601Y-122522600D01*
X201251600Y-122522600D01*
X201251600Y-122447601D01*
X203951600Y-122447601D01*
X203951600Y-122522600D01*
X204251599Y-122522602D01*
X204301599Y-122572602D01*
X204301599Y-122722602D01*
X204251599Y-122772602D01*
X203951600Y-122772602D01*
X203951600Y-122847600D01*
X203476600Y-122847600D01*
X203476600Y-123697601D01*
X203426600Y-123747601D01*
X203276600Y-123747601D01*
X203226600Y-123697601D01*
X203226600Y-122847600D01*
X202976601Y-122847600D01*
X202976601Y-123697601D01*
X202926601Y-123747601D01*
X202776601Y-123747601D01*
X202726601Y-123697601D01*
X202726601Y-122847600D01*
X202476599Y-122847600D01*
X202476599Y-123697601D01*
X202426599Y-123747601D01*
X202276599Y-123747601D01*
X202226599Y-123697601D01*
X202226599Y-122847600D01*
X201976600Y-122847600D01*
X201976600Y-123697601D01*
X201926600Y-123747601D01*
X201776600Y-123747601D01*
X201726600Y-123697601D01*
X201726600Y-122847600D01*
X201251600Y-122847600D01*
X201251600Y-122772602D01*
X200951601Y-122772602D01*
X200901601Y-122722602D01*
G36*
X226454001Y-122592201D02*
G01*
X226454001Y-122442201D01*
X226504001Y-122392199D01*
X226804000Y-122392199D01*
X226804000Y-122317200D01*
X229504000Y-122317200D01*
X229504000Y-122392199D01*
X229803999Y-122392201D01*
X229853999Y-122442201D01*
X229853999Y-122592201D01*
X229803999Y-122642201D01*
X229504000Y-122642201D01*
X229504000Y-122717199D01*
X229029000Y-122717199D01*
X229029000Y-123567200D01*
X228979000Y-123617200D01*
X228829000Y-123617200D01*
X228779000Y-123567200D01*
X228779000Y-122717199D01*
X228529001Y-122717199D01*
X228529001Y-123567200D01*
X228479001Y-123617200D01*
X228329001Y-123617200D01*
X228279001Y-123567200D01*
X228279001Y-122717199D01*
X228028999Y-122717199D01*
X228028999Y-123567200D01*
X227978999Y-123617200D01*
X227828999Y-123617200D01*
X227778999Y-123567200D01*
X227778999Y-122717199D01*
X227529000Y-122717199D01*
X227529000Y-123567200D01*
X227479000Y-123617200D01*
X227329000Y-123617200D01*
X227279000Y-123567200D01*
X227279000Y-122717199D01*
X226804000Y-122717199D01*
X226804000Y-122642201D01*
X226504001Y-122642201D01*
X226454001Y-122592201D01*
G37*
X226454001Y-122592201D02*
X226454001Y-122442201D01*
X226504001Y-122392199D01*
X226804000Y-122392199D01*
X226804000Y-122317200D01*
X229504000Y-122317200D01*
X229504000Y-122392199D01*
X229803999Y-122392201D01*
X229853999Y-122442201D01*
X229853999Y-122592201D01*
X229803999Y-122642201D01*
X229504000Y-122642201D01*
X229504000Y-122717199D01*
X229029000Y-122717199D01*
X229029000Y-123567200D01*
X228979000Y-123617200D01*
X228829000Y-123617200D01*
X228779000Y-123567200D01*
X228779000Y-122717199D01*
X228529001Y-122717199D01*
X228529001Y-123567200D01*
X228479001Y-123617200D01*
X228329001Y-123617200D01*
X228279001Y-123567200D01*
X228279001Y-122717199D01*
X228028999Y-122717199D01*
X228028999Y-123567200D01*
X227978999Y-123617200D01*
X227828999Y-123617200D01*
X227778999Y-123567200D01*
X227778999Y-122717199D01*
X227529000Y-122717199D01*
X227529000Y-123567200D01*
X227479000Y-123617200D01*
X227329000Y-123617200D01*
X227279000Y-123567200D01*
X227279000Y-122717199D01*
X226804000Y-122717199D01*
X226804000Y-122642201D01*
X226504001Y-122642201D01*
X226454001Y-122592201D01*
G36*
X229853999Y-121742185D02*
G01*
X229853999Y-121892185D01*
X229803999Y-121942182D01*
X229504000Y-121942184D01*
X229504000Y-122017183D01*
X228329001Y-122017183D01*
X228278998Y-121967183D01*
X228279001Y-121667184D01*
X228328998Y-121617184D01*
X229504000Y-121617184D01*
X229504000Y-121692185D01*
X229803999Y-121692185D01*
X229853999Y-121742185D01*
G37*
X229853999Y-121742185D02*
X229853999Y-121892185D01*
X229803999Y-121942182D01*
X229504000Y-121942184D01*
X229504000Y-122017183D01*
X228329001Y-122017183D01*
X228278998Y-121967183D01*
X228279001Y-121667184D01*
X228328998Y-121617184D01*
X229504000Y-121617184D01*
X229504000Y-121692185D01*
X229803999Y-121692185D01*
X229853999Y-121742185D01*
G36*
X226454024Y-121892215D02*
G01*
X226454024Y-121742215D01*
X226504024Y-121692218D01*
X226804023Y-121692215D01*
X226804023Y-121617217D01*
X227979022Y-121617217D01*
X228029024Y-121667217D01*
X228029022Y-121967216D01*
X227979024Y-122017216D01*
X226804023Y-122017216D01*
X226804023Y-121942215D01*
X226504024Y-121942215D01*
X226454024Y-121892215D01*
G37*
X226454024Y-121892215D02*
X226454024Y-121742215D01*
X226504024Y-121692218D01*
X226804023Y-121692215D01*
X226804023Y-121617217D01*
X227979022Y-121617217D01*
X228029024Y-121667217D01*
X228029022Y-121967216D01*
X227979024Y-122017216D01*
X226804023Y-122017216D01*
X226804023Y-121942215D01*
X226504024Y-121942215D01*
X226454024Y-121892215D01*
G36*
X229853999Y-121192168D02*
G01*
X229803999Y-121242168D01*
X229504000Y-121242168D01*
X229504000Y-121317169D01*
X228329001Y-121317167D01*
X228278998Y-121267167D01*
X228279001Y-120967167D01*
X228328998Y-120917167D01*
X229504000Y-120917167D01*
X229504000Y-120992169D01*
X229803999Y-120992169D01*
X229853999Y-121042171D01*
X229853999Y-121192168D01*
G37*
X229853999Y-121192168D02*
X229803999Y-121242168D01*
X229504000Y-121242168D01*
X229504000Y-121317169D01*
X228329001Y-121317167D01*
X228278998Y-121267167D01*
X228279001Y-120967167D01*
X228328998Y-120917167D01*
X229504000Y-120917167D01*
X229504000Y-120992169D01*
X229803999Y-120992169D01*
X229853999Y-121042171D01*
X229853999Y-121192168D01*
G36*
X226454001Y-121042199D02*
G01*
X226504001Y-120992202D01*
X226804000Y-120992199D01*
X226804000Y-120917200D01*
X227978999Y-120917200D01*
X228029002Y-120967200D01*
X228028999Y-121267200D01*
X227979002Y-121317200D01*
X226804000Y-121317200D01*
X226804000Y-121242201D01*
X226504001Y-121242199D01*
X226454001Y-121192199D01*
X226454001Y-121042199D01*
G37*
X226454001Y-121042199D02*
X226504001Y-120992202D01*
X226804000Y-120992199D01*
X226804000Y-120917200D01*
X227978999Y-120917200D01*
X228029002Y-120967200D01*
X228028999Y-121267200D01*
X227979002Y-121317200D01*
X226804000Y-121317200D01*
X226804000Y-121242201D01*
X226504001Y-121242199D01*
X226454001Y-121192199D01*
X226454001Y-121042199D01*
G36*
G01*
X213625000Y-107150000D02*
X213625000Y-106650000D01*
G75*
G02*
X213850000Y-106425000I225000J0D01*
G01*
X214300000Y-106425000D01*
G75*
G02*
X214525000Y-106650000I0J-225000D01*
G01*
X214525000Y-107150000D01*
G75*
G02*
X214300000Y-107375000I-225000J0D01*
G01*
X213850000Y-107375000D01*
G75*
G02*
X213625000Y-107150000I0J225000D01*
G01*
G37*
G36*
G01*
X212075000Y-107150000D02*
X212075000Y-106650000D01*
G75*
G02*
X212300000Y-106425000I225000J0D01*
G01*
X212750000Y-106425000D01*
G75*
G02*
X212975000Y-106650000I0J-225000D01*
G01*
X212975000Y-107150000D01*
G75*
G02*
X212750000Y-107375000I-225000J0D01*
G01*
X212300000Y-107375000D01*
G75*
G02*
X212075000Y-107150000I0J225000D01*
G01*
G37*
D11*
X237501200Y-100009000D03*
X237501200Y-102409000D03*
D12*
X235051200Y-98009000D03*
X235051200Y-104409000D03*
D13*
X234826200Y-99909000D03*
X234826200Y-100559000D03*
X234826200Y-101209000D03*
X234826200Y-101859000D03*
X234826200Y-102509000D03*
D14*
X207935600Y-110289048D03*
X206665600Y-110289048D03*
X205395600Y-110289048D03*
X204125600Y-110289048D03*
X202855600Y-110289048D03*
X201585600Y-110289048D03*
X200315600Y-110289048D03*
X199045600Y-110289048D03*
X199045600Y-115738552D03*
X200315600Y-115738552D03*
X201585600Y-115738552D03*
X202855600Y-115738552D03*
X204125600Y-115738552D03*
X205395600Y-115738552D03*
X206665600Y-115738552D03*
X207935600Y-115738552D03*
D15*
X204026450Y-99400001D03*
X204026450Y-100199999D03*
X204026450Y-101000000D03*
X204026450Y-101800001D03*
X204026450Y-102599999D03*
X204026450Y-103400000D03*
X204026450Y-104199999D03*
X204026450Y-104999999D03*
D16*
X205500001Y-106473550D03*
X206299999Y-106473550D03*
X207100000Y-106473550D03*
X207900001Y-106473550D03*
X208699999Y-106473550D03*
X209500000Y-106473550D03*
X210299999Y-106473550D03*
X211099999Y-106473550D03*
D15*
X212573550Y-104999999D03*
X212573550Y-104200001D03*
X212573550Y-103400000D03*
X212573550Y-102599999D03*
X212573550Y-101800001D03*
X212573550Y-101000000D03*
X212573550Y-100200001D03*
X212573550Y-99400001D03*
D16*
X211099999Y-97926450D03*
X210300001Y-97926450D03*
X209500000Y-97926450D03*
X208699999Y-97926450D03*
X207900001Y-97926450D03*
X207100000Y-97926450D03*
X206300001Y-97926450D03*
X205500001Y-97926450D03*
D17*
X232533001Y-99165001D03*
X231583001Y-99165001D03*
X230633002Y-99165001D03*
X230633002Y-101615001D03*
X232533001Y-101615001D03*
D18*
X218465000Y-100870000D03*
X222535000Y-100870000D03*
X218465000Y-102140000D03*
X222535000Y-102140000D03*
X218465000Y-97060000D03*
X222535000Y-97060000D03*
X218465000Y-98330000D03*
X222535000Y-98330000D03*
X218465000Y-99600000D03*
X222535000Y-99600000D03*
D19*
X219035400Y-126729800D03*
X213065400Y-126729800D03*
X205246000Y-126594800D03*
X199276000Y-126594800D03*
X230973400Y-126704400D03*
X225003400Y-126704400D03*
D20*
X236620200Y-120179400D03*
X236620200Y-114209400D03*
D21*
X225705400Y-99778400D03*
X227605400Y-99778400D03*
X227605400Y-102068400D03*
X226655400Y-102068400D03*
X225705400Y-102068400D03*
G36*
G01*
X198932200Y-105545550D02*
X198932200Y-106058050D01*
G75*
G02*
X198713450Y-106276800I-218750J0D01*
G01*
X198275950Y-106276800D01*
G75*
G02*
X198057200Y-106058050I0J218750D01*
G01*
X198057200Y-105545550D01*
G75*
G02*
X198275950Y-105326800I218750J0D01*
G01*
X198713450Y-105326800D01*
G75*
G02*
X198932200Y-105545550I0J-218750D01*
G01*
G37*
G36*
G01*
X200507200Y-105545550D02*
X200507200Y-106058050D01*
G75*
G02*
X200288450Y-106276800I-218750J0D01*
G01*
X199850950Y-106276800D01*
G75*
G02*
X199632200Y-106058050I0J218750D01*
G01*
X199632200Y-105545550D01*
G75*
G02*
X199850950Y-105326800I218750J0D01*
G01*
X200288450Y-105326800D01*
G75*
G02*
X200507200Y-105545550I0J-218750D01*
G01*
G37*
G36*
G01*
X231995000Y-109811150D02*
X231995000Y-110323650D01*
G75*
G02*
X231776250Y-110542400I-218750J0D01*
G01*
X231338750Y-110542400D01*
G75*
G02*
X231120000Y-110323650I0J218750D01*
G01*
X231120000Y-109811150D01*
G75*
G02*
X231338750Y-109592400I218750J0D01*
G01*
X231776250Y-109592400D01*
G75*
G02*
X231995000Y-109811150I0J-218750D01*
G01*
G37*
G36*
G01*
X233570000Y-109811150D02*
X233570000Y-110323650D01*
G75*
G02*
X233351250Y-110542400I-218750J0D01*
G01*
X232913750Y-110542400D01*
G75*
G02*
X232695000Y-110323650I0J218750D01*
G01*
X232695000Y-109811150D01*
G75*
G02*
X232913750Y-109592400I218750J0D01*
G01*
X233351250Y-109592400D01*
G75*
G02*
X233570000Y-109811150I0J-218750D01*
G01*
G37*
G36*
G01*
X233441600Y-123307200D02*
X233991600Y-123307200D01*
G75*
G02*
X234191600Y-123507200I0J-200000D01*
G01*
X234191600Y-123907200D01*
G75*
G02*
X233991600Y-124107200I-200000J0D01*
G01*
X233441600Y-124107200D01*
G75*
G02*
X233241600Y-123907200I0J200000D01*
G01*
X233241600Y-123507200D01*
G75*
G02*
X233441600Y-123307200I200000J0D01*
G01*
G37*
G36*
G01*
X233441600Y-121657200D02*
X233991600Y-121657200D01*
G75*
G02*
X234191600Y-121857200I0J-200000D01*
G01*
X234191600Y-122257200D01*
G75*
G02*
X233991600Y-122457200I-200000J0D01*
G01*
X233441600Y-122457200D01*
G75*
G02*
X233241600Y-122257200I0J200000D01*
G01*
X233241600Y-121857200D01*
G75*
G02*
X233441600Y-121657200I200000J0D01*
G01*
G37*
G36*
G01*
X229733200Y-111266600D02*
X230283200Y-111266600D01*
G75*
G02*
X230483200Y-111466600I0J-200000D01*
G01*
X230483200Y-111866600D01*
G75*
G02*
X230283200Y-112066600I-200000J0D01*
G01*
X229733200Y-112066600D01*
G75*
G02*
X229533200Y-111866600I0J200000D01*
G01*
X229533200Y-111466600D01*
G75*
G02*
X229733200Y-111266600I200000J0D01*
G01*
G37*
G36*
G01*
X229733200Y-109616600D02*
X230283200Y-109616600D01*
G75*
G02*
X230483200Y-109816600I0J-200000D01*
G01*
X230483200Y-110216600D01*
G75*
G02*
X230283200Y-110416600I-200000J0D01*
G01*
X229733200Y-110416600D01*
G75*
G02*
X229533200Y-110216600I0J200000D01*
G01*
X229533200Y-109816600D01*
G75*
G02*
X229733200Y-109616600I200000J0D01*
G01*
G37*
G36*
G01*
X198857200Y-103875800D02*
X198857200Y-104425800D01*
G75*
G02*
X198657200Y-104625800I-200000J0D01*
G01*
X198257200Y-104625800D01*
G75*
G02*
X198057200Y-104425800I0J200000D01*
G01*
X198057200Y-103875800D01*
G75*
G02*
X198257200Y-103675800I200000J0D01*
G01*
X198657200Y-103675800D01*
G75*
G02*
X198857200Y-103875800I0J-200000D01*
G01*
G37*
G36*
G01*
X200507200Y-103875800D02*
X200507200Y-104425800D01*
G75*
G02*
X200307200Y-104625800I-200000J0D01*
G01*
X199907200Y-104625800D01*
G75*
G02*
X199707200Y-104425800I0J200000D01*
G01*
X199707200Y-103875800D01*
G75*
G02*
X199907200Y-103675800I200000J0D01*
G01*
X200307200Y-103675800D01*
G75*
G02*
X200507200Y-103875800I0J-200000D01*
G01*
G37*
G36*
G01*
X219386600Y-118571000D02*
X218836600Y-118571000D01*
G75*
G02*
X218636600Y-118371000I0J200000D01*
G01*
X218636600Y-117971000D01*
G75*
G02*
X218836600Y-117771000I200000J0D01*
G01*
X219386600Y-117771000D01*
G75*
G02*
X219586600Y-117971000I0J-200000D01*
G01*
X219586600Y-118371000D01*
G75*
G02*
X219386600Y-118571000I-200000J0D01*
G01*
G37*
G36*
G01*
X219386600Y-120221000D02*
X218836600Y-120221000D01*
G75*
G02*
X218636600Y-120021000I0J200000D01*
G01*
X218636600Y-119621000D01*
G75*
G02*
X218836600Y-119421000I200000J0D01*
G01*
X219386600Y-119421000D01*
G75*
G02*
X219586600Y-119621000I0J-200000D01*
G01*
X219586600Y-120021000D01*
G75*
G02*
X219386600Y-120221000I-200000J0D01*
G01*
G37*
G36*
G01*
X203026600Y-118013200D02*
X203026600Y-117463200D01*
G75*
G02*
X203226600Y-117263200I200000J0D01*
G01*
X203626600Y-117263200D01*
G75*
G02*
X203826600Y-117463200I0J-200000D01*
G01*
X203826600Y-118013200D01*
G75*
G02*
X203626600Y-118213200I-200000J0D01*
G01*
X203226600Y-118213200D01*
G75*
G02*
X203026600Y-118013200I0J200000D01*
G01*
G37*
G36*
G01*
X201376600Y-118013200D02*
X201376600Y-117463200D01*
G75*
G02*
X201576600Y-117263200I200000J0D01*
G01*
X201976600Y-117263200D01*
G75*
G02*
X202176600Y-117463200I0J-200000D01*
G01*
X202176600Y-118013200D01*
G75*
G02*
X201976600Y-118213200I-200000J0D01*
G01*
X201576600Y-118213200D01*
G75*
G02*
X201376600Y-118013200I0J200000D01*
G01*
G37*
G36*
G01*
X222595800Y-119394600D02*
X223145800Y-119394600D01*
G75*
G02*
X223345800Y-119594600I0J-200000D01*
G01*
X223345800Y-119994600D01*
G75*
G02*
X223145800Y-120194600I-200000J0D01*
G01*
X222595800Y-120194600D01*
G75*
G02*
X222395800Y-119994600I0J200000D01*
G01*
X222395800Y-119594600D01*
G75*
G02*
X222595800Y-119394600I200000J0D01*
G01*
G37*
G36*
G01*
X222595800Y-117744600D02*
X223145800Y-117744600D01*
G75*
G02*
X223345800Y-117944600I0J-200000D01*
G01*
X223345800Y-118344600D01*
G75*
G02*
X223145800Y-118544600I-200000J0D01*
G01*
X222595800Y-118544600D01*
G75*
G02*
X222395800Y-118344600I0J200000D01*
G01*
X222395800Y-117944600D01*
G75*
G02*
X222595800Y-117744600I200000J0D01*
G01*
G37*
G36*
G01*
X209032200Y-119370200D02*
X209582200Y-119370200D01*
G75*
G02*
X209782200Y-119570200I0J-200000D01*
G01*
X209782200Y-119970200D01*
G75*
G02*
X209582200Y-120170200I-200000J0D01*
G01*
X209032200Y-120170200D01*
G75*
G02*
X208832200Y-119970200I0J200000D01*
G01*
X208832200Y-119570200D01*
G75*
G02*
X209032200Y-119370200I200000J0D01*
G01*
G37*
G36*
G01*
X209032200Y-117720200D02*
X209582200Y-117720200D01*
G75*
G02*
X209782200Y-117920200I0J-200000D01*
G01*
X209782200Y-118320200D01*
G75*
G02*
X209582200Y-118520200I-200000J0D01*
G01*
X209032200Y-118520200D01*
G75*
G02*
X208832200Y-118320200I0J200000D01*
G01*
X208832200Y-117920200D01*
G75*
G02*
X209032200Y-117720200I200000J0D01*
G01*
G37*
G36*
G01*
X206475000Y-119350000D02*
X205925000Y-119350000D01*
G75*
G02*
X205725000Y-119150000I0J200000D01*
G01*
X205725000Y-118750000D01*
G75*
G02*
X205925000Y-118550000I200000J0D01*
G01*
X206475000Y-118550000D01*
G75*
G02*
X206675000Y-118750000I0J-200000D01*
G01*
X206675000Y-119150000D01*
G75*
G02*
X206475000Y-119350000I-200000J0D01*
G01*
G37*
G36*
G01*
X206475000Y-121000000D02*
X205925000Y-121000000D01*
G75*
G02*
X205725000Y-120800000I0J200000D01*
G01*
X205725000Y-120400000D01*
G75*
G02*
X205925000Y-120200000I200000J0D01*
G01*
X206475000Y-120200000D01*
G75*
G02*
X206675000Y-120400000I0J-200000D01*
G01*
X206675000Y-120800000D01*
G75*
G02*
X206475000Y-121000000I-200000J0D01*
G01*
G37*
G36*
G01*
X224246800Y-119394600D02*
X224796800Y-119394600D01*
G75*
G02*
X224996800Y-119594600I0J-200000D01*
G01*
X224996800Y-119994600D01*
G75*
G02*
X224796800Y-120194600I-200000J0D01*
G01*
X224246800Y-120194600D01*
G75*
G02*
X224046800Y-119994600I0J200000D01*
G01*
X224046800Y-119594600D01*
G75*
G02*
X224246800Y-119394600I200000J0D01*
G01*
G37*
G36*
G01*
X224246800Y-117744600D02*
X224796800Y-117744600D01*
G75*
G02*
X224996800Y-117944600I0J-200000D01*
G01*
X224996800Y-118344600D01*
G75*
G02*
X224796800Y-118544600I-200000J0D01*
G01*
X224246800Y-118544600D01*
G75*
G02*
X224046800Y-118344600I0J200000D01*
G01*
X224046800Y-117944600D01*
G75*
G02*
X224246800Y-117744600I200000J0D01*
G01*
G37*
G36*
G01*
X210632400Y-119319400D02*
X211182400Y-119319400D01*
G75*
G02*
X211382400Y-119519400I0J-200000D01*
G01*
X211382400Y-119919400D01*
G75*
G02*
X211182400Y-120119400I-200000J0D01*
G01*
X210632400Y-120119400D01*
G75*
G02*
X210432400Y-119919400I0J200000D01*
G01*
X210432400Y-119519400D01*
G75*
G02*
X210632400Y-119319400I200000J0D01*
G01*
G37*
G36*
G01*
X210632400Y-117669400D02*
X211182400Y-117669400D01*
G75*
G02*
X211382400Y-117869400I0J-200000D01*
G01*
X211382400Y-118269400D01*
G75*
G02*
X211182400Y-118469400I-200000J0D01*
G01*
X210632400Y-118469400D01*
G75*
G02*
X210432400Y-118269400I0J200000D01*
G01*
X210432400Y-117869400D01*
G75*
G02*
X210632400Y-117669400I200000J0D01*
G01*
G37*
G36*
G01*
X199456400Y-119407800D02*
X200006400Y-119407800D01*
G75*
G02*
X200206400Y-119607800I0J-200000D01*
G01*
X200206400Y-120007800D01*
G75*
G02*
X200006400Y-120207800I-200000J0D01*
G01*
X199456400Y-120207800D01*
G75*
G02*
X199256400Y-120007800I0J200000D01*
G01*
X199256400Y-119607800D01*
G75*
G02*
X199456400Y-119407800I200000J0D01*
G01*
G37*
G36*
G01*
X199456400Y-117757800D02*
X200006400Y-117757800D01*
G75*
G02*
X200206400Y-117957800I0J-200000D01*
G01*
X200206400Y-118357800D01*
G75*
G02*
X200006400Y-118557800I-200000J0D01*
G01*
X199456400Y-118557800D01*
G75*
G02*
X199256400Y-118357800I0J200000D01*
G01*
X199256400Y-117957800D01*
G75*
G02*
X199456400Y-117757800I200000J0D01*
G01*
G37*
G36*
G01*
X207432000Y-120200000D02*
X207982000Y-120200000D01*
G75*
G02*
X208182000Y-120400000I0J-200000D01*
G01*
X208182000Y-120800000D01*
G75*
G02*
X207982000Y-121000000I-200000J0D01*
G01*
X207432000Y-121000000D01*
G75*
G02*
X207232000Y-120800000I0J200000D01*
G01*
X207232000Y-120400000D01*
G75*
G02*
X207432000Y-120200000I200000J0D01*
G01*
G37*
G36*
G01*
X207432000Y-118550000D02*
X207982000Y-118550000D01*
G75*
G02*
X208182000Y-118750000I0J-200000D01*
G01*
X208182000Y-119150000D01*
G75*
G02*
X207982000Y-119350000I-200000J0D01*
G01*
X207432000Y-119350000D01*
G75*
G02*
X207232000Y-119150000I0J200000D01*
G01*
X207232000Y-118750000D01*
G75*
G02*
X207432000Y-118550000I200000J0D01*
G01*
G37*
G36*
G01*
X220513000Y-120220600D02*
X221063000Y-120220600D01*
G75*
G02*
X221263000Y-120420600I0J-200000D01*
G01*
X221263000Y-120820600D01*
G75*
G02*
X221063000Y-121020600I-200000J0D01*
G01*
X220513000Y-121020600D01*
G75*
G02*
X220313000Y-120820600I0J200000D01*
G01*
X220313000Y-120420600D01*
G75*
G02*
X220513000Y-120220600I200000J0D01*
G01*
G37*
G36*
G01*
X220513000Y-118570600D02*
X221063000Y-118570600D01*
G75*
G02*
X221263000Y-118770600I0J-200000D01*
G01*
X221263000Y-119170600D01*
G75*
G02*
X221063000Y-119370600I-200000J0D01*
G01*
X220513000Y-119370600D01*
G75*
G02*
X220313000Y-119170600I0J200000D01*
G01*
X220313000Y-118770600D01*
G75*
G02*
X220513000Y-118570600I200000J0D01*
G01*
G37*
G36*
G01*
X196995000Y-120206400D02*
X196995000Y-120756400D01*
G75*
G02*
X196795000Y-120956400I-200000J0D01*
G01*
X196395000Y-120956400D01*
G75*
G02*
X196195000Y-120756400I0J200000D01*
G01*
X196195000Y-120206400D01*
G75*
G02*
X196395000Y-120006400I200000J0D01*
G01*
X196795000Y-120006400D01*
G75*
G02*
X196995000Y-120206400I0J-200000D01*
G01*
G37*
G36*
G01*
X198645000Y-120206400D02*
X198645000Y-120756400D01*
G75*
G02*
X198445000Y-120956400I-200000J0D01*
G01*
X198045000Y-120956400D01*
G75*
G02*
X197845000Y-120756400I0J200000D01*
G01*
X197845000Y-120206400D01*
G75*
G02*
X198045000Y-120006400I200000J0D01*
G01*
X198445000Y-120006400D01*
G75*
G02*
X198645000Y-120206400I0J-200000D01*
G01*
G37*
G36*
G01*
X231931800Y-104017800D02*
X231931800Y-103467800D01*
G75*
G02*
X232131800Y-103267800I200000J0D01*
G01*
X232531800Y-103267800D01*
G75*
G02*
X232731800Y-103467800I0J-200000D01*
G01*
X232731800Y-104017800D01*
G75*
G02*
X232531800Y-104217800I-200000J0D01*
G01*
X232131800Y-104217800D01*
G75*
G02*
X231931800Y-104017800I0J200000D01*
G01*
G37*
G36*
G01*
X230281800Y-104017800D02*
X230281800Y-103467800D01*
G75*
G02*
X230481800Y-103267800I200000J0D01*
G01*
X230881800Y-103267800D01*
G75*
G02*
X231081800Y-103467800I0J-200000D01*
G01*
X231081800Y-104017800D01*
G75*
G02*
X230881800Y-104217800I-200000J0D01*
G01*
X230481800Y-104217800D01*
G75*
G02*
X230281800Y-104017800I0J200000D01*
G01*
G37*
G36*
G01*
X229578650Y-114695800D02*
X229066150Y-114695800D01*
G75*
G02*
X228847400Y-114477050I0J218750D01*
G01*
X228847400Y-114039550D01*
G75*
G02*
X229066150Y-113820800I218750J0D01*
G01*
X229578650Y-113820800D01*
G75*
G02*
X229797400Y-114039550I0J-218750D01*
G01*
X229797400Y-114477050D01*
G75*
G02*
X229578650Y-114695800I-218750J0D01*
G01*
G37*
G36*
G01*
X229578650Y-116270800D02*
X229066150Y-116270800D01*
G75*
G02*
X228847400Y-116052050I0J218750D01*
G01*
X228847400Y-115614550D01*
G75*
G02*
X229066150Y-115395800I218750J0D01*
G01*
X229578650Y-115395800D01*
G75*
G02*
X229797400Y-115614550I0J-218750D01*
G01*
X229797400Y-116052050D01*
G75*
G02*
X229578650Y-116270800I-218750J0D01*
G01*
G37*
D14*
X222642200Y-115687752D03*
X221372200Y-115687752D03*
X220102200Y-115687752D03*
X218832200Y-115687752D03*
X217562200Y-115687752D03*
X216292200Y-115687752D03*
X215022200Y-115687752D03*
X213752200Y-115687752D03*
X213752200Y-110238248D03*
X215022200Y-110238248D03*
X216292200Y-110238248D03*
X217562200Y-110238248D03*
X218832200Y-110238248D03*
X220102200Y-110238248D03*
X221372200Y-110238248D03*
X222642200Y-110238248D03*
G36*
G01*
X206650000Y-117243750D02*
X206650000Y-117756250D01*
G75*
G02*
X206431250Y-117975000I-218750J0D01*
G01*
X205993750Y-117975000D01*
G75*
G02*
X205775000Y-117756250I0J218750D01*
G01*
X205775000Y-117243750D01*
G75*
G02*
X205993750Y-117025000I218750J0D01*
G01*
X206431250Y-117025000D01*
G75*
G02*
X206650000Y-117243750I0J-218750D01*
G01*
G37*
G36*
G01*
X208225000Y-117243750D02*
X208225000Y-117756250D01*
G75*
G02*
X208006250Y-117975000I-218750J0D01*
G01*
X207568750Y-117975000D01*
G75*
G02*
X207350000Y-117756250I0J218750D01*
G01*
X207350000Y-117243750D01*
G75*
G02*
X207568750Y-117025000I218750J0D01*
G01*
X208006250Y-117025000D01*
G75*
G02*
X208225000Y-117243750I0J-218750D01*
G01*
G37*
G36*
G01*
X225456000Y-116140250D02*
X225456000Y-115627750D01*
G75*
G02*
X225674750Y-115409000I218750J0D01*
G01*
X226112250Y-115409000D01*
G75*
G02*
X226331000Y-115627750I0J-218750D01*
G01*
X226331000Y-116140250D01*
G75*
G02*
X226112250Y-116359000I-218750J0D01*
G01*
X225674750Y-116359000D01*
G75*
G02*
X225456000Y-116140250I0J218750D01*
G01*
G37*
G36*
G01*
X223881000Y-116140250D02*
X223881000Y-115627750D01*
G75*
G02*
X224099750Y-115409000I218750J0D01*
G01*
X224537250Y-115409000D01*
G75*
G02*
X224756000Y-115627750I0J-218750D01*
G01*
X224756000Y-116140250D01*
G75*
G02*
X224537250Y-116359000I-218750J0D01*
G01*
X224099750Y-116359000D01*
G75*
G02*
X223881000Y-116140250I0J218750D01*
G01*
G37*
G36*
G01*
X232695000Y-111898450D02*
X232695000Y-111385950D01*
G75*
G02*
X232913750Y-111167200I218750J0D01*
G01*
X233351250Y-111167200D01*
G75*
G02*
X233570000Y-111385950I0J-218750D01*
G01*
X233570000Y-111898450D01*
G75*
G02*
X233351250Y-112117200I-218750J0D01*
G01*
X232913750Y-112117200D01*
G75*
G02*
X232695000Y-111898450I0J218750D01*
G01*
G37*
G36*
G01*
X231120000Y-111898450D02*
X231120000Y-111385950D01*
G75*
G02*
X231338750Y-111167200I218750J0D01*
G01*
X231776250Y-111167200D01*
G75*
G02*
X231995000Y-111385950I0J-218750D01*
G01*
X231995000Y-111898450D01*
G75*
G02*
X231776250Y-112117200I-218750J0D01*
G01*
X231338750Y-112117200D01*
G75*
G02*
X231120000Y-111898450I0J218750D01*
G01*
G37*
G36*
G01*
X225430400Y-97928450D02*
X225430400Y-97415950D01*
G75*
G02*
X225649150Y-97197200I218750J0D01*
G01*
X226086650Y-97197200D01*
G75*
G02*
X226305400Y-97415950I0J-218750D01*
G01*
X226305400Y-97928450D01*
G75*
G02*
X226086650Y-98147200I-218750J0D01*
G01*
X225649150Y-98147200D01*
G75*
G02*
X225430400Y-97928450I0J218750D01*
G01*
G37*
G36*
G01*
X227005400Y-97928450D02*
X227005400Y-97415950D01*
G75*
G02*
X227224150Y-97197200I218750J0D01*
G01*
X227661650Y-97197200D01*
G75*
G02*
X227880400Y-97415950I0J-218750D01*
G01*
X227880400Y-97928450D01*
G75*
G02*
X227661650Y-98147200I-218750J0D01*
G01*
X227224150Y-98147200D01*
G75*
G02*
X227005400Y-97928450I0J218750D01*
G01*
G37*
G36*
G01*
X213875000Y-105056250D02*
X213875000Y-104543750D01*
G75*
G02*
X214093750Y-104325000I218750J0D01*
G01*
X214531250Y-104325000D01*
G75*
G02*
X214750000Y-104543750I0J-218750D01*
G01*
X214750000Y-105056250D01*
G75*
G02*
X214531250Y-105275000I-218750J0D01*
G01*
X214093750Y-105275000D01*
G75*
G02*
X213875000Y-105056250I0J218750D01*
G01*
G37*
G36*
G01*
X215450000Y-105056250D02*
X215450000Y-104543750D01*
G75*
G02*
X215668750Y-104325000I218750J0D01*
G01*
X216106250Y-104325000D01*
G75*
G02*
X216325000Y-104543750I0J-218750D01*
G01*
X216325000Y-105056250D01*
G75*
G02*
X216106250Y-105275000I-218750J0D01*
G01*
X215668750Y-105275000D01*
G75*
G02*
X215450000Y-105056250I0J218750D01*
G01*
G37*
G36*
G01*
X201943750Y-98650000D02*
X202456250Y-98650000D01*
G75*
G02*
X202675000Y-98868750I0J-218750D01*
G01*
X202675000Y-99306250D01*
G75*
G02*
X202456250Y-99525000I-218750J0D01*
G01*
X201943750Y-99525000D01*
G75*
G02*
X201725000Y-99306250I0J218750D01*
G01*
X201725000Y-98868750D01*
G75*
G02*
X201943750Y-98650000I218750J0D01*
G01*
G37*
G36*
G01*
X201943750Y-97075000D02*
X202456250Y-97075000D01*
G75*
G02*
X202675000Y-97293750I0J-218750D01*
G01*
X202675000Y-97731250D01*
G75*
G02*
X202456250Y-97950000I-218750J0D01*
G01*
X201943750Y-97950000D01*
G75*
G02*
X201725000Y-97731250I0J218750D01*
G01*
X201725000Y-97293750D01*
G75*
G02*
X201943750Y-97075000I218750J0D01*
G01*
G37*
G36*
G01*
X211425000Y-109643750D02*
X211425000Y-110156250D01*
G75*
G02*
X211206250Y-110375000I-218750J0D01*
G01*
X210768750Y-110375000D01*
G75*
G02*
X210550000Y-110156250I0J218750D01*
G01*
X210550000Y-109643750D01*
G75*
G02*
X210768750Y-109425000I218750J0D01*
G01*
X211206250Y-109425000D01*
G75*
G02*
X211425000Y-109643750I0J-218750D01*
G01*
G37*
G36*
G01*
X209850000Y-109643750D02*
X209850000Y-110156250D01*
G75*
G02*
X209631250Y-110375000I-218750J0D01*
G01*
X209193750Y-110375000D01*
G75*
G02*
X208975000Y-110156250I0J218750D01*
G01*
X208975000Y-109643750D01*
G75*
G02*
X209193750Y-109425000I218750J0D01*
G01*
X209631250Y-109425000D01*
G75*
G02*
X209850000Y-109643750I0J-218750D01*
G01*
G37*
D22*
X231090200Y-115914800D03*
X232040200Y-115914800D03*
X232990200Y-115914800D03*
X232990200Y-113414800D03*
X231090200Y-113414800D03*
G36*
G01*
X225405000Y-104202250D02*
X225405000Y-103689750D01*
G75*
G02*
X225623750Y-103471000I218750J0D01*
G01*
X226061250Y-103471000D01*
G75*
G02*
X226280000Y-103689750I0J-218750D01*
G01*
X226280000Y-104202250D01*
G75*
G02*
X226061250Y-104421000I-218750J0D01*
G01*
X225623750Y-104421000D01*
G75*
G02*
X225405000Y-104202250I0J218750D01*
G01*
G37*
G36*
G01*
X226980000Y-104202250D02*
X226980000Y-103689750D01*
G75*
G02*
X227198750Y-103471000I218750J0D01*
G01*
X227636250Y-103471000D01*
G75*
G02*
X227855000Y-103689750I0J-218750D01*
G01*
X227855000Y-104202250D01*
G75*
G02*
X227636250Y-104421000I-218750J0D01*
G01*
X227198750Y-104421000D01*
G75*
G02*
X226980000Y-104202250I0J218750D01*
G01*
G37*
D23*
X191893400Y-98904200D03*
X196393400Y-98904200D03*
X196393400Y-106854200D03*
X191893400Y-106854200D03*
G36*
G01*
X220782200Y-108672650D02*
X220782200Y-108160150D01*
G75*
G02*
X221000950Y-107941400I218750J0D01*
G01*
X221438450Y-107941400D01*
G75*
G02*
X221657200Y-108160150I0J-218750D01*
G01*
X221657200Y-108672650D01*
G75*
G02*
X221438450Y-108891400I-218750J0D01*
G01*
X221000950Y-108891400D01*
G75*
G02*
X220782200Y-108672650I0J218750D01*
G01*
G37*
G36*
G01*
X222357200Y-108672650D02*
X222357200Y-108160150D01*
G75*
G02*
X222575950Y-107941400I218750J0D01*
G01*
X223013450Y-107941400D01*
G75*
G02*
X223232200Y-108160150I0J-218750D01*
G01*
X223232200Y-108672650D01*
G75*
G02*
X223013450Y-108891400I-218750J0D01*
G01*
X222575950Y-108891400D01*
G75*
G02*
X222357200Y-108672650I0J218750D01*
G01*
G37*
G36*
G01*
X202456250Y-102625000D02*
X201943750Y-102625000D01*
G75*
G02*
X201725000Y-102406250I0J218750D01*
G01*
X201725000Y-101968750D01*
G75*
G02*
X201943750Y-101750000I218750J0D01*
G01*
X202456250Y-101750000D01*
G75*
G02*
X202675000Y-101968750I0J-218750D01*
G01*
X202675000Y-102406250D01*
G75*
G02*
X202456250Y-102625000I-218750J0D01*
G01*
G37*
G36*
G01*
X202456250Y-101050000D02*
X201943750Y-101050000D01*
G75*
G02*
X201725000Y-100831250I0J218750D01*
G01*
X201725000Y-100393750D01*
G75*
G02*
X201943750Y-100175000I218750J0D01*
G01*
X202456250Y-100175000D01*
G75*
G02*
X202675000Y-100393750I0J-218750D01*
G01*
X202675000Y-100831250D01*
G75*
G02*
X202456250Y-101050000I-218750J0D01*
G01*
G37*
D24*
X214182900Y-119628798D03*
X214182900Y-120128800D03*
X214182900Y-120628799D03*
X216982900Y-120628799D03*
X216982900Y-120128800D03*
X216982900Y-119628798D03*
D25*
X216332901Y-119103798D03*
X215832900Y-119103798D03*
X215332900Y-119103798D03*
X214832899Y-119103798D03*
X201851599Y-119147600D03*
X202351600Y-119147600D03*
X202851600Y-119147600D03*
X203351601Y-119147600D03*
D24*
X204001600Y-119672600D03*
X204001600Y-120172602D03*
X204001600Y-120672601D03*
X201201600Y-120672601D03*
X201201600Y-120172602D03*
X201201600Y-119672600D03*
X226754000Y-119542199D03*
X226754000Y-120042201D03*
X226754000Y-120542200D03*
X229554000Y-120542200D03*
X229554000Y-120042201D03*
X229554000Y-119542199D03*
D25*
X228904001Y-119017199D03*
X228404000Y-119017199D03*
X227904000Y-119017199D03*
X227403999Y-119017199D03*
M02*
