M48
; DRILL file {KiCad 5.99.0+really5.1.10+dfsg1-1} date Tue Dec 28 19:21:31 2021
; FORMAT={-:-/ absolute / metric / decimal}
; #@! TF.CreationDate,2021-12-28T19:21:31+02:00
; #@! TF.GenerationSoftware,Kicad,Pcbnew,5.99.0+really5.1.10+dfsg1-1
FMAT,2
METRIC
T1C0.200
T2C0.500
T3C0.850
T4C2.200
T5C1.550
%
G90
G05
T1
X191.857Y-98.815
X191.857Y-106.791
X195.54Y-123.225
X197.1Y-123.3
X197.4Y-118.0
X199.046Y-110.271
X199.071Y-115.706
X199.757Y-118.195
X200.12Y-105.827
X200.171Y-104.075
X201.327Y-121.248
X201.382Y-122.869
X201.789Y-117.738
X201.941Y-123.377
X202.0Y-100.7
X202.2Y-97.5
X202.2Y-99.2
X202.525Y-122.996
X202.602Y-121.248
X203.084Y-123.326
X203.719Y-122.818
X203.74Y-121.248
X204.151Y-118.83
X205.2Y-100.2
X205.2Y-101.8
X205.5Y-97.9
X206.2Y-117.5
X206.2Y-118.9
X206.691Y-110.271
X207.8Y-117.5
X208.3Y-123.2
X209.079Y-125.13
X209.282Y-118.17
X209.4Y-110.0
X209.5Y-106.5
X210.857Y-118.17
X210.9Y-123.2
X211.1Y-106.5
X211.339Y-110.067
X211.4Y-104.2
X213.752Y-115.681
X213.778Y-110.22
X213.8Y-101.0
X213.8Y-101.8
X213.955Y-118.551
X214.1Y-106.9
X214.3Y-104.9
X214.336Y-121.218
X214.336Y-122.767
X214.895Y-123.275
X215.479Y-121.218
X215.53Y-122.894
X215.9Y-104.8
X216.013Y-98.46
X216.191Y-123.25
X216.343Y-118.373
X216.622Y-121.218
X216.775Y-122.717
X217.435Y-118.881
X217.7Y-97.2
X217.715Y-117.865
X219.0Y-97.2
X219.112Y-118.17
X220.458Y-117.814
X221.245Y-108.442
X221.347Y-110.194
X221.372Y-115.63
X221.372Y-125.1
X222.4Y-123.2
X222.5Y-97.1
X222.5Y-99.6
X222.541Y-100.9
X222.617Y-115.63
X222.82Y-108.442
X222.871Y-118.145
X224.547Y-118.145
X225.919Y-115.935
X226.655Y-102.066
X226.706Y-118.399
X226.732Y-122.894
X226.782Y-121.117
X227.494Y-97.647
X227.494Y-103.921
X228.103Y-122.844
X228.154Y-121.117
X229.145Y-118.094
X229.322Y-114.258
X229.576Y-122.945
X229.652Y-121.117
X230.633Y-99.165
X230.633Y-101.615
X231.532Y-99.171
X232.04Y-115.96
X232.777Y-117.687
X233.132Y-111.642
X233.183Y-118.957
X233.183Y-120.177
X233.209Y-110.118
X233.666Y-117.687
X233.666Y-123.682
X234.834Y-99.907
X235.012Y-98.028
X235.012Y-104.733
X235.114Y-115.097
X235.215Y-117.764
X235.266Y-121.32
X235.317Y-114.233
X235.317Y-119.389
X235.444Y-113.319
X236.485Y-117.764
X236.561Y-119.389
X236.587Y-115.071
X236.612Y-121.32
X236.638Y-114.182
X236.688Y-113.217
X237.476Y-102.092
X237.501Y-99.577
X237.501Y-100.568
X237.501Y-102.981
X237.882Y-117.814
X238.035Y-119.389
X238.111Y-114.995
X238.111Y-121.32
X238.162Y-114.03
X238.187Y-113.141
T3
X191.705Y-116.824
X191.705Y-119.364
X194.245Y-118.094
X194.245Y-120.634
X198.69Y-94.44
X199.96Y-91.9
X201.23Y-94.44
X202.5Y-91.9
X209.89Y-94.526
X211.16Y-91.986
X212.43Y-94.526
X213.7Y-91.986
X226.99Y-94.54
X228.26Y-92.0
X229.53Y-94.54
X230.8Y-92.0
T4
X192.7Y-92.5
X192.8Y-126.6
X236.8Y-92.5
X236.8Y-126.6
T5
X192.445Y-122.034
X203.9Y-93.7
X215.1Y-93.786
X232.2Y-93.8
T2
G00X237.151Y-97.909
M15
G01X237.851Y-97.909
M16
G05
G00X237.151Y-104.509
M15
G01X237.851Y-104.509
M16
G05
T0
M30
