M48
; DRILL file {KiCad 5.99.0+really5.1.10+dfsg1-1} date Mon Dec 20 18:20:42 2021
; FORMAT={-:-/ absolute / metric / decimal}
; #@! TF.CreationDate,2021-12-20T18:20:42+02:00
; #@! TF.GenerationSoftware,Kicad,Pcbnew,5.99.0+really5.1.10+dfsg1-1
; #@! TF.FileFunction,Plated,1,4,PTH
FMAT,2
METRIC
T1C0.200
T2C0.500
T3C0.850
T4C2.200
%
G90
G05
T1
X192.061Y-107.426
X192.061Y-107.426
X192.111Y-106.359
X192.111Y-108.924
X192.137Y-109.915
X193.737Y-98.155
X194.55Y-104.632
X194.55Y-105.445
X194.626Y-110.956
X194.626Y-111.795
X194.804Y-109.458
X196.455Y-118.373
X197.141Y-123.072
X198.03Y-110.194
X198.157Y-118.399
X198.461Y-114.411
X198.741Y-123.148
X199.757Y-118.195
X199.782Y-116.544
X200.214Y-109.128
X200.849Y-108.188
X201.327Y-121.248
X201.332Y-94.675
X201.332Y-106.156
X201.382Y-122.869
X201.509Y-115.706
X201.56Y-110.245
X201.763Y-98.155
X201.789Y-117.738
X201.941Y-123.377
X202.525Y-122.996
X202.602Y-121.248
X203.084Y-123.326
X203.719Y-122.818
X203.74Y-121.248
X204.151Y-118.83
X205.599Y-103.641
X205.65Y-106.842
X206.005Y-118.373
X206.716Y-122.945
X206.767Y-105.267
X208.24Y-122.818
X208.444Y-99.628
X209.18Y-110.22
X209.18Y-115.655
X209.282Y-118.17
X209.815Y-122.818
X210.298Y-97.647
X210.323Y-100.365
X210.857Y-118.17
X211.212Y-122.945
X211.568Y-115.884
X211.949Y-107.527
X212.482Y-118.17
X213.854Y-98.053
X213.955Y-118.551
X214.032Y-110.169
X214.032Y-115.655
X214.336Y-121.218
X214.336Y-122.767
X214.819Y-100.161
X214.895Y-123.275
X215.479Y-121.218
X215.53Y-122.894
X216.191Y-123.25
X216.267Y-105.343
X216.47Y-118.195
X216.622Y-121.218
X216.775Y-122.717
X217.537Y-118.551
X217.562Y-117.383
X219.112Y-118.17
X219.239Y-101.203
X219.264Y-102.066
X219.493Y-106.664
X220.255Y-118.094
X220.763Y-122.92
X221.677Y-110.245
X221.702Y-115.706
X222.058Y-118.119
X222.363Y-122.894
X222.464Y-101.533
X222.49Y-97.19
X222.998Y-106.969
X222.998Y-114.385
X223.15Y-101.533
X223.201Y-97.19
X223.506Y-103.895
X223.658Y-118.068
X224.014Y-122.945
X224.827Y-110.499
X225.309Y-118.17
X226.579Y-115.757
X226.706Y-118.399
X226.782Y-121.117
X226.808Y-122.64
X226.859Y-102.447
X227.392Y-123.148
X228.078Y-122.818
X228.154Y-121.117
X228.611Y-123.174
X229.094Y-114.258
X229.145Y-118.094
X229.246Y-122.717
X229.373Y-99.171
X229.652Y-121.117
X231.608Y-111.541
X232.04Y-115.96
X232.777Y-117.687
X233.183Y-118.957
X233.183Y-120.177
X233.234Y-110.169
X233.666Y-117.687
X233.666Y-123.682
X233.793Y-101.457
X233.844Y-102.981
X235.088Y-101.533
X235.088Y-103.032
X235.114Y-115.097
X235.215Y-117.764
X235.266Y-121.32
X235.317Y-114.233
X235.317Y-119.389
X235.444Y-113.319
X236.485Y-117.764
X236.561Y-119.389
X236.587Y-115.071
X236.612Y-121.32
X236.638Y-114.182
X236.688Y-113.217
X237.603Y-103.082
X237.628Y-101.66
X237.882Y-117.814
X238.035Y-119.389
X238.111Y-114.995
X238.111Y-121.32
X238.162Y-114.03
X238.187Y-113.141
X239.152Y-109.813
T3
X191.705Y-115.96
X191.705Y-118.5
X194.245Y-117.23
X194.245Y-119.77
X198.792Y-94.548
X200.062Y-92.008
X201.332Y-94.548
X202.602Y-92.008
X210.752Y-94.526
X212.022Y-91.986
X213.292Y-94.526
X214.562Y-91.986
X223.099Y-94.726
X224.369Y-92.186
X225.639Y-94.726
X226.909Y-92.186
T4
X192.7Y-92.5
X192.8Y-126.6
X236.8Y-92.5
X236.8Y-126.6
T2
G00X192.461Y-104.837
M15
G01X191.761Y-104.837
M16
G05
G00X192.461Y-111.437
M15
G01X191.761Y-111.437
M16
G05
T0
M30
